<?xml version="1.0" encoding="utf-8" ?>
<svg baseProfile="full" height="200mm" version="1.1" viewBox="0,0,200,200" width="200mm" xmlns="http://www.w3.org/2000/svg" xmlns:ev="http://www.w3.org/2001/xml-events" xmlns:xlink="http://www.w3.org/1999/xlink"><defs /><rect fill="#1a1a1a" height="200" width="200" x="0" y="0" /><text alignment-baseline="middle" fill="#e1ed5e" style="dominant-baseline: central; font-size:9.0px; font-family:Arial;" text-anchor="middle" x="100.0" y="100.0">2022</text><line stroke="#e1ed5e" stroke-width="0.3" x1="100.0" x2="100.0" y1="15.0" y2="10.0" /><path d="M 100.0 14.0 a86.0,86.0 0 0,1 42.46469731375804,11.215312516191453" fill="none" id="id13" stroke="none" /><text fill="#e1ed5e" style="font-size:6.75px; font-family:Arial;" text-anchor="middle"><textPath startOffset="22.20632615414155" xlink:href="#id13">January</textPath></text><path d="M 100.36148047927253 79.00311137660856 l 0.126778754966467 -7.364047439574823 a28.3651386643443,28.3651386643443 0 0,0 0.488114552490393,0.012606558812624598 l -0.25351994265172784 7.360774088619839" fill="#ff2603" stroke="none" /><path d="M 100.72285384407766 79.0124445844662 l 0.468024832954455 -13.588773440101209 a34.596830912042044,34.596830912042044 0 0,0 0.5949982216266737,0.025621875035250957 l -0.7018638869704603 13.578703838541763" fill="#ff820c" stroke="none" /><path d="M 109.41281617654863 81.2277094730956 l 9.925256087317829 -19.79426638430053 a43.14325382800571,43.14325382800571 0 0,0 0.6609947357360529,0.3385871768188293 l -10.264511310642636 19.6204866821692" fill="#fff717" stroke="none" /><line stroke="#e1ed5e" stroke-width="0.3" x1="143.23703022742887" x2="145.7803849466894" y1="26.81831364943548" y2="22.513508569990506" /><path d="M 143.74570117128098 25.957352633546492 a86.0,86.0 0 0,1 28.547481713284135,27.462654790039103" fill="none" id="id14" stroke="none" /><text fill="#e1ed5e" style="font-size:6.75px; font-family:Arial;" text-anchor="middle"><textPath startOffset="19.985693538727396" xlink:href="#id14">February</textPath></text><path d="M 110.68208982089419 81.91981866633111 l 12.55704957887129 -21.25368136839524 a45.68599736359669,45.68599736359669 0 0,0 0.6736246584024066,0.40585131944970276 l -12.921036303491334 21.034383439486927" fill="#e6ff1a" stroke="none" /><path d="M 112.77801427241765 83.33499621200491 l 17.40824960017243 -22.703726834572397 a49.609550264217475,49.609550264217475 0 0,0 0.673195560880184,0.5254398133180324 l -17.796477716212042 22.40070863203114" fill="#b6ff1f" stroke="none" /><path d="M 113.34407831869373 83.78471172551755 l 5.159125072895647 -6.269200337644787 a29.11907903590709,29.11907903590709 0 0,0 0.38429206121397247,0.3218335496186635 l -5.266274671068737 6.179465630632304" fill="#ff3104" stroke="none" /><path d="M 115.9244219780498 86.31012108654704 l 3.7565505632316314 -3.229424742310336 a25.95387285871994,25.95387285871994 0 0,0 0.2883220512782921,0.3412823672571213 l -3.811583227997041 3.1642834254241086" fill="#ff0100" stroke="none" /><path d="M 116.15771136456269 86.58626213691792 l 6.948703809663748 -5.768644413060532 a30.031154023643378,30.031154023643378 0 0,0 0.3267697132899111,0.4005810308076137 l -7.046972015030068 5.648179212644817" fill="#ff3f05" stroke="none" /><path d="M 116.38621287248628 86.86637796730983 l 18.335381044301368 -14.695888936335294 a44.4979860768711,44.4979860768711 0 0,0 0.4738949051370869,0.601798404743009 l -18.58563003003242 14.378098137639247" fill="#f6ff19" stroke="none" /><path d="M 116.60985879189232 87.15038557335679 l 14.782327244147876 -11.435810972004253 a39.68943475176522,39.68943475176522 0 0,0 0.41338258567220204,0.5439630265825905 l -14.976985770044193 11.17966316954063" fill="#ffc912" stroke="none" /><path d="M 117.45458315368197 88.32363383020206 l 17.504136384583564 -11.70951515214883 a42.059618602161464,42.059618602161464 0 0,0 0.39736999267767836,0.6052217608362757 l -17.703103012619167 11.406475327334881" fill="#ffe915" stroke="none" /><path d="M 117.65298651832404 88.62581576622439 l 5.2134318581543955 -3.359121947061509 a27.201900675990345,27.201900675990345 0 0,0 0.2502217400123723,0.3957907018187321 l -5.2704811944127234 3.2688835975285704" fill="#ff1402" stroke="none" /><line stroke="#e1ed5e" stroke-width="0.3" x1="172.23445277983987" x2="176.4835382374775" y1="55.19839476539836" y2="52.563006222186495" /><path d="M 173.08426987136738 54.67131705675599 a86.0,86.0 0 0,1 12.851231095245387,41.99856678651699" fill="none" id="id15" stroke="none" /><text fill="#e1ed5e" style="font-size:6.75px; font-family:Arial;" text-anchor="middle"><textPath startOffset="22.20632615414155" xlink:href="#id15">March</textPath></text><path d="M 118.03404312379186 89.2402003453031 l 9.663828160600673 -5.7658093746211545 a32.25318321463255,32.25318321463255 0 0,0 0.28035745539843815,0.4792217704803394 l -9.761645290469438 5.59860819178692" fill="#ff6008" stroke="none" /><path d="M 118.21658344932153 89.55222093294921 l 10.231431248985118 -5.868045098934144 a32.794750471537505,32.794750471537505 0 0,0 0.27663521198829755,0.4921031743407219 l -10.330924102265847 5.691058414658628" fill="#ff6809" stroke="none" /><path d="M 118.73160827565052 90.50648371742162 l 28.3526687558651 -14.369642933343332 a52.786167803174905,52.786167803174905 0 0,0 0.4037890148638687,0.8140140144258878 l -28.595817783682378 13.879469330418495" fill="#90ff24" stroke="none" /><path d="M 118.89224826269711 90.83032412892265 l 22.50504913316568 -10.923210575274236 a46.01587027784531,46.01587027784531 0 0,0 0.33973255427717075,0.7155634019110201 l -22.68973988128461 10.534204757722675" fill="#e2ff1b" stroke="none" /><path d="M 119.47837535516314 92.15188598940014 l 12.406015201012902 -4.998559681671597 a34.37515652465406,34.37515652465406 0 0,0 0.21641035316121032,0.550740743789668 l -12.490219104055814 4.7842699329861444" fill="#ff7f0b" stroke="none" /><path d="M 120.28053869075195 94.5502522615342 l 9.508365641378276 -2.555069909175369 a30.84567922547329,30.84567922547329 0 0,0 0.1333762295059512,0.5139530198746034 l -9.55093820275453 2.3910204637519152" fill="#ff4b07" stroke="none" /><path d="M 120.67395015179393 96.31383870115 l 4.838654147915163 -0.8627310952966176 a25.91496479193171,25.91496479193171 0 0,0 0.0745217372644627,0.43983151176853125 l -4.852787746699848 0.7793137952122485" fill="#ff0000" stroke="none" /><line stroke="#e1ed5e" stroke-width="0.3" x1="184.98032266829074" x2="189.97916517819016" y1="98.17113171792111" y2="98.06355123074" /><path d="M 185.9800911702706 98.14961562048488 a86.0,86.0 0 0,1 -9.607161424134198,41.387399972396054" fill="none" id="id16" stroke="none" /><text fill="#e1ed5e" style="font-size:6.75px; font-family:Arial;" text-anchor="middle"><textPath startOffset="21.466115282336823" xlink:href="#id16">April</textPath></text><line stroke="#e1ed5e" stroke-width="0.3" x1="174.80103733775053" x2="179.2010983576182" y1="140.37084112569926" y2="142.7455964860345" /><path d="M 175.68104954172406 140.8457921977663 a86.0,86.0 0 0,1 -30.038265399797805,32.042727171017184" fill="none" id="id17" stroke="none" /><text fill="#e1ed5e" style="font-size:6.75px; font-family:Arial;" text-anchor="middle"><textPath startOffset="22.206326154141568" xlink:href="#id17">May</textPath></text><path d="M 112.92097659922987 116.55440617244103 l 7.478294353410933 9.581220216033483 a33.15420368697129,33.15420368697129 0 0,0 -0.45290421749843585,0.3472676411512188 l -7.312261407419004 -9.708527199012075" fill="#ff6d0a" stroke="none" /><path d="M 112.63410532772338 116.77436683061366 l 6.641207477404957 8.817565433759087 a32.03879961483868,32.03879961483868 0 0,0 -0.44337889037238254,0.32800110340525884 l -6.488443616614011 -8.930576485904115" fill="#ff5d08" stroke="none" /><path d="M 112.04921762599082 117.19931262002967 l 7.03265638273994 10.0385651110725 a33.25687746887171,33.25687746887171 0 0,0 -0.47168247585922807,0.32442750792642117 l -6.8588170222578295 -10.158133408364016" fill="#ff6f0a" stroke="none" /><line stroke="#e1ed5e" stroke-width="0.3" x1="143.8653032363475" x2="146.44561519142675" y1="172.8068346515853" y2="177.08958963109032" /><path d="M 144.38136562736335 173.6633856474863 a86.0,86.0 0 0,1 -40.68145358897372,12.25698825130547" fill="none" id="id18" stroke="none" /><text fill="#e1ed5e" style="font-size:6.75px; font-family:Arial;" text-anchor="middle"><textPath startOffset="21.466115282336833" xlink:href="#id18">June</textPath></text><path d="M 110.8373102113329 117.98757091392108 l 11.853628518419496 19.674437605318275 a43.96937100005679,43.96937100005679 0 0,0 -0.6516514736138377,0.38500717689696423 l -11.513209173777277 -19.875563354508987" fill="#fcff18" stroke="none" /><path d="M 110.21172684928248 118.3499491758327 l 17.870111773369082 32.11167392621872 a57.7491564139437,57.7491564139437 0 0,0 -0.8727745180769068,0.4759062557342936 l -17.31471444342353 -32.414520833712785" fill="#58ff2a" stroke="none" /><path d="M 109.89434966115114 118.52300852407294 l 15.521222950338215 29.05696229252752 a53.94260796511824,53.94260796511824 0 0,0 -0.8227765748892425,0.43043781715962914 l -15.018755472922477 -29.319829528631864" fill="#83ff25" stroke="none" /><path d="M 108.92500713936063 119.00905698771935 l 18.283875869677228 38.942180430343 a64.02084998564249,64.02084998564249 0 0,0 -1.001566578974119,0.45977009266845126 l -17.61084129493569 -39.25113759334553" fill="#33ff4e" stroke="none" /><path d="M 107.59598834532513 119.57807347666477 l 12.521471972253478 32.2731272303294 a55.617076733556786,55.617076733556786 0 0,0 -0.8955138037084006,0.3386066944923343 l -11.964087947784801 -32.48388217492837" fill="#70ff27" stroke="none" /><path d="M 107.2578585660854 119.70592522655815 l 7.986392016641587 21.68397778448362 a44.10794993073716,44.10794993073716 0 0,0 -0.714717742007281,0.25627235384455055 l -7.611954714004571 -21.81823767936813" fill="#fbff18" stroke="none" /><path d="M 106.2309692047433 120.05430185196036 l 6.575534861448783 21.163282407044843 a43.161276609312516,43.161276609312516 0 0,0 -0.7113903795042816,0.21433608572037313 l -6.210269507504255 -21.27333386187094" fill="#fff717" stroke="none" /><path d="M 105.53697534728816 120.25689768951611 l 9.661894121283273 35.347818696290595 a57.64451506837987,57.64451506837987 0 0,0 -0.9593956636140673,0.2533851145719699 l -9.052008014857709 -35.50889516016615" fill="#5aff2a" stroke="none" /><path d="M 104.83641907484287 120.43548508189849 l 10.073527101297955 42.564014742118445 a64.73981366247301,64.73981366247301 0 0,0 -1.086641897527735,0.24731615807503043 l -9.339365054377359 -42.73110763377116" fill="#33ff57" stroke="none" /><path d="M 104.13013068566511 120.58985236759428 l 4.573537245261223 22.8003576265669 a44.25453828466906,44.25453828466906 0 0,0 -0.7481806806301853,0.14339060812780288 l -4.180388950059333 -22.87570543304317" fill="#f9ff18" stroke="none" /><path d="M 103.41894727170886 120.7198165907248 l 2.7437003854363455 16.62762372399143 a37.85247051656481,37.85247051656481 0 0,0 -0.6437878543968065,0.10054642269084565 l -2.457076667431022 -16.67238845402938" fill="#ffb010" stroke="none" /><path d="M 103.06178313531738 120.77559828337769 l 4.687533170480162 31.807055492128704 a53.15061035662786,53.15061035662786 0 0,0 -0.9062720918894084,0.12560105396576357 l -4.139332487403922 -31.88303111158707" fill="#8cff24" stroke="none" /><path d="M 102.34483914955558 120.86867818915974 l 4.231812801553963 37.66242965072201 a58.899430692069515,58.899430692069515 0 0,0 -1.0084912073978909,0.10453423711855798 l -3.5828889975504703 -37.72969325629633" fill="#4cff2c" stroke="none" /><path d="M 101.62511606390274 120.93702456842531 l 2.459892639670599 31.691787298432935 a52.787111444228785,52.787111444228785 0 0,0 -0.9065237208429333,0.06251918332482473 l -1.9140061580487355 -31.729434826274044" fill="#90ff24" stroke="none" /><path d="M 101.26447882468166 120.96189622390904 l 3.3140037691503 54.93789357212901 a76.03775768619681,76.03775768619681 0 0,0 -1.3071684655143667,0.06756567865682385 l -2.3678472352224538 -54.98679905754804" fill="#42ffdb" stroke="none" /><line stroke="#e1ed5e" stroke-width="0.3" x1="102.19456741930631" x2="102.32365962044197" y1="184.97166512339345" y2="189.96999836594603" /><path d="M 102.22038585953345 185.97133177190398 a86.0,86.0 0 0,1 -42.740103519485714,-10.115201625700543" fill="none" id="id19" stroke="none" /><text fill="#e1ed5e" style="font-size:6.75px; font-family:Arial;" text-anchor="middle"><textPath startOffset="22.20632615414155" xlink:href="#id19">July</textPath></text><path d="M 100.54218724476979 120.99299961872073 l 0.7929727635678067 30.703188029262716 a51.713426395699024,51.713426395699024 0 0,0 -0.8900627082463879,0.015323236700940083 l -0.26435036542875084 -30.712288743242812" fill="#9dff22" stroke="none" /><path d="M 100.18074693466247 120.99922214144158 l 0.46506611703856937 54.03149281833317 a75.03349426671207,75.03349426671207 0 0,0 -1.2916261034020124,0.0 l 0.4650661170385321 -54.03149281833317" fill="#41ffd0" stroke="none" /><path d="M 99.09653310690486 120.98055641714683 l -1.0527221649213376 24.446603347077257 a45.469259064504705,45.469259064504705 0 0,0 -0.7816640496516344,-0.04040310288205528 l 1.473374282986461 -24.424860437433" fill="#e9ff1a" stroke="none" /><path d="M 98.73552117531835 120.96189622390904 l -2.3387126568971515 38.77000630972461 a59.840481023638425,59.840481023638425 0 0,0 -1.0276526604774185,-0.0708729441904624 l 3.0057280781534996 -38.72400502101786" fill="#42ff2d" stroke="none" /><path d="M 98.37488393609728 120.93702456842531 l -2.1828295018305903 28.12227134027422 a49.206858917115724,49.206858917115724 0 0,0 -0.8439109450042627,-0.07281618732703285 l 2.6665847645763945 -28.080530900668524" fill="#bbff1f" stroke="none" /><path d="M 98.01472825383883 120.90594882070398 l -2.048309242565853 21.569766595862344 a42.66680414258549,42.66680414258549 0 0,0 -0.7305519988898657,-0.07572470173183454 l 2.419293838061312 -21.53131252567475" fill="#fff116" stroke="none" /><path d="M 97.2962882734958 120.8252237178851 l -3.0997801794026847 23.87592400458776 a45.07630337559044,45.07630337559044 0 0,0 -0.768596926370832,-0.10652053052384933 l 3.510305696960348 -23.819028908571305" fill="#eeff19" stroke="none" /><path d="M 96.58105272829116 120.7198165907248 l -3.875155254147506 23.484569882351057 a44.80213962657091,44.80213962657091 0 0,0 -0.7598251480121933,-0.13210534147512515 l 4.2788293736317495 -23.414385962354928" fill="#f2ff19" stroke="none" /><path d="M 95.86986931433489 120.58985236759428 l -7.3164378423559056 36.47448143799568 a58.20104916358877,58.20104916358877 0 0,0 -0.9805727689450359,-0.2054885576628881 l 7.943202072730328 -36.34313689960625" fill="#54ff2b" stroke="none" /><path d="M 95.16358092515715 120.4354850818985 l -12.024391392126129 50.807067607284736 a73.21057466837766,73.21057466837766 0 0,0 -1.2238253218759951,-0.3007864885949704 l 12.897169998745333 -50.59255986037574" fill="#3fffbb" stroke="none" /><path d="M 94.81253420990036 120.34920634021253 l -11.133927233388377 43.67577383961502 a66.0725809792116,66.0725809792116 0 0,0 -1.0996665962069647,-0.29043194277242185 l 11.884084272406831 -43.477650547539014" fill="#35ff67" stroke="none" /><path d="M 94.11515582081647 120.15858648285463 l -8.410219249428566 28.809281421432008 a51.01177242088055,51.01177242088055 0 0,0 -0.8407833825250306,-0.25332113610353596 l 8.904877606393844 -28.660244916222744" fill="#a5ff21" stroke="none" /><path d="M 93.76903079525671 120.05430185196036 l -18.692907614229874 60.16290555588108 a84.0,84.0 0 0,0 -1.3771146196362385,-0.4409086133611737 l 19.725743578957054 -59.832224095860205" fill="#4dd2ff" stroke="none" /><line stroke="#e1ed5e" stroke-width="0.3" x1="58.666819895761336" x2="56.23545636021788" y1="174.27360380694188" y2="178.64263932499728" /><path d="M 58.180547188652646 175.14741091055294 a86.0,86.0 0 0,1 -31.652253787137756,-30.449443065178592" fill="none" id="id20" stroke="none" /><text fill="#e1ed5e" style="font-size:6.75px; font-family:Arial;" text-anchor="middle"><textPath startOffset="22.20632615414155" xlink:href="#id20">August</textPath></text><line stroke="#e1ed5e" stroke-width="0.3" x1="26.63291911575756" x2="22.317208475507996" y1="142.92168965132927" y2="145.44649492493687" /><path d="M 25.769776987707644 143.4266507060508 a86.0,86.0 0 0,1 -11.730757126820373,-40.83630448921669" fill="none" id="id21" stroke="none" /><text fill="#e1ed5e" style="font-size:6.75px; font-family:Arial;" text-anchor="middle"><textPath startOffset="21.46611528233685" xlink:href="#id21">September</textPath></text><line stroke="#e1ed5e" stroke-width="0.3" x1="15.007084014347285" x2="10.007500721073583" y1="101.09737516637583" y2="101.16192664675087" /><path d="M 14.007167355692545 101.11028546245083 a86.0,86.0 0 0,1 10.666146001902534,-42.60595125391555" fill="none" id="id22" stroke="none" /><text fill="#e1ed5e" style="font-size:6.75px; font-family:Arial;" text-anchor="middle"><textPath startOffset="22.20632615414155" xlink:href="#id22">October</textPath></text><line stroke="#e1ed5e" stroke-width="0.3" x1="26.266209847984243" x2="21.928928074336255" y1="57.711370442889674" y2="55.22380399835377" /><path d="M 25.398753493254645 57.213857153982495 a86.0,86.0 0 0,1 29.58750427330803,-30.492523968695096" fill="none" id="id23" stroke="none" /><text fill="#e1ed5e" style="font-size:6.75px; font-family:Arial;" text-anchor="middle"><textPath startOffset="21.46611528233685" xlink:href="#id23">November</textPath></text><line stroke="#e1ed5e" stroke-width="0.3" x1="56.762969772571076" x2="54.21961505331055" y1="26.818313649435495" y2="22.513508569990535" /><path d="M 56.25429882871897 25.957352633546506 a86.0,86.0 0 0,1 42.265352541879196,-11.944610805530505" fill="none" id="id24" stroke="none" /><text fill="#e1ed5e" style="font-size:6.75px; font-family:Arial;" text-anchor="middle"><textPath startOffset="22.20632615414155" xlink:href="#id24">December</textPath></text></svg>