<?xml version="1.0" encoding="utf-8" ?>
<svg baseProfile="full" height="200mm" version="1.1" viewBox="0,0,200,200" width="200mm" xmlns="http://www.w3.org/2000/svg" xmlns:ev="http://www.w3.org/2001/xml-events" xmlns:xlink="http://www.w3.org/1999/xlink"><defs /><rect fill="#1a1a1a" height="200" width="200" x="0" y="0" /><text alignment-baseline="middle" fill="#e1ed5e" style="dominant-baseline: central; font-size:9.0px; font-family:Arial;" text-anchor="middle" x="100.0" y="100.0">2023</text><line stroke="#e1ed5e" stroke-width="0.3" x1="100.0" x2="100.0" y1="15.0" y2="10.0" /><path d="M 100.0 14.0 a86.0,86.0 0 0,1 42.46469731375804,11.215312516191453" fill="none" id="id25" stroke="none" /><text fill="#e1ed5e" style="font-size:6.75px; font-family:Arial;" text-anchor="middle"><textPath startOffset="22.20632615414155" xlink:href="#id25">January</textPath></text><path d="M 100.0 79.0 l 0.0 -40.827069219057265 a61.827069219057265,61.827069219057265 0 0,0 1.0642513625390766,0.009160347473520231 l -0.7027708832665481 40.821020248192305" fill="#30ff32" stroke="none" /><path d="M 107.4271985657038 80.35727306442388 l 22.28159569711141 -58.92818080672834 a84.0,84.0 0 0,0 1.3480673400013319,0.5230291844378128 l -23.292646202112408 58.53590891839998" fill="#4dd2ff" stroke="none" /><line stroke="#e1ed5e" stroke-width="0.3" x1="143.23703022742887" x2="145.7803849466894" y1="26.81831364943548" y2="22.513508569990506" /><path d="M 143.74570117128098 25.957352633546492 a86.0,86.0 0 0,1 28.547481713284135,27.462654790039103" fill="none" id="id26" stroke="none" /><text fill="#e1ed5e" style="font-size:6.75px; font-family:Arial;" text-anchor="middle"><textPath startOffset="19.985693538727396" xlink:href="#id26">February</textPath></text><path d="M 115.4437574822437 85.77008943001954 l 8.581906418112004 -7.907386592290197 a32.66944216700879,32.66944216700879 0 0,0 0.3774975190167297,0.41684218905279374 l -8.71674757774477 7.758491615967855" fill="#ff6509" stroke="none" /><path d="M 116.38621287248628 86.86637796730983 l 17.89632123109767 -14.343980555720806 a43.93530230429793,43.93530230429793 0 0,0 0.4679024322965162,0.5941885727806291 l -18.14057774398815 14.033799588987138" fill="#fdff18" stroke="none" /><path d="M 117.04232023915458 87.72973835380427 l 29.405959233415945 -21.171930153172514 a57.23480460618128,57.23480460618128 0 0,0 0.5687705442524108,0.8044855989729778 l -29.766042397472237 20.662618053867742" fill="#5eff29" stroke="none" /><path d="M 117.65298651832404 88.62581576622439 l 19.666539539285424 -12.671558080468186 a44.39532349930121,44.39532349930121 0 0,0 0.4083786359904012,0.6459569297952507 l -19.881745771521782 12.33115350295873" fill="#f8ff18" stroke="none" /><line stroke="#e1ed5e" stroke-width="0.3" x1="172.23445277983987" x2="176.4835382374775" y1="55.19839476539836" y2="52.563006222186495" /><path d="M 173.08426987136738 54.67131705675599 a86.0,86.0 0 0,1 12.851231095245387,41.99856678651699" fill="none" id="id27" stroke="none" /><text fill="#e1ed5e" style="font-size:6.75px; font-family:Arial;" text-anchor="middle"><textPath startOffset="22.20632615414155" xlink:href="#id27">March</textPath></text><path d="M 118.03404312379186 89.2402003453031 l 8.282850908461288 -4.9418655446815185 a30.645084459635818,30.645084459635818 0 0,0 0.2663792234831541,0.4553284410266704 l -8.36668980641477 4.798557691300953" fill="#ff4706" stroke="none" /><path d="M 118.3937258080291 89.86733742301442 l 35.43891311539569 -19.522447623779733 a61.46038215370423,61.46038215370423 0 0,0 0.5024880873680486,0.9310341111784616 l -35.7697093019822 18.909532529268812" fill="#31ff2f" stroke="none" /><path d="M 118.73160827565052 90.50648371742162 l 18.1909687378694 -9.219510432178316 a41.39388918846002,41.39388918846002 0 0,0 0.3166435153829656,0.6383340051628459 l -18.346972266205775 8.90501683851652" fill="#ffdf14" stroke="none" /><path d="M 120.28053869075195 94.5502522615342 l 29.83467888273686 -8.01711809771558 a51.8930776490259,51.8930776490259 0 0,0 0.22438484767003622,0.8646463504126295 l -29.9682600622772 7.502375321754099" fill="#9bff22" stroke="none" /><path d="M 120.78858239683441 97.02765380044208 l 45.988208052090584 -6.575382237170966 a67.45590308461641,67.45590308461641 0 0,0 0.1544547479750098,1.1508672759372234 l -46.094578799123425 5.782796619169078" fill="#37ff78" stroke="none" /><line stroke="#e1ed5e" stroke-width="0.3" x1="184.98032266829074" x2="189.97916517819016" y1="98.17113171792111" y2="98.06355123074" /><path d="M 185.9800911702706 98.14961562048488 a86.0,86.0 0 0,1 -9.607161424134198,41.387399972396054" fill="none" id="id28" stroke="none" /><text fill="#e1ed5e" style="font-size:6.75px; font-family:Arial;" text-anchor="middle"><textPath startOffset="21.466115282336823" xlink:href="#id28">April</textPath></text><path d="M 120.99513854157772 99.54816195383933 l 16.906129757493428 -0.36383816294600724 a37.91004439929182,37.91004439929182 0 0,0 0.00842504320850392,0.6525288812220009 l -16.909887807819647 0.0727730236635436" fill="#ffb010" stroke="none" /><path d="M 120.89721153311464 102.0752229133903 l 46.374290250056205 4.6052550871022975 a67.60239447296394,67.60239447296394 0 0,0 -0.12496044602183194,1.156978534427547 l -46.28814750253332 -5.402829943414636" fill="#37ff7a" stroke="none" /><path d="M 118.64920377521936 109.65438752849418 l 36.15814230343069 18.718478403438066 a61.716000400028506,61.716000400028506 0 0,0 -0.4965125461893482,0.9392146217517732 l -35.83057724901645 -19.338108040275973" fill="#2fff30" stroke="none" /><line stroke="#e1ed5e" stroke-width="0.3" x1="174.80103733775053" x2="179.2010983576182" y1="140.37084112569926" y2="142.7455964860345" /><path d="M 175.68104954172406 140.8457921977663 a86.0,86.0 0 0,1 -30.038265399797805,32.042727171017184" fill="none" id="id29" stroke="none" /><text fill="#e1ed5e" style="font-size:6.75px; font-family:Arial;" text-anchor="middle"><textPath startOffset="22.206326154141568" xlink:href="#id29">May</textPath></text><path d="M 118.48025628344425 109.97397251340804 l 40.57151541367219 21.89683808258633 a67.10335541993493,67.10335541993493 0 0,0 -0.5573527709617407,1.011757173351516 l -40.18858623325894 -22.59196577433565" fill="#37ff74" stroke="none" /><path d="M 118.30583269289576 110.29060199501025 l 31.465835720010528 17.688481986436386 a57.09683105957052,57.09683105957052 0 0,0 -0.48898814724231304,0.852592051650565 l -31.156695576615835 -18.227493883945268" fill="#60ff29" stroke="none" /><path d="M 117.35343817320211 111.8261652097733 l 4.1184250553616195 2.806658520499343 a25.9838496152394,25.9838496152394 0 0,0 -0.25506129467242505,0.36743481834589475 l -4.069502853527058 -2.877134601032257" fill="#ff0000" stroke="none" /><path d="M 116.93607887273984 112.41649034213515 l 13.187269536470415 9.668094136138658 a37.35163973590292,37.35163973590292 0 0,0 -0.38461291730251973,0.515251855271389 l -13.018895352472803 -9.893658870919362" fill="#ffa80f" stroke="none" /><path d="M 116.498646956653 112.99209946851258 l 12.60524814943413 9.926185960157984 a37.044358778849656,37.044358778849656 0 0,0 -0.39881266568149676,0.4975801206883183 l -12.43251757169778 -10.141693914424552" fill="#ffa40f" stroke="none" /><path d="M 116.27256486870786 113.27417163493432 l 29.726691259163427 24.249232072299048 a59.36276097094473,59.36276097094473 0 0,0 -0.6527189983597419,0.7862420814625856 l -29.30487626091014 -24.757335410875402" fill="#47ff2c" stroke="none" /><path d="M 116.0416608686014 113.55231037782055 l 11.82611249640603 9.990932262383009 a36.48146195451762,36.48146195451762 0 0,0 -0.40938713197098736,0.4762097227524154 l -11.652382854864264 -10.193019084296953" fill="#ff9c0e" stroke="none" /><path d="M 115.56566222782051 114.09645910891815 l 24.330828203317864 22.03430344525768 a53.825291002168775,53.825291002168775 0 0,0 -0.6278427796027042,0.6813993368037892 l -23.947939015719438 -22.449854036862803" fill="#85ff25" stroke="none" /><path d="M 115.32070863581623 114.36230785411682 l 26.476844427533933 24.820561484004774 a57.291645915018734,57.291645915018734 0 0,0 -0.6806614436434898,0.7136708024116084 l -26.045676432511478 -25.27263940299889" fill="#5eff2a" stroke="none" /><path d="M 114.81725581225074 114.88116024355365 l 20.54164903704496 20.63024185182589 a50.11299064036463,50.11299064036463 0 0,0 -0.6165092151680752,0.603384025031348 l -20.183489869501088 -20.98077597977981" fill="#b0ff20" stroke="none" /><path d="M 114.55890576462653 115.13401014063108 l 11.329127137067415 11.776649134817394 a37.341315324429445,37.341315324429445 0 0,0 -0.46705835392576234,0.44163282594938136 l -11.124732948750845 -11.969916597512697" fill="#ffa80f" stroke="none" /><path d="M 114.0293411484842 115.62618273729858 l 41.43671535702104 46.15310721645654 a83.02508109879838,83.02508109879838 0 0,0 -1.0716468158276202,0.9456037167291201 l -40.63612618828684 -46.85953407495795" fill="#4cdbff" stroke="none" /><path d="M 113.48314897796784 116.09983520530334 l 8.438814355219987 10.076542257984242 a34.143450521031724,34.143450521031724 0 0,0 -0.4538312835702992,0.3734722497018763 l -8.264112943104998 -10.220309626543296" fill="#ff7b0b" stroke="none" /><line stroke="#e1ed5e" stroke-width="0.3" x1="143.8653032363475" x2="146.44561519142675" y1="172.8068346515853" y2="177.08958963109032" /><path d="M 144.38136562736335 173.6633856474863 a86.0,86.0 0 0,1 -40.68145358897372,12.25698825130547" fill="none" id="id30" stroke="none" /><text fill="#e1ed5e" style="font-size:6.75px; font-family:Arial;" text-anchor="middle"><textPath startOffset="21.466115282336833" xlink:href="#id30">June</textPath></text><line stroke="#e1ed5e" stroke-width="0.3" x1="102.19456741930631" x2="102.32365962044197" y1="184.97166512339345" y2="189.96999836594603" /><path d="M 102.22038585953345 185.97133177190398 a86.0,86.0 0 0,1 -42.740103519485714,-10.115201625700543" fill="none" id="id31" stroke="none" /><text fill="#e1ed5e" style="font-size:6.75px; font-family:Arial;" text-anchor="middle"><textPath startOffset="22.20632615414155" xlink:href="#id31">July</textPath></text><line stroke="#e1ed5e" stroke-width="0.3" x1="58.666819895761336" x2="56.23545636021788" y1="174.27360380694188" y2="178.64263932499728" /><path d="M 58.180547188652646 175.14741091055294 a86.0,86.0 0 0,1 -31.652253787137756,-30.449443065178592" fill="none" id="id32" stroke="none" /><text fill="#e1ed5e" style="font-size:6.75px; font-family:Arial;" text-anchor="middle"><textPath startOffset="22.20632615414155" xlink:href="#id32">August</textPath></text><line stroke="#e1ed5e" stroke-width="0.3" x1="26.63291911575756" x2="22.317208475507996" y1="142.92168965132927" y2="145.44649492493687" /><path d="M 25.769776987707644 143.4266507060508 a86.0,86.0 0 0,1 -11.730757126820373,-40.83630448921669" fill="none" id="id33" stroke="none" /><text fill="#e1ed5e" style="font-size:6.75px; font-family:Arial;" text-anchor="middle"><textPath startOffset="21.46611528233685" xlink:href="#id33">September</textPath></text><line stroke="#e1ed5e" stroke-width="0.3" x1="15.007084014347285" x2="10.007500721073583" y1="101.09737516637583" y2="101.16192664675087" /><path d="M 14.007167355692545 101.11028546245083 a86.0,86.0 0 0,1 10.666146001902534,-42.60595125391555" fill="none" id="id34" stroke="none" /><text fill="#e1ed5e" style="font-size:6.75px; font-family:Arial;" text-anchor="middle"><textPath startOffset="22.20632615414155" xlink:href="#id34">October</textPath></text><line stroke="#e1ed5e" stroke-width="0.3" x1="26.266209847984243" x2="21.928928074336255" y1="57.711370442889674" y2="55.22380399835377" /><path d="M 25.398753493254645 57.213857153982495 a86.0,86.0 0 0,1 29.58750427330803,-30.492523968695096" fill="none" id="id35" stroke="none" /><text fill="#e1ed5e" style="font-size:6.75px; font-family:Arial;" text-anchor="middle"><textPath startOffset="21.46611528233685" xlink:href="#id35">November</textPath></text><line stroke="#e1ed5e" stroke-width="0.3" x1="56.762969772571076" x2="54.21961505331055" y1="26.818313649435495" y2="22.513508569990535" /><path d="M 56.25429882871897 25.957352633546506 a86.0,86.0 0 0,1 42.265352541879196,-11.944610805530505" fill="none" id="id36" stroke="none" /><text fill="#e1ed5e" style="font-size:6.75px; font-family:Arial;" text-anchor="middle"><textPath startOffset="22.20632615414155" xlink:href="#id36">December</textPath></text></svg>