<?xml version="1.0" encoding="utf-8" ?>
<svg baseProfile="full" height="200mm" version="1.1" viewBox="0,0,200,200" width="200mm" xmlns="http://www.w3.org/2000/svg" xmlns:ev="http://www.w3.org/2001/xml-events" xmlns:xlink="http://www.w3.org/1999/xlink"><defs /><rect fill="#1a1a1a" height="200" width="200" x="0" y="0" /><text alignment-baseline="middle" fill="#e1ed5e" style="dominant-baseline: central; font-size:9.0px; font-family:Arial;" text-anchor="middle" x="100.0" y="100.0">2022</text><line stroke="#e1ed5e" stroke-width="0.3" x1="100.0" x2="100.0" y1="15.0" y2="10.0" /><path d="M 100.0 14.0 a86.0,86.0 0 0,1 42.46469731375804,11.215312516191453" fill="none" id="id13" stroke="none" /><text fill="#e1ed5e" style="font-size:6.75px; font-family:Arial;" text-anchor="middle"><textPath startOffset="22.20632615414155" xlink:href="#id13">January</textPath></text><path d="M 100.36148047927253 79.00311137660856 l 0.10220884809172467 -5.936884348571167 a26.937764092395177,26.937764092395177 0 0,0 0.4635519262093197,0.011972178642590712 l -0.20438740949591216 5.934245377786216" fill="#ff1902" stroke="none" /><path d="M 100.72285384407766 79.0124445844662 l 0.43213089512509634 -12.546618078478126 a33.5540576037278,33.5540576037278 0 0,0 0.5770645482915596,0.02484961333695699 l -0.6480362758059875 12.537320738616975" fill="#ff7a0b" stroke="none" /><path d="M 109.41281617654863 81.2277094730956 l 9.396499865316922 -18.739750367931357 a41.96359829731729,41.96359829731729 0 0,0 0.6429213169142949,0.32932926972292925 l -9.717681669819973 18.575228572895927" fill="#ffed16" stroke="none" /><line stroke="#e1ed5e" stroke-width="0.3" x1="143.23703022742887" x2="145.7803849466894" y1="26.81831364943548" y2="22.513508569990506" /><path d="M 143.74570117128098 25.957352633546492 a86.0,86.0 0 0,1 28.547481713284135,27.462654790039103" fill="none" id="id14" stroke="none" /><text fill="#e1ed5e" style="font-size:6.75px; font-family:Arial;" text-anchor="middle"><textPath startOffset="19.985693538727396" xlink:href="#id14">February</textPath></text><path d="M 110.68208982089419 81.91981866633111 l 11.277298706290443 -19.08761384545376 a43.17012558430958,43.17012558430958 0 0,0 0.6365289755738439,0.3835015856119219 l -11.604189748081923 18.890665650383223" fill="#fffc17" stroke="none" /><path d="M 112.77801427241765 83.33499621200491 l 16.434767639465534 -21.43411794097896 a48.00968343522411,48.00968343522411 0 0,0 0.6514855626733542,0.5084948153593164 l -16.80128575729832 21.14804473639642" fill="#c5ff1e" stroke="none" /><path d="M 113.34407831869373 83.78471172551755 l 4.440216550693255 -5.395606174594708 a27.987709854335314,27.987709854335314 0 0,0 0.3693610878049558,0.30932928878042015 l -4.532435175457328 5.318375728420469" fill="#ff2903" stroke="none" /><path d="M 115.9244219780498 86.31012108654704 l 3.3341966189047882 -2.8663362506574774 a25.39690238637945,25.39690238637945 0 0,0 0.282134656049811,0.33395844291151766 l -3.383041888441716 2.8085188581168534" fill="#ff0100" stroke="none" /><path d="M 116.15771136456269 86.58626213691792 l 6.538089223300797 -5.427762198992118 a29.497482755537064,29.497482755537064 0 0,0 0.320962823313826,0.39346247031133286 l -6.630550538691032 5.3144155590726845" fill="#ff3f05" stroke="none" /><path d="M 116.38621287248628 86.86637796730983 l 16.760467787539124 -13.433589001045242 a42.479632071014166,42.479632071014166 0 0,0 0.45239982716914734,0.5745018385830699 l -16.989221695302234 13.143094768509133" fill="#fff417" stroke="none" /><path d="M 116.60985879189232 87.15038557335679 l 14.038986885025984 -10.86075268149421 a38.7496225753258,38.7496225753258 0 0,0 0.4035940364027905,0.5310824431448932 l -14.223856861652889 10.617485462468284" fill="#ffc212" stroke="none" /><path d="M 117.45458315368197 88.32363383020206 l 16.216787278339382 -10.848333912784868 a40.51078005396474,40.51078005396474 0 0,0 0.382736907951508,0.5829345688800807 l -16.401120821648814 10.567581279927113" fill="#ffda14" stroke="none" /><line stroke="#e1ed5e" stroke-width="0.3" x1="172.23445277983987" x2="176.4835382374775" y1="55.19839476539836" y2="52.563006222186495" /><path d="M 173.08426987136738 54.67131705675599 a86.0,86.0 0 0,1 12.851231095245387,41.99856678651699" fill="none" id="id15" stroke="none" /><text fill="#e1ed5e" style="font-size:6.75px; font-family:Arial;" text-anchor="middle"><textPath startOffset="22.20632615414155" xlink:href="#id15">March</textPath></text><path d="M 118.03404312379186 89.2402003453031 l 8.816805236737967 -5.2604431125390425 a31.266855230440793,31.266855230440793 0 0,0 0.271783901526372,0.464566787754658 l -8.906048812734666 5.10789691243049" fill="#ff5908" stroke="none" /><path d="M 118.21658344932153 89.55222093294921 l 9.661147197027109 -5.540969399097483 a32.13732943951823,32.13732943951823 0 0,0 0.27108963521325674,0.48223821205000966 l -9.7550944735328 5.373847677112679" fill="#ff6609" stroke="none" /><path d="M 118.73160827565052 90.50648371742162 l 24.12599467948511 -12.22748842238093 a48.04764485854551,48.04764485854551 0 0,0 0.36754157369980944,0.7409413848879854 l -24.332896266138327 11.810387448993994" fill="#c5ff1e" stroke="none" /><path d="M 118.89224826269711 90.83032412892265 l 21.37336593955177 -10.373928778322888 a44.75792856887375,44.75792856887375 0 0,0 0.33044524215332605,0.6960019540183171 l -21.548769375546854 10.004484408664032" fill="#edff19" stroke="none" /><path d="M 119.47837535516314 92.15188598940014 l 11.193881929427203 -4.510173975061606 a33.06833302222307,33.06833302222307 0 0,0 0.20818318667608823,0.5298035024649784 l -11.26985866598499 4.316821467700843" fill="#ff730a" stroke="none" /><path d="M 120.28053869075195 94.5502522615342 l 7.632950954267883 -2.0511120456484977 a28.903733351654985,28.903733351654985 0 0,0 0.1249792862368068,0.48159617212985645 l -7.667126572374992 1.9194194479697908" fill="#ff3605" stroke="none" /><path d="M 120.67395015179393 96.31383870115 l 4.260330623507686 -0.7596161231585821 a25.327520499796606,25.327520499796606 0 0,0 0.07283246739481465,0.42986134537378395 l -4.272774952422724 0.6861689894689603" fill="#ff0000" stroke="none" /><line stroke="#e1ed5e" stroke-width="0.3" x1="184.98032266829074" x2="189.97916517819016" y1="98.17113171792111" y2="98.06355123074" /><path d="M 185.9800911702706 98.14961562048488 a86.0,86.0 0 0,1 -9.607161424134198,41.387399972396054" fill="none" id="id16" stroke="none" /><text fill="#e1ed5e" style="font-size:6.75px; font-family:Arial;" text-anchor="middle"><textPath startOffset="21.466115282336823" xlink:href="#id16">April</textPath></text><line stroke="#e1ed5e" stroke-width="0.3" x1="174.80103733775053" x2="179.2010983576182" y1="140.37084112569926" y2="142.7455964860345" /><path d="M 175.68104954172406 140.8457921977663 a86.0,86.0 0 0,1 -30.038265399797805,32.042727171017184" fill="none" id="id17" stroke="none" /><text fill="#e1ed5e" style="font-size:6.75px; font-family:Arial;" text-anchor="middle"><textPath startOffset="22.206326154141568" xlink:href="#id17">May</textPath></text><path d="M 112.92097659922987 116.55440617244103 l 6.53505191114587 8.37273427935345 a31.621185564428842,31.621185564428842 0 0,0 -0.43196236711480396,0.33121032328336136 l -6.389960815537573 -8.483983944464182" fill="#ff5e08" stroke="none" /><path d="M 112.63410532772338 116.77436683061366 l 5.576882467634969 7.404455626790638 a30.269713112439124,30.269713112439124 0 0,0 -0.41889683674252703,0.309889865413132 l -5.448600660473878 -7.499355440943538" fill="#ff4b06" stroke="none" /><path d="M 112.04921762599082 117.19931262002967 l 6.485334810220432 9.257306516394642 a32.30297710955568,32.30297710955568 0 0,0 -0.45815330182217867,0.31512201865814327 l -6.32502462377537 -9.36756932441788" fill="#ff6809" stroke="none" /><line stroke="#e1ed5e" stroke-width="0.3" x1="143.8653032363475" x2="146.44561519142675" y1="172.8068346515853" y2="177.08958963109032" /><path d="M 144.38136562736335 173.6633856474863 a86.0,86.0 0 0,1 -40.68145358897372,12.25698825130547" fill="none" id="id18" stroke="none" /><text fill="#e1ed5e" style="font-size:6.75px; font-family:Arial;" text-anchor="middle"><textPath startOffset="21.466115282336833" xlink:href="#id18">June</textPath></text><path d="M 110.8373102113329 117.98757091392108 l 11.257559960725533 18.68509382517376 a42.814339034792624,42.814339034792624 0 0,0 -0.6345332327767216,0.37489341847700564 l -10.93425885692043 -18.876105815944516" fill="#fff817" stroke="none" /><path d="M 110.21172684928248 118.3499491758327 l 14.503223705016547 26.06154882525917 a50.825288347459804,50.825288347459804 0 0,0 -0.7681327191277108,0.4188472035968155 l -14.052468174020188 -26.307336680615755" fill="#a3ff21" stroke="none" /><path d="M 109.89434966115114 118.52300852407294 l 14.62022690240261 27.370226120104284 a52.030312801249295,52.030312801249295 0 0,0 -0.7936086921253468,0.41517855945683263 l -14.146927307750769 -27.61783409850583" fill="#95ff23" stroke="none" /><path d="M 108.92500713936063 119.00905698771935 l 16.897131372865346 35.98860238209153 a60.75792436795657,60.75792436795657 0 0,0 -0.9505201269341104,0.4363371702072506 l -16.275143250163815 -36.274126622632856" fill="#36ff2e" stroke="none" /><path d="M 107.59598834532513 119.57807347666477 l 11.697490782105941 30.14937933200273 a53.339084166105366,53.339084166105366 0 0,0 -0.8588348930444919,0.3247378689688699 l -11.176785668301175 -30.34626545107823" fill="#86ff25" stroke="none" /><path d="M 107.2578585660854 119.70592522655815 l 7.584790332976466 20.593582776492553 a42.94594942050728,42.94594942050728 0 0,0 -0.6958888827611145,0.24952099481759965 l -7.229181889585616 -20.72109131235011" fill="#fffa17" stroke="none" /><path d="M 106.2309692047433 120.05430185196036 l 6.244879182907848 20.099070954759572 a42.046880273655184,42.046880273655184 0 0,0 -0.6930227385441344,0.2088020661711371 l -5.897981469923468 -20.203588390036437" fill="#ffee16" stroke="none" /><path d="M 105.53697534728816 120.25689768951611 l 9.019447285279345 32.99744163812674 a55.207916978289006,55.207916978289006 0 0,0 -0.9188426007800669,0.2426746820964579 l -8.45011424168778 -33.147807669526784" fill="#71ff27" stroke="none" /><path d="M 104.83641907484287 120.43548508189849 l 9.566972272046199 40.42365149068242 a62.540324484701024,62.540324484701024 0 0,0 -1.0497240110137784,0.2389137672987732 l -8.869728111639558 -40.58234199155887" fill="#31ff3e" stroke="none" /><path d="M 104.13013068566511 120.58985236759428 l 4.343553511157669 21.653824624941635 a43.08516646964697,43.08516646964697 0 0,0 -0.7284109251568563,0.1396016874389248 l -3.9701749714291084 -21.725383510729028" fill="#fffb17" stroke="none" /><path d="M 103.41894727170886 120.7198165907248 l 2.6057313636342787 15.791491254036224 a37.005031457817566,37.005031457817566 0 0,0 -0.6293747667986223,0.09829539482812677 l -2.333520733227139 -15.834004956211457" fill="#ffaa0f" stroke="none" /><path d="M 103.06178313531738 120.77559828337769 l 4.4518170661894825 30.20761396566074 a51.533892917366394,51.533892917366394 0 0,0 -0.8787054113594478,0.1217805632324761 l -3.931183063643205 -30.27976909438582" fill="#9bff22" stroke="none" /><path d="M 102.34483914955558 120.86867818915974 l 3.8089160273749187 33.898718741490185 a55.11203561235025,55.11203561235025 0 0,0 -0.9436424543291587,0.09781239871242987 l -3.224840976440157 -33.959260508658375" fill="#72ff27" stroke="none" /><path d="M 101.62511606390274 120.93702456842531 l 2.336195102200785 30.098142119122087 a51.18867281909587,51.18867281909587 0 0,0 -0.879073411660445,0.060626049286911926 l -1.8177589297614098 -30.133896512925283" fill="#9fff22" stroke="none" /><path d="M 101.26447882468166 120.96189622390904 l 3.1162689052500268 51.65994409917537 a72.75384967535992,72.75384967535992 0 0,0 -1.2507146572217631,0.06464766160647291 l -2.2265661796147844 -51.70593156754404" fill="#3effb8" stroke="none" /><line stroke="#e1ed5e" stroke-width="0.3" x1="102.19456741930631" x2="102.32365962044197" y1="184.97166512339345" y2="189.96999836594603" /><path d="M 102.22038585953345 185.97133177190398 a86.0,86.0 0 0,1 -42.740103519485714,-10.115201625700543" fill="none" id="id19" stroke="none" /><text fill="#e1ed5e" style="font-size:6.75px; font-family:Arial;" text-anchor="middle"><textPath startOffset="22.20632615414155" xlink:href="#id19">July</textPath></text><path d="M 100.54218724476979 120.99299961872073 l 0.7530975362704455 29.159255302100668 a50.16897882463873,50.16897882463873 0 0,0 -0.8634805363878856,0.014865600505603446 l -0.25105730998989206 -29.167898379885433" fill="#abff21" stroke="none" /><path d="M 100.18074693466247 120.99922214144158 l 0.4409545986114648 51.23021083496915 a72.23210851754422,72.23210851754422 0 0,0 -1.2434030665478053,0.0 l 0.44095459861142955 -51.23021083496915" fill="#3effb2" stroke="none" /><path d="M 99.09653310690486 120.98055641714683 l -0.9934580332391107 23.07035539845293 a44.09173568778955,44.09173568778955 0 0,0 -0.7579829841738481,-0.03917906229162248 l 1.3904290858264479 -23.049836529399105" fill="#f6ff19" stroke="none" /><path d="M 98.73552117531835 120.96189622390904 l -2.142314800650559 35.514221079571975 a56.578777544960715,56.578777544960715 0 0,0 -0.9716387682056047,-0.0670098982280002 l 2.7533163296350938 -35.47208283682769" fill="#62ff29" stroke="none" /><path d="M 98.37488393609728 120.93702456842531 l -2.0446889091103837 26.342550464994673 a47.4217849082122,47.4217849082122 0 0,0 -0.8132964427395728,-0.07017463925252805 l 2.497829669591498 -26.303451573463484" fill="#ccff1d" stroke="none" /><path d="M 98.01472825383883 120.90594882070398 l -1.9453084834286631 20.485114782739267 a41.57727272399582,41.57727272399582 0 0,0 -0.7118967615994413,-0.07379101011001891 l 2.2976378416336978 -20.448594404173484" fill="#ffe815" stroke="none" /><path d="M 97.2962882734958 120.8252237178851 l -2.94390541938015 22.675305344832168 a43.86560848959918,43.86560848959918 0 0,0 -0.747953344300842,-0.10365951815369708 l 3.3337873548678236 -22.621271261185868" fill="#f9ff18" stroke="none" /><path d="M 96.58105272829116 120.7198165907248 l -3.6362477748728015 22.03672095128225 a43.33471218003378,43.33471218003378 0 0,0 -0.7349382054229389,-0.12777842750336948 l 4.01503495176779 -21.970863945257875" fill="#ffff18" stroke="none" /><path d="M 95.86986931433489 120.58985236759428 l -6.948525304404015 34.64033491403491 a56.33036663923046,56.33036663923046 0 0,0 -0.9490554617987121,-0.19888379951333832 l 7.543772227632114 -34.51559513379503" fill="#65ff29" stroke="none" /><path d="M 95.16358092515715 120.4354850818985 l -9.569776409902934 40.43549990920297 a62.5525002068791,62.5525002068791 0 0,0 -1.0456595108916453,-0.2569976670076624 l 10.264389205537789 -40.26478098388127" fill="#31ff3e" stroke="none" /><path d="M 94.81253420990036 120.34920634021253 l -10.340909982063836 40.564953965033965 a62.862273104102606,62.862273104102606 0 0,0 -1.0462364398322919,-0.2763205528547363 l 11.037636864707617 -40.38094206287565" fill="#31ff42" stroke="none" /><path d="M 94.11515582081647 120.15858648285463 l -7.987305097014641 27.360585201672095 a49.50260804366425,49.50260804366425 0 0,0 -0.8159091178279896,-0.24582672419702223 l 8.457089189282875 -27.21904310836935" fill="#b3ff20" stroke="none" /><path d="M 93.76903079525671 120.05430185196036 l -17.715684591343866 57.01772463238644 a80.7065021818782,80.7065021818782 0 0,0 -1.323120286361529,-0.4236213329314578 l 18.694526222796334 -56.704330452795276" fill="#49f2ff" stroke="none" /><path d="M 93.08242187328487 119.8279376855182 l -13.671724956373469 39.187430271531 a62.503864332960966,62.503864332960966 0 0,0 -1.0128020198838055,-0.36315477056044976 l 14.344246536887 -38.946287959930594" fill="#31ff3d" stroke="none" /><path d="M 92.7421414339146 119.70592522655815 l -5.961833651150303 16.18706772431802 a38.25006150701053,38.25006150701053 0 0,0 -0.6158802311081462,-0.23287320462858124 l 6.239584103018732 -16.082046269582808" fill="#ffbb11" stroke="none" /><path d="M 90.7491055286396 118.85261126421891 l -18.42000034649766 37.53854366130618 a62.81433573520886,62.81433573520886 0 0,0 -0.9665812921112323,-0.4846639257630415 l 19.06343554629165 -37.21591189463384" fill="#31ff41" stroke="none" /><line stroke="#e1ed5e" stroke-width="0.3" x1="58.666819895761336" x2="56.23545636021788" y1="174.27360380694188" y2="178.64263932499728" /><path d="M 58.180547188652646 175.14741091055294 a86.0,86.0 0 0,1 -31.652253787137756,-30.449443065178592" fill="none" id="id20" stroke="none" /><text fill="#e1ed5e" style="font-size:6.75px; font-family:Arial;" text-anchor="middle"><textPath startOffset="22.20632615414155" xlink:href="#id20">August</textPath></text><path d="M 89.4739219176387 118.17145234162733 l -10.538424979368862 18.192767122762774 a42.02463261578817,42.02463261578817 0 0,0 -0.6228293275362783,-0.36797854496294236 l 10.850022177933523 -18.008670005506083" fill="#ffee16" stroke="none" /><path d="M 88.8546689885994 117.79835938074946 l -20.55192653300576 32.820072730637456 a59.723879690216975,59.723879690216975 0 0,0 -0.8666168092366315,-0.5531158502100119 l 21.113825144289315 -32.461442451603645" fill="#41ff2d" stroke="none" /><path d="M 88.24862548938628 117.40417183066458 l -17.218361868731208 25.50095976732773 a51.76964306743652,51.76964306743652 0 0,0 -0.7342491320555373,-0.5050232482688338 l 17.654767885409637 -25.200795729693795" fill="#98ff23" stroke="none" /><path d="M 87.95078237400918 117.19931262002967 l -11.12445289162371 15.879283530999865 a40.38827216633392,40.38827216633392 0 0,0 -0.5659602273311194,-0.40379759502472434 l 11.396140446803715 -15.68544167413092" fill="#ffd814" stroke="none" /><path d="M 87.07902340077011 116.55440617244103 l -19.69467516990723 25.232895493082598 a53.009049423764345,53.009049423764345 0 0,0 -0.7144673455986545,-0.5676160698204987 l 20.126100008223244 -24.890145509256968" fill="#8aff24" stroke="none" /><path d="M 86.51685102203217 116.09983520530335 l -23.16908802703071 27.665532710637017 a57.085846812394806,57.085846812394806 0 0,0 -0.7479184408058761,-0.6373923209988311 l 23.64187194441364 -27.26261599941523" fill="#5dff2a" stroke="none" /><path d="M 85.97065885151581 115.62618273729859 l -42.08802344545257 46.878548211895755 a84.0,84.0 0 0,0 -1.0676018021325815,-0.9752289336536961 l 42.888724797052014 -46.14712651165548" fill="#4dd2ff" stroke="none" /><path d="M 85.44109423537348 115.13401014063109 l -22.15002045811944 23.02498825446344 a52.949546012632,52.949546012632 0 0,0 -0.6514056063830262,-0.6375374885519363 l 22.54307601687826 -22.64030066298894" fill="#8bff24" stroke="none" /><path d="M 85.18274418774928 114.88116024355367 l -24.703890772283934 24.810434663458935 a56.01199633666581,56.01199633666581 0 0,0 -0.6773700751929242,-0.6861723099394031 l 25.12730147253239 -24.381521859538868" fill="#68ff28" stroke="none" /><path d="M 84.9287848128048 114.62390073753433 l -30.581923994333703 29.67425090154166 a63.61238366675642,63.61238366675642 0 0,0 -0.7557558560011398,-0.7924069935450992 l 31.0881864017138 -29.14343679141406" fill="#32ff4b" stroke="none" /><line stroke="#e1ed5e" stroke-width="0.3" x1="26.63291911575756" x2="22.317208475507996" y1="142.92168965132927" y2="145.44649492493687" /><path d="M 25.769776987707644 143.4266507060508 a86.0,86.0 0 0,1 -11.730757126820373,-40.83630448921669" fill="none" id="id21" stroke="none" /><text fill="#e1ed5e" style="font-size:6.75px; font-family:Arial;" text-anchor="middle"><textPath startOffset="21.46611528233685" xlink:href="#id21">September</textPath></text><line stroke="#e1ed5e" stroke-width="0.3" x1="15.007084014347285" x2="10.007500721073583" y1="101.09737516637583" y2="101.16192664675087" /><path d="M 14.007167355692545 101.11028546245083 a86.0,86.0 0 0,1 10.666146001902534,-42.60595125391555" fill="none" id="id22" stroke="none" /><text fill="#e1ed5e" style="font-size:6.75px; font-family:Arial;" text-anchor="middle"><textPath startOffset="22.20632615414155" xlink:href="#id22">October</textPath></text><line stroke="#e1ed5e" stroke-width="0.3" x1="26.266209847984243" x2="21.928928074336255" y1="57.711370442889674" y2="55.22380399835377" /><path d="M 25.398753493254645 57.213857153982495 a86.0,86.0 0 0,1 29.58750427330803,-30.492523968695096" fill="none" id="id23" stroke="none" /><text fill="#e1ed5e" style="font-size:6.75px; font-family:Arial;" text-anchor="middle"><textPath startOffset="21.46611528233685" xlink:href="#id23">November</textPath></text><line stroke="#e1ed5e" stroke-width="0.3" x1="56.762969772571076" x2="54.21961505331055" y1="26.818313649435495" y2="22.513508569990535" /><path d="M 56.25429882871897 25.957352633546506 a86.0,86.0 0 0,1 42.265352541879196,-11.944610805530505" fill="none" id="id24" stroke="none" /><text fill="#e1ed5e" style="font-size:6.75px; font-family:Arial;" text-anchor="middle"><textPath startOffset="22.20632615414155" xlink:href="#id24">December</textPath></text></svg>