<?xml version="1.0" encoding="utf-8" ?>
<svg baseProfile="full" height="200mm" version="1.1" viewBox="0,0,200,200" width="200mm" xmlns="http://www.w3.org/2000/svg" xmlns:ev="http://www.w3.org/2001/xml-events" xmlns:xlink="http://www.w3.org/1999/xlink"><defs /><rect fill="#1a1a1a" height="200" width="200" x="0" y="0" /><text alignment-baseline="middle" fill="#e1ed5e" style="dominant-baseline: central; font-size:9.0px; font-family:Arial;" text-anchor="middle" x="100.0" y="100.0">2022</text><line stroke="#e1ed5e" stroke-width="0.3" x1="100.0" x2="100.0" y1="15.0" y2="10.0" /><path d="M 100.0 14.0 a86.0,86.0 0 0,1 42.46469731375804,11.215312516191453" fill="none" id="id13" stroke="none" /><text fill="#e1ed5e" style="font-size:6.75px; font-family:Arial;" text-anchor="middle"><textPath startOffset="22.20632615414155" xlink:href="#id13">January</textPath></text><path d="M 100.36148047927253 79.00311137660856 l 0.0694708255243881 -4.035269592001705 a25.035867549329716,25.035867549329716 0 0,0 0.4308236046246142,0.011126902654011778 l -0.1389210653438701 4.033475897205333" fill="#ff1001" stroke="none" /><path d="M 100.72285384407766 79.0124445844662 l 0.29371713486088885 -8.527871429182634 a29.532928036024934,29.532928036024934 0 0,0 0.507908938409359,0.02187162730273978 l -0.4404669056595794 8.521552075355698" fill="#ff5207" stroke="none" /><path d="M 109.41281617654863 81.2277094730956 l 6.386752369007672 -12.737311421539752 a35.248849359590835,35.248849359590835 0 0,0 0.5400451240958172,0.27663208802829753 l -6.605057980692244 12.625486808198955" fill="#ffa20e" stroke="none" /><line stroke="#e1ed5e" stroke-width="0.3" x1="143.23703022742887" x2="145.7803849466894" y1="26.81831364943548" y2="22.513508569990506" /><path d="M 143.74570117128098 25.957352633546492 a86.0,86.0 0 0,1 28.547481713284135,27.462654790039103" fill="none" id="id14" stroke="none" /><text fill="#e1ed5e" style="font-size:6.75px; font-family:Arial;" text-anchor="middle"><textPath startOffset="19.985693538727396" xlink:href="#id14">February</textPath></text><path d="M 110.68208982089419 81.91981866633111 l 7.665121615577054 -12.973752428404227 a36.06891971758796,36.06891971758796 0 0,0 0.5318240845293262,0.3204180603086221 l -7.887307766324018 12.83988775863699" fill="#ffad10" stroke="none" /><path d="M 112.77801427241765 83.33499621200491 l 11.170626580103388 -14.568659128323212 a39.358342163424986,39.358342163424986 0 0,0 0.5340879142605751,0.4168640886424991 l -11.419747049523393 14.37421665045749" fill="#ffd814" stroke="none" /><path d="M 113.34407831869373 83.78471172551755 l 3.0179922290767527 -3.6673656161078347 a25.749510254434416,25.749510254434416 0 0,0 0.3398229854290675,0.28459197751096227 l -3.0806727514649377 3.6148724812030535" fill="#ff1b02" stroke="none" /><path d="M 115.9244219780498 86.31012108654704 l 2.2662362006865515 -1.9482339277021599 a23.98855181557088,23.98855181557088 0 0,0 0.26648926363747766,0.31543923310611166 l -2.2994360778111465 1.9089357449669415" fill="#ff0100" stroke="none" /><path d="M 116.15771136456269 86.58626213691792 l 4.443905436515591 -3.6892218996114465 a26.775695088321882,26.775695088321882 0 0,0 0.29134698587542107,0.3571569554278847 l -4.506750914467421 3.6121807745754606" fill="#ff2a04" stroke="none" /><path d="M 116.38621287248628 86.86637796730983 l 11.392003286548428 -9.130740978710945 a35.59959484715386,35.59959484715386 0 0,0 0.3791287676225764,0.48145503375151993 l -11.54748613476497 8.933293551006386" fill="#ffa70f" stroke="none" /><path d="M 116.60985879189232 87.15038557335679 l 9.542226789930698 -7.381997436489087 a33.06432668087211,33.06432668087211 0 0,0 0.3443792269236433,0.45316269495228223 l -9.667881957078455 7.216649965655771" fill="#ff840c" stroke="none" /><path d="M 117.45458315368197 88.32363383020206 l 11.022466455825812 -7.373556463614996 a34.26137631213004,34.26137631213004 0 0,0 0.3236939208378519,0.4930080487994722 l -11.14775701202159 7.18273035083785" fill="#ff940d" stroke="none" /><line stroke="#e1ed5e" stroke-width="0.3" x1="172.23445277983987" x2="176.4835382374775" y1="55.19839476539836" y2="52.563006222186495" /><path d="M 173.08426987136738 54.67131705675599 a86.0,86.0 0 0,1 12.851231095245387,41.99856678651699" fill="none" id="id15" stroke="none" /><text fill="#e1ed5e" style="font-size:6.75px; font-family:Arial;" text-anchor="middle"><textPath startOffset="22.20632615414155" xlink:href="#id15">March</textPath></text><path d="M 118.03404312379186 89.2402003453031 l 5.992736927572575 -3.5754959817589125 a27.978328410061117,27.978328410061117 0 0,0 0.24319872265469744,0.4157054510410941 l -6.0533953246975996 3.4718111183639233" fill="#ff3c05" stroke="none" /><path d="M 118.21658344932153 89.55222093294921 l 6.566631791875578 -3.7661682481268532 a28.569985228735256,28.569985228735256 0 0,0 0.2409978367456434,0.42870826030923037 l -6.630487269913655 3.652576477882829" fill="#ff4406" stroke="none" /><path d="M 118.73160827565052 90.50648371742162 l 16.398313827748986 -8.310960652157826 a39.38414434655742,39.38414434655742 0 0,0 0.3012699256034328,0.6073417862764721 l -16.538943766305824 8.027459277382404" fill="#ffd914" stroke="none" /><path d="M 118.89224826269711 90.83032412892265 l 14.527366307102705 -7.051105746877582 a37.14814119564208,37.14814119564208 0 0,0 0.2742626145901815,0.5776670120139528 l -14.646587115534642 6.799996319223088" fill="#ffbb11" stroke="none" /><path d="M 119.47837535516314 92.15188598940014 l 7.608423663692577 -3.0655419286689822 a29.202783549665607,29.202783549665607 0 0,0 0.1838474450797317,0.4678716945284767 l -7.660064658654008 2.934121229244721" fill="#ff4d07" stroke="none" /><path d="M 120.28053869075195 94.5502522615342 l 5.188077293506731 -1.394130251094713 a26.37212668879072,26.37212668879072 0 0,0 0.11403265903444218,0.4394143521088777 l -5.211306284411475 1.3046194734369847" fill="#ff2403" stroke="none" /><path d="M 120.67395015179393 96.31383870115 l 2.895724694561674 -0.5163071509239967 a23.941393306035348,23.941393306035348 0 0,0 0.06884648449350801,0.40633584865671735 l -2.904183040575405 0.4663855139514415" fill="#ff0000" stroke="none" /><line stroke="#e1ed5e" stroke-width="0.3" x1="184.98032266829074" x2="189.97916517819016" y1="98.17113171792111" y2="98.06355123074" /><path d="M 185.9800911702706 98.14961562048488 a86.0,86.0 0 0,1 -9.607161424134198,41.387399972396054" fill="none" id="id16" stroke="none" /><text fill="#e1ed5e" style="font-size:6.75px; font-family:Arial;" text-anchor="middle"><textPath startOffset="21.466115282336823" xlink:href="#id16">April</textPath></text><line stroke="#e1ed5e" stroke-width="0.3" x1="174.80103733775053" x2="179.2010983576182" y1="140.37084112569926" y2="142.7455964860345" /><path d="M 175.68104954172406 140.8457921977663 a86.0,86.0 0 0,1 -30.038265399797805,32.042727171017184" fill="none" id="id17" stroke="none" /><text fill="#e1ed5e" style="font-size:6.75px; font-family:Arial;" text-anchor="middle"><textPath startOffset="22.206326154141568" xlink:href="#id17">May</textPath></text><path d="M 112.92097659922987 116.55440617244103 l 4.441840991149877 5.690904194136208 a28.219164905825078,28.219164905825078 0 0,0 -0.38548893892313424,0.2955764802746298 l -4.343223323733249 -5.76652001623821" fill="#ff3f05" stroke="none" /><path d="M 112.63410532772338 116.77436683061366 l 3.790578175104743 5.032770200973369 a27.30057606869292,27.30057606869292 0 0,0 -0.37780751056159184,0.2794929642115298 l -3.7033856941245866 -5.097273113924667" fill="#ff3204" stroke="none" /><path d="M 112.04921762599082 117.19931262002967 l 4.4080485347387635 6.292143369516188 a28.682575093493007,28.682575093493007 0 0,0 -0.40680512013733583,0.27980427107758993 l -4.299086529978545 -6.367088429958871" fill="#ff4606" stroke="none" /><line stroke="#e1ed5e" stroke-width="0.3" x1="143.8653032363475" x2="146.44561519142675" y1="172.8068346515853" y2="177.08958963109032" /><path d="M 144.38136562736335 173.6633856474863 a86.0,86.0 0 0,1 -40.68145358897372,12.25698825130547" fill="none" id="id18" stroke="none" /><text fill="#e1ed5e" style="font-size:6.75px; font-family:Arial;" text-anchor="middle"><textPath startOffset="21.466115282336833" xlink:href="#id18">June</textPath></text><path d="M 110.8373102113329 117.98757091392108 l 7.651705292285949 12.700161652057252 a35.827093439659116,35.827093439659116 0 0,0 -0.5309782174328662,0.3137112901071314 l -7.4319592038247 -12.829991514458133" fill="#ffaa0f" stroke="none" /><path d="M 110.21172684928248 118.3499491758327 l 9.857766155902407 17.713899971850765 a41.27209426273441,41.27209426273441 0 0,0 -0.6237533916856536,0.34012008255324444 l -9.551389952348105 -17.88096070616378" fill="#fff116" stroke="none" /><path d="M 109.89434966115114 118.52300852407294 l 9.93729262414034 18.603401161966154 a42.09114315277476,42.09114315277476 0 0,0 -0.6420083845187313,0.3358684435900749 l -9.615593337095113 -18.771699024500947" fill="#fffb17" stroke="none" /><path d="M 108.92500713936063 119.00905698771935 l 11.48489281880512 24.461266941480012 a48.023255604049346,48.023255604049346 0 0,0 -0.7512941149224684,0.3448822795115363 l -11.062130708115232 -24.65533629132562" fill="#bbff1f" stroke="none" /><path d="M 107.59598834532513 119.57807347666477 l 7.950723996689033 20.492377229048664 a42.98070828179017,42.98070828179017 0 0,0 -0.6920503525185114,0.261674226927776 l -7.596803423410246 -20.62619970608307" fill="#f8ff18" stroke="none" /><path d="M 107.2578585660854 119.70592522655815 l 5.155342768254283 13.997351723442328 a35.916548338270005,35.916548338270005 0 0,0 -0.581985659486185,0.2086793514337837 l -4.913637548138364 -14.08401861591607" fill="#ffab0f" stroke="none" /><path d="M 106.2309692047433 120.05430185196036 l 4.244612088254223 13.661234595338806 a35.30545568825529,35.30545568825529 0 0,0 -0.5819096072617206,0.1753245911906602 l -4.008827506552256 -13.732274555635192" fill="#ffa30f" stroke="none" /><path d="M 105.53697534728816 120.25689768951611 l 6.130471680100936 22.42819045114628 a44.25094428046759,44.25094428046759 0 0,0 -0.7364822828875871,0.19451166469391676 l -5.743498954401851 -22.530393465143778" fill="#e8ff1a" stroke="none" /><path d="M 104.83641907484287 120.43548508189849 l 6.502621582346071 27.47574688688071 a49.234743746581586,49.234743746581586 0 0,0 -0.8263931009750379,0.18808437927697386 l -6.028708331978172 -27.583607999735367" fill="#adff20" stroke="none" /><path d="M 104.13013068566511 120.58985236759428 l 2.9522908609505083 14.71799262530593 a36.0111734466767,36.0111734466767 0 0,0 -0.6088158481355108,0.11668100628910162 l -2.6985073982432928 -14.7666308299435" fill="#ffac0f" stroke="none" /><path d="M 103.41894727170886 120.7198165907248 l 1.7711021335844523 10.733394947319368 a31.878537119609803,31.878537119609803 0 0,0 -0.5421842942737746,0.08467803618237878 l -1.5860819757021607 -10.762291290848854" fill="#ff730a" stroke="none" /><path d="M 103.06178313531738 120.77559828337769 l 3.0258770394730905 20.53195900841381 a41.753729124694566,41.753729124694566 0 0,0 -0.7119436481372786,0.0986689023865306 l -2.672004800148981 -20.581002476292944" fill="#fff717" stroke="none" /><path d="M 102.34483914955558 120.86867818915974 l 2.5889005278421897 23.04078383778437 a44.18577421184307,44.18577421184307 0 0,0 -0.7565601952535017,0.07842055762603119 l -2.1919077359830856 -23.08193376386616" fill="#e9ff1a" stroke="none" /><path d="M 101.62511606390274 120.93702456842531 l 1.5878997304643434 20.45755156040212 a41.51908480903863,41.51908480903863 0 0,0 -0.7130156247865307,0.04917373206521653 l -1.2355213448988824 -20.481853636983622" fill="#fff417" stroke="none" /><path d="M 101.26447882468166 120.96189622390904 l 2.118111860623038 35.11299686982798 a56.176824004373415,56.176824004373415 0 0,0 -0.9657382735340406,0.049917637686065865 l -1.5133855186755178 -35.14425431427625" fill="#60ff29" stroke="none" /><line stroke="#e1ed5e" stroke-width="0.3" x1="102.19456741930631" x2="102.32365962044197" y1="184.97166512339345" y2="189.96999836594603" /><path d="M 102.22038585953345 185.97133177190398 a86.0,86.0 0 0,1 -42.740103519485714,-10.115201625700543" fill="none" id="id19" stroke="none" /><text fill="#e1ed5e" style="font-size:6.75px; font-family:Arial;" text-anchor="middle"><textPath startOffset="22.20632615414155" xlink:href="#id19">July</textPath></text><path d="M 100.54218724476979 120.99299961872073 l 0.5118765011238453 19.819395045871133 a40.826004073859764,40.826004073859764 0 0,0 -0.7026744558523369,0.012097177997652983 l -0.17064235537884043 -19.825269701147946" fill="#ffeb16" stroke="none" /><path d="M 100.18074693466247 120.99922214144158 l 0.2997145604930644 34.82090939230447 a55.8221992373378,55.8221992373378 0 0,0 -0.9609229903110157,0.0 l 0.2997145604930404 -34.82090939230447" fill="#63ff29" stroke="none" /><path d="M 99.09653310690486 120.98055641714683 l -0.6752482880055458 15.680801267158705 a36.695333339262994,36.695333339262994 0 0,0 -0.6308311032865824,-0.0326067624302887 l 0.9450674597056171 -15.666854697966214" fill="#ffb510" stroke="none" /><path d="M 98.73552117531835 120.96189622390904 l -1.4561202920587368 24.138832423190628 a45.18271111889286,45.18271111889286 0 0,0 -0.7759318189733648,-0.05351280117949119 l 1.8714148718110317 -24.110191277494852" fill="#ddff1b" stroke="none" /><path d="M 98.37488393609728 120.93702456842531 l -1.3897644784038965 17.904895333315096 a38.9587505746475,38.9587505746475 0 0,0 -0.6681531139594894,-0.05765106211410584 l 1.6977619101049277 -17.878320018922327" fill="#ffd313" stroke="none" /><path d="M 98.01472825383883 120.90594882070398 l -1.3222161169657713 13.923626588977912 a34.98626586509983,34.98626586509983 0 0,0 -0.5990438462657292,-0.0620933440079491 l 1.5616925598370939 -13.898803876514203" fill="#ff9e0e" stroke="none" /><path d="M 97.2962882734958 120.8252237178851 l -2.0009572905715736 15.412287788522702 a36.541635851960294,36.541635851960294 0 0,0 -0.6230721442785345,-0.08635212175069219 l 2.265958026036939 -15.375561101279406" fill="#ffb310" stroke="none" /><path d="M 96.58105272829116 120.7198165907248 l -2.4715388094867445 14.97824527835674 a36.18078837562184,36.18078837562184 0 0,0 -0.6136107139490389,-0.10668408792615047 l 2.7289984949078336 -14.933482611909582" fill="#ffae10" stroke="none" /><path d="M 95.86986931433489 120.58985236759428 l -4.722876718470033 23.544856515354162 a45.0138675108047,45.0138675108047 0 0,0 -0.7583947942575723,-0.15892900287114406 l 5.127462974156993 -23.460071531756476" fill="#dfff1b" stroke="none" /><path d="M 95.16358092515715 120.4354850818985 l -6.504527540347054 27.48380019568077 a49.243019521985175,49.243019521985175 0 0,0 -0.8231714405961359,-0.20231551243688284 l 6.9766522656864005 -27.36776342492986" fill="#adff20" stroke="none" /><path d="M 94.81253420990036 120.34920634021253 l -7.028663041801016 27.57178944802014 a49.45357055838747,49.45357055838747 0 0,0 -0.8230712165358465,-0.21738058906499372 l 7.502224701148351 -27.446717509651563" fill="#aaff21" stroke="none" /><path d="M 94.11515582081647 120.15858648285463 l -5.428929971960871 18.596848279561147 a40.37307529984518,40.37307529984518 0 0,0 -0.6654348438135615,-0.20049005979576678 l 5.7482397902146785 -18.500642850659656" fill="#ffe515" stroke="none" /><path d="M 93.76903079525671 120.05430185196036 l -12.041259208653434 38.754652593084344 a61.58220078976299,61.58220078976299 0 0,0 -1.0095922502018682,-0.32323955664218784 l 12.706572803946242 -38.54164018978245" fill="#30ff38" stroke="none" /><path d="M 93.08242187328487 119.8279376855182 l -9.292600756142779 26.63549371674281 a49.20996196997988,49.20996196997988 0 0,0 -0.797389880025676,-0.28591564120416224 l 9.749710196798182 -26.47159053449869" fill="#adff20" stroke="none" /><path d="M 92.7421414339146 119.70592522655815 l -4.052227503951507 11.002266228637774 a32.72477760597634,32.72477760597634 0 0,0 -0.5269153251227436,-0.19923428960930178 l 4.2410130498345335 -10.93088368892184" fill="#ff7f0b" stroke="none" /><path d="M 90.7491055286396 118.85261126421891 l -12.519978985403649 25.514754014191542 a49.420987776635286,49.420987776635286 0 0,0 -0.7604856704037024,-0.38132330256396213 l 12.95731856349011 -25.295462870718275" fill="#abff21" stroke="none" /><line stroke="#e1ed5e" stroke-width="0.3" x1="58.666819895761336" x2="56.23545636021788" y1="174.27360380694188" y2="178.64263932499728" /><path d="M 58.180547188652646 175.14741091055294 a86.0,86.0 0 0,1 -31.652253787137756,-30.449443065178592" fill="none" id="id20" stroke="none" /><text fill="#e1ed5e" style="font-size:6.75px; font-family:Arial;" text-anchor="middle"><textPath startOffset="22.20632615414155" xlink:href="#id20">August</textPath></text><path d="M 89.4739219176387 118.17145234162733 l -7.162912964116094 12.36552973825761 a35.290334070246075,35.290334070246075 0 0,0 -0.5230231335620147,-0.309011286336542 l 7.37470396870649 -12.24039987962732" fill="#ffa20f" stroke="none" /><path d="M 88.8546689885994 117.79835938074946 l -13.969038190149439 22.30763372190322 a47.320420783650995,47.320420783650995 0 0,0 -0.6866377784559734,-0.4382447173526805 l 14.350957770652336 -22.063874575726736" fill="#c3ff1e" stroke="none" /><path d="M 88.24862548938628 117.40417183066458 l -11.703231525757209 17.33287048798957 a41.9139672826295,41.9139672826295 0 0,0 -0.5944660282510772,-0.40887915486173604 l 11.999854438631177 -17.12885054376273" fill="#fff917" stroke="none" /><path d="M 87.95078237400918 117.19931262002967 l -7.561233105716182 10.793066903996312 a34.17810833439758,34.17810833439758 0 0,0 -0.4789372985063526,-0.3417090459103183 l 7.7458977320714215 -10.661313596241776" fill="#ff930d" stroke="none" /><path d="M 87.07902340077011 116.55440617244103 l -13.386368871511621 17.150668586949728 a42.756385374035816,42.756385374035816 0 0,0 -0.5762797389814275,-0.45783147763560533 l 13.679606103210407 -16.91770319530899" fill="#fbff18" stroke="none" /><path d="M 86.51685102203217 116.09983520530335 l -15.747909324255048 18.804119524516242 a45.52736347790467,45.52736347790467 0 0,0 -0.5964833072950677,-0.5083360149058583 l 16.069258108127173 -18.530259119387434" fill="#d9ff1c" stroke="none" /><path d="M 85.97065885151581 115.62618273729859 l -28.607011898044487 31.863106809917184 a63.82077422601149,63.82077422601149 0 0,0 -0.8111330187760294,-0.7409507808736485 l 29.151244466287373 -31.365963262456958" fill="#33ff54" stroke="none" /><path d="M 85.44109423537348 115.13401014063109 l -15.055254367280444 15.64996545398326 a42.71594121318223,42.71594121318223 0 0,0 -0.5255078784161143,-0.5143200637770805 l 15.322412198072353 -15.38849528728361" fill="#fbff18" stroke="none" /><path d="M 85.18274418774928 114.88116024355367 l -16.791106813714585 16.863524145606103 a44.79747286244933,44.79747286244933 0 0,0 -0.5417494384399687,-0.5487893209289665 l 17.078896877210088 -16.57199433069647" fill="#e1ff1b" stroke="none" /><path d="M 84.9287848128048 114.62390073753433 l -20.786375599339795 20.169434891760847 a49.963416828989786,49.963416828989786 0 0,0 -0.5935973890264425,-0.6223844892231369 l 21.130479539745195 -19.80864328595521" fill="#a4ff21" stroke="none" /><path d="M 84.43433777217949 114.09645910891817 l -14.044675383312322 12.719034329618292 a39.94800097373408,39.94800097373408 0 0,0 -0.4571975480131691,-0.5136662919107292 l 14.26153178097383 -12.4753938679667" fill="#ffe015" stroke="none" /><path d="M 84.19399662182784 113.82643327865904 l -35.08873898119494 30.69416706729048 a67.61921808916543,67.61921808916543 0 0,0 -0.7588083447466155,-0.8826655340491024 l 35.611889835512336 -30.085624434079847" fill="#38ff81" stroke="none" /><path d="M 83.72743513129214 113.27417163493432 l -16.76265096840005 13.673954155741466 a42.63246379268257,42.63246379268257 0 0,0 -0.45897316326167703,-0.5726395915189705 l 16.995542043716586 -13.383386730644236" fill="#fcff18" stroke="none" /><path d="M 83.50135304334701 112.99209946851258 l -21.111301302936404 16.624401210481512 a47.87113243446252,47.87113243446252 0 0,0 -0.5042270545978152,-0.6517814385586501 l 21.39433517475229 -16.258541777809608" fill="#bdff1f" stroke="none" /><path d="M 83.28015986056508 112.70617746262583 l -15.143914404821535 11.508558832009346 a40.02064851392774,40.02064851392774 0 0,0 -0.4120959209853791,-0.5520698299128485 l 15.339771592501998 -11.246176122587189" fill="#ffe115" stroke="none" /><path d="M 83.06392112726016 112.41649034213515 l -24.719767405087453 18.12301156315065 a51.65143469202896,51.65143469202896 0 0,0 -0.5195155599880051,-0.7215616747084065 l 25.028062757451067 -17.694816282991106" fill="#91ff24" stroke="none" /><path d="M 82.85270091963577 112.12312394758628 l -12.356140541643859 8.735779471629918 a36.13235117428239,36.13235117428239 0 0,0 -0.35468048062694185,-0.5109436856633578 l 12.504681929432934 -8.521794523779548" fill="#ffae10" stroke="none" /><path d="M 82.6465618267979 111.8261652097733 l -35.270136735818994 24.03618578900457 a63.68162101709486,63.68162101709486 0 0,0 -0.6095146698498491,-0.9111417313891321 l 35.67865451107957 -23.425507143409618" fill="#33ff52" stroke="none" /><path d="M 82.05923443525364 110.91462005526583 l -16.197518138860705 9.85408095802407 a39.95949644336616,39.95949644336616 0 0,0 -0.3524410923228523,-0.5907115431068563 l 16.36474010688179 -9.573807321031103" fill="#ffe015" stroke="none" /><line stroke="#e1ed5e" stroke-width="0.3" x1="26.63291911575756" x2="22.317208475507996" y1="142.92168965132927" y2="145.44649492493687" /><path d="M 25.769776987707644 143.4266507060508 a86.0,86.0 0 0,1 -11.730757126820373,-40.83630448921669" fill="none" id="id21" stroke="none" /><text fill="#e1ed5e" style="font-size:6.75px; font-family:Arial;" text-anchor="middle"><textPath startOffset="21.46611528233685" xlink:href="#id21">September</textPath></text><path d="M 81.51974371655577 109.97397251340807 l -12.515651866018784 6.754817995185864 a35.22213443121201,35.22213443121201 0 0,0 -0.28336625081519756,-0.5360221571825394 l 12.630070625058867 -6.538380822917198" fill="#ffa10e" stroke="none" /><path d="M 81.02952815118164 109.00673069616217 l -19.5668759490273 9.289889236417629 a42.660209519520606,42.660209519520606 0 0,0 -0.30923651141915703,-0.6660679346253121 l 19.72388707728628 -8.95170123451349" fill="#fcff18" stroke="none" /><path d="M 80.87730276802145 108.67885076344099 l -28.151362627312796 12.776517458080312 a51.91502249928171,51.91502249928171 0 0,0 -0.3623147325545679,-0.8169240736146078 l 28.367118444598642 -12.290045047973008" fill="#8eff24" stroke="none" /><path d="M 80.58989483394504 108.01547362559985 l -34.85606863405579 14.393940498425287 a58.71115277599208,58.71115277599208 0 0,0 -0.37770110733198287,-0.9374231733556084 l 35.09867235564516 -13.791817957226874" fill="#45ff2d" stroke="none" /><path d="M 80.32549172779594 107.34259656027581 l -27.065840384103197 10.101068029540487 a49.88929370952423,49.88929370952423 0 0,0 -0.2933389242243292,-0.8071427354104629 l 27.23570356933275 -9.633677497123907" fill="#a5ff21" stroke="none" /><path d="M 80.20201598880116 107.00284435728193 l -7.938212083929047 2.807864864796584 a29.4201731685516,29.4201731685516 0 0,0 -0.1647658152314133,-0.47888658423098995 l 7.985368730103689 -2.670805577476297" fill="#ff5107" stroke="none" /><path d="M 80.0844068197444 106.66101706037122 l -21.512736654055264 7.195201497186657 a43.68410815817651,43.68410815817651 0 0,0 -0.23237397089107603,-0.7151735446795093 l 21.63340287596259 -6.823829052529344" fill="#efff19" stroke="none" /><path d="M 79.86692584326677 105.97154293290107 l -29.629205738219216 8.788130056847901 a51.90503296509803,51.90503296509803 0 0,0 -0.2466906891707751,-0.8587626517814679 l 29.776089064276096 -8.276809929561837" fill="#8eff24" stroke="none" /><path d="M 79.76711848015287 105.62410040840567 l -27.428039101072194 7.624126388462756 a49.4679579899437,49.4679579899437 0 0,0 -0.22098496659432784,-0.8223672691228995 l 27.555212144008294 -7.150868186164318" fill="#aaff21" stroke="none" /><path d="M 79.67330655649465 105.27499134158121 l -8.457346604922739 2.1947706466726378 a29.73748990198524,29.73748990198524 0 0,0 -0.12431500736472632,-0.496576658801305 l 8.493872926582524 -2.048866148473941" fill="#ff5507" stroke="none" /><path d="M 79.58551787078972 104.9243191809786 l -31.958824538621617 7.709010284021933 a53.87545141058232,53.87545141058232 0 0,0 -0.20970232897794633,-0.903392144817143 l 32.08678743353012 -7.157749481856216" fill="#78ff26" stroke="none" /><path d="M 79.35854240842038 103.8639653848113 l -32.09869020783729 6.008695234364653 a53.65624490779958,53.65624490779958 0 0,0 -0.16212760143427013,-0.9092976889882075 l 32.19736425161075 -5.455278794643233" fill="#7bff26" stroke="none" /><path d="M 79.29508885075956 103.50808413554451 l -12.64346712708292 2.142213802662237 a33.82366332098371,33.82366332098371 0 0,0 -0.0923196686968164,-0.5748746651010905 l 12.678468550141027 -1.9242599078679328" fill="#ff8e0d" stroke="none" /><path d="M 79.23777060512086 103.15116336523772 l -25.13808150104239 3.815303260158685 a46.42596469202353,46.42596469202353 0 0,0 -0.11311564480653578,-0.7911305563199365 l 25.200031196865524 -3.382027231858348" fill="#ceff1d" stroke="none" /><path d="M 79.18660465613746 102.79330883721812 l -21.402910847465915 2.8724260998601348 a42.5948008660356,42.5948008660356 0 0,0 -0.09127151204298325,-0.7275237538242991 l 21.449183868755746 -2.5035845917484267" fill="#fdff18" stroke="none" /><path d="M 79.1416061653843 102.43462659150553 l -62.5751815038471 7.303879774516597 a84.0,84.0 0 0,0 -0.15527079399579247,-1.4376147124608716 l 62.69163459934394 -6.225668740170943" fill="#4dd2ff" stroke="none" /><path d="M 79.07016306316243 101.71520430193888 l -24.055706094914168 1.971369901480391 a45.13634800489406,45.13634800489406 0 0,0 -0.0567932211244506,-0.7748983798188167 l 24.086075874702953 -1.5569983851648135" fill="#ddff1b" stroke="none" /><path d="M 79.04373962182676 101.35467743843564 l -30.66462721912874 1.9822562757933375 a51.72863001227118,51.72863001227118 0 0,0 -0.049791636958892854,-0.8890631260308671 l 30.694205206975163 -1.454121433427033" fill="#90ff24" stroke="none" /><path d="M 79.0235259727143 100.99374915477108 l -4.186901929862315 0.1983522229950512 a25.191597711452264,25.191597711452264 0 0,0 -0.01679183990623339,-0.4333227751165088 l 4.189695902619749 -0.1262522008645456" fill="#ff1302" stroke="none" /><path d="M 79.0095281055655 100.63252640178507 l -34.59358435305693 1.0424422826572708 a55.60928725508136,55.60928725508136 0 0,0 -0.020596454781020793,-0.9570363214589808 l 34.60640287052296 -0.4468161454081612" fill="#66ff29" stroke="none" /><line stroke="#e1ed5e" stroke-width="0.3" x1="15.007084014347285" x2="10.007500721073583" y1="101.09737516637583" y2="101.16192664675087" /><path d="M 14.007167355692545 101.11028546245083 a86.0,86.0 0 0,1 10.666146001902534,-42.60595125391555" fill="none" id="id22" stroke="none" /><text fill="#e1ed5e" style="font-size:6.75px; font-family:Arial;" text-anchor="middle"><textPath startOffset="22.20632615414155" xlink:href="#id22">October</textPath></text><path d="M 79.00175016825051 100.2711162175752 l -13.198581121656753 0.17041179239864976 a34.19968120084506,34.19968120084506 0 0,0 -0.0025335493686803575,-0.5887076477410207 l 13.199558968314937 0.05680533354604636" fill="#ff940d" stroke="none" /><path d="M 79.00019446554 99.90962569577889 l -56.713468476085325 -0.2440708436600505 a77.71399366262835,77.71399366262835 0 0,0 0.017270983584637394,-1.3376567119218292 l 56.70086448538297 1.2202638136423516" fill="#45ffef" stroke="none" /><path d="M 79.00486145842228 99.54816195383935 l -7.2149224365927545 -0.15527291951395325 a28.21659306359891,28.21659306359891 0 0,0 0.014630042223675765,-0.4854998767542438 l 7.211180699913434 0.27944294369319145" fill="#ff3f05" stroke="none" /><line stroke="#e1ed5e" stroke-width="0.3" x1="26.266209847984243" x2="21.928928074336255" y1="57.711370442889674" y2="55.22380399835377" /><path d="M 25.398753493254645 57.213857153982495 a86.0,86.0 0 0,1 29.58750427330803,-30.492523968695096" fill="none" id="id23" stroke="none" /><text fill="#e1ed5e" style="font-size:6.75px; font-family:Arial;" text-anchor="middle"><textPath startOffset="21.46611528233685" xlink:href="#id23">November</textPath></text><line stroke="#e1ed5e" stroke-width="0.3" x1="56.762969772571076" x2="54.21961505331055" y1="26.818313649435495" y2="22.513508569990535" /><path d="M 56.25429882871897 25.957352633546506 a86.0,86.0 0 0,1 42.265352541879196,-11.944610805530505" fill="none" id="id24" stroke="none" /><text fill="#e1ed5e" style="font-size:6.75px; font-family:Arial;" text-anchor="middle"><textPath startOffset="22.20632615414155" xlink:href="#id24">December</textPath></text></svg>