<?xml version="1.0" encoding="utf-8" ?>
<svg baseProfile="full" height="300mm" version="1.1" viewBox="0,0,200,300" width="200mm" xmlns="http://www.w3.org/2000/svg" xmlns:ev="http://www.w3.org/2001/xml-events" xmlns:xlink="http://www.w3.org/1999/xlink"><defs /><rect fill="#222222" height="300" width="200" x="0" y="0" /><text fill="#FFFFFF" style="font-size:12px; font-family:Arial; font-weight:bold;" x="10" y="20">Over 10k Runs</text><text fill="#FFFFFF" style="font-size:4px; font-family:Arial" x="10" y="280">ATHLETE</text><text fill="#FFFFFF" style="font-size:9px; font-family:Arial" x="10" y="290">LuccaLu</text><text fill="#FFFFFF" style="font-size:4px; font-family:Arial" x="120" y="280">STATISTICS</text><text fill="#FFFFFF" style="font-size:3px; font-family:Arial" x="120" y="285">Number: 23</text><text fill="#FFFFFF" style="font-size:3px; font-family:Arial" x="120" y="290">Weekly: 1.4</text><text fill="#FFFFFF" style="font-size:3px; font-family:Arial" x="141" y="285">Total: 268.9 km</text><text fill="#FFFFFF" style="font-size:3px; font-family:Arial" x="141" y="290">Avg: 11.7 km</text><text fill="#FFFFFF" style="font-size:3px; font-family:Arial" x="167" y="285">Min: 10.1 km</text><text fill="#FFFFFF" style="font-size:3px; font-family:Arial" x="167" y="290">Max: 21.3 km</text><polyline fill="none" points="38.83216783218086,42.73010198731208 38.465034965076484,42.828267733777466 38.118881118891295,43.306824556457286 37.63636363635305,43.503154988640745 37.62587412586436,43.68721446654672 38.695804195827805,45.56460443515243 39.09440559439827,46.09223143235431 39.33566433569649,46.05542032448284 39.29370629374171,46.558504452761554 39.81818181817653,47.58920657462295 38.01398601400433,48.33768689124554 38.402097902144305,49.245672914570605 38.36013986013131,50.215001490512805 37.62587412586436,50.227271420495526 37.23776223778259,50.595368715861696 36.46153846156085,50.570828932584845 36.06293706293218,50.27635112746066 33.68181818188168,50.399050303924014 32.33916083915392,50.227271420495526 29.50699300697306,50.54628914408386 28.814685314660892,50.77941692494642 27.49300699302694,50.69352779709152 26.07692307693651,50.90211556858412 25.332167832180858,51.135242633397866 23.853146853100043,52.01866725341097 21.587412587425206,52.90208513680409 18.996503496484365,54.25173834024463 18.08391608390957,54.10450420935376 16.90909090905916,55.02471445755509 16.059440559416544,55.02471445755509 16.206293706258293,55.83449343012035 15.430069930036552,56.57065122111817 13.36363636358874,57.981607246925705 12.0,57.9938763544269 13.458041958045214,58.0184145654639 16.090909090882633,56.19030361312616 16.26923076924868,55.932648072513985 16.03846153849736,55.11060037446441 16.195804195769597,55.00017561241111 16.982517482480034,55.02471445755509 18.11538461537566,54.15358227377874 19.048951048927847,54.27627734384441 24.849650349642616,51.9818580287465 27.356643356615677,51.417448452615645 28.216783216805197,50.80395666407276 29.874125874135643,50.44812993807136 33.09440559439827,50.17819169275754 33.55594405590091,50.33770073194319 36.104895104886964,50.239541349168576 36.54545454541221,50.54628914408386 37.35314685315825,50.58309882487811 36.51398601400433,50.52174935034418 36.041958041954786,50.227271420495526 33.56643356644781,50.33770073194319 32.65384615387302,50.202731559213134 31.090909090882633,50.36224056460196 32.958041958045214,50.1536518210487 33.69230769231217,50.33770073194319 34.132867132895626,50.202731559213134 36.03146853146609,50.264081202680245 36.71328671328956,50.55855903896736 37.26923076924868,50.53401924789068 36.51398601400433,50.50947945158987 36.14685314684175,50.239541349168576 32.65384615387302,50.215001490512805 35.92657342663733,50.202731559213134 36.57692307693651,50.52174935034418 37.458041958045214,50.54628914408386 37.69930069934344,50.202731559213134 38.42307692306349,50.0432223341777 38.465034965076484,49.15978264956357 38.150349650357384,48.067743728090136 39.40909090911737,47.88369121069263 42.36713286716258,46.05542032448284 42.39860139862867,46.31309783387405 42.618881118891295,46.32536817716755 43.940559440583456,45.69957901204907 44.83216783218086,45.69957901204907 47.36013986013131,46.803910551723675 48.0,47.454234199591156 39.40909090911737,47.82234030658583 38.21328671328956,48.080013885497465 38.1083916084026,48.32541676112305 38.412587412633,48.66897991357837 41.150349650357384,48.71806028075662 38.517482517519966,48.82849103087938 38.50699300697306,49.356103161742794 38.30769230768783,49.63831331505207 38.349650349642616,50.25181127656833 38.53846153843915,48.803950873276335 41.13986013986869,48.74260045654955 38.32867132866522,48.66897991357837 38.003496503515635,48.19044524386845 38.07692307693651,48.006392921444785 39.09440559439827,47.82234030658583 38.1083916084026,48.04320340933191 38.07692307693651,48.28860636294121 38.33916083921213,48.644439722193056 39.57692307693651,48.6567098185551 38.36013986013131,48.68125000733562 38.003496503515635,48.16590495109995 38.118881118891295,47.969582421872474 39.472027972049545,47.82234030658583 39.41958041960606,48.14136465318006 39.41958041960606,47.78552974854392 39.05244755244348,48.067743728090136 38.87412587413564,47.90823156325496 38.06643356644781,48.11682435001421 38.36013986013131,48.68125000733562 41.150349650357384,48.644439722193056 38.27622377622174,48.59535932385188 38.12937062937999,48.080013885497465 39.325174825207796,47.77325955990091 39.71328671328956,47.3315319039466 39.2832167831948,46.497152846786776 39.534965034981724,46.19039432948193 39.33566433569649,46.30082748927089 39.04195804201299,46.01860920495528 37.62587412586436,43.63813196772389 37.688811188796535,43.306824556457286 38.003496503515635,43.04914035915863 37.5,42.25154278176342 37.720279720262624,41.9815854345361 37.64685314684175,42.190188894477615 37.562937062990386,42.1165641868356" stroke="#4dd2ff" stroke-linecap="round" stroke-linejoin="round" stroke-width="0.5"><title>2022-07-20 14.1km</title></polyline><polyline fill="none" points="74.7204690463841,61.94491937296698 72.42972926364746,62.55464896076592 69.37540955329314,62.48932087702269 59.15088808420114,58.961573574342765 58.77841007069219,58.50426857279672 58.815657872124575,57.959856532354024 60.78979134338442,54.083601192134665 59.05776858085301,57.872750472291955 59.44887049496174,58.961573574342765 68.98430763930082,62.40221673306951 71.070184514625,62.64175304022501 74.19899982761126,62.184456212009536 74.79496464913245,62.053799788918695 72.28073805838358,62.59820100509387 69.31953785137739,62.467544844475924 59.09501638216898,58.961573574342765 58.66666666662786,58.48249211884104 58.722538368660025,57.959856532354024 60.994654250796884,53.53917746270599 64.57044317992404,49.31440038967412 69.20779444731306,46.00420520044281 72.70908777380828,44.414421486042556 82.97085704433266,40.929921084985835 90.56940851861145,37.42358301852073 91.1095016382169,37.467140379492776 94.38730815646704,53.47384651840548 94.66666666662786,55.19422113640758 94.20106914988719,55.97818454890512 88.44628384208772,57.263007020097575 75.22331436455715,61.81426279777952 74.8694602517644,61.640053901996 73.75202621147037,62.315112552270875 70.6418347992003,62.59820100509387 68.31384721503127,62.162680147288484 58.90877737547271,58.78736226496403 58.685290567344055,58.351833346590865 58.9274012761889,57.415443052421324 60.88291084673256,53.669839289053925 64.04897396103479,49.749948425989714 66.48870494915172,47.681087046905304 69.65476806345396,45.6775383160566 81.9092947060708,41.25659550317505 90.77427142614033,37.35824695978954 91.29574064491317,37.75026300121681 94.6107949645957,54.64980034370092 94.51767546124756,55.65153348984313 93.8844628384104,56.06529141047213 88.57665114675183,57.24123043483996 74.19899982761126,62.01024762941233" stroke="#4dd2ff" stroke-linecap="round" stroke-linejoin="round" stroke-width="0.5"><title>2022-07-02 12.1km</title></polyline><polyline fill="none" points="138.43322592193726,35.47368277727219 138.72968134621624,35.5339953735529 138.7941281775711,36.046651409516926 139.19369853200624,36.453759299140074 138.93591120658675,36.921178032658645 138.53634085209342,36.99656800722005 139.4901539562852,38.7154485922365 139.55460078764008,39.27332642534748 140.18617973505752,40.11767790549493 139.55460078764008,40.75093822860799 139.59326888644136,40.373997899499955 140.41818832792342,42.06268279267533 139.00035803794162,42.77132137850276 139.18080916575855,43.283951347810216 139.5288220551447,43.47995643643662 139.41281775868265,44.98767886433052 138.54923021839932,45.1987587298936 138.3430003580288,45.6359945985605 137.07984246325213,45.605840443837224 136.56426781235496,45.213835851158365 132.02721088432008,45.1987587298936 128.83064804866444,45.545532115211245 127.61904761905316,45.87722760633915 125.24740422482137,45.87722760633915 123.88113139994675,46.22399933890847 121.8832796275965,47.384924643469276 118.95739348372445,48.47045662274468 116.0186179735465,49.978126195361256 115.07769423554419,50.18919866136275 114.54923021845752,49.9932028104522 113.60830648051342,50.61134265457804 113.11851056216983,51.25963277826668 112.04869316151598,51.13902088579198 112.13891872542445,52.17929509867099 108.56856426782906,54.71210487699136 106.89294665231137,54.57641978113679 106.8413891873206,53.67184917080158 107.27962764055701,52.52605148051225 107.08628714643419,52.149142329901224 106.80272108846111,52.11898955478682 106.1324740423006,52.82757808253518 106.08091657713521,53.6869253947516 105.33333333331393,56.00864482727775 105.90046544931829,59.023808359212126 105.55245255999034,61.631873313948745 106.00358037953265,64.52631722272781 106.14536340849008,64.49616706857341 106.1324740423006,60.878102223505266 105.6684568564524,60.56151717566536 105.95202291448368,58.81274899026903 105.38489079842111,55.978492869457114 106.3387039026129,52.40544066086295 107.09917651274009,52.19437148064026 107.24095954175573,53.55123932186689 106.93161475117086,54.59149590926245 108.54278553527547,54.71210487699136 112.07447189401137,52.284829739059205 112.22914428933291,51.953149177279556 112.10025062656496,51.10886789669166 113.1571786609129,51.25963277826668 113.55674901540624,50.67164883708756 114.48478338704444,49.978126195361256 115.68349445040803,50.17412206703739 118.89294665236957,48.50061017066764 121.8703902613488,47.44523219282564 123.35266738274368,46.389846390651655 124.17758682422573,46.103383179957746 125.76297887571855,45.801842335335095 127.91550304333214,45.78676527632342 128.86931614752393,45.40983828243043 131.62764052988496,45.31937565538101 132.77479412819957,45.07814170217898 133.58682420337573,45.27414432029764 134.21840315073496,45.063064566551475 136.59004654490855,45.24399008891487 137.1571786609129,45.6359945985605 138.18832796270726,45.65107167352107 137.1571786609129,45.620917521984666 136.49982098100008,45.22891297082242 133.52237737202086,45.334452763883746 132.18188327964162,45.12337309953 127.7479412817629,45.83199644852721 126.00787683494855,45.69630288884218 124.02291442890419,46.088306152872974 121.83172216254752,47.41507842135616 117.8875760830706,49.13383320187859 121.84461152885342,47.41507842135616 123.43000358034624,46.389846390651655 125.32474042248214,45.847073502794956 127.45148585748393,45.89230465577566 129.1657715718029,45.45506957442558 132.9294665234047,45.18368160701357 133.76727533119265,45.31937565538101 134.3344074471388,45.12337309953 136.680272108817,45.22891297082242 137.1958467597724,45.6359945985605 138.3043322591693,45.620917521984666 138.54923021839932,45.16860448254738 139.23236663086573,45.16860448254738 139.36126029357547,44.94244742390583 139.2968134621624,43.13317801908124 139.0776942355442,42.60547011079325 140.09595417109085,42.46977347531356 140.27640529896598,42.12299259689462 140.13462226995034,42.40946381801041 141.33333333331393,42.04760533764784 140.77909058361547,40.97710194690444" stroke="#4dd2ff" stroke-linecap="round" stroke-linejoin="round" stroke-width="0.5"><title>2022-06-29 12.2km</title></polyline><polyline fill="none" points="162.99910963428556,44.936209705265355 163.19902929567616,44.65933562163991 163.01391849806532,44.988123491850274 162.8954475875944,44.91890510241501 163.11017611282296,44.633378628357605 163.21383815948502,44.72855423016881 163.1175805447274,44.85833896369877 162.97689633857226,45.005428080090496 162.8954475875944,44.90160049592669 163.1397938404407,44.65068329145288 163.19902929567616,44.71990190730867 163.02132292996976,44.96216660266509 162.88063872375642,44.91890510241501 163.1175805447274,44.633378628357605 163.19162486374262,44.71990190730867 163.0509406575875,44.927557404284016 162.95468304280075,45.005428080090496 162.86582985997666,44.91890510241501 163.08055838520522,44.64203096036363 163.1842204318673,44.72855423016881 163.0731539533008,44.892948191314645 162.93246974711656,45.01408037285 162.85842542804312,44.884295885778556 163.05834508949192,44.6160739616098 163.15460270422045,44.66798795089562 162.99170520235202,45.005428080090496 162.8732342918811,44.91890510241501 163.1397938404407,44.66798795089562 163.01391849806532,45.01408037285 162.85842542804312,44.927557404284016 163.12498497663182,44.64203096036363 163.22124259138945,44.77181583086349 163.0953672490141,44.927557404284016 162.97689633857226,45.03138495560415 162.88063872375642,44.94486200530082 163.1175805447274,44.67664027923456 163.2064337275806,44.77181583086349 163.04353622568306,45.005428080090496 162.8510209961678,44.94486200530082 162.93246974711656,44.80642509495374 162.8288077004254,44.892948191314645 163.13238940850715,44.66798795089562 163.1842204318673,44.763163512536266 162.96208747470519,45.005428080090496 162.8288077004254,44.884295885778556 163.02872736184509,44.624726295427536 162.84361656426336,44.85833896369877 162.88804315568996,44.95351430444862 162.81399883664562,44.85833896369877 160.53343381002196,47.59242294236901 159.99291028099833,48.45762040487898 159.26727595436387,51.269449125138635 159.14880504389293,52.57583521021297 159.72635073246784,55.60380242537212 160.74816233525053,59.29777108012058 162.0957689418865,61.63344997155218 163.51001543566235,64.7389348586803 165.33891011611558,66.78035950722551 165.93866910034558,68.0 165.19822590987314,66.60735938783182 163.54703759518452,64.91193891711009 162.8065944047412,63.519245896437496 161.8069960976136,61.19227127447084 160.6519047204929,59.15070759146329 159.63749754958553,55.4567323146257 159.15620947576826,52.766167870140634 159.1636139077018,51.76259068807849 159.71154186862987,49.24494216372841 160.0743590319471,48.275929694886145 160.55564710576436,47.5232067510442 162.76957224521902,44.927557404284016 162.8732342918811,44.95351430444862 162.9176608833077,44.80642509495374 162.90285201946972,44.94486200530082 162.71033678995445,44.67664027923456 162.63629247093922,44.05367030450725 162.66591019855696,44.46898414685711 162.82140326855006,44.624726295427536 162.96949190663872,44.60742162687529 163.90985475850175,43.214383827653364 163.54703759518452,42.42700416838488 163.73955282467068,42.13281642142829 163.4507799804269,41.579048387284274 162.8954475875944,37.088197584744194 164.26526748991455,36.309412301983684 176.70471308959532,32.02596099337825 176.77875740863965,32.17307313376659 176.92684604672831,32.043268317698676 177.8598044666869,32.0 178.51139447427704,33.955705145708635 179.2148155052273,35.59119265035406 179.20000664138934,34.725859411177225 178.6594831123657,33.37592131803831 178.9260426609253,33.13362238401169 178.5039900423726,33.34996075222443 178.58543879332137,33.99031897584064 179.49618391759577,36.36998475596192 179.77755232993513,37.373750334802025 179.7923611937731,38.031383188390464 180.35509801848093,38.50729841074644 180.85119495613617,41.224288775003515 180.7697462051583,41.665574889171694 179.88861880850163,42.150121612234216 179.45175732614007,42.63466547194548 180.34028915470117,45.230387394818536 180.2144138123258,45.368823589451495" stroke="#4dd2ff" stroke-linecap="round" stroke-linejoin="round" stroke-width="0.5"><title>2021-12-25 13.7km</title></polyline><polyline fill="none" points="43.05398871883517,80.82967726785864 42.67687348916661,81.11812180375273 42.45930701051839,81.77984554090654 43.416599516524,83.12025191249268 43.880741337663494,84.40974618960172 44.460918614058755,84.90178732204367 44.73650282039307,84.79998583247652 43.9532634972129,85.13932387949899 43.66317485901527,85.56349542726821 44.35938759072451,86.24216756723763 44.504431909823325,87.20927039827802 43.764705882407725,86.93780352646718 43.05398871883517,87.54860334111436 43.53263497183798,89.33008949726354 43.32957292511128,90.50076961198647 43.416599516524,88.99076032840821 42.908944399736356,87.51467007921019 45.490733279671986,86.92083683167584 44.51893634168664,87.14140372346446 44.30136986303842,86.92083683167584 43.66317485901527,86.95477021939587 41.74858984700404,87.36197031155461 41.54552780021913,86.9887035999127 40.646253021783195,87.51467007921019 37.252215954940766,88.41389909159625 36.33843674464151,88.2951332849916 33.988718775159214,86.42880190159485 33.39403706690064,86.20823402852693 33.36502820305759,85.75013055239106 34.119258662394714,84.7660519881756 35.91780821926659,82.95058084002812 33.40854149882216,85.80103100335691 28.883158743032254,87.44680353377771 29.941982272372115,90.48380329461361 29.521353746997193,89.83908190278453 28.81063658342464,90.3989716807555 24.705882353009656,91.65447497773857 23.951651893672533,90.22930831834674 24.647864625323564,91.75627211104438 25.837228041957133,91.67144117110001 23.705076551181264,92.9099684345274 16.786462530202698,96.03169329864613 15.437550362606999,95.92989888211014 15.045930701075122,96.40493893918756 14.248186946031637,96.72728674708924 13.450443190988153,97.88094727136195 13.029814665555023,97.72825738487882 13.203867848496884,97.16839322267333 12.594681708316784,97.15142761143215 12.797743755043484,98.16936110440292 12.0,99.17032273214136 12.739726027357392,98.16936110440292 12.49315068492433,97.20232443965506 13.726027397206053,96.43887031788472 14.117647058854345,96.50673305384407 14.610797743778676,95.16643869644031 16.206285253865644,95.04767789610196 16.19178082194412,94.4538725737948 16.75745366641786,94.18241797902738 16.30781627719989,93.65647339275165 16.64141821116209,93.41894946515094 20.093473005632404,91.38301563919231 23.458501208748203,89.92391381312336 23.89363416604465,90.16144292303943 24.720386784814764,91.72233974044502 29.376309427956585,89.83908190278453 24.778404512500856,91.62054258557328 23.96615632553585,90.00874567851133 24.038678485143464,89.73728355106141 26.51893634168664,88.685363461831 28.636583400540985,88.07456798190833 28.970185334444977,88.24423362661037 29.564867042703554,89.63548513468413 29.448831587447785,89.92391381312336 29.985495568078477,90.58560117187153 29.941982272372115,91.29818450157472 31.711522965342738,90.77223044561106 36.33843674464151,90.41593800713599 36.88960515713552,90.6365000862861 39.094278807460796,90.51773592754034 39.80499597109156,90.89099441566213 38.717163577792235,91.24728579740622 42.50282030622475,91.36604941522819 43.08299758262001,90.97582576891 42.38678485102719,91.29818450157472 41.77759871078888,91.0606570772361 42.24174053192837,90.89099441566213 42.41579371475382,90.50076961198647 43.02497985505033,90.48380329461361 47.3908138598199,90.840095582098 47.492344883212354,91.39998186133744 48.0,91.48481294504018 47.492344883212354,91.36604941522819 47.23126510885777,90.72133157432836 43.489121676189825,90.55166855335119 43.24254633364035,89.46582096353814 43.358581788954325,88.58356437693874 47.23126510885777,88.481765227305 43.416599516524,88.32906638157147 42.92344883159967,87.58253659591719 44.11281224823324,87.17533706447284" stroke="#4dd2ff" stroke-linecap="round" stroke-linejoin="round" stroke-width="0.5"><title>2021-11-29 10.3km</title></polyline><polyline fill="none" points="67.67786270799115,93.26780584844528 67.53090678504668,87.99392665713094 68.70655416930094,86.84742436942179 85.65547062503174,87.19137531117303 86.92908862465993,91.37609423272079 86.48822085582651,97.50980175932636 75.90739439753816,98.94290096050827 67.23699493892491,97.33782959985547 67.6288774004206,87.19137531117303 72.42943755257875,86.44614799396368 86.09633839433081,87.30602557648672 86.19430900970474,97.28050553443609 67.53090678504668,97.50980175932636 67.67786270799115,87.64997622621013 68.5106129385531,86.84742436942179 85.70445593283512,87.47800092870602 86.48822085582651,88.91112673579482 86.24329431750812,97.22318146302132 68.1187304770574,97.73909788695164 67.43293616967276,96.70726454659598 67.97177455411293,73.77712634159252 85.60648531769402,73.0318805227871 69.29437786131166,73.26118703826796 67.4819214772433,72.0 66.55120063154027,72.22930695302784 66.4042447085958,87.19137531117303 80.85491047310643,87.0193998676259 86.04735308676027,87.64997622621013 86.53720616339706,88.50985189294443 85.7534412406385,97.6244498352753 67.72684801579453,97.6244498352753 67.4819214772433,89.36972619121661 67.77583332336508,87.30602557648672 68.5106129385531,86.84742436942179 80.12013085791841,86.90474954165984 86.24329431750812,87.7646263942006 86.34126493264921,96.99388511647703 67.87380393897183,97.56712580041494 68.06974516948685,86.96207470761146 85.7534412406385,87.5926511331345 86.48822085582651,88.73915183969075 86.48822085582651,94.98753793403739 85.55750000989065,97.68177386408206 67.92278924654238,97.68177386408206 67.53090678504668,88.79647681111237 68.41264232317917,86.84742436942179 85.7534412406385,87.53532603400527 86.48822085582651,88.10857675212901 86.58619147120044,93.43977930326946 86.09633839433081,97.39515365904663 68.21670109243132,97.68177386408206 67.43293616967276,96.53529213153524 67.97177455411293,86.96207470761146 83.69605831801891,87.134050169494 86.14532370213419,87.64997622621013 86.63517677877098,88.56717688863864 85.94938247138634,97.45247771235881 68.0207598619163,97.68177386408206 67.57989209285006,88.8538017764804 68.2656864002347,86.90474954165984 85.70445593283512,87.53532603400527 86.53720616339706,88.56717688863864 86.48822085582651,96.70726454659598 85.90039716358297,97.45247771235881 67.67786270799115,97.68177386408206 67.6288774004206,88.2805518488749 68.3636570153758,86.79009919118835 81.98157254955731,86.84742436942179 86.39025024045259,87.70730131329037 85.94938247138634,105.01919935340993 67.92278924654238,108.0 67.97177455411293,86.84742436942179 81.29577824193984,86.90474954165984 86.29227962507866,87.7646263942006 85.90039716358297,97.50980175932636 68.55959824635647,97.73909788695164 67.57989209285006,97.22318146302132 67.87380393897183,87.134050169494 80.51201331918128,86.90474954165984 85.70445593283512,87.47800092870602 86.48822085582651,88.45252689119661 85.90039716358297,97.6244498352753 68.2656864002347,97.6244498352753 67.4819214772433,96.93656101473607 67.92278924654238,87.0193998676259 82.37345501105301,87.07672502147034 85.80242654844187,87.53532603400527 86.48822085582651,88.39520188310416 85.85141185601242,97.56712580041494 68.65756886149757,97.796421903593 67.4819214772433,97.0512092121644 67.67786270799115,87.19137531117303 81.0018663960509,87.0193998676259 85.70445593283512,87.53532603400527 86.48822085582651,88.45252689119661 85.99836777895689,97.50980175932636 68.46162763098255,97.85374591423897 67.4819214772433,96.82191279274411 67.97177455411293,86.96207470761146 81.1488223192282,86.79009919118835 85.26358816376887,87.36335069988854 86.53720616339706,88.50985189294443 86.48822085582651,96.70726454659598 85.80242654844187,97.6244498352753 68.16771578486077,97.56712580041494 67.38395086186938,96.82191279274411 67.97177455411293,87.0193998676259 77.18101239716634,86.61812361993361 85.85141185601242,87.53532603400527 86.43923554825597,95.10218654514756 86.39025024045259,96.99388511647703 85.5085147023201,97.73909788695164 67.77583332336508,97.56712580041494 67.57989209285006,88.39520188310416 68.41264232317917,86.79009919118835 85.45952939474955,87.36335069988854 86.53720616339706,88.73915183969075 86.53720616339706,93.09583233878948 86.39025024045259,97.0512092121644 85.70445593283512,97.68177386408206 68.2656864002347,97.73909788695164 67.4819214772433,96.76458867278416 67.82481863116845,86.96207470761146 81.58969008806162,86.79009919118835 86.29227962507866,88.10857675212901 86.29227962507866,97.22318146302132 76.15232093632221,97.73909788695164" stroke="#ffa700" stroke-linecap="round" stroke-linejoin="round" stroke-width="0.5"><title>2021-11-28 21.3km</title></polyline><polyline fill="none" points="131.18660434149206,77.07385982759297 120.85335301514715,74.65773750469089 115.89339237753302,80.21481502871029 118.1667076703161,104.85908297845162 126.01997867785394,107.7583911519032 130.97993931453675,101.23494259035215 130.97993931453675,78.0403080410324 123.74666338600218,72.0 115.89339237753302,79.24836773448624 117.13338253647089,103.4094275124371 124.57332349289209,107.7583911519032 130.97993931453675,103.4094275124371 131.39326936751604,78.76514393393882 126.84663878474385,72.48322523059323 122.09334317408502,72.72483780793846 115.89339237753302,79.73159143235534 116.51338745839894,101.47655212879181 122.71333825401962,107.51678227749653 127.25996883679181,107.03356445301324 131.59993439447135,100.51011382346042 130.15327920857817,79.00675584678538 125.19331857189536,73.69128786027431 119.61336285527796,74.41612513246946 115.68672735244036,81.66448520449921 116.9267175104469,103.65103682037443 123.95332841295749,108.0 130.97993931453675,102.92620882042684 131.59993439447135,79.73159143235534 126.63997375685722,73.44967538514175 118.78670274931937,74.89934985153377 115.48006232455373,82.38931994815357 118.1667076703161,104.13425536011346 125.19331857189536,108.0 131.39326936751604,102.20138058904558 130.35994423553348,77.55708398553543 122.92000327911228,72.48322523059323 116.72005248442292,76.83224770985544 115.89339237753302,81.42287357198074 116.9267175104469,102.20138058904558 126.01997867785394,108.0 132.01326444745064,98.81884580664337 130.56660926155746,77.55708398553543 126.84663878474385,73.93290031002834 118.78670274931937,74.65773750469089 115.27339729946107,82.14770839200355 117.13338253647089,102.92620882042684 126.63997375685722,107.27517337771133 132.01326444745064,99.5436751099769 130.15327920857817,76.5906355669722 120.64668798726052,73.93290031002834 114.65340221952647,82.6309314777609 116.30672243144363,100.99333302699961 124.57332349289209,107.7583911519032 132.21992947440594,99.78528482699767 131.39326936751604,79.24836773448624 125.39998359885067,73.44967538514175 120.64668798726052,73.69128786027431 115.48006232455373,80.21481502871029 117.75337761640549,103.89264610339887 126.84663878474385,107.27517337771133 132.42659450042993,99.30206536734477 130.15327920857817,76.5906355669722 126.43330873083323,72.72483780793846 120.44002296216786,73.69128786027431 116.10005740448833,80.9396502317395 116.30672243144363,102.44299002480693 121.47334809415042,107.7583911519032 128.91328904870898,106.3087375247851 132.01326444745064,99.78528482699767 128.499958996661,73.93290031002834 123.33333333395422,72.24161262833513 116.72005248442292,77.55708398553543 115.27339729946107,92.05376122472808 119.40669782925397,106.79195550177246 127.25996883679181,108.0 130.35994423553348,105.10069213295355 130.77327428758144,82.38931994815357 129.3266191026196,75.86579898511991 124.77998851798475,72.72483780793846 116.51338745839894,77.31547191925347 115.89339237753302,101.95977112744004 123.12666830606759,107.03356445301324 131.80659942049533,101.71816164092161 128.7066240236163,74.65773750469089 117.54671259131283,75.38257447001524 115.27339729946107,98.09401627373882 118.99336777627468,105.82551944395527 127.05330381076783,106.79195550177246 130.77327428758144,103.16781817912124 131.39326936751604,81.90609681094065 125.39998359885067,73.69128786027431 117.9600426433608,76.34902339871041 116.10005740448833,80.45642678881995 116.72005248442292,102.92620882042684 122.09334317408502,107.51678227749653 126.84663878474385,107.27517337771133 131.80659942049533,100.51011382346042 130.35994423553348,78.0403080410324 123.33333333395422,73.44967538514175 119.20003280322999,74.174512734171 115.89339237753302,81.1812619145494 116.72005248442292,102.44299002480693 124.57332349289209,108.0 132.01326444745064,100.7517234380357 131.18660434149206,80.21481502871029 126.63997375685722,73.20806288486347 118.1667076703161,75.62418674025685 115.89339237753302,79.97320324345492 116.72005248442292,102.44299002480693 120.64668798726052,107.51678227749653 130.97993931453675,102.92620882042684 130.97993931453675,81.1812619145494 126.01997867785394,73.69128786027431 117.34004756435752,76.1074112050701 116.30672243144363,101.71816164092161 122.50667322706431,107.7583911519032 128.499958996661,106.3087375247851 131.80659942049533,100.99333302699961 131.59993439447135,80.21481502871029 123.74666338600218,73.44967538514175 115.89339237753302,80.45642678881995 116.10005740448833,100.99333302699961 123.74666338600218,108.0 131.59993439447135,101.95977112744004 130.56660926155746,78.76514393393882 125.19331857189536,72.24161262833513 114.24007216654718,78.76514393393882 116.30672243144363,99.78528482699767 121.68001312203705,106.79195550177246 131.80659942049533,101.95977112744004 131.39326936751604,80.9396502317395 125.81331365182996,74.41612513246946 120.64668798726052,74.41612513246946 116.30672243144363,78.52353199501522 116.10005740448833,101.23494259035215 125.19331857189536,107.7583911519032 131.18660434149206,102.92620882042684 131.18660434149206,79.48997959611006 125.81331365182996,72.96645035943948 116.30672243144363,77.79869602620602 116.9267175104469,103.4094275124371 124.15999343898147,107.51678227749653 131.80659942049533,101.23494259035215 131.59993439447135,78.76514393393882 126.63997375685722,72.24161262833513 116.30672243144363,78.76514393393882 115.89339237753302,100.51011382346042 117.75337761640549,105.10069213295355 124.98665354494005,107.51678227749653 131.80659942049533,99.78528482699767 132.01326444745064,78.28192003117874 124.77998851798475,72.48322523059323 116.9267175104469,77.79869602620602 116.30672243144363,102.20138058904558 123.74666338600218,107.27517337771133 131.18660434149206,103.89264610339887 132.01326444745064,80.21481502871029 129.73994915559888,74.89934985153377 123.12666830606759,72.72483780793846 116.10005740448833,79.73159143235534 117.34004756435752,104.13425536011346 125.60664862487465,107.27517337771133 132.01326444745064,99.5436751099769 131.18660434149206,77.79869602620602 126.01997867785394,72.72483780793846 114.86006724555045,79.00675584678538 118.1667076703161,105.10069213295355 125.19331857189536,107.51678227749653 132.01326444745064,99.5436751099769 131.59993439447135,79.73159143235534 123.95332841295749,73.20806288486347 114.86006724555045,80.45642678881995 116.30672243144363,101.47655212879181 121.06001804117113,107.51678227749653 131.59993439447135,103.16781817912124 131.80659942049533,78.52353199501522 126.63997375685722,72.72483780793846 115.06673227250576,79.00675584678538 121.06001804117113,73.44967538514175 126.01997867785394,73.20806288486347 132.42659450042993,80.9396502317395" stroke="#4dd2ff" stroke-linecap="round" stroke-linejoin="round" stroke-width="0.5"><title>2021-11-28 10.4km</title></polyline><polyline fill="none" points="175.29562732204795,77.96182471583597 170.39226869121194,73.37580715795048 162.9391635702923,79.56692857062444 162.74302922468632,102.26755591458641 170.58840303588659,106.16561954049394 177.45310511998832,98.82808219222352 176.86470208410174,78.64972651330754 170.19613434467465,72.91720486897975 161.9584918441251,80.25482985889539 162.9391635702923,102.03825783659704 167.64638785645366,106.85351239494048 172.35361214261502,106.62421480147168 177.45310511998832,101.35036345524713 176.6685677394271,77.50322339637205 169.4115969631821,72.91720486897975 161.76235749851912,80.02552945329808 162.9391635702923,102.03825783659704 170.0,106.62421480147168 177.25697077531368,102.03825783659704 177.84537381026894,79.33762809238397 172.9420151785016,73.37580715795048 168.62705958355218,73.14650602522306 162.74302922468632,78.64972651330754 162.54689488001168,99.51597737288103 169.80386565532535,107.0828099641949 178.23764250148088,100.43317060777918 177.84537381026894,79.33762809238397 172.74588083382696,73.60510826599784 164.50823833234608,75.89811801468022 162.54689488001168,79.79622902418487 163.13529791589826,101.12106527923606 171.37294041644782,106.62421480147168 177.25697077531368,101.5796616061125 177.6492394655943,79.56692857062444 171.5690747620538,73.37580715795048 162.54689488001168,79.33762809238397 162.54689488001168,100.20387233560905 164.50823833234608,104.7898331778124 171.17680607084185,106.85351239494048 177.45310511998832,101.5796616061125 177.25697077531368,77.27392269996926 169.80386565532535,73.37580715795048 165.68504440411925,74.75161344348453 162.3507605344057,82.5478325788863 163.72370095085353,102.72615199838765 173.13814952410758,106.16561954049394 178.0415081558749,99.51597737288103 177.45310511998832,78.42042593797669 174.70722428616136,74.75161344348453 167.0579848214984,73.83440934959799 162.3507605344057,81.1720312377438 163.13529791589826,102.26755591458641 168.0386565476656,106.62421480147168 173.13814952410758,106.16561954049394 178.23764250148088,99.51597737288103 176.47243339382112,76.81532123498619 169.4115969631821,73.37580715795048 162.15462618973106,81.1720312377438 163.13529791589826,102.03825783659704 169.80386565532535,106.85351239494048 177.84537381026894,99.74527571815997 177.6492394655943,79.33762809238397 170.19613434467465,73.37580715795048 162.74302922468632,78.19112533912994 162.74302922468632,99.28667900385335 163.9198352964595,103.41404594364576 169.80386565532535,106.39491718309 178.0415081558749,98.82808219222352 177.84537381026894,80.48413023981266 170.19613434467465,73.37580715795048 162.74302922468632,78.64972651330754 162.15462618973106,99.9745740389917 164.50823833234608,104.56053536641411 170.78453738056123,106.62421480147168 177.0608364297077,100.6624688564334 177.6492394655943,77.96182471583597 170.19613434467465,73.37580715795048 163.72370095085353,77.27392269996926 162.54689488001168,101.5796616061125 169.21546261943877,107.0828099641949 177.84537381026894,100.43317060777918 177.0608364297077,77.27392269996926 170.39226869121194,73.14650602522306 162.74302922468632,78.64972651330754 163.13529791589826,101.35036345524713 170.58840303588659,107.0828099641949 178.0415081558749,98.36948528396897 177.45310511998832,77.27392269996926 166.86185047589242,73.83440934959799 162.15462618973106,80.7134305969812 162.3507605344057,100.20387233560905 170.58840303588659,107.0828099641949 174.70722428616136,105.93632187438197 178.0415081558749,99.05738061037846 176.6685677394271,76.5860204664059 169.4115969631821,73.37580715795048 162.74302922468632,79.1083275906276 163.13529791589826,101.35036345524713 166.86185047589242,106.16561954049394 176.86470208410174,102.95545000466518 178.23764250148088,83.00643283152021 174.51108994148672,74.29301144485362 178.82604553736746,80.25482985889539 178.0415081558749,99.74527571815997 173.72655255999416,106.16561954049394 168.4309252370149,107.31210750923492 160.78168577235192,99.05738061037846 161.56622315384448,78.19112533912994 170.58840303588659,72.0 177.84537381026894,77.96182471583597 178.6299111917615,101.35036345524713 175.88403035793453,106.16561954049394 169.4115969631821,107.7707025273703 162.74302922468632,101.35036345524713 162.3507605344057,78.19112533912994 169.4115969631821,72.6879036880564 174.31495559588075,73.60510826599784 179.0221798820421,79.56692857062444 178.0415081558749,102.49685396859422 173.33428386971354,107.31210750923492 166.4695817856118,107.0828099641949 161.76235749851912,99.51597737288103 163.52756660617888,75.43951625819318 171.76520910765976,72.6879036880564 179.21831422764808,81.63063178118318 178.43377684708685,102.49685396859422 174.90335863269866,106.16561954049394 165.88117874972522,106.39491718309 161.56622315384448,98.36948528396897 162.9391635702923,76.12741885590367 169.80386565532535,72.22930125356652 177.45310511998832,77.04462197935209 178.6299111917615,100.20387233560905 173.72655255999416,106.39491718309 169.4115969631821,107.0828099641949 162.9391635702923,101.5796616061125 163.52756660617888,75.43951625819318 171.76520910765976,72.45860248222016 178.82604553736746,79.1083275906276 178.82604553736746,101.80895973346196 170.39226869121194,108.0 162.3507605344057,102.03825783659704 162.15462618973106,79.56692857062444 168.4309252370149,72.6879036880564 172.9420151785016,72.91720486897975 178.6299111917615,80.02552945329808 178.6299111917615,102.26755591458641 167.64638785645366,107.31210750923492 162.54689488001168,101.35036345524713 162.15462618973106,78.19112533912994 170.78453738056123,72.6879036880564 175.29562732204795,74.29301144485362 179.0221798820421,81.63063178118318 177.25697077531368,103.184747985797 169.4115969631821,107.0828099641949 162.3507605344057,101.12106527923606 162.3507605344057,78.42042593797669 170.0,73.37580715795048 177.45310511998832,76.5860204664059 179.21831422764808,80.48413023981266 177.84537381026894,103.64334387681447 170.19613434467465,107.0828099641949 162.74302922468632,102.95545000466518 161.9584918441251,79.56692857062444 170.19613434467465,73.14650602522306 177.45310511998832,77.04462197935209 179.21831422764808,99.05738061037846 171.17680607084185,108.0 166.86185047589242,107.0828099641949 162.3507605344057,100.43317060777918 161.76235749851912,78.64972651330754 168.4309252370149,72.91720486897975 176.86470208410174,75.21021534432657 179.21831422764808,79.56692857062444 178.43377684708685,103.184747985797 171.37294041644782,107.0828099641949 163.72370095085353,103.41404594364576 161.9584918441251,80.94273092900403 165.29277571383864,74.98091440624557 170.98067172709852,73.14650602522306 178.43377684708685,80.02552945329808" stroke="#4dd2ff" stroke-linecap="round" stroke-linejoin="round" stroke-width="0.5"><title>2021-11-28 10.7km</title></polyline><polyline fill="none" points="47.758633533761895,134.66197166268284 47.710743361894856,134.63287443058834 47.70882775501377,134.7224042480193 47.99233757249749,135.81016135683421 48.0,135.9914487880469 47.737561858142726,136.0227822611796 47.19161389879446,136.0227822611796 47.036449741928664,136.04292518376678 47.00963124567352,136.0854490686761 47.0498589900526,136.37416161333203 47.195445112542075,136.85310244498578 47.22801042941137,137.08361684337433 47.3965838344011,137.60506250858452 47.43872718565399,137.63415566629192 47.590060128772166,137.60282457172798 47.63411908689886,137.6207280599956 47.624541052522545,137.6475832640972 47.538338743150234,137.6789142926027 47.538338743150234,137.7057694230898 47.58622891502455,137.66324878412888 45.586335337626224,137.78633461071877 45.295163092639996,137.75947958214965 45.02506252328021,137.6677246448744 44.77986484329449,137.5133069038784 44.52892034268007,137.2335617587596 44.3469376895664,136.8732445796104 43.99255041771539,135.8795431492199 43.973394348962756,135.9198292471683 43.73394348959846,135.19466778363312 43.66306603522389,134.76716901508553 13.137870483689767,123.03556852953625 13.180013834942656,123.05572379185833 13.162773373063828,123.0086948166063 13.021018464321969,122.65709393227189 12.946309796199785,122.58095029700053 12.929069334320957,122.4510575817294 12.883094769327727,122.47121340009107 12.840951418082113,122.35923638877102 12.869685521203792,122.41074588748415 12.85244505933224,122.4510575817294 12.73750864683825,122.47569246823332 12.741339860585867,122.38387138204416 12.758580322464695,122.46225526096168 12.731761826216825,122.44881804517172 12.727930612469208,122.28757079094612 12.641728303089621,122.27413346436333 12.720268184966699,122.26517524190604 12.739424253704783,122.29428945103791 12.415686691856536,122.29428945103791 12.404193050606409,122.40626680561218 12.400361836851516,122.3099663163066 12.314159527479205,122.3010081090033 12.302665886229079,122.46225526096168 12.245197679985722,122.51152497928706 12.051721385621931,122.51824356836005 12.126430053744116,122.39954818102888 12.059383813124441,122.53839932280607 12.001915606873808,122.21366538928123 12.0,122.2562170156616 12.063215026879334,122.29428945103791 12.222210397485469,122.2562170156616 12.266269355612167,122.27413346436333 12.258606928109657,122.31220586753807 12.229872824995255,122.26293568570327 12.568935241841245,122.26293568570327 12.509551428716804,122.2830916830244 12.565104028100905,122.27189390910644 12.57085084872233,122.31668496929706 12.563188421227096,122.28981034454591 12.455914436221065,122.2987685565804 12.365880913108413,122.26741479787415 12.132176874372817,122.30772676483866 12.091949129993736,122.23382143348317 12.047890171874315,122.30772676483866 12.036396530624188,122.26069612925858 12.030649709995487,122.31892451982458 12.078539881862525,122.30772676483866 12.044058958126698,122.48241106867135 12.090033523112652,122.524962155303 12.08811791624612,122.54063884989591 12.086202309372311,122.69068662554855 12.114936412501265,122.72427926556338 12.191560687489982,122.72203975788398 12.231788431861787,122.65709393227189 12.229872824995255,122.46225526096168 12.16857340498973,122.41074588748415 12.122598839989223,122.41746450851497 12.08045548874361,122.48912966698117 12.095780343741353,122.71308172480349 12.13983930186805,122.74219531845483 12.203054328747385,122.71756074181758 12.22795721811417,122.47793200194792 12.16091097748722,122.41298542806908 12.105358378117671,122.4286622055115 12.08045548874361,122.48912966698117 12.086202309372311,122.68844711431666 12.145586122489476,122.73547680039701 12.229872824995255,122.67501004197948 12.22029479061166,122.46225526096168 12.145586122489476,122.41298542806908 12.084286702498503,122.46449479610419 12.086202309372311,122.68620760285376 12.137923695001518,122.73547680039701 12.226041611233086,122.67501004197948 12.222210397485469,122.47345293428225 12.162826584368304,122.41522496841208 12.082371095624694,122.46449479610419 12.082371095624694,122.67501004197948 12.13983930186805,122.7377163066576 12.233704038735596,122.67501004197948 12.22795721811417,122.46673433099932 12.189645080616174,122.41522496841208 12.13409248123935,122.41522496841208 12.082371095624694,122.47121340009107 12.082371095624694,122.6593334468107 12.122598839989223,122.73099778717187 12.195391901237599,122.72427926556338 12.222210397485469,122.68844711431666 12.226041611233086,122.46897386566707 12.149417336244369,122.41298542806908 12.08045548874361,122.48689013444528 12.086202309372311,122.68620760285376 12.149417336244369,122.72875828020005 12.222210397485469,122.6794890670426 12.218379183737852,122.4510575817294 12.149417336244369,122.41298542806908 12.08045548874361,122.47121340009107 12.086202309372311,122.67501004197948 12.164742191242112,122.7377163066576 12.229872824995255,122.6817285792149 12.22029479061166,122.45329711805243 12.145586122489476,122.41074588748415 12.08045548874361,122.46897386566707 12.090033523112652,122.69516564729383 12.153248549999262,122.73547680039701 12.231788431861787,122.66381247519166 12.222210397485469,122.45553665413536 12.155164156865794,122.41074588748415 12.08045548874361,122.48689013444528 12.09386473687482,122.70412368794132 12.172404618737346,122.72875828020005 12.22795721811417,122.67277052909594 12.22029479061166,122.46225526096168 12.162826584368304,122.41298542806908 12.084286702498503,122.46449479610419 12.086202309372311,122.6817285792149 12.16857340498973,122.73099778717187 12.231788431861787,122.66605198902107 12.222210397485469,122.45329711805243 12.14750172937056,122.41298542806908 12.084286702498503,122.47569246823332 12.084286702498503,122.67724955462654 12.155164156865794,122.73323729389995 12.233704038735596,122.67053101597412 12.224126004366553,122.46449479610419 12.162826584368304,122.41298542806908 12.082371095624694,122.46897386566707 12.084286702498503,122.67501004197948 12.124514446870307,122.72651877299904 12.16857340498973,122.73099778717187 12.214547969990235,122.70636319751611 12.229872824995255,122.63469877383432" stroke="#4dd2ff" stroke-linecap="round" stroke-linejoin="round" stroke-width="0.5"><title>2021-11-20 11.8km</title></polyline><polyline fill="none" points="94.38184288342018,127.76643866246741 93.96755374409258,127.13110613760364 94.4508910732693,127.17144483613083 94.6321425717324,127.00000524987263 94.43362902579247,125.7898347209848 94.05386398144765,125.90076765714912 93.97618476781645,126.23356569344469 93.82082634058315,126.12263314341544 93.99344681526418,126.86890418238181 93.82945736430702,126.93949708720174 93.89850555421435,127.07059805790777 94.39047390714404,127.06051337425015 94.53720131062437,126.87898888625932 94.31279469351284,126.32432859321125 93.75177815067582,126.28398953727446 93.32885798768257,126.64704042788071 92.94046191955567,126.71763349654066 93.08718932309421,127.17144483613083 93.81219531685929,127.24203751758614 94.51130823939457,126.9899205587717 94.4508910732693,126.36466763210774 94.09701910012518,125.00321566298226 93.89850555421435,124.5998187637233 93.74314712701016,124.7510928003976 92.52617278028629,125.0637250510772 92.91456884838408,126.57644730712491 92.73331734995008,126.83865006436099 92.88867577721248,127.84711550639622 88.57316390951746,128.87573929964128 89.52257652042317,132.51617188226373 89.36721809318988,132.38507837762882 88.94429793016752,132.64726520718978 86.27731159591349,133.262393024037 85.69903300568694,132.93970351516327 85.43147126986878,133.2422249616211 84.51658275394584,133.4943254359896 83.38591864460614,132.8791991110338 81.46120035162312,132.95987164137478 81.45256932789925,132.79852651259716 81.12459042592673,132.83886282031744 81.06417325980146,132.57667651609518 81.21953168703476,133.0102919382698 81.11595940220286,133.0304600495947 77.72396707424195,133.13130054237263 72.2864221209893,133.86743291834864 71.93255014781607,133.70608932080358 71.50099896106985,133.9682725285602 59.158635019586654,135.4203511259111 58.83928714133799,133.0405441036346 58.666666666656965,132.94978757881472 58.96875249737059,135.03716585971415 58.813394070166396,135.39009971332416 58.88244226004463,135.28926160235278 60.073523535509594,135.31951304680842 61.998241828463506,135.11783656963962 65.46791337008472,134.5632240644918 73.30488292177324,133.70608932080358 76.10996563569643,133.2825610821892 76.28258611046476,133.36323327227 76.62782705979771,133.2018888240491 78.31087668822147,133.0304600495947 80.32190521853045,132.99012382270303 81.06417325980146,132.82877874498809 82.3156717013917,132.94978757881472 83.2132981698669,132.7783583523851 83.53264604811557,132.8791991110338 84.4993207064399,132.7884424330332 85.26748181891162,133.0102919382698 86.0442739551072,132.7481061040744 88.28834012625157,132.84894689460634 88.49548469591537,132.68760157869838 88.91840485893772,132.6775174874274 89.47942140171654,132.30440536238893 89.13418045232538,131.38674502372305 88.62495005194796,128.93624623699725 90.04043794455356,128.3412596901544 92.71605530244415,127.78660787982517 92.86278270598268,127.58491551471525 92.67290018379572,126.96975117333932 92.87141372970655,126.74788765282574 92.94909294333775,126.96975117333932 93.3461200351594,127.02017462891672 94.28690162234125,127.07059805790777 94.64940461918013,126.8890735890891 94.03660193399992,124.70066814810707 93.63094381839619,124.66032840713888 92.74194837367395,124.90236659772927 92.53480380403926,125.10406462186802 92.71605530244415,125.32593195688969 92.90593782466021,126.58653204185975 93.93302964913892,126.12263314341544 93.68272996082669,126.4655151549232 93.66546791337896,126.93949708720174 94.5026772156998,126.9798358665721 94.66666666665697,126.8285653562416 94.40773595462088,125.73941061651567 94.19196036120411,125.56796846247016 94.17469831372728,124.72083801221743 94.03660193399992,124.57964887408889 92.59522097016452,124.99313076125691 92.74194837367395,125.70915614109254 93.33748901140643,125.26542273475206 93.5532646047941,125.39652600096451 93.51874050986953,125.87051323278865 93.82945736430702,126.23356569344469 94.01070886277012,126.10246357500728 93.82945736430702,126.25373523417511 93.94166067292099,126.12263314341544 94.05386398144765,126.20331137438188 93.84671941181296,126.23356569344469 93.96755374409258,126.10246357500728 93.88124350673752,126.59661677553959 94.10565012384905,126.71763349654066 93.81219531685929,126.69746405365004" stroke="#4dd2ff" stroke-linecap="round" stroke-linejoin="round" stroke-width="0.5"><title>2021-09-04 12.8km</title></polyline><polyline fill="none" points="120.83517911657691,122.50825330632506 123.33333333348855,133.6001685941592 129.32890345482156,135.2542147099157 138.82188947917894,135.0596212031669 139.40479212999344,131.75152530829655 137.57281237049028,129.12449952901807 137.9058995996602,123.87042552564526 136.24046345520765,122.11906087415991 136.90663791261613,119.39470925141359 134.6582991173491,114.33517774706706 126.49766200874001,113.07029053452425 120.50209188787267,114.43247669143602 122.4173434539698,121.5352719182265 121.75116899609566,128.0542276224005 124.2493232130073,133.01638690422988 136.32373526180163,135.35151144769043 139.90442297281697,133.1136838782695 137.9058995996602,128.8326073140488 137.73935598460957,123.87042552564526 136.15719164768234,122.02176274068188 135.82410441851243,115.50276440341258 133.82558104535565,112.6810941201984 128.995816225186,112.0 120.58536369493231,114.0432808517944 121.8344408031553,128.0542276224005 123.4998769480735,132.62719890585868 135.65756080392748,135.7406982970424 139.40479212999344,133.69746550690616 139.48806393705308,131.36233677627752 137.73935598460957,129.12449952901807 137.9058995996602,124.55151088099228 135.90737622603774,122.50825330632506 136.0739198406227,116.76764828001615 133.9088528524153,112.97299144614954 129.4121752618812,112.58379499107832 120.08573285164312,114.72437346342485 123.4166051405482,132.2380107428762 136.5735506839119,136.12988498189952 139.65460755117238,133.5028716714587 137.57281237049028,128.92990472936071 138.32225863588974,123.87042552564526 135.9906480330974,121.04878083930817 136.0739198406227,116.18385593732819 133.74230923783034,112.87569234793773 124.91549767088145,114.23787879210431 121.91771261068061,112.77839323930675 120.66863550199196,114.14057982712984 122.00098441820592,127.37314485304523 123.91623598430306,133.2109808420064 136.74009429803118,136.22718162758974 139.40479212999344,134.08665305370232 135.15792996063828,114.72437346342485 130.07834971975535,112.58379499107832 124.4991386346519,114.23787879210431 123.25006152596325,112.87569234793773 120.66863550199196,114.91897125978721 123.33333333348855,132.72449592070188 135.65756080392748,136.61636810738128 139.5713357445784,134.5731372568407 137.73935598460957,130.00017562002176 137.57281237049028,123.67582961765584 135.7408326114528,121.72986827802379 136.49027887638658,115.69736203586217 134.32521188864484,112.77839323930675 119.9191892365925,114.91897125978721 123.9995077913627,132.8217929256498 135.9906480330974,136.51907150290208 139.40479212999344,134.67043406656012 139.48806393705308,131.65422819071682 137.9058995996602,129.4163916518446 138.57207405753434,127.47044242237462 136.74009429803118,118.32442605512915 133.99212465947494,112.38919670140604 125.74821574334055,114.52977562567685 121.25153815280646,113.26488868013257 119.75264562247321,115.69736203586217 123.66642056265846,132.8217929256498 134.9081145389937,136.3244782628026 137.23972514178604,136.22718162758974 139.40479212999344,133.2109808420064 137.73935598460957,129.02720213436987 138.57207405753434,127.17854968400206 136.98990972014144,119.68660445295973 134.32521188864484,113.07029053452425 125.41512851417065,114.0432808517944 123.08351791184396,112.87569234793773 119.83591742999852,115.89195962727536 121.8344408031553,128.44341755012283 123.16678971936926,130.4866619782406 121.3348099598661,135.5461048928555 123.4166051405482,137.686630080163 123.08351791184396,140.11903903644998 121.25153815280646,140.89740854798583 121.41808176739141,143.3298090377939 109.67675694776699,145.56761182425544 106.76224369416013,146.9297499927343 107.17860273038968,148.0 108.51095164613798,146.24868115998106 122.83370249019936,143.03792131773662 121.3348099598661,132.52990188030526 123.58314875559881,132.2380107428762 123.91623598430306,134.08665305370232 128.91254441812634,135.93529166007647 135.32447357522324,136.4217748880037 139.48806393705308,134.67043406656012 135.0746581540443,113.5567858213908 122.66715887608007,114.14057982712984 119.16974297212437,116.86494696803857 123.9995077913627,133.7947624088847 132.9095911658369,137.10285097616725 139.2382485154085,135.44880817533704 139.5713357445784,132.72449592070188 134.24194008111954,112.6810941201984 121.25153815280646,114.43247669143602 119.66937381541356,119.4920076620765 123.74969237018377,133.89205930073513 133.15940658701584,136.90825785935158 138.23898682836443,136.12988498189952 139.5713357445784,135.0596212031669 139.40479212999344,131.0704452691716 137.57281237049028,128.34612008364638 138.32225863588974,126.59476392989745 134.6582991173491,112.6810941201984 120.83517911657691,115.2108678779332 119.66937381541356,115.69736203586217 119.58610200835392,119.00551550550153 124.16605140594766,134.08665305370232 133.24267839407548,137.49203708651476 139.48806393705308,134.86502765509067 134.82484273193404,113.16758961236337 119.66937381541356,115.79466083680745 123.91623598430306,133.69746550690616 125.83148755086586,135.5461048928555 127.16383646661416,132.72449592070188 128.74600080400705,132.8217929256498 128.66272899648175,134.96232443425106 130.4947087559849,130.6812564494321 137.406268756371,128.151525119727 137.32299694884568,122.41095521382522 135.32447357522324,119.78390283300541 136.74009429803118,117.93523185799131 134.15866827359423,113.16758961236337 119.83591742999852,115.60006322467234 123.25006152596325,129.70828368206276 127.41365188825876,127.47044242237462" stroke="#4dd2ff" stroke-linecap="round" stroke-linejoin="round" stroke-width="0.5"><title>2021-08-28 11.6km</title></polyline><polyline fill="none" points="157.79207920789486,128.6584576900932 157.4059405940643,127.25167955851066 156.7970297029533,126.85221964379161 154.46534653462004,127.15615671227715 153.0693069306726,126.2964460931471 152.0,126.27039411562146 152.07425742573105,126.49617764618597 153.28465346532175,126.39196994000667 154.50990099008777,127.18220840865251 156.45544554453227,126.81748390715802 157.06435643561417,126.86958750660415 157.5470297029533,127.42535717582359 157.62871287128655,128.18085053428513 157.94801980198827,128.91896951269155 159.00990099008777,129.44867433515174 160.43564356432762,129.7091836494801 160.74752475242713,130.03047733166022 160.96287128710537,130.0478445218978 161.8985148514621,130.81199725403712 162.5148514851462,131.9408462268475 162.93069306926918,132.29686460566882 164.95049504950293,132.02768012020533 165.61881188116968,132.1492474164843 165.99009900991223,131.88874584678706 167.34900990099413,132.27081453273422 168.6485148514621,132.2794978913007 169.2648514851462,132.44448152936093 169.79950495049707,132.28818124893587 170.3044554455555,132.3142313163553 173.0148514851462,133.19124542781356 174.58910891087726,133.4343763938159 179.98019801982446,133.29544450143294 181.88861386137432,133.7035562661622 182.56435643567238,133.41700992015103 182.81683168318705,131.87137904607516 183.0544554455264,131.6021931651776 184.391089108889,131.7758615764833 184.60643564353813,131.66297715093242 185.78712871283642,131.6108765944664 186.73019801979535,131.3677402270332 188.0,130.7685796757869 187.34653465347947,131.15065357606363 185.85396039602347,131.68034399575845 184.4207920792105,131.78454498741485 183.00990099011688,131.6542937271588 182.81683168318705,131.9061126438246 182.5792079207895,133.40832668190706 181.80693069307017,133.72960588437854 180.11386138614034,133.3041277516022 174.15841584157897,133.4430596292732 173.4306930692983,133.32149424915406 170.133663366345,132.35764807698433 168.91584158415208,132.461848208819 167.65346534652053,132.39238146894786 166.21287128710537,131.92347943718778 164.68316831681295,132.175297527996 164.64603960394743,132.28818124893587 163.64356435643276,132.09714716867893 163.01980198017554,132.18398089665425 162.4999999999709,131.88874584678706 162.77475247526309,132.24476445155597 162.99009900988312,132.3229146703161 162.507425742544,131.9408462268475 162.87871287125745,132.3229146703161 162.72277227722225,132.2013476312277 162.62623762374278,132.68761470731988 163.13118811877212,132.7570811973128 163.73267326728092,132.63551480123715 164.08910891087726,133.0088967307238 164.05198019801173,133.25202823683503" stroke="#4dd2ff" stroke-linecap="round" stroke-linejoin="round" stroke-width="0.5"><title>2021-08-25 10.3km</title></polyline><polyline fill="none" points="34.26391096995212,158.12329293374205 37.068362480262294,158.32403217122192 39.93004769505933,153.0378776814323 36.8966613675002,157.58798798901262 37.583465818781406,159.06007549754577 39.64387917355634,161.33511309482856 40.38791732932441,160.13068244425813 35.86645469022915,155.1791101358831 41.475357710849494,158.3909452361986 41.990461049368605,157.85564051783876 40.73131955508143,155.91515711916145 36.152623211499304,154.71071615524124 38.899841017555445,156.78502972330898 42.50556438812055,157.72181426762836 38.4992050875444,166.08590053621447 40.04451510356739,162.2718909055111 43.59300476964563,157.72181426762836 40.84578696358949,154.84454304230167 43.82193958689459,156.31663693115115 42.04769475385547,157.58798798901262 43.82193958689459,156.58428999758326 36.667726550251245,167.2234077314497 24.01907790149562,185.8247059712885 21.157392686931416,187.898917586077 19.49761526240036,187.4974578038673 15.605723370565102,181.40861989598488 12.0,178.1299906114 24.4197138317395,158.92624950181926 34.26391096995212,163.61014251579763 37.068362480262294,166.4204616881907 23.50397456297651,186.4268971401616 20.92845786968246,187.96582752489485 17.666136725107208,186.29307692992734 12.91573926853016,179.33438701572595 12.515103338751942,176.8586808097898 21.500794912921265,164.81456654600333 24.305246422998607,159.19390146475052 35.92368839448318,164.68074176693335 37.182829888537526,166.08590053621447 36.667726550251245,167.35723197303014 23.56120826723054,186.6276274024858 22.18759936420247,187.832007639925 19.898251192411408,187.56436778523494 12.171701112994924,178.19690158287995 24.763116057496518,158.92624950181926 35.52305246447213,164.61382936686277 36.83942766324617,166.82193483714946 22.759936407208443,187.4974578038673 19.726550079882145,187.2298178076162 12.0,179.20056530612055 12.343402225989848,177.12632519076578 21.27186009543948,165.41677770169917 24.305246422998607,159.52846625936218 25.27821939601563,159.1269884846406 36.152623211499304,165.08221601927653 36.724960254272446,166.95575916348025 22.759936407208443,187.1629077909747 19.268680445151404,186.96217769844225 17.036565977847204,185.42324487376027 12.744038156000897,179.2674761643284 12.400635930011049,177.1932362684165 21.32909379992634,165.28295304998755 24.82034976151772,159.1269884846406 35.80922098597512,165.21604071347974 36.43879173300229,167.49105618626345 22.759936407208443,187.56436778523494 19.03974562813528,187.2298178076162 12.45786963426508,178.39763445477 12.515103338751942,176.99250301445136 19.726550079882145,167.6248803710332 24.190779014257714,160.06376956304302 26.022257551783696,159.52846625936218 35.46581875998527,165.08221601927653 36.667726550251245,166.82193483714946 22.58823529421352,187.29672781738918 18.5818759938702,186.6276274024858 12.686804451746866,177.79543564788764 24.248012718744576,160.13068244425813 25.33545310050249,159.32772740384098 30.486486486857757,162.0042402439285 37.526232114760205,167.15649559994927 40.90302066807635,163.61014251579763 43.82193958689459,158.32403217122192 43.47853736113757,156.78502972330898 39.815580286318436,154.37614881427726 44.50874403840862,158.19020601984812 46.454689984442666,154.50997577206 47.771065183216706,153.84084070078097 47.9427662959788,152.03417247504694 48.0,154.77762960235123 43.93640699540265,160.1975953183137 40.04451510356739,168.82929676258937 37.125596184749156,172.7770899796742" stroke="#4dd2ff" stroke-linecap="round" stroke-linejoin="round" stroke-width="0.5"><title>2021-08-21 10.9km</title></polyline><polyline fill="none" points="61.006016267463565,177.70851183283958 60.60399256995879,175.70142763853073 59.836492783622816,175.8722437020624 59.36137386853807,174.33489653590368 60.3847069167532,176.3419875050895 61.371492356061935,182.32049738572096 63.12577758147381,187.40216137145762 63.856729758903384,187.78648630547104 72.88398914900608,185.52323422019253 92.54660271923058,178.69069834437687 93.78922142041847,177.62310419752612 93.78922142041847,174.89005035258015 90.79231749358587,161.30991544705466 89.84207966318354,161.18179879753734 85.71219986095093,162.76190130694886 86.7720805183053,168.99684021333815 83.55589093803428,169.8509339549637 80.12041570455767,171.68722939767758 71.56827522977255,173.05376943774172 70.7276802258566,172.71213486025226 73.72458415292203,172.58402181923157 76.0636311203707,170.7050258947711 77.30624982179143,170.74773044438916 79.53565396275371,169.46659199421993 80.88791549066082,169.25306852490758 82.31327223661356,170.02175248714047 86.55279486509971,169.29577322796104 86.7355329093989,167.71569622200332 85.41981899016537,163.1035442817374 79.3894635271281,165.8366777007468 77.48898786632344,166.94700788109913 75.36922655184753,168.4416783149063 77.05041655991226,166.94700788109913 72.48196545150131,154.09261432939093 73.79767937073484,154.0072017115017 75.55196459637955,155.07485814101528 79.93767766025849,153.6228447073081 82.31327223661356,152.0 85.52946181665175,162.5910797113902 88.59946096152999,161.56614862423157 85.74874747009017,162.89001745628775 87.0279137804173,169.03954494328354 82.89803397818469,170.14986633884837 79.20672548282892,172.1569780568243 75.36922655184753,172.199682453298 72.3723226247821,173.05376943774172 70.94696587906219,172.58402181923157 73.06672719330527,172.75483919813996 74.89410763652995,171.21748019359075 79.60874918033369,169.55200135038467 82.13053419231437,170.06445710884873 86.55279486509971,169.16765910573304 86.99136617151089,168.4416783149063 85.41981899016537,163.18895498046186 80.96101070847362,164.98257548961556 73.03017958439887,169.93634322995786 74.3824411125388,168.8687259965809 73.21291762893088,167.80110594755388 72.77434632228687,166.3918431715574 70.47184696374461,165.45233192874002 72.4088702336885,166.17831808066694 73.13982241111808,167.50217182931374 76.31946438224986,166.17831808066694 75.84434546716511,162.84731207761797 72.70125110447407,154.81862085478497 71.0931563146878,154.22073322266806 65.02625324274413,155.2029767233762 67.51149064558558,154.7759146245662 68.02315716980956,153.49472562494338 68.42518086708151,154.5623834062717 73.35910806432366,153.92178907536436 75.91744068497792,154.94673951820005 82.67874832521193,152.12811955544748 85.27362855477259,162.37755261550774 88.343627699418,161.52344310597982 85.52946181665175,163.27436566111282 86.7355329093989,169.08224966860143 82.75184354302473,169.9790478607174 78.95089222094975,171.9434560065274 75.84434546716511,171.90075158307445 73.03017958439887,172.9683608203777 71.23934674984775,172.92565650495817 73.57839371752925,172.58402181923157 75.40577416075394,170.83313953023753 77.41589264851063,170.66232134049642 79.4260111360345,169.12495438940823 82.49601028091274,169.89363859483274 86.66243769181892,168.82602124870755 85.41981899016537,162.89001745628775 88.67255617934279,161.48073758315877 90.02481770748273,161.52344310597982 89.62279400997795,160.41309804929188 89.33041313895956,161.01097653526813 90.68267466709949,161.13909323871485 93.89886424737051,175.0181626638223 93.97195946495049,176.51280329821748 93.05826924322173,178.47717974023544 88.30708009074442,180.52695369150024 64.58768193633296,188.0 62.906491928501055,186.07837269516313 62.17553975107148,183.6442983491579 65.06280085165054,181.082099017367" stroke="#4dd2ff" stroke-linecap="round" stroke-linejoin="round" stroke-width="0.5"><title>2021-08-07 10.7km</title></polyline><polyline fill="none" points="138.17827715352178,162.5712183664582 138.7041198501829,165.12644941039616 137.22771535580978,166.42771324279602 135.22546816489194,165.62329649578896 130.57378277159296,162.33462142040662 126.58951310859993,160.2288975569536 125.39625468163285,160.51281653939805 123.51535580528434,162.00338527484564 122.34232209750917,163.25734809225833 122.20074906374793,163.84883754322072 120.7041198501829,163.96713524540246 119.3895131086465,165.22108703570848 117.95355805254076,165.67061520817515 113.30187265924178,169.97657606568828 110.85468164808117,175.20513120781106 110.61198501882609,176.36438703634485 111.07715355814435,176.7192600665876 113.01872659183573,176.7192600665876 117.65018726605922,175.18147286289604 123.75805243453942,173.9748939515266 125.5176029963186,173.24148005529423 125.53782771539409,172.8156257199298 124.66816479410045,171.72732761826774 126.67041198501829,172.9339186723373 128.12659176031593,172.65001548142754 132.2119850188028,169.62169232123415 136.58052434457932,167.01919429635745 136.58052434457932,166.38039469080104 134.19400749076158,165.43402154593787 132.55580524343532,163.87249708866875 127.90411985025275,161.57750950855552 126.16479400754906,159.75569845062273 124.26367041200865,161.22261241621163 123.87940074922517,161.43555073927564 123.45468164805789,161.15163293007936 122.26142322109081,162.35828112630406 121.65468164801132,162.31096171197714 120.15805243444629,164.39300645435287 119.08614232216496,164.10909240531328 119.93558052438311,164.36934696398384 119.04569288401399,165.43402154593787 112.81647940073162,170.40243581467075 111.82546816498507,172.5317223785969 110.32883895142004,177.83119191025617 108.34681647946127,179.17969756951788 105.33333333337214,180.24430154937727 109.64119850192219,178.61190670533688 110.36928838957101,178.04411439773685 111.84569288406055,172.55538100418926 112.8973782772664,170.54438888387813 116.27490636706352,167.42140051799652 118.96479400759563,165.48134029845824 119.5715355805587,165.50499967095675 120.15805243444629,164.51130386826117 125.57827715354506,160.0632779837906 126.18501872662455,159.92131825190154 134.09288389515132,165.03181174494966 136.31760299624875,165.95452727195516 136.8232209738344,166.59332809569605 136.72209737834055,166.99553508433746 136.92434456932824,166.61698735042592 134.57827715354506,164.74789850808156 126.38726591761224,160.13425781583646 125.17378277156968,160.58379622858774 124.30411985027604,161.48287033906672 122.92883895139676,161.81410725673777 122.0794007491786,163.23368848166137 120.01647940080147,165.0081523222907 119.73333333339542,165.41036216595967 121.1086142322747,166.64064660262375 119.99625468172599,165.57597777336196 120.03670411999337,164.8425362937851 120.7041198501829,164.46398491018044 120.96704119851347,164.74789850808156 120.86591760313604,164.0854328849673 122.76704119856004,162.33462142040662 126.00299625482876,160.15791775489924 127.11535580537748,160.53647643826844 132.394007490715,164.10909240531328 135.6501872659428,165.48134029845824 136.66142322099768,166.38039469080104 136.56029962562025,166.99553508433746 138.62322097388096,165.50499967095675 140.68614232214168,163.3519865096896 141.31310861418024,163.09173076525622 141.33333333337214,163.30466730605986 139.18951310869306,165.0081523222907 139.08838951319922,164.7952174059028" stroke="#4dd2ff" stroke-linecap="round" stroke-linejoin="round" stroke-width="0.5"><title>2021-07-31 10.2km</title></polyline><polyline fill="none" points="155.63732627400896,173.09719252044306 155.02581072141766,173.02289976626344 154.92256783589255,172.53999533165188 155.001985440118,172.24282205155032 154.88285903376527,172.00136802073393 154.36664460622706,171.85278059475968 153.5804103242699,171.8434938722712 153.1118464593019,171.4998844500733 153.23097286568373,171.55560498829436 153.58835208474193,171.19342085769313 154.01720714758267,171.46273740495235 155.31171409663511,171.2955755073708 155.6611515552795,171.4163035764359 156.33620119126863,171.1005528911992 157.04301786897122,171.17484727225383 157.2415618795785,171.01697163737845 158.80608868299169,171.46273740495235 161.7048312376428,171.43487711079797 165.77101257446338,172.57714192093408 167.28788881536457,172.67929496041324 168.54268696228974,172.53999533165188 172.21178027798305,172.50284872664633 174.22898742553662,172.91146051712713 174.94374586365302,172.67929496041324 175.25347452019923,170.9612507572674 175.4837855724909,170.70121951575857 176.88153540701023,170.85909571854427 177.08007941758842,170.7569405609247 178.2792852415878,170.76622739835875 180.05823957646498,170.16258092232601 182.05956320319092,169.14101589068014 183.48908007942373,168.9552755166951 183.66379880873137,168.806682934548 184.8471211118449,168.68595127631124 185.73659827929805,168.4444874616529 187.30906684315414,167.65508189364482 187.83322303107707,167.12571183012187 188.0,166.7542221598269 187.87293183320435,167.10713738394406 187.49966909331852,167.5343486514248 185.99073461286025,168.3794778596057 184.00529450696195,168.9274144267256 182.02779616150656,169.17816391833912 180.14559894110425,170.16258092232601 178.24751819990342,170.7290800427727 177.08802117803134,170.77551423481054 176.94506949040806,170.87766937077686 175.56320317668724,170.67335897991143 175.30112508274033,170.88695619544887 174.9278623427963,172.70715485962864 174.24487094639335,172.88360068272596 173.7683653209824,172.75358800536924 173.51422898744931,172.8464542231377 172.2911978822085,172.50284872664633 167.23229649238056,172.67000832535268 165.95367306421394,172.59571520968166 164.46856386499712,172.31711546589213 161.8080741231097,171.53703147946362 160.50562541367253,171.52774472360034 160.1323626737576,171.2955755073708 159.58438120450592,171.47202416769142 158.93315684978734,171.47202416769142 158.57577763072914,171.2770019435411 157.36863004634506,171.0262584473021 156.78888153540902,171.2212812284779 155.9629384513537,171.15627368291462 155.98676373265334,171.05411887110677 155.7564526803326,171.34200939974107 155.54996690931148,171.38844326755498 155.18464592986857,171.26771516019653 154.46988749175216,171.37915649594652 153.46128391797538,170.95196394048253 152.89741892786697,169.9304080954389 152.0,169.19673792624235 152.73858371941606,169.87468652563257 153.48510919921682,171.0262584473021 153.9298477829434,171.4163035764359 153.66776968896738,171.23056801679195 153.79483785573393,171.38844326755498 153.6757114493812,171.78777351680765 154.88285903376527,171.76920005711872 154.98610191926127,171.88064075627335 155.34348113837768,173.2457778401731" stroke="#4dd2ff" stroke-linecap="round" stroke-linejoin="round" stroke-width="0.5"><title>2021-07-30 10.5km</title></polyline><polyline fill="none" points="41.186813186854124,203.2770035201247 37.648351648356766,200.98874525890278 35.296703296597116,200.24312835553428 34.39560439554043,199.21468748788175 33.20879120880272,199.1118431613868 31.428571428521536,201.04016702994704 30.241758241667412,201.94004625780508 30.08791208791081,201.68293824743887 29.56043956032954,201.99146782717435 28.0,203.58553107305488 26.593406593427062,204.3568482393457 26.725274725235067,205.56524020405777 24.9010989011731,206.079447725715 19.736263736267574,210.29590830583766 18.659340659272857,212.3269820757996 17.03296703286469,218.1115927066421 16.373626373708248,219.1913714211696 12.0,220.75961290407577 16.61538461537566,218.83144571675803 18.593406593310647,218.42010140095954 26.505494505516253,215.48925297131063 29.692307692253962,215.28357806832355 34.68131868133787,213.76672027565655 38.32967032957822,211.81278779153945 45.29670329671353,207.0050185189757 45.53846153838094,206.23370976978913 41.53846153838094,203.45697797373577 39.29670329671353,202.53139364767412 37.648351648356766,201.3229865753674 35.91208791208919,200.75734715479484 34.50549450539984,199.26610963481653 33.120879120891914,199.42037601013726 33.098901098943315,199.98601854722074 19.736263736267574,210.42445778247202 18.945054945070297,211.68423905027157 17.956043955986388,215.4635436179815 16.351648351643234,219.34562513109995 12.109890109975822,220.8881568386132 16.791208791197278,218.88286370720016 25.29670329671353,216.20911375929427 27.054945054929703,215.15503116538457 30.967032967018895,214.82080889921053 34.70329670328647,213.76672027565655 45.362637362559326,207.21070043806685 45.69230769237038,206.6964953134302 45.384615384507924,206.2851304292417 39.736263736267574,202.91705421255028 37.428571428521536,201.01445614577096 35.91208791208919,200.5002378913341 35.362637362559326,199.703197443494 33.49450549448375,199.29182070413663 27.53846153849736,204.43397982111492 26.813186813145876,204.793926878614 26.241758241667412,204.25400609217468 26.63736263732426,204.53682189204847 26.021978022065014,205.43668815342244 19.692307692370377,210.65584666885843 18.439560439554043,212.53265948436456 16.52747252746485,218.80573671747698 18.241758241783828,212.841175270456 19.93406593403779,210.09022900158016 26.06593406596221,205.43668815342244 26.417582417605445,205.41097773508227 26.417582417605445,205.9766063085408 26.483516483567655,205.30813603462593 27.296703296597116,204.4596903429483 28.659340659272857,204.22829554857162 28.505494505516253,203.7912158905383 28.835164835094474,203.76550529779342 28.659340659272857,203.37984608135594 29.03296703286469,202.7885007590521 33.01098901091609,199.78033050443628 34.32967032957822,199.62606435798807 36.50549450539984,201.34869742677256 41.29670329671353,203.61124168480455 44.219780219718814,205.89947521708382 44.59340659331065,205.4623985689832 46.219780219718814,206.2851304292417 48.0,204.92247926982236 46.54945054941345,203.81692648041644 46.39560439554043,203.19987157061405 46.835164835094474,202.83992214866157 46.41758241748903,203.8940582337964" stroke="#4dd2ff" stroke-linecap="round" stroke-linejoin="round" stroke-width="0.5"><title>2021-07-18 10.9km</title></polyline><polyline fill="none" points="87.58789336541668,203.42871959898912 83.02024453796912,200.9216186048725 81.89456804969814,199.9339655381482 80.50912006408907,199.57942241619457 74.38284225296229,204.72024621185847 73.6684706354281,204.6442742513609 73.0190418921411,203.93520145538787 73.51693726202939,204.39103420854372 73.12728001608048,205.27737318442087 66.45981158548966,211.15245130103722 63.86209661257453,218.9012559276307 59.337743034702726,220.6738229929033 58.66666666662786,220.31931063134107 59.74904790543951,220.44592224940425 71.13569853676017,216.19173515627335 64.46823010628577,218.64803098820266 64.46823010628577,216.2930262049631 66.07015433954075,211.7095632818964 68.60292643820867,208.7973726723576 80.31429144123103,199.50344882157515 81.20184405695181,199.45279974523874 82.13269192224834,199.9339655381482 91.11645620362833,205.40399276986136 92.5019041892374,206.3916232339543 92.24213269189931,207.12601247215935 82.95530166372191,212.97572204601602 81.50491080374923,213.48218367385562 80.14111044292804,212.24135077974643 80.83383443579078,213.07701445743442 79.94628181995358,214.1152591996797 71.48206053324975,216.11576684161264 59.05632391269319,220.59785610252584 63.97033473639749,218.6227084795537 65.7887352174148,212.31732032563013 67.21747845271602,210.03822344403306 73.1922228904441,205.1760774678405 74.16636600519996,205.707879501133 73.58188013639301,205.22672533144942 74.7724994989112,203.8339051699586 80.33593906601891,199.45279974523874 81.20184405695181,199.32617700708215 92.43696131487377,206.3662994269107 89.4062938465504,205.25204925931757 88.49709360592533,204.1377938974765 81.09360593312886,199.60474694237928 79.55662457412109,200.08591242946568 76.56925235525705,202.51704955293098 78.56083383446094,200.8962942182261 81.02866305876523,199.65539598664327 83.1934255361557,200.54175252372806 89.21146522345953,204.3403861677798 89.70936059334781,205.04945776164823 90.25055121269543,204.99880986049538 89.99077971535735,205.22672533144942 88.82180797751062,204.92283798845892 87.78272198839113,203.93520145538787 88.41050310689025,203.9858495820081 92.52355181402527,206.21435652807122 94.19041892152745,205.1760774678405 94.66666666662786,204.23909005407768" stroke="#4dd2ff" stroke-linecap="round" stroke-linejoin="round" stroke-width="0.5"><title>2021-07-14 10.4km</title></polyline><polyline fill="none" points="140.79016485065222,212.67840830606292 141.2126292262692,212.92508641805034 141.33333333337214,214.22895341936965 139.10030734853353,216.23760345645132 139.03995529480744,218.24624144201516 138.25537859741598,219.2329363891331 136.9276334171882,219.44437064239173 134.75495948595926,218.951023843867 130.74154791841283,219.3386535324098 126.00391170720104,220.88916779862484 120.54205085220747,219.6910437689803 116.37775915069506,214.33467214280972 114.44649343402125,213.34796275864937 109.58815311535727,212.5726890595397 105.33333333337214,213.383202429628 105.33333333337214,210.52877706449362 106.51019837940112,208.27341141484794 108.2000558815198,207.39240508087096 107.71723945240956,207.53336625016527 108.16987985465676,206.86380016748444 110.16149762517307,206.68759834425873 117.76585638441611,204.07980051563936 119.27465772570577,202.98733863045345 120.05923442309722,201.33101864912896 122.89578094438184,201.1900548679987 126.66778429737315,199.11083220137516 136.08270466618706,200.06234248218243 138.16485051694326,200.80240416390006 139.76417993858922,202.6349308101926 141.06174909195397,207.28668416503933 140.18664431432262,207.85052866392653 137.8932662755251,207.14572289187345 136.59569712216035,206.19423274567816 137.01816149777733,204.9608155679307 136.20340877352282,203.90359722691937 132.12964515236672,205.80658783664694 128.96116233593784,205.4894234863168 125.24951103655621,206.05327101252624 124.01229393703397,207.7095676282479 121.4473316569347,208.6610534673673 117.97708857234102,207.4981259634369 114.2050852192333,208.52009277287289 112.1229393685935,207.39240508087096 108.44146409607492,207.28668416503933 112.39452361001167,207.28668416503933 114.83878178254236,208.3438918214233 117.34339200891554,207.07524223302607 120.72310701326933,208.3438918214233 122.95613299810793,208.09721033359529 123.34842134674545,208.41437221315573 123.01648505171761,208.97821481258143 120.24029058404267,209.08393519429956 119.72729812795296,209.78873688558815 121.8999720592983,213.1365246551868 124.73651858058292,212.32601068771328 128.05588153121062,212.5022095431923 131.8882369378116,211.26881560732727 131.55630064278375,210.91641650529345 130.62084381107707,211.69169404011336 128.05588153121062,212.53744930319954 124.76669460756239,212.5726890595397 121.86979603243526,213.34796275864937 119.63677004759666,209.89445701127988 120.1195864767069,209.04869507081457 123.19754121266305,208.87249439762672 123.01648505171761,208.13245055722655 121.2360994691262,208.5553329520335 117.79603241139557,207.1809632156801 114.7784297290491,208.37913201906485 112.33417155628558,207.28668416503933 108.16987985465676,207.39240508087096 112.45487566362135,207.39240508087096 114.718077675323,208.3438918214233 117.64515227731317,207.00476155936485 121.02486728143413,208.52009277287289 123.10701313219033,208.16769077724894 122.9259569713613,208.87249439762672 120.33081866439898,209.08393519429956 119.69712210120633,209.71825678320602 121.68873987148982,213.10128495824756 124.61581447324716,212.36125046631787 127.66359318245668,212.53744930319954 131.76753283035941,210.88117657462135 128.96116233593784,212.32601068771328 125.91338362672832,212.81936724949628 126.60743224376347,213.06604525767034 124.73651858058292,212.5726890595397 121.8999720592983,213.31272308403277 121.20592344226316,212.96032613347052 119.57641799387056,209.71825678320602 120.30064263776876,208.90773453965085 123.2277172395261,208.97821481258143 123.3785973736085,208.4848525900452 122.77507683716249,208.13245055722655 120.99469125457108,208.4496124034922 117.94691254536156,207.25144385229214 114.86895780952182,208.37913201906485 112.69628387817647,207.25144385229214 107.98882369382773,207.4276453787461 112.09276334173046,207.28668416503933 114.53702151449397,208.3438918214233 117.64515227731317,207.07524223302607 121.11539536190685,208.4848525900452 123.2277172395261,208.02672987509868 123.13718915905338,208.87249439762672 120.75328304013237,208.90773453965085 119.78765018167906,209.68301672645612 120.99469125457108,212.53744930319954 121.65856384474318,213.06604525767034 125.24951103655621,212.25553111956106 128.38781782623846,212.32601068771328 132.37105336692184,210.84593664019485 128.02570550446399,212.67840830606292 126.00391170720104,212.36125046631787 122.02067616651766,213.31272308403277 119.78765018167906,210.70497686587623 119.63677004759666,209.68301672645612 120.08941044996027,209.2248956511903 122.83542889077216,208.97821481258143 123.3785973736085,208.37913201906485 123.04666107846424,208.16769077724894 120.78345906676259,208.4496124034922 117.49427214299794,207.07524223302607 114.92930986301508,208.37913201906485 112.51522771734744,207.21620353584876 108.01899972057436,207.35716477924143 112.48505169036798,207.35716477924143 114.47666946065146,208.3438918214233 117.58480022347067,207.25144385229214 120.93433920084499,208.30865161994006 123.13718915905338,208.20293099354603 123.46912545408122,208.52009277287289 123.13718915905338,209.04869507081457 120.2101145570632,209.013454943517 119.69712210120633,209.54205646246555 121.71891589823645,213.17176434837165 125.219335009926,212.36125046631787 128.53869796043728,212.43173001223477 131.5261246158043,211.0221362748125 128.1162335849367,212.53744930319954 124.88739871466532,212.46696977957617 121.65856384474318,213.2070040378021 119.54624196724035,209.71825678320602 120.17993853031658,209.013454943517 123.19754121266305,208.73153379224823 123.0768371054437,208.16769077724894 121.4473316569347,208.59057312752702 117.79603241139557,207.32192447397392 114.74825370218605,208.41437221315573 112.36434758314863,207.35716477924143 108.07935177430045,207.39240508087096" stroke="#4dd2ff" stroke-linecap="round" stroke-linejoin="round" stroke-width="0.5"><title>2021-07-11 11.8km</title></polyline><polyline fill="none" points="161.48886761814356,198.26091357436962 163.21022023446858,219.950363737531 172.00824471842498,223.7515846786555 177.36356397066265,215.47833035653457 175.6422113534063,197.81370607600547 170.47815350443125,193.1180216402281 161.87139042187482,198.48451728746295 162.0626518242061,217.93794988584705 169.52184649556875,223.97518569766544 176.78977976553142,218.16155151929706 176.21599555946887,197.36649848381057 165.8878798596561,193.1180216402281 161.6801290186122,202.7329833530821 164.1665272442624,221.9627756748814 169.13932369090617,224.42238766490482 176.21599555946887,221.0683706055861 176.40725696180016,196.91929079662077 169.71310789696872,192.0 163.21022023446858,196.4720830146689 162.82769743073732,200.27334614493884 162.44517462700605,221.0683706055861 165.8878798596561,225.76399299921468 171.62572191562504,226.6583960838616 177.55482537299395,219.50316082476638 176.9810411669314,198.48451728746295 170.66941490676254,194.23604268953204 162.25391322467476,200.27334614493884 162.25391322467476,220.62116792914458 166.8441868694499,226.21119458856992 171.24319911189377,226.6583960838616 177.74608677532524,219.72676229290664 176.78977976553142,198.70812097750604 167.60923247691244,194.6832509431988 162.44517462700605,200.0497426202055 162.6364360274747,221.51557318749838 169.9043692983687,227.10559748345986 177.36356397066265,221.29197190795094 177.17230256926268,200.4969496454578 171.05193770956248,194.90685503464192 162.44517462700605,200.0497426202055 163.40148163586855,222.1863768834155 172.00824471842498,226.21119458856992 176.9810411669314,222.1863768834155 177.17230256926268,198.26091357436962 169.33058509323746,194.23604268953204 162.82769743073732,199.82613907242194 163.9752658419311,224.42238766490482 172.77329032681882,226.21119458856992 177.36356397066265,218.38515312946402 176.59851836413145,198.48451728746295 168.9480622895062,194.0124385266099 161.87139042187482,201.16776000591926 163.0189588330686,223.30438256892376 171.05193770956248,226.6583960838616 177.74608677532524,220.84476927947253 177.36356397066265,198.93172464356758 170.28689210303128,194.0124385266099 162.44517462700605,199.1553282858804 162.25391322467476,219.27955933334306 166.27040266431868,225.9875938061159 172.00824471842498,226.8819967955351 178.31987098045647,220.39756655553356 176.9810411669314,197.81370607600547 166.8441868694499,195.1304591030348 162.0626518242061,201.16776000591926 162.44517462700605,222.40997806750238 165.1228342531249,226.21119458856992 172.00824471842498,226.6583960838616 177.36356397066265,220.62116792914458 176.0247341580689,196.24847908853553 169.9043692983687,193.56523013091646 162.25391322467476,199.60253550042398 162.82769743073732,221.29197190795094 166.46166406571865,226.21119458856992 172.19950612075627,226.8819967955351 178.12860957812518,219.50316082476638 177.55482537299395,197.81370607600547 167.8004938783124,194.23604268953204 161.48886761814356,199.82613907242194 161.6801290186122,220.84476927947253 163.7840044395998,224.8695895371493 170.28689210303128,227.10559748345986 177.9373481767252,219.950363737531 177.55482537299395,198.93172464356758 169.71310789696872,193.56523013091646 162.44517462700605,198.70812097750604 162.6364360274747,222.1863768834155 171.81698331795633,226.4347953479737 178.12860957812518,219.72676229290664 176.9810411669314,197.59010229166597 168.56553948670626,194.0124385266099 162.25391322467476,199.60253550042398 163.40148163586855,222.1863768834155 171.81698331795633,226.6583960838616 178.51113238185644,219.05595781747252 177.17230256926268,198.70812097750604 174.68590434454381,195.1304591030348 167.9917552806437,194.23604268953204 162.44517462700605,199.1553282858804 162.6364360274747,220.62116792914458 166.65292546711862,226.21119458856992 174.49464294407517,225.5403921692632 177.74608677532524,220.17396515840665 177.36356397066265,199.3789319053758 175.25968855060637,195.57766716880724 167.9917552806437,194.23604268953204 162.25391322467476,201.39136341237463 163.59274303726852,223.52798363589682 173.53833593521267,226.6583960838616 177.55482537299395,220.17396515840665 176.78977976553142,197.59010229166597 169.71310789696872,193.56523013091646 162.6364360274747,200.4969496454578 163.59274303726852,222.85718036536127 170.8606763072312,226.8819967955351 177.74608677532524,220.17396515840665 176.9810411669314,198.93172464356758 171.24319911189377,193.78883434087038 164.35778864473104,196.69568691798486 162.25391322467476,211.6770945491735 161.48886761814356,200.4969496454578 166.46166406571865,198.48451728746295 162.44517462700605,198.26091357436962 163.0189588330686,220.39756655553356 168.7568008871749,226.8819967955351 177.55482537299395,221.0683706055861 178.12860957812518,199.60253550042398 169.13932369090617,194.23604268953204 162.82769743073732,200.27334614493884 163.9752658419311,222.1863768834155 171.62572191562504,226.6583960838616 178.31987098045647,219.50316082476638 177.36356397066265,200.0497426202055 170.66941490676254,194.23604268953204 163.40148163586855,199.60253550042398 163.21022023446858,221.29197190795094 170.09563070069999,226.8819967955351 177.17230256926268,221.7391744425986 176.9810411669314,199.82613907242194 170.66941490676254,194.45964682847261 163.0189588330686,199.60253550042398 163.0189588330686,221.51557318749838 167.41797107458115,226.6583960838616 173.72959733568132,226.6583960838616 178.31987098045647,217.93794988584705 177.36356397066265,196.24847908853553 167.03544827084988,194.6832509431988 162.6364360274747,199.3789319053758 163.40148163586855,223.08078147936612 173.34707453288138,226.6583960838616 177.9373481767252,219.50316082476638 177.74608677532524,198.93172464356758 174.49464294407517,194.6832509431988 162.6364360274747,199.82613907242194 162.6364360274747,220.17396515840665 168.18301668204367,227.3291981476359 177.55482537299395,221.29197190795094 177.55482537299395,199.3789319053758 171.62572191562504,194.0124385266099 166.27040266431868,199.3789319053758 163.21022023446858,198.70812097750604 163.40148163586855,221.7391744425986 168.9480622895062,226.21119458856992 177.74608677532524,221.9627756748814 177.9373481767252,198.70812097750604 173.9208587370813,194.90685503464192 170.66941490676254,196.69568691798486 163.21022023446858,199.3789319053758 164.1665272442624,223.97518569766544 176.40725696180016,223.7515846786555 177.9373481767252,208.99386516120285 177.74608677532524,200.4969496454578 173.9208587370813,195.35406314767897 164.7403114484623,195.80127116595395 162.25391322467476,205.1926177018322 163.59274303726852,223.7515846786555 171.05193770956248,228.0 177.74608677532524,223.08078147936612 177.17230256926268,197.36649848381057 171.05193770956248,194.0124385266099 164.1665272442624,197.59010229166597" stroke="#4dd2ff" stroke-linecap="round" stroke-linejoin="round" stroke-width="0.5"><title>2021-06-30 10.9km</title></polyline><polyline fill="none" points="14.282850294199307,251.3531500755853 14.47897145349998,251.4724048759963 15.0281106994953,251.28893588431674 15.734146872971905,251.25224203942344 16.087164959695656,251.40819077307242 17.397254303767113,251.21554817894503 17.687513619515812,251.0229051568822 18.644584876892623,251.26141550212196 19.130965351941995,251.25224203942344 19.22510350839002,251.40819077307242 19.65657005883986,251.27058896379458 20.09588145566522,251.46323143564223 22.35519721073797,251.5733126559644 25.24210067553213,252.44478405123664 26.607103944203118,252.6832904855837 32.45151449117111,252.5365173728569 33.58117236869293,252.75667694878211 33.84789714534418,252.97683596576826 33.96556984088966,252.87592981905618 34.34212246676907,252.9493161192513 35.12660710391356,252.67411717332288 35.37764218781376,251.85768849499436 35.409021573344944,250.98621119938616 35.77772935281973,250.6376178287319 37.07997385051567,250.86695573028555 39.276530834584264,250.555056035686 40.594465025060344,250.06885721539584 42.17127914575394,249.19736194102734 44.90913052952965,248.839587660681 45.772063630400226,248.50015941468882 47.51361952495063,247.61030067785032 48.0,246.9039114667321 47.95293092177599,247.2433459618187 47.45086075394647,247.74790829593985 46.2584441054496,248.38090052631014 44.344301590754185,249.1514935260202 43.07343647853122,249.16066721097013 41.9045543691318,249.36248803403578 39.441272608411964,250.6559648831826 38.641098278487334,250.9311702340201 37.76247548480751,251.00455818007322 37.23687077793875,251.29810934314446 36.72695576379192,251.0320786438242 35.62867727174307,250.81191468922043 35.440400958788814,251.01373166895792 35.11876225756714,252.62825059743773 34.444105469592614,253.0960885332679 32.294617563748034,252.59155731924693 28.356504685099935,252.66494386010163 28.050555676600197,252.78419685650442 26.32468947482994,252.6832904855837 24.747875354107236,252.38974401170708 22.10416212680866,251.59165951242903 20.74700370451319,251.65587347951077 19.334931357589085,251.51827206325834 19.10743081284454,251.22472164552164 18.189583787345327,250.94951722635597 17.671823926793877,251.01373166895792 17.546306384843774,251.17885430299066 16.667683591222158,251.49992519128864 14.66724776639603,251.4724048759963 13.95336674657301,251.1421604115094 13.294399651349522,249.9404268831713 12.211810852051713,249.09645139603526 12.0,249.06893031794607 12.20396600564709,249.08727770429687 13.31793419047608,249.91290607293922 14.133798213122645,251.29810934314446 14.322074526076904,251.43571110873745 14.902593157574302,251.3531500755853 14.180867291346658,251.17885430299066 13.812159511871869,250.84860872047284 14.149487905873684,251.28893588431674" stroke="#4dd2ff" stroke-linecap="round" stroke-linejoin="round" stroke-width="0.5"><title>2021-06-17 10.1km</title></polyline><polyline fill="none" points="87.72078069765121,255.08408390486147 92.18946509389207,263.8779130312614 90.30791376903653,265.2519434702117 82.19372368231416,267.45038915763143 67.9644917906262,263.46570361754857 60.908674323931336,236.53440590936225 62.43743477482349,235.0229390268214 82.89930542837828,232.0 92.42465900909156,263.1908972688252 83.25209630234167,267.7251946077449 67.4941039592959,264.427525381092 64.43658305658028,245.74057541263755 61.2614651969634,237.6336534494767 65.14216480357572,234.33590804587584 83.60488717537373,232.68703221331816 88.19116852944717,247.1146249822341 87.60318373981863,253.7100427413825 90.54310768470168,259.2061986994231 90.4255107268691,263.60310676996596 83.1344993445091,267.31298641103785 67.61170091712847,262.9160908620106 62.20224085915834,234.61072048172355 83.01690238667652,232.68703221331816 84.54566283756867,241.89322890678886 87.48558678245172,246.5650053282734 87.25039286678657,253.16042587021366 91.24868943123147,261.12984780594707 89.71992897987366,264.427525381092 83.36969325970858,267.1755836500088 68.19968570629135,263.8779130312614 61.02627128176391,236.8092178814113 64.67177697317675,234.47331427095924 83.36969325970858,232.82443861232605 91.36628638906404,263.1908972688252 83.48729021800682,267.7251946077449 67.37650700192899,261.6794613151578 61.84944998566061,235.57256355066784 66.43573133926839,236.25959387922194 83.25209630234167,232.68703221331816 91.48388334689662,262.77868763695005 89.60233202250674,267.45038915763143 85.36884154193103,268.0 67.14131308626384,262.9160908620106 61.49665911262855,238.04587103822269 61.614256070461124,236.39699990174267 65.49495567707345,234.88553285971284 83.84008109103888,233.37406406376977 87.9559746128507,254.1222552425461 90.89589855773374,258.10696936317254 91.1310924733989,264.0153161404887 87.83837765548378,266.76337527891155 80.31217235745862,267.0381808739621 67.72929787496105,263.46570361754857 61.614256070461124,237.35884165170137 65.25976176187396,234.88553285971284 83.84008109103888,232.9618449966656 91.48388334689662,262.64128439768683 89.95512289507315,266.2137639152352 83.48729021800682,267.45038915763143 68.31728266412392,263.1908972688252 61.49665911262855,237.6336534494767 63.495807394851,235.43515744165052 83.48729021800682,232.68703221331816 84.89845371060073,242.03063433500938 89.13194419117644,251.6489782789722 88.54395940201357,254.8092757879058 91.01349551556632,258.10696936317254 90.89589855773374,266.2137639152352 85.95682633062825,267.58779189013876 68.19968570629135,263.05349407263566 61.143868239130825,237.4962475579232 65.73014959320426,234.74812667781953 83.84008109103888,233.6488767027622 91.48388334689662,262.77868763695005 88.66155635984614,266.76337527891155 82.31132063968107,267.7251946077449 68.08208874845877,263.46570361754857 61.96704694395885,236.25959387922194 68.43487962149084,234.47331427095924 83.60488717537373,232.82443861232605 85.60403545806184,239.0077115710592 84.66325979540125,241.6184180076234 87.36798982461914,245.1909551791614 88.77915331814438,255.3588919636095 91.1310924733989,258.9313914523227 91.60148030519485,263.740509907715 88.19116852944717,266.2137639152352 81.37054497748613,267.45038915763143 69.14046136802062,262.9160908620106 62.79022564785555,243.9543088049395 61.96704694395885,235.57256355066784 83.60488717537373,232.82443861232605 91.95427117776126,263.8779130312614 88.77915331814438,266.0763610379072 79.13620277959853,266.9007780838292 69.84604311501607,258.2443730807863 75.49069708865136,253.7100427413825 87.83837765548378,255.3588919636095 77.13705449784175,256.4581236189697 83.84008109103888,255.7711039428832 85.48643849976361,255.08408390486147 83.25209630234167,254.53446761355735 77.60744232870638,256.59552751050796 85.95682633062825,255.63369996438269" stroke="#4dd2ff" stroke-linecap="round" stroke-linejoin="round" stroke-width="0.5"><title>2021-06-12 10.3km</title></polyline><polyline fill="none" points="123.95227400719887,235.57376411719451 123.57778889359906,235.42789836418524 119.92655903607374,239.82810066844831 119.39603845844977,241.01928675225645 118.45982567447936,245.1761866130255 118.55344695289386,246.96287819284044 119.08396753045963,249.64894061676023 120.7899552701274,255.9323805908134 122.45433355279965,258.81268247829576 124.73245132720331,263.7588557780182 125.52303101145662,264.79181358553615 127.12499510851922,266.2743956753766 127.9259771570214,267.84202321328485 128.0612078924314,268.0 128.2068409921485,267.9027835414963 127.20821402262663,265.95843715651426 125.39820264023729,264.2571071700513 124.70124423439847,263.2970598820175 122.48554064560449,258.38732596971386 120.95639309845865,255.7257738913613 119.46885500836652,250.36602361711994 118.6782753241132,246.2579283613086 118.69908005261095,245.24911334224453 119.01115098060109,243.66902387580922 119.6144881080836,241.12868077523308 120.03058267873712,240.1684408061701 120.66512689896626,239.15957247099868 123.66100780776469,235.68316331073584 123.85865272878436,235.47652030237077 123.99388346425258,235.53729769623897 125.54383573995437,233.0453982545514 124.96130334102781,232.0 125.55423810426146,233.1183326624523 124.49319694907172,234.80796685358655 120.47788434219547,239.54853480320162 119.59368337952765,241.3231587817354 118.69908005261095,245.94191496793792 119.5208668296691,250.36602361711994 119.68730465794215,250.93725603473285 119.95776612887857,250.82787132287194 119.54167155822506,247.26673454885167 119.35442900139606,246.99934099786333 119.1463817160693,247.06011231392768 119.07356516621076,248.00814069499756 118.69908005261095,246.0026868416462 119.62489047233248,241.3231587817354 120.10339922859566,240.13197583950387 120.83156472723931,239.05017657846474 123.3697416082723,236.16938069179014 123.73382435756503,236.37602245738526 124.11871183547191,235.9870494143397" stroke="#4dd2ff" stroke-linecap="round" stroke-linejoin="round" stroke-width="0.5"><title>2021-06-05 10.9km</title></polyline></svg>