<?xml version="1.0" encoding="utf-8" ?>
<svg baseProfile="full" height="300mm" version="1.1" viewBox="0,0,200,300" width="200mm" xmlns="http://www.w3.org/2000/svg" xmlns:ev="http://www.w3.org/2001/xml-events" xmlns:xlink="http://www.w3.org/1999/xlink"><defs /><rect fill="#222222" height="300" width="200" x="0" y="0" /><text fill="#FFFFFF" style="font-size:12px; font-family:Arial; font-weight:bold;" x="10" y="20">Over 10k Runs</text><text fill="#FFFFFF" style="font-size:4px; font-family:Arial" x="10" y="280">ATHLETE</text><text fill="#FFFFFF" style="font-size:9px; font-family:Arial" x="10" y="290">LuccaLu</text><text fill="#FFFFFF" style="font-size:4px; font-family:Arial" x="120" y="280">STATISTICS</text><text fill="#FFFFFF" style="font-size:3px; font-family:Arial" x="120" y="285">Number: 22</text><text fill="#FFFFFF" style="font-size:3px; font-family:Arial" x="120" y="290">Weekly: 1.4</text><text fill="#FFFFFF" style="font-size:3px; font-family:Arial" x="141" y="285">Total: 257.7 km</text><text fill="#FFFFFF" style="font-size:3px; font-family:Arial" x="141" y="290">Avg: 11.7 km</text><text fill="#FFFFFF" style="font-size:3px; font-family:Arial" x="167" y="285">Min: 10.1 km</text><text fill="#FFFFFF" style="font-size:3px; font-family:Arial" x="167" y="290">Max: 21.3 km</text><polyline fill="none" points="28.053802379756235,61.94491937296698 25.763062597019598,62.55464896076592 22.708742886665277,62.48932087702269 12.48422141757328,58.961573574342765 12.111743404064327,58.50426857279672 12.148991205496714,57.959856532354024 14.12312467675656,54.083601192134665 12.391101914225146,57.872750472291955 12.782203828333877,58.961573574342765 22.31764097267296,62.40221673306951 24.403517847997136,62.64175304022501 27.5323331609834,62.184456212009536 28.12829798250459,62.053799788918695 25.614071391755715,62.59820100509387 22.65287118474953,62.467544844475924 12.428349715541117,58.961573574342765 12.0,58.48249211884104 12.055871702032164,57.959856532354024 14.327987584169023,53.53917746270599 17.90377651329618,49.31440038967412 22.5411277806852,46.00420520044281 26.042421107180417,44.414421486042556 36.3041903777048,40.929921084985835 43.90274185198359,37.42358301852073 44.442834971589036,37.467140379492776 47.72064148983918,53.47384651840548 48.0,55.19422113640758 47.53440248325933,55.97818454890512 41.77961717545986,57.263007020097575 28.556647697929293,61.81426279777952 28.202793585136533,61.640053901996 27.085359544842504,62.315112552270875 23.975168132572435,62.59820100509387 21.647180548403412,62.162680147288484 12.242110708844848,58.78736226496403 12.018623900716193,58.351833346590865 12.260734609561041,57.415443052421324 14.216244180104695,53.669839289053925 17.382307294406928,49.749948425989714 19.822038282523863,47.681087046905304 22.988101396826096,45.6775383160566 35.242628039442934,41.25659550317505 44.10760475951247,37.35824695978954 44.629073978285305,37.75026300121681 47.944128297967836,54.64980034370092 47.8510087946197,55.65153348984313 47.21779617178254,56.06529141047213 41.90998448012397,57.24123043483996 27.5323331609834,62.01024762941233" stroke="#4dd2ff" stroke-linecap="round" stroke-linejoin="round" stroke-width="0.5"><title>2022-07-02 12.1km</title></polyline><polyline fill="none" points="91.7665592553094,35.47368277727219 92.06301467958838,35.5339953735529 92.12746151094325,36.046651409516926 92.52703186537838,36.453759299140074 92.26924453995889,36.921178032658645 91.86967418546556,36.99656800722005 92.82348728965735,38.7154485922365 92.88793412101222,39.27332642534748 93.51951306842966,40.11767790549493 92.88793412101222,40.75093822860799 92.9266022198135,40.373997899499955 93.75152166129556,42.06268279267533 92.33369137131376,42.77132137850276 92.51414249913068,43.283951347810216 92.86215538851684,43.47995643643662 92.74615109205479,44.98767886433052 91.88256355177145,45.1987587298936 91.67633369140094,45.6359945985605 90.41317579662427,45.605840443837224 89.8976011457271,45.213835851158365 85.36054421769222,45.1987587298936 82.16398138203658,45.545532115211245 80.9523809524253,45.87722760633915 78.5807375581935,45.87722760633915 77.21446473331889,46.22399933890847 75.21661296096863,47.384924643469276 72.29072681709658,48.47045662274468 69.35195130691864,49.978126195361256 68.41102756891632,50.18919866136275 67.88256355182966,49.9932028104522 66.94163981388556,50.61134265457804 66.45184389554197,51.25963277826668 65.38202649488812,51.13902088579198 65.47225205879658,52.17929509867099 61.9018976012012,54.71210487699136 60.226279985683504,54.57641978113679 60.17472252069274,53.67184917080158 60.61296097392915,52.52605148051225 60.419620479806326,52.149142329901224 60.13605442183325,52.11898955478682 59.46580737567274,52.82757808253518 59.41424991050735,53.6869253947516 58.66666666668607,56.00864482727775 59.23379878269043,59.023808359212126 58.88578589336248,61.631873313948745 59.33691371290479,64.52631722272781 59.47869674186222,64.49616706857341 59.46580737567274,60.878102223505266 59.00179018982453,60.56151717566536 59.285356247855816,58.81274899026903 58.71822413179325,55.978492869457114 59.672037235985044,52.40544066086295 60.432509846112225,52.19437148064026 60.57429287512787,53.55123932186689 60.26494808454299,54.59149590926245 61.87611886864761,54.71210487699136 65.4078052273835,52.284829739059205 65.56247762270505,51.953149177279556 65.4335839599371,51.10886789669166 66.49051199428504,51.25963277826668 66.89008234877838,50.67164883708756 67.81811672041658,49.978126195361256 69.01682778378017,50.17412206703739 72.22627998574171,48.50061017066764 75.20372359472094,47.44523219282564 76.68600071611581,46.389846390651655 77.51092015759787,46.103383179957746 79.09631220909068,45.801842335335095 81.24883637670428,45.78676527632342 82.20264948089607,45.40983828243043 84.9609738632571,45.31937565538101 86.10812746157171,45.07814170217898 86.92015753674787,45.27414432029764 87.5517364841071,45.063064566551475 89.92337987828068,45.24399008891487 90.49051199428504,45.6359945985605 91.5216612960794,45.65107167352107 90.49051199428504,45.620917521984666 89.83315431437222,45.22891297082242 86.855710705393,45.334452763883746 85.51521661301376,45.12337309953 81.08127461513504,45.83199644852721 79.34121016832069,45.69630288884218 77.35624776227633,46.088306152872974 75.16505549591966,47.41507842135616 71.22090941644274,49.13383320187859 75.17794486222556,47.41507842135616 76.76333691371838,46.389846390651655 78.65807375585428,45.847073502794956 80.78481919085607,45.89230465577566 82.49910490517505,45.45506957442558 86.26279985677684,45.18368160701357 87.10060866456479,45.31937565538101 87.66774078051094,45.12337309953 90.01360544218915,45.22891297082242 90.52918009314453,45.6359945985605 91.63766559254145,45.620917521984666 91.88256355177145,45.16860448254738 92.56569996423787,45.16860448254738 92.69459362694761,44.94244742390583 92.63014679553453,43.13317801908124 92.41102756891632,42.60547011079325 93.42928750446299,42.46977347531356 93.60973863233812,42.12299259689462 93.46795560332248,42.40946381801041 94.66666666668607,42.04760533764784 94.11242391698761,40.97710194690444" stroke="#4dd2ff" stroke-linecap="round" stroke-linejoin="round" stroke-width="0.5"><title>2022-06-29 12.3km</title></polyline><polyline fill="none" points="116.33244296759949,44.936209705265355 116.53236262899009,44.65933562163991 116.34725183137925,44.988123491850274 116.22878092090832,44.91890510241501 116.44350944613689,44.633378628357605 116.54717149279895,44.72855423016881 116.45091387804132,44.85833896369877 116.31022967188619,45.005428080090496 116.22878092090832,44.90160049592669 116.47312717375462,44.65068329145288 116.53236262899009,44.71990190730867 116.35465626328369,44.96216660266509 116.21397205707035,44.91890510241501 116.45091387804132,44.633378628357605 116.52495819705655,44.71990190730867 116.38427399090142,44.927557404284016 116.28801637611468,45.005428080090496 116.19916319329059,44.91890510241501 116.41389171851915,44.64203096036363 116.51755376518122,44.72855423016881 116.40648728661472,44.892948191314645 116.26580308043049,45.01408037285 116.19175876135705,44.884295885778556 116.39167842280585,44.6160739616098 116.48793603753438,44.66798795089562 116.32503853566595,45.005428080090496 116.20656762519502,44.91890510241501 116.47312717375462,44.66798795089562 116.34725183137925,45.01408037285 116.19175876135705,44.927557404284016 116.45831830994575,44.64203096036363 116.55457592470339,44.77181583086349 116.42870058232802,44.927557404284016 116.31022967188619,45.03138495560415 116.21397205707035,44.94486200530082 116.45091387804132,44.67664027923456 116.53976706089452,44.77181583086349 116.37686955899699,45.005428080090496 116.18435432948172,44.94486200530082 116.26580308043049,44.80642509495374 116.16214103373932,44.892948191314645 116.46572274182108,44.66798795089562 116.51755376518122,44.763163512536266 116.29542080801912,45.005428080090496 116.16214103373932,44.884295885778556 116.36206069515902,44.624726295427536 116.17694989757729,44.85833896369877 116.22137648900389,44.95351430444862 116.14733216995955,44.85833896369877 113.86676714333589,47.59242294236901 113.32624361431226,48.45762040487898 112.6006092876778,51.269449125138635 112.48213837720687,52.57583521021297 113.05968406578177,55.60380242537212 114.08149566856446,59.29777108012058 115.42910227520042,61.63344997155218 116.84334876897628,64.7389348586803 118.67224344942952,66.78035950722551 119.27200243365951,68.0 118.53155924318708,66.60735938783182 116.88037092849845,64.91193891711009 116.13992773805512,63.519245896437496 115.14032943092752,61.19227127447084 113.98523805380682,59.15070759146329 112.97083088289946,55.4567323146257 112.4895428090822,52.766167870140634 112.49694724101573,51.76259068807849 113.0448752019438,49.24494216372841 113.40769236526103,48.275929694886145 113.8889804390783,47.5232067510442 116.10290557853295,44.927557404284016 116.20656762519502,44.95351430444862 116.25099421662162,44.80642509495374 116.23618535278365,44.94486200530082 116.04367012326838,44.67664027923456 115.96962580425316,44.05367030450725 115.99924353187089,44.46898414685711 116.15473660186399,44.624726295427536 116.30282523995265,44.60742162687529 117.24318809181568,43.214383827653364 116.88037092849845,42.42700416838488 117.07288615798461,42.13281642142829 116.78411331374082,41.579048387284274 116.22878092090832,37.088197584744194 117.59860082322848,36.309412301983684 130.03804642290925,32.02596099337825 130.11209074195358,32.17307313376659 130.26017938004225,32.043268317698676 131.19313780000084,32.0 131.84472780759097,33.955705145708635 132.54814883854124,35.59119265035406 132.53333997470327,34.725859411177225 131.99281644567964,33.37592131803831 132.25937599423924,33.13362238401169 131.83732337568654,33.34996075222443 131.9187721266353,33.99031897584064 132.8295172509097,36.36998475596192 133.11088566324906,37.373750334802025 133.12569452708703,38.031383188390464 133.68843135179486,38.50729841074644 134.1845282894501,41.224288775003515 134.10307953847223,41.665574889171694 133.22195214181556,42.150121612234216 132.785090659454,42.63466547194548 133.6736224880151,45.230387394818536 133.54774714563973,45.368823589451495" stroke="#4dd2ff" stroke-linecap="round" stroke-linejoin="round" stroke-width="0.5"><title>2021-12-25 13.8km</title></polyline><polyline fill="none" points="183.05398871883517,40.82967726785864 182.6768734891666,41.11812180375273 182.4593070105184,41.779845540906535 183.416599516524,43.12025191249268 183.8807413376635,44.40974618960172 184.46091861405876,44.901787322043674 184.73650282039307,44.79998583247652 183.9532634972129,45.13932387949899 183.66317485901527,45.56349542726821 184.3593875907245,46.24216756723763 184.50443190982332,47.20927039827802 183.76470588240772,46.93780352646718 183.05398871883517,47.54860334111436 183.53263497183798,49.33008949726354 183.32957292511128,50.50076961198647 183.416599516524,48.990760328408214 182.90894439973636,47.51467007921019 185.49073327967199,46.92083683167584 184.51893634168664,47.141403723464464 184.30136986303842,46.92083683167584 183.66317485901527,46.95477021939587 181.74858984700404,47.361970311554614 181.54552780021913,46.9887035999127 180.6462530217832,47.51467007921019 177.25221595494077,48.41389909159625 176.3384367446415,48.29513328499161 173.9887187751592,46.42880190159485 173.39403706690064,46.20823402852693 173.3650282030576,45.750130552391056 174.1192586623947,44.766051988175604 175.9178082192666,42.950580840028124 173.40854149882216,45.80103100335691 168.88315874303225,47.44680353377771 169.94198227237212,50.48380329461361 169.5213537469972,49.83908190278453 168.81063658342464,50.398971680755494 164.70588235300966,51.65447497773857 163.95165189367253,50.22930831834674 164.64786462532356,51.75627211104438 165.83722804195713,51.671441171100014 163.70507655118126,52.9099684345274 156.7864625302027,56.03169329864613 155.437550362607,55.92989888211014 155.04593070107512,56.40493893918756 154.24818694603164,56.72728674708924 153.45044319098815,57.88094727136195 153.02981466555502,57.728257384878816 153.20386784849688,57.16839322267333 152.59468170831678,57.151427611432155 152.79774375504348,58.169361104402924 152.0,59.17032273214136 152.7397260273574,58.169361104402924 152.49315068492433,57.20232443965506 153.72602739720605,56.43887031788472 154.11764705885435,56.50673305384407 154.61079774377868,55.16643869644031 156.20628525386564,55.04767789610196 156.19178082194412,54.4538725737948 156.75745366641786,54.18241797902738 156.3078162771999,53.65647339275165 156.6414182111621,53.418949465150945 160.0934730056324,51.38301563919231 163.4585012087482,49.92391381312336 163.89363416604465,50.16144292303943 164.72038678481476,51.72233974044502 169.37630942795658,49.83908190278453 164.77840451250086,51.620542585573276 163.96615632553585,50.00874567851133 164.03867848514346,49.73728355106141 166.51893634168664,48.685363461831 168.63658340054099,48.07456798190833 168.97018533444498,48.24423362661037 169.56486704270355,49.63548513468413 169.44883158744778,49.92391381312336 169.98549556807848,50.58560117187153 169.94198227237212,51.298184501574724 171.71152296534274,50.77223044561106 176.3384367446415,50.41593800713599 176.88960515713552,50.636500086286105 179.0942788074608,50.51773592754034 179.80499597109156,50.890994415662135 178.71716357779223,51.24728579740622 182.50282030622475,51.36604941522819 183.08299758262,50.97582576891 182.3867848510272,51.298184501574724 181.77759871078888,51.0606570772361 182.24174053192837,50.890994415662135 182.41579371475382,50.50076961198647 183.02497985505033,50.48380329461361 187.3908138598199,50.840095582098 187.49234488321235,51.39998186133744 188.0,51.484812945040176 187.49234488321235,51.36604941522819 187.23126510885777,50.72133157432836 183.48912167618982,50.55166855335119 183.24254633364035,49.465820963538135 183.35858178895433,48.58356437693874 187.23126510885777,48.481765227305004 183.416599516524,48.329066381571465 182.92344883159967,47.58253659591719 184.11281224823324,47.17533706447284" stroke="#4dd2ff" stroke-linecap="round" stroke-linejoin="round" stroke-width="0.5"><title>2021-11-29 10.4km</title></polyline><polyline fill="none" points="21.011196041246876,93.26780584844528 20.864240118302405,87.99392665713094 22.039887502556667,86.84742436942179 38.98880395828746,87.19137531117303 40.26242195791565,91.37609423272079 39.821554189082235,97.50980175932636 29.24072773079388,98.94290096050827 20.57032827218063,97.33782959985547 20.96221073367633,87.19137531117303 25.76277088583447,86.44614799396368 39.42967172758654,87.30602557648672 39.52764234296046,97.28050553443609 20.864240118302405,97.50980175932636 21.011196041246876,87.64997622621013 21.843946271808818,86.84742436942179 39.03778926609084,87.47800092870602 39.821554189082235,88.91112673579482 39.57662765076384,97.22318146302132 21.45206381031312,97.73909788695164 20.76626950292848,96.70726454659598 21.30510788736865,73.77712634159252 38.939818650949746,73.0318805227871 22.627711194567382,73.26118703826796 20.815254810499027,72.0 19.884533964795992,72.22930695302784 19.73757804185152,87.19137531117303 34.18824380636215,87.0193998676259 39.38068642001599,87.64997622621013 39.87053949665278,88.50985189294443 39.08677457389422,97.6244498352753 21.060181349050254,97.6244498352753 20.815254810499027,89.36972619121661 21.1091666566208,87.30602557648672 21.843946271808818,86.84742436942179 33.453464191174135,86.90474954165984 39.57662765076384,87.7646263942006 39.67459826590493,96.99388511647703 21.207137272227556,97.56712580041494 21.403078502742574,86.96207470761146 39.08677457389422,87.5926511331345 39.821554189082235,88.73915183969075 39.821554189082235,94.98753793403739 38.89083334314637,97.68177386408206 21.256122579798102,97.68177386408206 20.864240118302405,88.79647681111237 21.745975656434894,86.84742436942179 39.08677457389422,87.53532603400527 39.821554189082235,88.10857675212901 39.91952480445616,93.43977930326946 39.42967172758654,97.39515365904663 21.550034425687045,97.68177386408206 20.76626950292848,96.53529213153524 21.30510788736865,86.96207470761146 37.029391651274636,87.134050169494 39.478657035389915,87.64997622621013 39.968510112026706,88.56717688863864 39.282715804642066,97.45247771235881 21.354093195172027,97.68177386408206 20.913225426105782,88.8538017764804 21.599019733490422,86.90474954165984 39.03778926609084,87.53532603400527 39.87053949665278,88.56717688863864 39.821554189082235,96.70726454659598 39.23373049683869,97.45247771235881 21.011196041246876,97.68177386408206 20.96221073367633,88.2805518488749 21.696990348631516,86.79009919118835 35.314905882813036,86.84742436942179 39.72358357370831,87.70730131329037 39.282715804642066,105.01919935340993 21.256122579798102,108.0 21.30510788736865,86.84742436942179 34.629111575195566,86.90474954165984 39.625612958334386,87.7646263942006 39.23373049683869,97.50980175932636 21.892931579612195,97.73909788695164 20.913225426105782,97.22318146302132 21.207137272227556,87.134050169494 33.845346652437,86.90474954165984 39.03778926609084,87.47800092870602 39.821554189082235,88.45252689119661 39.23373049683869,97.6244498352753 21.599019733490422,97.6244498352753 20.815254810499027,96.93656101473607 21.256122579798102,87.0193998676259 35.706788344308734,87.07672502147034 39.135759881697595,87.53532603400527 39.821554189082235,88.39520188310416 39.18474518926814,97.56712580041494 21.99090219475329,97.796421903593 20.815254810499027,97.0512092121644 21.011196041246876,87.19137531117303 34.33519972930662,87.0193998676259 39.03778926609084,87.53532603400527 39.821554189082235,88.45252689119661 39.33170111221261,97.50980175932636 21.79496096423827,97.85374591423897 20.815254810499027,96.82191279274411 21.30510788736865,86.96207470761146 34.482155652483925,86.79009919118835 38.596921497024596,87.36335069988854 39.87053949665278,88.50985189294443 39.821554189082235,96.70726454659598 39.135759881697595,97.6244498352753 21.501049118116498,97.56712580041494 20.717284195125103,96.82191279274411 21.30510788736865,87.0193998676259 30.514345730422065,86.61812361993361 39.18474518926814,87.53532603400527 39.77256888151169,95.10218654514756 39.72358357370831,96.99388511647703 38.84184803557582,97.73909788695164 21.1091666566208,97.56712580041494 20.913225426105782,88.39520188310416 21.745975656434894,86.79009919118835 38.792862728005275,87.36335069988854 39.87053949665278,88.73915183969075 39.87053949665278,93.09583233878948 39.72358357370831,97.0512092121644 39.03778926609084,97.68177386408206 21.599019733490422,97.73909788695164 20.815254810499027,96.76458867278416 21.158151964424178,86.96207470761146 34.92302342131734,86.79009919118835 39.625612958334386,88.10857675212901 39.625612958334386,97.22318146302132 29.485654269577935,97.73909788695164" stroke="#ffa700" stroke-linecap="round" stroke-linejoin="round" stroke-width="0.5"><title>2021-11-28 21.3km</title></polyline><polyline fill="none" points="84.51993767451495,77.07385982759297 74.18668634817004,74.65773750469089 69.22672571055591,80.21481502871029 71.50004100333899,104.85908297845162 79.35331201087683,107.7583911519032 84.31327264755964,101.23494259035215 84.31327264755964,78.0403080410324 77.07999671902508,72.0 69.22672571055591,79.24836773448624 70.46671586949378,103.4094275124371 77.90665682591498,107.7583911519032 84.31327264755964,103.4094275124371 84.72660270053893,78.76514393393882 80.17997211776674,72.48322523059323 75.42667650710791,72.72483780793846 69.22672571055591,79.73159143235534 69.84672079142183,101.47655212879181 76.04667158704251,107.51678227749653 80.5933021698147,107.03356445301324 84.93326772749424,100.51011382346042 83.48661254160106,79.00675584678538 78.52665190491825,73.69128786027431 72.94669618830085,74.41612513246946 69.02006068546325,81.66448520449921 70.2600508434698,103.65103682037443 77.28666174598038,108.0 84.31327264755964,102.92620882042684 84.93326772749424,79.73159143235534 79.97330708988011,73.44967538514175 72.12003608234227,74.89934985153377 68.81339565757662,82.38931994815357 71.50004100333899,104.13425536011346 78.52665190491825,108.0 84.72660270053893,102.20138058904558 83.69327756855637,77.55708398553543 76.25333661213517,72.48322523059323 70.05338581744581,76.83224770985544 69.22672571055591,81.42287357198074 70.2600508434698,102.20138058904558 79.35331201087683,108.0 85.34659778047353,98.81884580664337 83.89994259458035,77.55708398553543 80.17997211776674,73.93290031002834 72.12003608234227,74.65773750469089 68.60673063248396,82.14770839200355 70.46671586949378,102.92620882042684 79.97330708988011,107.27517337771133 85.34659778047353,99.5436751099769 83.48661254160106,76.5906355669722 73.98002132028341,73.93290031002834 67.98673555254936,82.6309314777609 69.64005576446652,100.99333302699961 77.90665682591498,107.7583911519032 85.55326280742884,99.78528482699767 84.72660270053893,79.24836773448624 78.73331693187356,73.44967538514175 73.98002132028341,73.69128786027431 68.81339565757662,80.21481502871029 71.08671094942838,103.89264610339887 80.17997211776674,107.27517337771133 85.75992783345282,99.30206536734477 83.48661254160106,76.5906355669722 79.76664206385612,72.72483780793846 73.77335629519075,73.69128786027431 69.43339073751122,80.9396502317395 69.64005576446652,102.44299002480693 74.80668142717332,107.7583911519032 82.24662238173187,106.3087375247851 85.34659778047353,99.78528482699767 81.8332923296839,73.93290031002834 76.66666666697711,72.24161262833513 70.05338581744581,77.55708398553543 68.60673063248396,92.05376122472808 72.74003116227686,106.79195550177246 80.5933021698147,108.0 83.69327756855637,105.10069213295355 84.10660762060434,82.38931994815357 82.65995243564248,75.86579898511991 78.11332185100764,72.72483780793846 69.84672079142183,77.31547191925347 69.22672571055591,101.95977112744004 76.46000163909048,107.03356445301324 85.13993275351822,101.71816164092161 82.0399573566392,74.65773750469089 70.88004592433572,75.38257447001524 68.60673063248396,98.09401627373882 72.32670110929757,105.82551944395527 80.38663714379072,106.79195550177246 84.10660762060434,103.16781817912124 84.72660270053893,81.90609681094065 78.73331693187356,73.69128786027431 71.29337597638369,76.34902339871041 69.43339073751122,80.45642678881995 70.05338581744581,102.92620882042684 75.42667650710791,107.51678227749653 80.17997211776674,107.27517337771133 85.13993275351822,100.51011382346042 83.69327756855637,78.0403080410324 76.66666666697711,73.44967538514175 72.53336613625288,74.174512734171 69.22672571055591,81.1812619145494 70.05338581744581,102.44299002480693 77.90665682591498,108.0 85.34659778047353,100.7517234380357 84.51993767451495,80.21481502871029 79.97330708988011,73.20806288486347 71.50004100333899,75.62418674025685 69.22672571055591,79.97320324345492 70.05338581744581,102.44299002480693 73.98002132028341,107.51678227749653 84.31327264755964,102.92620882042684 84.31327264755964,81.1812619145494 79.35331201087683,73.69128786027431 70.67338089738041,76.1074112050701 69.64005576446652,101.71816164092161 75.8400065600872,107.7583911519032 81.8332923296839,106.3087375247851 85.13993275351822,100.99333302699961 84.93326772749424,80.21481502871029 77.07999671902508,73.44967538514175 69.22672571055591,80.45642678881995 69.43339073751122,100.99333302699961 77.07999671902508,108.0 84.93326772749424,101.95977112744004 83.89994259458035,78.76514393393882 78.52665190491825,72.24161262833513 67.57340549957007,78.76514393393882 69.64005576446652,99.78528482699767 75.01334645505995,106.79195550177246 85.13993275351822,101.95977112744004 84.72660270053893,80.9396502317395 79.14664698485285,74.41612513246946 73.98002132028341,74.41612513246946 69.64005576446652,78.52353199501522 69.43339073751122,101.23494259035215 78.52665190491825,107.7583911519032 84.51993767451495,102.92620882042684 84.51993767451495,79.48997959611006 79.14664698485285,72.96645035943948 69.64005576446652,77.79869602620602 70.2600508434698,103.4094275124371 77.49332677200437,107.51678227749653 85.13993275351822,101.23494259035215 84.93326772749424,78.76514393393882 79.97330708988011,72.24161262833513 69.64005576446652,78.76514393393882 69.22672571055591,100.51011382346042 71.08671094942838,105.10069213295355 78.31998687796295,107.51678227749653 85.13993275351822,99.78528482699767 85.34659778047353,78.28192003117874 78.11332185100764,72.48322523059323 70.2600508434698,77.79869602620602 69.64005576446652,102.20138058904558 77.07999671902508,107.27517337771133 84.51993767451495,103.89264610339887 85.34659778047353,80.21481502871029 83.07328248862177,74.89934985153377 76.46000163909048,72.72483780793846 69.43339073751122,79.73159143235534 70.67338089738041,104.13425536011346 78.93998195789754,107.27517337771133 85.34659778047353,99.5436751099769 84.51993767451495,77.79869602620602 79.35331201087683,72.72483780793846 68.19340057857335,79.00675584678538 71.50004100333899,105.10069213295355 78.52665190491825,107.51678227749653 85.34659778047353,99.5436751099769 84.93326772749424,79.73159143235534 77.28666174598038,73.20806288486347 68.19340057857335,80.45642678881995 69.64005576446652,101.47655212879181 74.39335137419403,107.51678227749653 84.93326772749424,103.16781817912124 85.13993275351822,78.52353199501522 79.97330708988011,72.72483780793846 68.40006560552865,79.00675584678538 74.39335137419403,73.44967538514175 79.35331201087683,73.20806288486347 85.75992783345282,80.9396502317395" stroke="#4dd2ff" stroke-linecap="round" stroke-linejoin="round" stroke-width="0.5"><title>2021-11-28 10.4km</title></polyline><polyline fill="none" points="128.62896065507084,77.96182471583597 123.72560202423483,73.37580715795048 116.27249690331519,79.56692857062444 116.07636255770922,102.26755591458641 123.92173636890948,106.16561954049394 130.78643845301121,98.82808219222352 130.19803541712463,78.64972651330754 123.52946767769754,72.91720486897975 115.29182517714798,80.25482985889539 116.27249690331519,102.03825783659704 120.97972118947655,106.85351239494048 125.68694547563791,106.62421480147168 130.78643845301121,101.35036345524713 130.00190107244998,77.50322339637205 122.74493029620498,72.91720486897975 115.09569083154202,80.02552945329808 116.27249690331519,102.03825783659704 123.33333333302289,106.62421480147168 130.59030410833657,102.03825783659704 131.17870714329183,79.33762809238397 126.2753485115245,73.37580715795048 121.96039291657507,73.14650602522306 116.07636255770922,78.64972651330754 115.88022821303457,99.51597737288103 123.13719898834825,107.0828099641949 131.57097583450377,100.43317060777918 131.17870714329183,79.33762809238397 126.07921416684985,73.60510826599784 117.84157166536897,75.89811801468022 115.88022821303457,79.79622902418487 116.46863124892116,101.12106527923606 124.70627374947071,106.62421480147168 130.59030410833657,101.5796616061125 130.98257279861718,79.56692857062444 124.90240809507668,73.37580715795048 115.88022821303457,79.33762809238397 115.88022821303457,100.20387233560905 117.84157166536897,104.7898331778124 124.51013940386474,106.85351239494048 130.78643845301121,101.5796616061125 130.59030410833657,77.27392269996926 123.13719898834825,73.37580715795048 119.01837773714215,74.75161344348453 115.6840938674286,82.5478325788863 117.05703428387642,102.72615199838765 126.47148285713047,106.16561954049394 131.3748414888978,99.51597737288103 130.78643845301121,78.42042593797669 128.04055761918426,74.75161344348453 120.39131815452129,73.83440934959799 115.6840938674286,81.1720312377438 116.46863124892116,102.26755591458641 121.37198988068849,106.62421480147168 126.47148285713047,106.16561954049394 131.57097583450377,99.51597737288103 129.805766726844,76.81532123498619 122.74493029620498,73.37580715795048 115.48795952275395,81.1720312377438 116.46863124892116,102.03825783659704 123.13719898834825,106.85351239494048 131.17870714329183,99.74527571815997 130.98257279861718,79.33762809238397 123.52946767769754,73.37580715795048 116.07636255770922,78.19112533912994 116.07636255770922,99.28667900385335 117.25316862948239,103.41404594364576 123.13719898834825,106.39491718309 131.3748414888978,98.82808219222352 131.17870714329183,80.48413023981266 123.52946767769754,73.37580715795048 116.07636255770922,78.64972651330754 115.48795952275395,99.9745740389917 117.84157166536897,104.56053536641411 124.11787071358413,106.62421480147168 130.3941697627306,100.6624688564334 130.98257279861718,77.96182471583597 123.52946767769754,73.37580715795048 117.05703428387642,77.27392269996926 115.88022821303457,101.5796616061125 122.54879595246166,107.0828099641949 131.17870714329183,100.43317060777918 130.3941697627306,77.27392269996926 123.72560202423483,73.14650602522306 116.07636255770922,78.64972651330754 116.46863124892116,101.35036345524713 123.92173636890948,107.0828099641949 131.3748414888978,98.36948528396897 130.78643845301121,77.27392269996926 120.19518380891532,73.83440934959799 115.48795952275395,80.7134305969812 115.6840938674286,100.20387233560905 123.92173636890948,107.0828099641949 128.04055761918426,105.93632187438197 131.3748414888978,99.05738061037846 130.00190107244998,76.5860204664059 122.74493029620498,73.37580715795048 116.07636255770922,79.1083275906276 116.46863124892116,101.35036345524713 120.19518380891532,106.16561954049394 130.19803541712463,102.95545000466518 131.57097583450377,83.00643283152021 127.84442327450961,74.29301144485362 132.15937887039036,80.25482985889539 131.3748414888978,99.74527571815997 127.05988589301705,106.16561954049394 121.76425857003778,107.31210750923492 114.11501910537481,99.05738061037846 114.89955648686737,78.19112533912994 123.92173636890948,72.0 131.17870714329183,77.96182471583597 131.9632445247844,101.35036345524713 129.21736369095743,106.16561954049394 122.74493029620498,107.7707025273703 116.07636255770922,101.35036345524713 115.6840938674286,78.19112533912994 122.74493029620498,72.6879036880564 127.64828892890364,73.60510826599784 132.355513215065,79.56692857062444 131.3748414888978,102.49685396859422 126.66761720273644,107.31210750923492 119.8029151186347,107.0828099641949 115.09569083154202,99.51597737288103 116.86089993920177,75.43951625819318 125.09854244068265,72.6879036880564 132.55164756067097,81.63063178118318 131.76711018010974,102.49685396859422 128.23669196572155,106.16561954049394 119.21451208274812,106.39491718309 114.89955648686737,98.36948528396897 116.27249690331519,76.12741885590367 123.13719898834825,72.22930125356652 130.78643845301121,77.04462197935209 131.9632445247844,100.20387233560905 127.05988589301705,106.39491718309 122.74493029620498,107.0828099641949 116.27249690331519,101.5796616061125 116.86089993920177,75.43951625819318 125.09854244068265,72.45860248222016 132.15937887039036,79.1083275906276 132.15937887039036,101.80895973346196 123.72560202423483,108.0 115.6840938674286,102.03825783659704 115.48795952275395,79.56692857062444 121.76425857003778,72.6879036880564 126.2753485115245,72.91720486897975 131.9632445247844,80.02552945329808 131.9632445247844,102.26755591458641 120.97972118947655,107.31210750923492 115.88022821303457,101.35036345524713 115.48795952275395,78.19112533912994 124.11787071358413,72.6879036880564 128.62896065507084,74.29301144485362 132.355513215065,81.63063178118318 130.59030410833657,103.184747985797 122.74493029620498,107.0828099641949 115.6840938674286,101.12106527923606 115.6840938674286,78.42042593797669 123.33333333302289,73.37580715795048 130.78643845301121,76.5860204664059 132.55164756067097,80.48413023981266 131.17870714329183,103.64334387681447 123.52946767769754,107.0828099641949 116.07636255770922,102.95545000466518 115.29182517714798,79.56692857062444 123.52946767769754,73.14650602522306 130.78643845301121,77.04462197935209 132.55164756067097,99.05738061037846 124.51013940386474,108.0 120.19518380891532,107.0828099641949 115.6840938674286,100.43317060777918 115.09569083154202,78.64972651330754 121.76425857003778,72.91720486897975 130.19803541712463,75.21021534432657 132.55164756067097,79.56692857062444 131.76711018010974,103.184747985797 124.70627374947071,107.0828099641949 117.05703428387642,103.41404594364576 115.29182517714798,80.94273092900403 118.62610904686153,74.98091440624557 124.31400506012142,73.14650602522306 131.76711018010974,80.02552945329808" stroke="#4dd2ff" stroke-linecap="round" stroke-linejoin="round" stroke-width="0.5"><title>2021-11-28 10.7km</title></polyline><polyline fill="none" points="187.7586335337619,94.66197166268284 187.71074336189486,94.63287443058834 187.70882775501377,94.7224042480193 187.9923375724975,95.81016135683421 188.0,95.99144878804691 187.73756185814273,96.0227822611796 187.19161389879446,96.0227822611796 187.03644974192866,96.04292518376678 187.00963124567352,96.0854490686761 187.0498589900526,96.37416161333203 187.19544511254207,96.85310244498578 187.22801042941137,97.08361684337433 187.3965838344011,97.60506250858452 187.438727185654,97.63415566629192 187.59006012877217,97.60282457172798 187.63411908689886,97.6207280599956 187.62454105252255,97.6475832640972 187.53833874315023,97.67891429260271 187.53833874315023,97.7057694230898 187.58622891502455,97.66324878412888 185.58633533762622,97.78633461071877 185.29516309264,97.75947958214965 185.0250625232802,97.6677246448744 184.7798648432945,97.5133069038784 184.52892034268007,97.2335617587596 184.3469376895664,96.8732445796104 183.9925504177154,95.8795431492199 183.97339434896276,95.91982924716831 183.73394348959846,95.19466778363312 183.6630660352239,94.76716901508553 153.13787048368977,83.03556852953625 153.18001383494266,83.05572379185833 153.16277337306383,83.0086948166063 153.02101846432197,82.65709393227189 152.94630979619978,82.58095029700053 152.92906933432096,82.4510575817294 152.88309476932773,82.47121340009107 152.8409514180821,82.35923638877102 152.8696855212038,82.41074588748415 152.85244505933224,82.4510575817294 152.73750864683825,82.47569246823332 152.74133986058587,82.38387138204416 152.7585803224647,82.46225526096168 152.73176182621683,82.44881804517172 152.7279306124692,82.28757079094612 152.64172830308962,82.27413346436333 152.7202681849667,82.26517524190604 152.73942425370478,82.29428945103791 152.41568669185654,82.29428945103791 152.4041930506064,82.40626680561218 152.40036183685152,82.3099663163066 152.3141595274792,82.3010081090033 152.30266588622908,82.46225526096168 152.24519767998572,82.51152497928706 152.05172138562193,82.51824356836005 152.12643005374412,82.39954818102888 152.05938381312444,82.53839932280607 152.0019156068738,82.21366538928123 152.0,82.2562170156616 152.06321502687933,82.29428945103791 152.22221039748547,82.2562170156616 152.26626935561217,82.27413346436333 152.25860692810966,82.31220586753807 152.22987282499525,82.26293568570327 152.56893524184125,82.26293568570327 152.5095514287168,82.2830916830244 152.5651040281009,82.27189390910644 152.57085084872233,82.31668496929706 152.5631884212271,82.28981034454591 152.45591443622106,82.2987685565804 152.3658809131084,82.26741479787415 152.13217687437282,82.30772676483866 152.09194912999374,82.23382143348317 152.04789017187431,82.30772676483866 152.0363965306242,82.26069612925858 152.0306497099955,82.31892451982458 152.07853988186253,82.30772676483866 152.0440589581267,82.48241106867135 152.09003352311265,82.524962155303 152.08811791624612,82.54063884989591 152.0862023093723,82.69068662554855 152.11493641250127,82.72427926556338 152.19156068748998,82.72203975788398 152.2317884318618,82.65709393227189 152.22987282499525,82.46225526096168 152.16857340498973,82.41074588748415 152.12259883998922,82.41746450851497 152.0804554887436,82.48912966698117 152.09578034374135,82.71308172480349 152.13983930186805,82.74219531845483 152.20305432874738,82.71756074181758 152.22795721811417,82.47793200194792 152.16091097748722,82.41298542806908 152.10535837811767,82.4286622055115 152.0804554887436,82.48912966698117 152.0862023093723,82.68844711431666 152.14558612248948,82.73547680039701 152.22987282499525,82.67501004197948 152.22029479061166,82.46225526096168 152.14558612248948,82.41298542806908 152.0842867024985,82.46449479610419 152.0862023093723,82.68620760285376 152.13792369500152,82.73547680039701 152.2260416112331,82.67501004197948 152.22221039748547,82.47345293428225 152.1628265843683,82.41522496841208 152.0823710956247,82.46449479610419 152.0823710956247,82.67501004197948 152.13983930186805,82.7377163066576 152.2337040387356,82.67501004197948 152.22795721811417,82.46673433099932 152.18964508061617,82.41522496841208 152.13409248123935,82.41522496841208 152.0823710956247,82.47121340009107 152.0823710956247,82.6593334468107 152.12259883998922,82.73099778717187 152.1953919012376,82.72427926556338 152.22221039748547,82.68844711431666 152.2260416112331,82.46897386566707 152.14941733624437,82.41298542806908 152.0804554887436,82.48689013444528 152.0862023093723,82.68620760285376 152.14941733624437,82.72875828020005 152.22221039748547,82.6794890670426 152.21837918373785,82.4510575817294 152.14941733624437,82.41298542806908 152.0804554887436,82.47121340009107 152.0862023093723,82.67501004197948 152.1647421912421,82.7377163066576 152.22987282499525,82.6817285792149 152.22029479061166,82.45329711805243 152.14558612248948,82.41074588748415 152.0804554887436,82.46897386566707 152.09003352311265,82.69516564729383 152.15324854999926,82.73547680039701 152.2317884318618,82.66381247519166 152.22221039748547,82.45553665413536 152.1551641568658,82.41074588748415 152.0804554887436,82.48689013444528 152.09386473687482,82.70412368794132 152.17240461873735,82.72875828020005 152.22795721811417,82.67277052909594 152.22029479061166,82.46225526096168 152.1628265843683,82.41298542806908 152.0842867024985,82.46449479610419 152.0862023093723,82.6817285792149 152.16857340498973,82.73099778717187 152.2317884318618,82.66605198902107 152.22221039748547,82.45329711805243 152.14750172937056,82.41298542806908 152.0842867024985,82.47569246823332 152.0842867024985,82.67724955462654 152.1551641568658,82.73323729389995 152.2337040387356,82.67053101597412 152.22412600436655,82.46449479610419 152.1628265843683,82.41298542806908 152.0823710956247,82.46897386566707 152.0842867024985,82.67501004197948 152.1245144468703,82.72651877299904 152.16857340498973,82.73099778717187 152.21454796999024,82.70636319751611 152.22987282499525,82.63469877383432" stroke="#4dd2ff" stroke-linecap="round" stroke-linejoin="round" stroke-width="0.5"><title>2021-11-20 12.6km</title></polyline><polyline fill="none" points="47.71517621676321,127.76643866246741 47.30088707743562,127.13110613760364 47.78422440661234,127.17144483613083 47.96547590507544,127.00000524987263 47.766962359135505,125.7898347209848 47.38719731479068,125.90076765714912 47.30951810115948,126.23356569344469 47.15415967392619,126.12263314341544 47.32678014860721,126.86890418238181 47.16279069765005,126.93949708720174 47.23183888755739,127.07059805790777 47.723807240487076,127.06051337425015 47.8705346439674,126.87898888625932 47.64612802685588,126.32432859321125 47.08511148401885,126.28398953727446 46.6621913210256,126.64704042788071 46.27379525289871,126.71763349654066 46.42052265643724,127.17144483613083 47.14552865020232,127.24203751758614 47.8446415727376,126.9899205587717 47.78422440661234,126.36466763210774 47.430352433468215,125.00321566298226 47.23183888755739,124.5998187637233 47.076480460353196,124.7510928003976 45.85950611362932,125.0637250510772 46.24790218172711,126.57644730712491 46.06665068329312,126.83865006436099 46.22200911055552,127.84711550639622 41.906497242860496,128.87573929964128 42.85590985376621,132.51617188226373 42.70055142653291,132.38507837762882 42.27763126351056,132.64726520718978 39.61064492925652,133.262393024037 39.03236633902998,132.93970351516327 38.764804603211815,133.2422249616211 37.849916087288875,133.4943254359896 36.71925197794917,132.8791991110338 34.794533684966154,132.95987164137478 34.78590266124229,132.79852651259716 34.45792375926976,132.83886282031744 34.3975065931445,132.57667651609518 34.552865020377794,133.0102919382698 34.449292735545896,133.0304600495947 31.05730040758499,133.13130054237263 25.619755454332335,133.86743291834864 25.265883481159108,133.70608932080358 24.83433229441289,133.9682725285602 12.491968352929689,135.4203511259111 12.172620474681025,133.0405441036346 12.0,132.94978757881472 12.302085830713622,135.03716585971415 12.14672740350943,135.39009971332416 12.215775593387662,135.28926160235278 13.406856868852628,135.31951304680842 15.33157516180654,135.11783656963962 18.80124670342775,134.5632240644918 26.638216255116276,133.70608932080358 29.44329896903946,133.2825610821892 29.615919443807798,133.36323327227 29.961160393140744,133.2018888240491 31.644210021564504,133.0304600495947 33.65523855187348,132.99012382270303 34.3975065931445,132.82877874498809 35.64900503473473,132.94978757881472 36.54663150320994,132.7783583523851 36.8659793814586,132.8791991110338 37.83265403978294,132.7884424330332 38.600815152254654,133.0102919382698 39.377607288450236,132.7481061040744 41.621673459594604,132.84894689460634 41.8288180292584,132.68760157869838 42.251738192280754,132.6775174874274 42.81275473505957,132.30440536238893 42.467513785668416,131.38674502372305 41.958283385291,128.93624623699725 43.373771277896594,128.3412596901544 46.04938863578718,127.78660787982517 46.196116039325716,127.58491551471525 46.00623351713875,126.96975117333932 46.20474706304958,126.74788765282574 46.28242627668078,126.96975117333932 46.679453368502436,127.02017462891672 47.62023495568428,127.07059805790777 47.982737952523166,126.8890735890891 47.36993526734295,124.70066814810707 46.964277151739225,124.66032840713888 46.075281707016984,124.90236659772927 45.86813713738229,125.10406462186802 46.04938863578718,125.32593195688969 46.23927115800325,126.58653204185975 47.26636298248195,126.12263314341544 47.016063294169726,126.4655151549232 46.998801246721996,126.93949708720174 47.83601054904284,126.9798358665721 48.0,126.8285653562416 47.74106928796391,125.73941061651567 47.525293694547145,125.56796846247016 47.50803164707031,124.72083801221743 47.36993526734295,124.57964887408889 45.92855430350755,124.99313076125691 46.075281707016984,125.70915614109254 46.67082234474947,125.26542273475206 46.88659793813713,125.39652600096451 46.852073843212565,125.87051323278865 47.16279069765005,126.23356569344469 47.34404219611315,126.10246357500728 47.16279069765005,126.25373523417511 47.27499400626402,126.12263314341544 47.38719731479068,126.20331137438188 47.18005274515599,126.23356569344469 47.30088707743562,126.10246357500728 47.214576840080554,126.59661677553959 47.43898345719208,126.71763349654066 47.14552865020232,126.69746405365004" stroke="#4dd2ff" stroke-linecap="round" stroke-linejoin="round" stroke-width="0.5"><title>2021-09-04 13.2km</title></polyline><polyline fill="none" points="74.1685124495998,122.50825330632506 76.66666666651145,133.6001685941592 82.66223678784445,135.2542147099157 92.15522281220183,135.0596212031669 92.73812546301633,131.75152530829655 90.90614570351318,129.12449952901807 91.23923293268308,123.87042552564526 89.57379678823054,122.11906087415991 90.23997124563903,119.39470925141359 87.99163245037198,114.33517774706706 79.8309953417629,113.07029053452425 73.83542522089556,114.43247669143602 75.7506767869927,121.5352719182265 75.08450232911855,128.0542276224005 77.5826565460302,133.01638690422988 89.65706859482452,135.35151144769043 93.23775630583987,133.1136838782695 91.23923293268308,128.8326073140488 91.07268931763247,123.87042552564526 89.49052498070523,122.02176274068188 89.15743775153533,115.50276440341258 87.15891437837854,112.6810941201984 82.32914955820888,112.0 73.9186970279552,114.0432808517944 75.1677741361782,128.0542276224005 76.8332102810964,132.62719890585868 88.99089413695037,135.7406982970424 92.73812546301633,133.69746550690616 92.82139727007598,131.36233677627752 91.07268931763247,129.12449952901807 91.23923293268308,124.55151088099228 89.24070955906063,122.50825330632506 89.40725317364559,116.76764828001615 87.24218618543819,112.97299144614954 82.7455085949041,112.58379499107832 73.41906618466601,114.72437346342485 76.74993847357109,132.2380107428762 89.90688401693478,136.12988498189952 92.98794088419527,133.5028716714587 90.90614570351318,128.92990472936071 91.65559196891263,123.87042552564526 89.32398136612028,121.04878083930817 89.40725317364559,116.18385593732819 87.07564257085323,112.87569234793773 78.24883100390434,114.23787879210431 75.2510459437035,112.77839323930675 74.00196883501485,114.14057982712984 75.33431775122881,127.37314485304523 77.24956931732595,133.2109808420064 90.07342763105407,136.22718162758974 92.73812546301633,134.08665305370232 88.49126329366118,114.72437346342485 83.41168305277824,112.58379499107832 77.83247196767479,114.23787879210431 76.58339485898614,112.87569234793773 74.00196883501485,114.91897125978721 76.66666666651145,132.72449592070188 88.99089413695037,136.61636810738128 92.90466907760128,134.5731372568407 91.07268931763247,130.00017562002176 90.90614570351318,123.67582961765584 89.07416594447568,121.72986827802379 89.82361220940948,115.69736203586217 87.65854522166774,112.77839323930675 73.2525225696154,114.91897125978721 77.3328411243856,132.8217929256498 89.32398136612028,136.51907150290208 92.73812546301633,134.67043406656012 92.82139727007598,131.65422819071682 91.23923293268308,129.4163916518446 91.90540739055723,127.47044242237462 90.07342763105407,118.32442605512915 87.32545799249783,112.38919670140604 79.08154907636344,114.52977562567685 74.58487148582935,113.26488868013257 73.0859789554961,115.69736203586217 76.99975389568135,132.8217929256498 88.24144787201658,136.3244782628026 90.57305847480893,136.22718162758974 92.73812546301633,133.2109808420064 91.07268931763247,129.02720213436987 91.90540739055723,127.17854968400206 90.32324305316433,119.68660445295973 87.65854522166774,113.07029053452425 78.74846184719354,114.0432808517944 76.41685124486685,112.87569234793773 73.16925076302141,115.89195962727536 75.1677741361782,128.44341755012283 76.50012305239215,130.4866619782406 74.668143292889,135.5461048928555 76.74993847357109,137.686630080163 76.41685124486685,140.11903903644998 74.58487148582935,140.89740854798583 74.7514151004143,143.3298090377939 63.01009028078988,145.56761182425544 60.095577027183026,146.9297499927343 60.51193606341258,148.0 61.844284979160875,146.24868115998106 76.16703582322225,143.03792131773662 74.668143292889,132.52990188030526 76.9164820886217,132.2380107428762 77.24956931732595,134.08665305370232 82.24587775114924,135.93529166007647 88.65780690824613,136.4217748880037 92.82139727007598,134.67043406656012 88.40799148706719,113.5567858213908 76.00049220910296,114.14057982712984 72.50307630514726,116.86494696803857 77.3328411243856,133.7947624088847 86.2429244988598,137.10285097616725 92.57158184843138,135.44880817533704 92.90466907760128,132.72449592070188 87.57527341414243,112.6810941201984 74.58487148582935,114.43247669143602 73.00270714843646,119.4920076620765 77.08302570320666,133.89205930073513 86.49273992003873,136.90825785935158 91.57232016138732,136.12988498189952 92.90466907760128,135.0596212031669 92.73812546301633,131.0704452691716 90.90614570351318,128.34612008364638 91.65559196891263,126.59476392989745 87.99163245037198,112.6810941201984 74.1685124495998,115.2108678779332 73.00270714843646,115.69736203586217 72.91943534137681,119.00551550550153 77.49938473897055,134.08665305370232 86.57601172709838,137.49203708651476 92.82139727007598,134.86502765509067 88.15817606495693,113.16758961236337 73.00270714843646,115.79466083680745 77.24956931732595,133.69746550690616 79.16482088388875,135.5461048928555 80.49716979963705,132.72449592070188 82.07933413702995,132.8217929256498 81.99606232950464,134.96232443425106 83.8280420890078,130.6812564494321 90.73960208939388,128.151525119727 90.65633028186858,122.41095521382522 88.65780690824613,119.78390283300541 90.07342763105407,117.93523185799131 87.49200160661712,113.16758961236337 73.16925076302141,115.60006322467234 76.58339485898614,129.70828368206276 80.74698522128165,127.47044242237462" stroke="#4dd2ff" stroke-linecap="round" stroke-linejoin="round" stroke-width="0.5"><title>2021-08-28 11.6km</title></polyline><polyline fill="none" points="111.12541254123789,128.6584576900932 110.73927392740734,127.25167955851066 110.13036303629633,126.85221964379161 107.79867986796307,127.15615671227715 106.40264026401564,126.2964460931471 105.33333333334303,126.27039411562146 105.40759075907408,126.49617764618597 106.61798679866479,126.39196994000667 107.8432343234308,127.18220840865251 109.7887788778753,126.81748390715802 110.3976897689572,126.86958750660415 110.88036303629633,127.42535717582359 110.96204620462959,128.18085053428513 111.2813531353313,128.91896951269155 112.3432343234308,129.44867433515174 113.76897689767065,129.7091836494801 114.08085808577016,130.03047733166022 114.2962046204484,130.0478445218978 115.23184818480513,130.81199725403712 115.84818481848924,131.9408462268475 116.26402640261222,132.29686460566882 118.28382838284597,132.02768012020533 118.95214521451271,132.1492474164843 119.32343234325526,131.88874584678706 120.68234323433717,132.27081453273422 121.98184818480513,132.2794978913007 122.59818481848924,132.44448152936093 123.1328382838401,132.28818124893587 123.63778877889854,132.3142313163553 126.34818481848924,133.19124542781356 127.92244224422029,133.4343763938159 133.3135313531675,133.29544450143294 135.22194719471736,133.7035562661622 135.89768976901541,133.41700992015103 136.15016501653008,131.87137904607516 136.38778877886944,131.6021931651776 137.72442244223203,131.7758615764833 137.93976897688117,131.66297715093242 139.12046204617945,131.6108765944664 140.0635313531384,131.3677402270332 141.33333333334303,130.7685796757869 140.6798679868225,131.15065357606363 139.1872937293665,131.68034399575845 137.75412541255355,131.78454498741485 136.3432343234599,131.6542937271588 136.15016501653008,131.9061126438246 135.91254125413252,133.40832668190706 135.1402640264132,133.72960588437854 133.44719471948338,133.3041277516022 127.491749174922,133.4430596292732 126.76402640264132,133.32149424915406 123.46699669968802,132.35764807698433 122.24917491749511,132.461848208819 120.98679867986357,132.39238146894786 119.5462046204484,131.92347943718778 118.01650165015599,132.175297527996 117.97937293729046,132.28818124893587 116.9768976897758,132.09714716867893 116.35313531351858,132.18398089665425 115.83333333331393,131.88874584678706 116.10808580860612,132.24476445155597 116.32343234322616,132.3229146703161 115.84075907588704,131.9408462268475 116.21204620460048,132.3229146703161 116.05610561056528,132.2013476312277 115.95957095708582,132.68761470731988 116.46452145211515,132.7570811973128 117.06600660062395,132.63551480123715 117.42244224422029,133.0088967307238 117.38531353135477,133.25202823683503" stroke="#4dd2ff" stroke-linecap="round" stroke-linejoin="round" stroke-width="0.5"><title>2021-08-25 10.3km</title></polyline><polyline fill="none" points="174.26391096995212,118.12329293374205 177.0683624802623,118.32403217122192 179.93004769505933,113.03787768143229 176.8966613675002,117.58798798901262 177.5834658187814,119.06007549754577 179.64387917355634,121.33511309482856 180.3879173293244,120.13068244425813 175.86645469022915,115.17911013588309 181.4753577108495,118.3909452361986 181.9904610493686,117.85564051783876 180.73131955508143,115.91515711916145 176.1526232114993,114.71071615524124 178.89984101755545,116.78502972330898 182.50556438812055,117.72181426762836 178.4992050875444,126.08590053621447 180.0445151035674,122.2718909055111 183.59300476964563,117.72181426762836 180.8457869635895,114.84454304230167 183.8219395868946,116.31663693115115 182.04769475385547,117.58798798901262 183.8219395868946,116.58428999758326 176.66772655025125,127.2234077314497 164.01907790149562,145.8247059712885 161.15739268693142,147.898917586077 159.49761526240036,147.4974578038673 155.6057233705651,141.40861989598488 152.0,138.1299906114 164.4197138317395,118.92624950181926 174.26391096995212,123.61014251579763 177.0683624802623,126.4204616881907 163.5039745629765,146.4268971401616 160.92845786968246,147.96582752489485 157.6661367251072,146.29307692992734 152.91573926853016,139.33438701572595 152.51510333875194,136.8586808097898 161.50079491292126,124.81456654600333 164.3052464229986,119.19390146475052 175.92368839448318,124.68074176693335 177.18282988853753,126.08590053621447 176.66772655025125,127.35723197303014 163.56120826723054,146.6276274024858 162.18759936420247,147.832007639925 159.8982511924114,147.56436778523494 152.17170111299492,138.19690158287995 164.76311605749652,118.92624950181926 175.52305246447213,124.61382936686277 176.83942766324617,126.82193483714946 162.75993640720844,147.4974578038673 159.72655007988214,147.2298178076162 152.0,139.20056530612055 152.34340222598985,137.12632519076578 161.27186009543948,125.41677770169917 164.3052464229986,119.52846625936218 165.27821939601563,119.1269884846406 176.1526232114993,125.08221601927653 176.72496025427245,126.95575916348025 162.75993640720844,147.1629077909747 159.2686804451514,146.96217769844225 157.0365659778472,145.42324487376027 152.7440381560009,139.2674761643284 152.40063593001105,137.1932362684165 161.32909379992634,125.28295304998755 164.82034976151772,119.1269884846406 175.80922098597512,125.21604071347974 176.4387917330023,127.49105618626345 162.75993640720844,147.56436778523494 159.03974562813528,147.2298178076162 152.45786963426508,138.39763445477 152.51510333875194,136.99250301445136 159.72655007988214,127.62488037103321 164.1907790142577,120.06376956304302 166.0222575517837,119.52846625936218 175.46581875998527,125.08221601927653 176.66772655025125,126.82193483714946 162.58823529421352,147.29672781738918 158.5818759938702,146.6276274024858 152.68680445174687,137.79543564788764 164.24801271874458,120.13068244425813 165.3354531005025,119.32772740384098 170.48648648685776,122.0042402439285 177.5262321147602,127.15649559994927 180.90302066807635,123.61014251579763 183.8219395868946,118.32403217122192 183.47853736113757,116.78502972330898 179.81558028631844,114.37614881427726 184.50874403840862,118.19020601984812 186.45468998444267,114.50997577205999 187.7710651832167,113.84084070078097 187.9427662959788,112.03417247504694 188.0,114.77762960235123 183.93640699540265,120.19759531831369 180.0445151035674,128.82929676258937 177.12559618474916,132.7770899796742" stroke="#4dd2ff" stroke-linecap="round" stroke-linejoin="round" stroke-width="0.5"><title>2021-08-21 11.1km</title></polyline><polyline fill="none" points="14.339349600719288,177.70851183283958 13.937325903214514,175.70142763853073 13.16982611687854,175.8722437020624 12.69470720179379,174.33489653590368 13.718040250008926,176.3419875050895 14.704825689317659,182.32049738572096 16.459110914729536,187.40216137145762 17.190063092159107,187.78648630547104 26.217322482261807,185.52323422019253 45.8799360524863,178.69069834437687 47.122554753674194,177.62310419752612 47.122554753674194,174.89005035258015 44.12565082684159,161.30991544705466 43.17541299643926,161.18179879753734 39.045533194206655,162.76190130694886 40.105413851561025,168.99684021333815 36.889224271290004,169.8509339549637 33.453749037813395,171.68722939767758 24.901608563028276,173.05376943774172 24.061013559112325,172.71213486025226 27.057917486177757,172.58402181923157 29.396964453626424,170.7050258947711 30.63958315504715,170.74773044438916 32.868987296009436,169.46659199421993 34.22124882391654,169.25306852490758 35.64660556986928,170.02175248714047 39.886128198355436,169.29577322796104 40.06886624265462,167.71569622200332 38.75315232342109,163.1035442817374 32.72279686038382,165.8366777007468 30.822321199579164,166.94700788109913 28.702559885103256,168.4416783149063 30.383749893167987,166.94700788109913 25.815298784757033,154.09261432939093 27.131012703990564,154.0072017115017 28.88529792963527,155.07485814101528 33.27101099351421,153.6228447073081 35.64660556986928,152.0 38.86279514990747,162.5910797113902 41.93279429478571,161.56614862423157 39.08208080334589,162.89001745628775 40.361247113673016,169.03954494328354 36.23136731144041,170.14986633884837 32.54005881608464,172.1569780568243 28.702559885103256,172.199682453298 25.705655958037823,173.05376943774172 24.280299212317914,172.58402181923157 26.400060526560992,172.75483919813996 28.227440969785675,171.21748019359075 32.94208251358941,169.55200135038467 35.463867525570095,170.06445710884873 39.886128198355436,169.16765910573304 40.32469950476661,168.4416783149063 38.75315232342109,163.18895498046186 34.294344041729346,164.98257548961556 26.36351291765459,169.93634322995786 27.715774445794523,168.8687259965809 26.546250962186605,167.80110594755388 26.107679655542597,166.3918431715574 23.805180297000334,165.45233192874002 25.742203566944227,166.17831808066694 26.4731557443738,167.50217182931374 29.652797715505585,166.17831808066694 29.177678800420836,162.84731207761797 26.03458443772979,154.81862085478497 24.426489647943527,154.22073322266806 18.359586575999856,155.2029767233762 20.844823978841305,154.7759146245662 21.356490503065288,153.49472562494338 21.75851420033723,154.5623834062717 26.692441397579387,153.92178907536436 29.250774018233642,154.94673951820005 36.01208165846765,152.12811955544748 38.60696188802831,162.37755261550774 41.67696103267372,161.52344310597982 38.86279514990747,163.27436566111282 40.06886624265462,169.08224966860143 36.08517687628046,169.9790478607174 32.28422555420548,171.9434560065274 29.177678800420836,171.90075158307445 26.36351291765459,172.9683608203777 24.572680083103478,172.92565650495817 26.911727050784975,172.58402181923157 28.73910749400966,170.83313953023753 30.749225981766358,170.66232134049642 32.75934446929023,169.12495438940823 35.829343614168465,169.89363859483274 39.995771025074646,168.82602124870755 38.75315232342109,162.89001745628775 42.005889512598515,161.48073758315877 43.35815104073845,161.52344310597982 42.956127343233675,160.41309804929188 42.66374647221528,161.01097653526813 44.016008000355214,161.13909323871485 47.232197580626234,175.0181626638223 47.30529279820621,176.51280329821748 46.39160257647745,178.47717974023544 41.640413424000144,180.52695369150024 17.92101526958868,188.0 16.239825261756778,186.07837269516313 15.508873084327206,183.6442983491579 18.39613418490626,181.082099017367" stroke="#4dd2ff" stroke-linecap="round" stroke-linejoin="round" stroke-width="0.5"><title>2021-08-07 10.8km</title></polyline><polyline fill="none" points="91.5116104867775,162.5712183664582 92.03745318343863,165.12644941039616 90.5610486890655,166.42771324279602 88.55880149814766,165.62329649578896 83.90711610484868,162.33462142040662 79.92284644185565,160.2288975569536 78.72958801488858,160.51281653939805 76.84868913854007,162.00338527484564 75.67565543076489,163.25734809225833 75.53408239700366,163.84883754322072 74.03745318343863,163.96713524540246 72.72284644190222,165.22108703570848 71.28689138579648,165.67061520817515 66.6352059924975,169.97657606568828 64.18801498133689,175.20513120781106 63.94531835208181,176.36438703634485 64.41048689140007,176.7192600665876 66.35205992509145,176.7192600665876 70.98352059931494,175.18147286289604 77.09138576779515,173.9748939515266 78.85093632957432,173.24148005529423 78.87116104864981,172.8156257199298 78.00149812735617,171.72732761826774 80.00374531827401,172.9339186723373 81.45992509357166,172.65001548142754 85.54531835205853,169.62169232123415 89.91385767783504,167.01919429635745 89.91385767783504,166.38039469080104 87.5273408240173,165.43402154593787 85.88913857669104,163.87249708866875 81.23745318350848,161.57750950855552 79.49812734080479,159.75569845062273 77.59700374526437,161.22261241621163 77.21273408248089,161.43555073927564 76.78801498131361,161.15163293007936 75.59475655434653,162.35828112630406 74.98801498126704,162.31096171197714 73.49138576770201,164.39300645435287 72.41947565542068,164.10909240531328 73.26891385763884,164.36934696398384 72.37902621726971,165.43402154593787 66.14981273398735,170.40243581467075 65.15880149824079,172.5317223785969 63.66217228467576,177.83119191025617 61.68014981271699,179.17969756951788 58.66666666662786,180.24430154937727 62.97453183517791,178.61190670533688 63.702621722826734,178.04411439773685 65.17902621731628,172.55538100418926 66.23071161052212,170.54438888387813 69.60823970031925,167.42140051799652 72.29812734085135,165.48134029845824 72.90486891381443,165.50499967095675 73.49138576770201,164.51130386826117 78.91161048680078,160.0632779837906 79.51835205988027,159.92131825190154 87.42621722840704,165.03181174494966 89.65093632950447,165.95452727195516 90.15655430709012,166.59332809569605 90.05543071159627,166.99553508433746 90.25767790258396,166.61698735042592 87.91161048680078,164.74789850808156 79.72059925086796,160.13425781583646 78.5071161048254,160.58379622858774 77.63745318353176,161.48287033906672 76.26217228465248,161.81410725673777 75.41273408243433,163.23368848166137 73.3498127340572,165.0081523222907 73.06666666665114,165.41036216595967 74.44194756553043,166.64064660262375 73.32958801498171,165.57597777336196 73.3700374532491,164.8425362937851 74.03745318343863,164.46398491018044 74.3003745317692,164.74789850808156 74.19925093639176,164.0854328849673 76.10037453181576,162.33462142040662 79.33632958808448,160.15791775489924 80.4486891386332,160.53647643826844 85.72734082397074,164.10909240531328 88.98352059919853,165.48134029845824 89.9947565542534,166.38039469080104 89.89363295887597,166.99553508433746 91.95655430713668,165.50499967095675 94.0194756553974,163.3519865096896 94.64644194743596,163.09173076525622 94.66666666662786,163.30466730605986 92.52284644194879,165.0081523222907 92.42172284645494,164.7952174059028" stroke="#4dd2ff" stroke-linecap="round" stroke-linejoin="round" stroke-width="0.5"><title>2021-07-31 10.2km</title></polyline><polyline fill="none" points="108.97065960735199,173.09719252044306 108.35914405476069,173.02289976626344 108.25590116923559,172.53999533165188 108.33531877346104,172.24282205155032 108.2161923671083,172.00136802073393 107.69997793957009,171.85278059475968 106.91374365761294,171.8434938722712 106.44517979264492,171.4998844500733 106.56430619902676,171.55560498829436 106.92168541808496,171.19342085769313 107.3505404809257,171.46273740495235 108.64504742997815,171.2955755073708 108.99448488862254,171.4163035764359 109.66953452461166,171.1005528911992 110.37635120231425,171.17484727225383 110.57489521292155,171.01697163737845 112.13942201633472,171.46273740495235 115.03816457098583,171.43487711079797 119.10434590780642,172.57714192093408 120.6212221487076,172.67929496041324 121.87602029563277,172.53999533165188 125.54511361132609,172.50284872664633 127.56232075887965,172.91146051712713 128.27707919699606,172.67929496041324 128.58680785354227,170.9612507572674 128.81711890583392,170.70121951575857 130.21486874035327,170.85909571854427 130.41341275093146,170.7569405609247 131.61261857493082,170.76622739835875 133.39157290980802,170.16258092232601 135.39289653653395,169.14101589068014 136.82241341276676,168.9552755166951 136.9971321420744,168.806682934548 138.18045444518793,168.68595127631124 139.06993161264108,168.4444874616529 140.64240017649718,167.65508189364482 141.1665563644201,167.12571183012187 141.33333333334303,166.7542221598269 141.20626516654738,167.10713738394406 140.83300242666155,167.5343486514248 139.3240679462033,168.3794778596057 137.33862784030498,168.9274144267256 135.3611294948496,169.17816391833912 133.4789322744473,170.16258092232601 131.58085153324646,170.7290800427727 130.42135451137437,170.77551423481054 130.2784028237511,170.87766937077686 128.89653651003027,170.67335897991143 128.63445841608336,170.88695619544887 128.26119567613932,172.70715485962864 127.57820427973638,172.88360068272596 127.10169865432545,172.75358800536924 126.84756232079235,172.8464542231377 125.62453121555154,172.50284872664633 120.56562982572359,172.67000832535268 119.28700639755698,172.59571520968166 117.80189719834016,172.31711546589213 115.14140745645273,171.53703147946362 113.83895874701557,171.52774472360034 113.46569600710063,171.2955755073708 112.91771453784895,171.47202416769142 112.26649018313037,171.47202416769142 111.90911096407217,171.2770019435411 110.7019633796881,171.0262584473021 110.12221486875205,171.2212812284779 109.29627178469673,171.15627368291462 109.32009706599638,171.05411887110677 109.08978601367562,171.34200939974107 108.88330024265451,171.38844326755498 108.5179792632116,171.26771516019653 107.8032208250952,171.37915649594652 106.79461725131841,170.95196394048253 106.23075226121,169.9304080954389 105.33333333334303,169.19673792624235 106.07191705275909,169.87468652563257 106.81844253255986,171.0262584473021 107.26318111628643,171.4163035764359 107.00110302231042,171.23056801679195 107.12817118907697,171.38844326755498 107.00904478272423,171.78777351680765 108.2161923671083,171.76920005711872 108.31943525260431,171.88064075627335 108.67681447172072,173.2457778401731" stroke="#4dd2ff" stroke-linecap="round" stroke-linejoin="round" stroke-width="0.5"><title>2021-07-30 10.5km</title></polyline><polyline fill="none" points="181.18681318685412,163.2770035201247 177.64835164835677,160.98874525890278 175.29670329659712,160.24312835553428 174.39560439554043,159.21468748788175 173.20879120880272,159.1118431613868 171.42857142852154,161.04016702994704 170.2417582416674,161.94004625780508 170.0879120879108,161.68293824743887 169.56043956032954,161.99146782717435 168.0,163.58553107305488 166.59340659342706,164.3568482393457 166.72527472523507,165.56524020405777 164.9010989011731,166.079447725715 159.73626373626757,170.29590830583766 158.65934065927286,172.3269820757996 157.0329670328647,178.1115927066421 156.37362637370825,179.1913714211696 152.0,180.75961290407577 156.61538461537566,178.83144571675803 158.59340659331065,178.42010140095954 166.50549450551625,175.48925297131063 169.69230769225396,175.28357806832355 174.68131868133787,173.76672027565655 178.32967032957822,171.81278779153945 185.29670329671353,167.0050185189757 185.53846153838094,166.23370976978913 181.53846153838094,163.45697797373577 179.29670329671353,162.53139364767412 177.64835164835677,161.3229865753674 175.9120879120892,160.75734715479484 174.50549450539984,159.26610963481653 173.1208791208919,159.42037601013726 173.09890109894332,159.98601854722074 159.73626373626757,170.42445778247202 158.9450549450703,171.68423905027157 157.9560439559864,175.4635436179815 156.35164835164323,179.34562513109995 152.10989010997582,180.8881568386132 156.79120879119728,178.88286370720016 165.29670329671353,176.20911375929427 167.0549450549297,175.15503116538457 170.9670329670189,174.82080889921053 174.70329670328647,173.76672027565655 185.36263736255933,167.21070043806685 185.69230769237038,166.6964953134302 185.38461538450792,166.2851304292417 179.73626373626757,162.91705421255028 177.42857142852154,161.01445614577096 175.9120879120892,160.5002378913341 175.36263736255933,159.703197443494 173.49450549448375,159.29182070413663 167.53846153849736,164.43397982111492 166.81318681314588,164.793926878614 166.2417582416674,164.25400609217468 166.63736263732426,164.53682189204847 166.021978022065,165.43668815342244 159.69230769237038,170.65584666885843 158.43956043955404,172.53265948436456 156.52747252746485,178.80573671747698 158.24175824178383,172.841175270456 159.9340659340378,170.09022900158016 166.0659340659622,165.43668815342244 166.41758241760544,165.41097773508227 166.41758241760544,165.9766063085408 166.48351648356766,165.30813603462593 167.29670329659712,164.4596903429483 168.65934065927286,164.22829554857162 168.50549450551625,163.7912158905383 168.83516483509447,163.76550529779342 168.65934065927286,163.37984608135594 169.0329670328647,162.7885007590521 173.0109890109161,159.78033050443628 174.32967032957822,159.62606435798807 176.50549450539984,161.34869742677256 181.29670329671353,163.61124168480455 184.2197802197188,165.89947521708382 184.59340659331065,165.4623985689832 186.2197802197188,166.2851304292417 188.0,164.92247926982236 186.54945054941345,163.81692648041644 186.39560439554043,163.19987157061405 186.83516483509447,162.83992214866157 186.41758241748903,163.8940582337964" stroke="#4dd2ff" stroke-linecap="round" stroke-linejoin="round" stroke-width="0.5"><title>2021-07-18 11.1km</title></polyline><polyline fill="none" points="40.921226698788814,203.42871959898912 36.35357787134126,200.9216186048725 35.227901383070275,199.9339655381482 33.84245339746121,199.57942241619457 27.71617558633443,204.72024621185847 27.001803968800232,204.6442742513609 26.352375225513242,203.93520145538787 26.850270595401525,204.39103420854372 26.460613349452615,205.27737318442087 19.7931449188618,211.15245130103722 17.19542994594667,218.9012559276307 12.671076368074864,220.6738229929033 12.0,220.31931063134107 13.08238123881165,220.44592224940425 24.469031870132312,216.19173515627335 17.80156343965791,218.64803098820266 17.80156343965791,216.2930262049631 19.40348767291289,211.7095632818964 21.936259771580808,208.7973726723576 33.64762477460317,199.50344882157515 34.53517739032395,199.45279974523874 35.46602525562048,199.9339655381482 44.44978953700047,205.40399276986136 45.83523752260953,206.3916232339543 45.57546602527145,207.12601247215935 36.28863499709405,212.97572204601602 34.838244137121364,213.48218367385562 33.47444377630018,212.24135077974643 34.167167769162916,213.07701445743442 33.27961515332572,214.1152591996797 24.81539386662189,216.11576684161264 12.389657246065326,220.59785610252584 17.30366806976963,218.6227084795537 19.122068550786935,212.31732032563013 20.55081178608816,210.03822344403306 26.52555622381624,205.1760774678405 27.4996993385721,205.707879501133 26.91521346976515,205.22672533144942 28.10583283228334,203.8339051699586 33.66927239939105,199.45279974523874 34.53517739032395,199.32617700708215 45.77029464824591,206.3662994269107 42.739627179922536,205.25204925931757 41.83042693929747,204.1377938974765 34.426939266500995,199.60474694237928 32.889957907493226,200.08591242946568 29.902585688629188,202.51704955293098 31.894167167833075,200.8962942182261 34.36199639213737,199.65539598664327 36.52675886952784,200.54175252372806 42.544798556831665,204.3403861677798 43.04269392671995,205.04945776164823 43.583884546067566,204.99880986049538 43.32411304872949,205.22672533144942 42.155141310882755,204.92283798845892 41.11605532176327,203.93520145538787 41.743836440262385,203.9858495820081 45.856885147397406,206.21435652807122 47.52375225489959,205.1760774678405 48.0,204.23909005407768" stroke="#4dd2ff" stroke-linecap="round" stroke-linejoin="round" stroke-width="0.5"><title>2021-07-14 10.4km</title></polyline><polyline fill="none" points="94.12349818390794,212.67840830606292 94.54596255952492,212.92508641805034 94.66666666662786,214.22895341936965 92.43364068178926,216.23760345645132 92.37328862806316,218.24624144201516 91.5887119306717,219.2329363891331 90.26096675044391,219.44437064239173 88.08829281921498,218.951023843867 84.07488125166856,219.3386535324098 79.33724504045676,220.88916779862484 73.87538418546319,219.6910437689803 69.71109248395078,214.33467214280972 67.77982676727697,213.34796275864937 62.921486448612995,212.5726890595397 58.66666666662786,213.383202429628 58.66666666662786,210.52877706449362 59.84353171265684,208.27341141484794 61.533389214775525,207.39240508087096 61.05057278566528,207.53336625016527 61.50321318791248,206.86380016748444 63.49483095842879,206.68759834425873 71.09918971767183,204.07980051563936 72.60799105896149,202.98733863045345 73.39256775635295,201.33101864912896 76.22911427763756,201.1900548679987 80.00111763062887,199.11083220137516 89.41603799944278,200.06234248218243 91.49818385019898,200.80240416390006 93.09751327184495,202.6349308101926 94.3950824252097,207.28668416503933 93.51997764757834,207.85052866392653 91.22659960878082,207.14572289187345 89.92903045541607,206.19423274567816 90.35149483103305,204.9608155679307 89.53674210677855,203.90359722691937 85.46297848562244,205.80658783664694 82.29449566919357,205.4894234863168 78.58284436981194,206.05327101252624 77.3456272702897,207.7095676282479 74.78066499019042,208.6610534673673 71.31042190559674,207.4981259634369 67.53841855248902,208.52009277287289 65.45627270184923,207.39240508087096 61.77479742933065,207.28668416503933 65.7278569432674,207.28668416503933 68.17211511579808,208.3438918214233 70.67672534217127,207.07524223302607 74.05644034652505,208.3438918214233 76.28946633136366,208.09721033359529 76.68175468000118,208.41437221315573 76.34981838497333,208.97821481258143 73.57362391729839,209.08393519429956 73.06063146120869,209.78873688558815 75.23330539255403,213.1365246551868 78.06985191383865,212.32601068771328 81.38921486446634,212.5022095431923 85.22157027106732,211.26881560732727 84.88963397603948,210.91641650529345 83.95417714433279,211.69169404011336 81.38921486446634,212.53744930319954 78.10002794081811,212.5726890595397 75.20312936569098,213.34796275864937 72.97010338085238,209.89445701127988 73.45291980996262,209.04869507081457 76.53087454591878,208.87249439762672 76.34981838497333,208.13245055722655 74.56943280238193,208.5553329520335 71.1293657446513,207.1809632156801 68.11176306230482,208.37913201906485 65.6675048895413,207.28668416503933 61.50321318791248,207.39240508087096 65.78820899687707,207.39240508087096 68.05141100857873,208.3438918214233 70.9784856105689,207.00476155936485 74.35820061468985,208.52009277287289 76.44034646544605,208.16769077724894 76.25929030461702,208.87249439762672 73.6641519976547,209.08393519429956 73.03045543446206,209.71825678320602 75.02207320474554,213.10128495824756 77.94914780650288,212.36125046631787 80.9969265157124,212.53744930319954 85.10086616361514,210.88117657462135 82.29449566919357,212.32601068771328 79.24671695998404,212.81936724949628 79.94076557701919,213.06604525767034 78.06985191383865,212.5726890595397 75.23330539255403,213.31272308403277 74.53925677551888,212.96032613347052 72.90975132712629,209.71825678320602 73.63397597102448,208.90773453965085 76.56105057278182,208.97821481258143 76.71193070686422,208.4848525900452 76.10841017041821,208.13245055722655 74.3280245878268,208.4496124034922 71.28024587861728,207.25144385229214 68.20229114277754,208.37913201906485 66.0296172114322,207.25144385229214 61.32215702708345,207.4276453787461 65.42609667498618,207.28668416503933 67.8703548477497,208.3438918214233 70.9784856105689,207.07524223302607 74.44872869516257,208.4848525900452 76.56105057278182,208.02672987509868 76.4705224923091,208.87249439762672 74.0866163733881,208.90773453965085 73.12098351493478,209.68301672645612 74.3280245878268,212.53744930319954 74.99189717799891,213.06604525767034 78.58284436981194,212.25553111956106 81.72115115949418,212.32601068771328 85.70438670017757,210.84593664019485 81.35903883771971,212.67840830606292 79.33724504045676,212.36125046631787 75.35400949977338,213.31272308403277 73.12098351493478,210.70497686587623 72.97010338085238,209.68301672645612 73.42274378321599,209.2248956511903 76.16876222402789,208.97821481258143 76.71193070686422,208.37913201906485 76.37999441171996,208.16769077724894 74.11679240001831,208.4496124034922 70.82760547625367,207.07524223302607 68.2626431962708,208.37913201906485 65.84856105060317,207.21620353584876 61.35233305383008,207.35716477924143 65.8183850236237,207.35716477924143 67.81000279390719,208.3438918214233 70.91813355672639,207.25144385229214 74.26767253410071,208.30865161994006 76.4705224923091,208.20293099354603 76.80245878733695,208.52009277287289 76.4705224923091,209.04869507081457 73.54344789031893,209.013454943517 73.03045543446206,209.54205646246555 75.05224923149217,213.17176434837165 78.55266834318172,212.36125046631787 81.872031293693,212.43173001223477 84.85945794906002,211.0221362748125 81.44956691819243,212.53744930319954 78.22073204792105,212.46696977957617 74.99189717799891,213.2070040378021 72.87957530049607,209.71825678320602 73.5132718635723,209.013454943517 76.53087454591878,208.73153379224823 76.41017043869942,208.16769077724894 74.78066499019042,208.59057312752702 71.1293657446513,207.32192447397392 68.08158703544177,208.41437221315573 65.69768091640435,207.35716477924143 61.41268510755617,207.39240508087096" stroke="#4dd2ff" stroke-linecap="round" stroke-linejoin="round" stroke-width="0.5"><title>2021-07-11 12.7km</title></polyline><polyline fill="none" points="114.82220095209777,198.26091357436962 116.5435535684228,219.950363737531 125.34157805237919,223.7515846786555 130.69689730461687,215.47833035653457 128.97554468736053,197.81370607600547 123.81148683838546,193.1180216402281 115.20472375582904,198.48451728746295 115.39598515816033,217.93794988584705 122.85517982952297,223.97518569766544 130.12311309948564,218.16155151929706 129.54932889342308,197.36649848381057 119.22121319361031,193.1180216402281 115.01346235256642,202.7329833530821 117.49986057821661,221.9627756748814 122.47265702486038,224.42238766490482 129.54932889342308,221.0683706055861 129.74059029575437,196.91929079662077 123.04644123092294,192.0 116.5435535684228,196.4720830146689 116.16103076469153,200.27334614493884 115.77850796096027,221.0683706055861 119.22121319361031,225.76399299921468 124.95905524957925,226.6583960838616 130.88815870694816,219.50316082476638 130.3143745008856,198.48451728746295 124.00274824071676,194.23604268953204 115.58724655862898,200.27334614493884 115.58724655862898,220.62116792914458 120.17752020340413,226.21119458856992 124.57653244584799,226.6583960838616 131.07942010927945,219.72676229290664 130.12311309948564,198.70812097750604 120.94256581086665,194.6832509431988 115.77850796096027,200.0497426202055 115.96976936142892,221.51557318749838 123.23770263232291,227.10559748345986 130.69689730461687,221.29197190795094 130.5056359032169,200.4969496454578 124.3852710435167,194.90685503464192 115.77850796096027,200.0497426202055 116.73481496982276,222.1863768834155 125.34157805237919,226.21119458856992 130.3143745008856,222.1863768834155 130.5056359032169,198.26091357436962 122.66391842719167,194.23604268953204 116.16103076469153,199.82613907242194 117.30859917588532,224.42238766490482 126.10662366077304,226.21119458856992 130.69689730461687,218.38515312946402 129.93185169808567,198.48451728746295 122.28139562346041,194.0124385266099 115.20472375582904,201.16776000591926 116.35229216702282,223.30438256892376 124.3852710435167,226.6583960838616 131.07942010927945,220.84476927947253 130.69689730461687,198.93172464356758 123.62022543698549,194.0124385266099 115.77850796096027,199.1553282858804 115.58724655862898,219.27955933334306 119.6037359982729,225.9875938061159 125.34157805237919,226.8819967955351 131.6532043144107,220.39756655553356 130.3143745008856,197.81370607600547 120.17752020340413,195.1304591030348 115.39598515816033,201.16776000591926 115.77850796096027,222.40997806750238 118.45616758707911,226.21119458856992 125.34157805237919,226.6583960838616 130.69689730461687,220.62116792914458 129.3580674920231,196.24847908853553 123.23770263232291,193.56523013091646 115.58724655862898,199.60253550042398 116.16103076469153,221.29197190795094 119.79499739967287,226.21119458856992 125.53283945471048,226.8819967955351 131.4619429120794,219.50316082476638 130.88815870694816,197.81370607600547 121.13382721226662,194.23604268953204 114.82220095209777,199.82613907242194 115.01346235256642,220.84476927947253 117.11733777355403,224.8695895371493 123.62022543698549,227.10559748345986 131.27068151067942,219.950363737531 130.88815870694816,198.93172464356758 123.04644123092294,193.56523013091646 115.77850796096027,198.70812097750604 115.96976936142892,222.1863768834155 125.15031665191054,226.4347953479737 131.4619429120794,219.72676229290664 130.3143745008856,197.59010229166597 121.89887282066047,194.0124385266099 115.58724655862898,199.60253550042398 116.73481496982276,222.1863768834155 125.15031665191054,226.6583960838616 131.84446571581066,219.05595781747252 130.5056359032169,198.70812097750604 128.01923767849803,195.1304591030348 121.32508861459792,194.23604268953204 115.77850796096027,199.1553282858804 115.96976936142892,220.62116792914458 119.98625880107284,226.21119458856992 127.82797627802938,225.5403921692632 131.07942010927945,220.17396515840665 130.69689730461687,199.3789319053758 128.59302188456059,195.57766716880724 121.32508861459792,194.23604268953204 115.58724655862898,201.39136341237463 116.92607637122273,223.52798363589682 126.87166926916689,226.6583960838616 130.88815870694816,220.17396515840665 130.12311309948564,197.59010229166597 123.04644123092294,193.56523013091646 115.96976936142892,200.4969496454578 116.92607637122273,222.85718036536127 124.1940096411854,226.8819967955351 131.07942010927945,220.17396515840665 130.3143745008856,198.93172464356758 124.57653244584799,193.78883434087038 117.69112197868526,196.69568691798486 115.58724655862898,211.6770945491735 114.82220095209777,200.4969496454578 119.79499739967287,198.48451728746295 115.77850796096027,198.26091357436962 116.35229216702282,220.39756655553356 122.09013422112912,226.8819967955351 130.88815870694816,221.0683706055861 131.4619429120794,199.60253550042398 122.47265702486038,194.23604268953204 116.16103076469153,200.27334614493884 117.30859917588532,222.1863768834155 124.95905524957925,226.6583960838616 131.6532043144107,219.50316082476638 130.69689730461687,200.0497426202055 124.00274824071676,194.23604268953204 116.73481496982276,199.60253550042398 116.5435535684228,221.29197190795094 123.4289640346542,226.8819967955351 130.5056359032169,221.7391744425986 130.3143745008856,199.82613907242194 124.00274824071676,194.45964682847261 116.35229216702282,199.60253550042398 116.35229216702282,221.51557318749838 120.75130440853536,226.6583960838616 127.06293066963553,226.6583960838616 131.6532043144107,217.93794988584705 130.69689730461687,196.24847908853553 120.3687816048041,194.6832509431988 115.96976936142892,199.3789319053758 116.73481496982276,223.08078147936612 126.6804078668356,226.6583960838616 131.27068151067942,219.50316082476638 131.07942010927945,198.93172464356758 127.82797627802938,194.6832509431988 115.96976936142892,199.82613907242194 115.96976936142892,220.17396515840665 121.51635001599789,227.3291981476359 130.88815870694816,221.29197190795094 130.88815870694816,199.3789319053758 124.95905524957925,194.0124385266099 119.6037359982729,199.3789319053758 116.5435535684228,198.70812097750604 116.73481496982276,221.7391744425986 122.28139562346041,226.21119458856992 131.07942010927945,221.9627756748814 131.27068151067942,198.70812097750604 127.2541920710355,194.90685503464192 124.00274824071676,196.69568691798486 116.5435535684228,199.3789319053758 117.49986057821661,223.97518569766544 129.74059029575437,223.7515846786555 131.27068151067942,208.99386516120285 131.07942010927945,200.4969496454578 127.2541920710355,195.35406314767897 118.07364478241652,195.80127116595395 115.58724655862898,205.1926177018322 116.92607637122273,223.7515846786555 124.3852710435167,228.0 131.07942010927945,223.08078147936612 130.5056359032169,197.36649848381057 124.3852710435167,194.0124385266099 117.49986057821661,197.59010229166597" stroke="#4dd2ff" stroke-linecap="round" stroke-linejoin="round" stroke-width="0.5"><title>2021-06-30 11.0km</title></polyline><polyline fill="none" points="154.2828502941993,211.3531500755853 154.47897145349998,211.4724048759963 155.0281106994953,211.28893588431674 155.7341468729719,211.25224203942344 156.08716495969566,211.40819077307242 157.3972543037671,211.21554817894503 157.6875136195158,211.0229051568822 158.64458487689262,211.26141550212196 159.130965351942,211.25224203942344 159.22510350839002,211.40819077307242 159.65657005883986,211.27058896379458 160.09588145566522,211.46323143564223 162.35519721073797,211.5733126559644 165.24210067553213,212.44478405123664 166.60710394420312,212.6832904855837 172.4515144911711,212.5365173728569 173.58117236869293,212.75667694878211 173.84789714534418,212.97683596576826 173.96556984088966,212.87592981905618 174.34212246676907,212.9493161192513 175.12660710391356,212.67411717332288 175.37764218781376,211.85768849499436 175.40902157334494,210.98621119938616 175.77772935281973,210.6376178287319 177.07997385051567,210.86695573028555 179.27653083458426,210.555056035686 180.59446502506034,210.06885721539584 182.17127914575394,209.19736194102734 184.90913052952965,208.839587660681 185.77206363040023,208.50015941468882 187.51361952495063,207.61030067785032 188.0,206.9039114667321 187.952930921776,207.2433459618187 187.45086075394647,207.74790829593985 186.2584441054496,208.38090052631014 184.34430159075418,209.1514935260202 183.07343647853122,209.16066721097013 181.9045543691318,209.36248803403578 179.44127260841196,210.6559648831826 178.64109827848733,210.9311702340201 177.7624754848075,211.00455818007322 177.23687077793875,211.29810934314446 176.72695576379192,211.0320786438242 175.62867727174307,210.81191468922043 175.4404009587888,211.01373166895792 175.11876225756714,212.62825059743773 174.4441054695926,213.0960885332679 172.29461756374803,212.59155731924693 168.35650468509994,212.66494386010163 168.0505556766002,212.78419685650442 166.32468947482994,212.6832904855837 164.74787535410724,212.38974401170708 162.10416212680866,211.59165951242903 160.7470037045132,211.65587347951077 159.33493135758908,211.51827206325834 159.10743081284454,211.22472164552164 158.18958378734533,210.94951722635597 157.67182392679388,211.01373166895792 157.54630638484377,211.17885430299066 156.66768359122216,211.49992519128864 154.66724776639603,211.4724048759963 153.953366746573,211.1421604115094 153.29439965134952,209.9404268831713 152.2118108520517,209.09645139603526 152.0,209.06893031794607 152.2039660056471,209.08727770429687 153.31793419047608,209.91290607293922 154.13379821312265,211.29810934314446 154.3220745260769,211.43571110873745 154.9025931575743,211.3531500755853 154.18086729134666,211.17885430299066 153.81215951187187,210.84860872047284 154.14948790587368,211.28893588431674" stroke="#4dd2ff" stroke-linecap="round" stroke-linejoin="round" stroke-width="0.5"><title>2021-06-17 10.1km</title></polyline><polyline fill="none" points="41.05411403113976,255.08408390486147 45.52279842738062,263.8779130312614 43.641247102525085,265.2519434702117 35.52705701580271,267.45038915763143 21.297825124114752,263.46570361754857 14.24200765741989,236.53440590936225 15.77076810831204,235.0229390268214 36.23263876186684,232.0 45.75799234258011,263.1908972688252 36.585429635830224,267.7251946077449 20.827437292784452,264.427525381092 17.76991639006883,245.74057541263755 14.594798530451953,237.6336534494767 18.475498137064278,234.33590804587584 36.93822050886229,232.68703221331816 41.52450186293572,247.1146249822341 40.936517073307186,253.7100427413825 43.876441018190235,259.2061986994231 43.75884406035766,263.60310676996596 36.46783267799765,267.31298641103785 20.945034250617027,262.9160908620106 15.53557419264689,234.61072048172355 36.350235720165074,232.68703221331816 37.878996171057224,241.89322890678886 40.81892011594027,246.5650053282734 40.58372620027512,253.16042587021366 44.58202276472002,261.12984780594707 43.05326231336221,264.427525381092 36.70302659319714,267.1755836500088 21.5330190397799,263.8779130312614 14.359604615252465,236.8092178814113 18.0051103066653,234.47331427095924 36.70302659319714,232.82443861232605 44.6996197225526,263.1908972688252 36.82062355149537,267.7251946077449 20.70984033541754,261.6794613151578 15.182783319149166,235.57256355066784 19.76906467275694,236.25959387922194 36.585429635830224,232.68703221331816 44.81721668038517,262.77868763695005 42.9356653559953,267.45038915763143 38.70217487541959,268.0 20.47464641975239,262.9160908620106 14.829992446117103,238.04587103822269 14.947589403949678,236.39699990174267 18.828289010562003,234.88553285971284 37.17341442452744,233.37406406376977 41.28930794633925,254.1222552425461 44.2292318912223,258.10696936317254 44.46442580688745,264.0153161404887 41.171710988972336,266.76337527891155 33.645505690947175,267.0381808739621 21.062631208449602,263.46570361754857 14.947589403949678,237.35884165170137 18.593095095362514,234.88553285971284 37.17341442452744,232.9618449966656 44.81721668038517,262.64128439768683 43.2884562285617,266.2137639152352 36.82062355149537,267.45038915763143 21.650615997612476,263.1908972688252 14.829992446117103,237.6336534494767 16.829140728339553,235.43515744165052 36.82062355149537,232.68703221331816 38.23178704408929,242.03063433500938 42.465277524665,251.6489782789722 41.877292735502124,254.8092757879058 44.34682884905487,258.10696936317254 44.2292318912223,266.2137639152352 39.2901596641168,267.58779189013876 21.5330190397799,263.05349407263566 14.477201572619379,237.4962475579232 19.063482926692814,234.74812667781953 37.17341442452744,233.6488767027622 44.81721668038517,262.77868763695005 41.9948896933347,266.76337527891155 35.644653973169625,267.7251946077449 21.415422081947327,263.46570361754857 15.300380277447402,236.25959387922194 21.76821295497939,234.47331427095924 36.93822050886229,232.82443861232605 38.9373687915504,239.0077115710592 37.9965931288898,241.6184180076234 40.7013231581077,245.1909551791614 42.112486651632935,255.3588919636095 44.46442580688745,258.9313914523227 44.93481363868341,263.740509907715 41.52450186293572,266.2137639152352 34.70387831097469,267.45038915763143 22.473794701509178,262.9160908620106 16.123558981344104,243.9543088049395 15.300380277447402,235.57256355066784 36.93822050886229,232.82443861232605 45.28760451124981,263.8779130312614 42.112486651632935,266.0763610379072 32.46953611308709,266.9007780838292 23.179376448504627,258.2443730807863 28.824030422139913,253.7100427413825 41.171710988972336,255.3588919636095 30.4703878313303,256.4581236189697 37.17341442452744,255.7711039428832 38.81977183325216,255.08408390486147 36.585429635830224,254.53446761355735 30.940775662194937,256.59552751050796 39.2901596641168,255.63369996438269" stroke="#4dd2ff" stroke-linecap="round" stroke-linejoin="round" stroke-width="0.5"><title>2021-06-12 10.3km</title></polyline><polyline fill="none" points="77.285607340571,235.57376411719451 76.9111222269712,235.42789836418524 73.25989236944588,239.82810066844831 72.7293717918219,241.01928675225645 71.7931590078515,245.1761866130255 71.886780286266,246.96287819284044 72.41730086383177,249.64894061676023 74.12328860349953,255.9323805908134 75.78766688617179,258.81268247829576 78.06578466057545,263.7588557780182 78.85636434482876,264.79181358553615 80.45832844189135,266.2743956753766 81.25931049039355,267.84202321328485 81.39454122580355,268.0 81.54017432552064,267.9027835414963 80.54154735599877,265.95843715651426 78.73153597360943,264.2571071700513 78.03457756777061,263.2970598820175 75.81887397897663,258.38732596971386 74.28972643183079,255.7257738913613 72.80218834173866,250.36602361711994 72.01160865748534,246.2579283613086 72.03241338598309,245.24911334224453 72.34448431397323,243.66902387580922 72.94782144145574,241.12868077523308 73.36391601210926,240.1684408061701 73.9984602323384,239.15957247099868 76.99434114113683,235.68316331073584 77.1919860621565,235.47652030237077 77.32721679762471,235.53729769623897 78.87716907332651,233.0453982545514 78.29463667439995,232.0 78.8875714376336,233.1183326624523 77.82653028244385,234.80796685358655 73.8112176755676,239.54853480320162 72.92701671289979,241.3231587817354 72.03241338598309,245.94191496793792 72.85420016304124,250.36602361711994 73.02063799131429,250.93725603473285 73.29109946225071,250.82787132287194 72.8750048915972,247.26673454885167 72.6877623347682,246.99934099786333 72.47971504944144,247.06011231392768 72.4068984995829,248.00814069499756 72.03241338598309,246.0026868416462 72.95822380570462,241.3231587817354 73.4367325619678,240.13197583950387 74.16489806061145,239.05017657846474 76.70307494164445,236.16938069179014 77.06715769093717,236.37602245738526 77.45204516884405,235.9870494143397" stroke="#4dd2ff" stroke-linecap="round" stroke-linejoin="round" stroke-width="0.5"><title>2021-06-05 10.9km</title></polyline></svg>