<?xml version="1.0" encoding="utf-8" ?>
<svg baseProfile="full" height="200mm" version="1.1" viewBox="0,0,200,200" width="200mm" xmlns="http://www.w3.org/2000/svg" xmlns:ev="http://www.w3.org/2001/xml-events" xmlns:xlink="http://www.w3.org/1999/xlink"><defs /><rect fill="#1a1a1a" height="200" width="200" x="0" y="0" /><text alignment-baseline="middle" fill="#e1ed5e" style="dominant-baseline: central; font-size:9.0px; font-family:Arial;" text-anchor="middle" x="100.0" y="100.0">2021</text><line stroke="#e1ed5e" stroke-width="0.3" x1="100.0" x2="100.0" y1="15.0" y2="10.0" /><path d="M 100.0 14.0 a86.0,86.0 0 0,1 42.46469731375804,11.215312516191453" fill="none" id="id1" stroke="none" /><text fill="#e1ed5e" style="font-size:6.75px; font-family:Arial;" text-anchor="middle"><textPath startOffset="22.20632615414155" xlink:href="#id1">January</textPath></text><line stroke="#e1ed5e" stroke-width="0.3" x1="143.23703022742887" x2="145.7803849466894" y1="26.81831364943548" y2="22.513508569990506" /><path d="M 143.74570117128098 25.957352633546492 a86.0,86.0 0 0,1 28.547481713284135,27.462654790039103" fill="none" id="id2" stroke="none" /><text fill="#e1ed5e" style="font-size:6.75px; font-family:Arial;" text-anchor="middle"><textPath startOffset="19.985693538727396" xlink:href="#id2">February</textPath></text><line stroke="#e1ed5e" stroke-width="0.3" x1="172.23445277983987" x2="176.4835382374775" y1="55.19839476539836" y2="52.563006222186495" /><path d="M 173.08426987136738 54.67131705675599 a86.0,86.0 0 0,1 12.851231095245387,41.99856678651699" fill="none" id="id3" stroke="none" /><text fill="#e1ed5e" style="font-size:6.75px; font-family:Arial;" text-anchor="middle"><textPath startOffset="22.20632615414155" xlink:href="#id3">March</textPath></text><line stroke="#e1ed5e" stroke-width="0.3" x1="184.98032266829074" x2="189.97916517819016" y1="98.17113171792111" y2="98.06355123074" /><path d="M 185.9800911702706 98.14961562048488 a86.0,86.0 0 0,1 -9.607161424134198,41.387399972396054" fill="none" id="id4" stroke="none" /><text fill="#e1ed5e" style="font-size:6.75px; font-family:Arial;" text-anchor="middle"><textPath startOffset="21.466115282336823" xlink:href="#id4">April</textPath></text><line stroke="#e1ed5e" stroke-width="0.3" x1="174.80103733775053" x2="179.2010983576182" y1="140.37084112569926" y2="142.7455964860345" /><path d="M 175.68104954172406 140.8457921977663 a86.0,86.0 0 0,1 -30.038265399797805,32.042727171017184" fill="none" id="id5" stroke="none" /><text fill="#e1ed5e" style="font-size:6.75px; font-family:Arial;" text-anchor="middle"><textPath startOffset="22.206326154141568" xlink:href="#id5">May</textPath></text><path d="M 112.92097659922987 116.55440617244103 l 4.743465195173037 6.0773463137772445 a28.70938391023562,28.70938391023562 0 0,0 -0.3921855936427488,0.30071118955362375 l -4.638150873036795 -6.15809684515824" fill="#ff5608" stroke="none" /><path d="M 112.34349029814194 116.9893568818739 l 2.633442101107823 3.624622096572427 a25.480279304111328,25.480279304111328 0 0,0 -0.3570547560941716,0.25474908808143604 l -2.570660017164767 -3.6694154464980824" fill="#ff2803" stroke="none" /><path d="M 111.7513745106137 117.40417183066458 l 4.368678360212929 6.470156217502851 a28.806937433711347,28.806937433711347 0 0,0 -0.41334567145676554,0.27394297199098727 l -4.256657990016199 -6.544397210585156" fill="#ff5808" stroke="none" /><path d="M 111.45004920935366 117.60387380957326 l 3.6101292915788967 5.550391908646339 a27.6211693711521,27.6211693711521 0 0,0 -0.4007939502920946,0.25580566198584914 l -3.514053539239872 -5.611711999455997" fill="#ff4706" stroke="none" /><line stroke="#e1ed5e" stroke-width="0.3" x1="143.8653032363475" x2="146.44561519142675" y1="172.8068346515853" y2="177.08958963109032" /><path d="M 144.38136562736335 173.6633856474863 a86.0,86.0 0 0,1 -40.68145358897372,12.25698825130547" fill="none" id="id6" stroke="none" /><text fill="#e1ed5e" style="font-size:6.75px; font-family:Arial;" text-anchor="middle"><textPath startOffset="21.466115282336833" xlink:href="#id6">June</textPath></text><path d="M 110.8373102113329 117.98757091392108 l 4.876181803466234 8.093398109735633 a30.448822251642135,30.448822251642135 0 0,0 -0.45126913209795017,0.2666177575050383 l -4.736144800339902 -8.17613443953442" fill="#ff6e0a" stroke="none" /><path d="M 110.5260780823613 118.17145234162733 l 2.3577603322923997 4.070265219011151 a25.70383808582135,25.70383808582135 0 0,0 -0.38476348557789464,0.21847874882126514 l -2.2873480797933063 -4.110247133627044" fill="#ff2c04" stroke="none" /><path d="M 110.21172684928248 118.3499491758327 l 4.623381124729807 8.307978651549735 a30.50779481789095,30.50779481789095 0 0,0 -0.46107038739954476,0.25141233749670755 l -4.479687925461613 -8.386331640806214" fill="#ff6f0a" stroke="none" /><path d="M 109.89434966115114 118.52300852407294 l 2.7739339737991116 5.193024746602551 a26.887462586702647,26.887462586702647 0 0,0 -0.4101094702142543,0.21454989184552148 l -2.6841336010583614 -5.240004057392789" fill="#ff3d05" stroke="none" /><path d="M 109.57404056367764 118.69057910512821 l 7.367026702385037 14.382015036880892 a37.159066772395065,37.159066772395065 0 0,0 -0.5718003438883258,0.2867125628060278 l -7.118372450813951 -14.506695440596221" fill="#ffc812" stroke="none" /><path d="M 109.2508944713604 118.85261126421891 l 3.8806580677413036 7.908482604247352 a29.809290785324812,29.809290785324812 0 0,0 -0.4625938210873691,0.22207314590214944 l -3.743951578653702 -7.974110026649061" fill="#ff6609" stroke="none" /><path d="M 108.2653958097858 119.30500536409082 l 4.80248934673506 11.21689568573873 a33.201747938318015,33.201747938318015 0 0,0 -0.5273205015238279,0.22042001240391904 l -4.6086973857137705 -11.297900741162623" fill="#ff940d" stroke="none" /><path d="M 107.2578585660854 119.70592522655815 l 5.309537886277087 14.416009298316586 a36.362698872755466,36.362698872755466 0 0,0 -0.5892150071004704,0.2112715382803983 l -5.060603318546882 -14.505268377636945" fill="#ffbd11" stroke="none" /><path d="M 106.91757812671514 119.82793768551818 l 3.6062590201766116 10.3366637600744 a31.947681115626295,31.947681115626295 0 0,0 -0.5207932480166029,0.17668134572857516 l -3.4277960392227818 -10.397208092701097" fill="#ff830c" stroke="none" /><path d="M 106.2309692047433 120.05430185196036 l 2.7760194759484227 8.934586368234816 a30.355913515113976,30.355913515113976 0 0,0 -0.50033054006231,0.15074548744677035 l -2.621813961445867 -8.98104722478731" fill="#ff6d0a" stroke="none" /><path d="M 105.53697534728816 120.25689768951611 l 3.967081640450723 14.513477463092968 a36.045888634896535,36.045888634896535 0 0,0 -0.5999229797737508,0.1584451115733608 l -3.716668217865475 -14.579613923969914" fill="#ffb911" stroke="none" /><path d="M 105.18746579009965 120.34920634021253 l 3.430846240393066 13.458401634290045 a34.888818541369176,34.888818541369176 0 0,0 -0.5832192927684667,0.143341112507594 l -3.1986736628813883 -13.515464005111669" fill="#ffaa0f" stroke="none" /><path d="M 103.41894727170886 120.7198165907248 l 1.0089651817897076 6.114622967747908 a27.19730786517615,27.19730786517615 0 0,0 -0.4625668083732821,0.072243422301019 l -0.9035625098079083 -6.131084697396033" fill="#ff4106" stroke="none" /><path d="M 102.34483914955558 120.86867818915974 l 0.7110246614819283 6.328001154294461 a27.36782181581642,27.36782181581642 0 0,0 -0.4685988869939834,0.04857219062217861 l -0.6019931778823423 -6.3393027133723985" fill="#ff4306" stroke="none" /><path d="M 101.98527174616119 120.90594882070398 l 0.6834508152378739 7.197094197537277 a28.22947231166107,28.22947231166107 0 0,0 -0.48414308858107385,0.04177390285064932 l -0.5594634089152584 -7.20779235266659" fill="#ff5007" stroke="none" /><path d="M 101.62511606390274 120.93702456842531 l 0.7741583780862786 9.973794082694415 a31.003793760286708,31.003793760286708 0 0,0 -0.5324344089090107,0.03671979414733328 l -0.6023612083983376 -9.985642221358033" fill="#ff760a" stroke="none" /><path d="M 101.26447882468166 120.96189622390904 l 0.6345348771779632 10.519001177583117 a31.5381222371137,31.5381222371137 0 0,0 -0.5421732584491528,0.02802416453818282 l -0.4533735503153308 -10.528365148883502" fill="#ff7d0b" stroke="none" /><path d="M 100.90346689309514 120.98055641714683 l 0.7006863444140946 16.271530802132197 a37.28661032867138,37.28661032867138 0 0,0 -0.641471117466032,0.02209356230130245 l -0.4204948752734103 -16.281181162859593" fill="#ffc912" stroke="none" /><line stroke="#e1ed5e" stroke-width="0.3" x1="102.19456741930631" x2="102.32365962044197" y1="184.97166512339345" y2="189.96999836594603" /><path d="M 102.22038585953345 185.97133177190398 a86.0,86.0 0 0,1 -42.740103519485714,-10.115201625700543" fill="none" id="id7" stroke="none" /><text fill="#e1ed5e" style="font-size:6.75px; font-family:Arial;" text-anchor="middle"><textPath startOffset="22.20632615414155" xlink:href="#id7">July</textPath></text><path d="M 100.54218724476979 120.99299961872073 l 0.11557109307932131 4.474808170707623 a25.476300352097393,25.476300352097393 0 0,0 -0.438483899983315,0.007548897989708514 l -0.038527503203338385 -4.476134545976491" fill="#ff2803" stroke="none" /><path d="M 99.81925306533755 120.99922214144158 l -0.11469897554699265 13.325754438963 a34.32624805496782,34.32624805496782 0 0,0 -0.5908042734194654,-0.010171231354439942 l 0.3440629388591259 -13.3218057303294" fill="#ffa30f" stroke="none" /><path d="M 99.45781275523022 120.99299961872073 l -0.23021808203415048 8.91383586572141 a29.916808297048718,29.916808297048718 0 0,0 -0.5146825705035658,-0.017726708385147005 l 0.38362100421235934 -8.90855235891017" fill="#ff6709" stroke="none" /><path d="M 99.09653310690486 120.98055641714683 l -0.2696804916902929 6.262594472198642 a27.26839828750625,27.26839828750625 0 0,0 -0.4687722446210925,-0.024230170539529028 l 0.37744080472487435 -6.2570244948969105" fill="#ff4206" stroke="none" /><path d="M 98.73552117531835 120.96189622390904 l -0.8444916439632657 13.999559231190048 a35.025007123146935,35.025007123146935 0 0,0 -0.6014915177423819,-0.04148237668959851 l 1.0853459224845776 -13.982948509984164" fill="#ffac0f" stroke="none" /><path d="M 98.01472825383883 120.90594882070398 l -1.1394722616231363 11.999238305873268 a33.053220190312004,33.053220190312004 0 0,0 -0.5659457408406697,-0.058662590050653746 l 1.3458505990693992 -11.977846347366855" fill="#ff920d" stroke="none" /><path d="M 97.65516085044442 120.86867818915974 l -1.3757529408939566 12.243972213082296 a33.321020725131085,33.321020725131085 0 0,0 -0.569428598770755,-0.06894987323534633 l 1.586308962716101 -12.218476811121601" fill="#ff950d" stroke="none" /><path d="M 96.93821686468263 120.77559828337769 l -2.755121492671152 18.69475884604177 a39.89668496723792,39.89668496723792 0 0,0 -0.6785554776765041,-0.10597641041484815 l 3.076512833956173 -18.644564128279814" fill="#ffea16" stroke="none" /><path d="M 96.22490169976321 120.6578951692458 l -2.1358403414670164 11.687633635792798 a32.881186555590865,32.881186555590865 0 0,0 -0.5558993380259303,-0.10653943118424218 l 2.3367072940646416 -11.649137006260087" fill="#ff900d" stroke="none" /><path d="M 95.86986931433489 120.58985236759428 l -3.0289737614631056 15.10027825276886 a36.40107416249516,36.40107416249516 0 0,0 -0.613286231039663,-0.12852009258469738 l 3.288451453932155 -15.04590217945762" fill="#ffbe11" stroke="none" /><path d="M 94.81253420990036 120.34920634021253 l -3.598941460101463 14.117799584861212 a35.56930488223596,35.56930488223596 0 0,0 -0.5919910475663536,-0.1563502161851775 l 3.841422950479306 -14.053758019372452" fill="#ffb310" stroke="none" /><path d="M 94.46302465271185 120.25689768951611 l -4.334296064002451 15.856923034264836 a37.438617049041135,37.438617049041135 0 0,0 -0.6201775228870774,-0.17526836275372573 l 4.606604754994142 -15.77996587817259" fill="#ffcb13" stroke="none" /><path d="M 93.42475214034765 119.94407469862007 l -1.56758646280305 4.754811100359438 a26.00655129989344,26.00655129989344 0 0,0 -0.4239442691368695,-0.14382491376430287 l 1.6492004648771452 -4.7271231996970124" fill="#ff3004" stroke="none" /><path d="M 93.08242187328487 119.8279376855182 l -1.7853395150909706 5.11734020263633 a26.41983467770589,26.41983467770589 0 0,0 -0.42810252153427353,-0.15350233306403285 l 1.873161597254971 -5.08585032853234" fill="#ff3605" stroke="none" /><path d="M 92.7421414339146 119.70592522655815 l -1.8649119999333514 5.06345171791065 a26.39596516548316,26.39596516548316 0 0,0 -0.4250124702011468,-0.16070334935863692 l 1.9517946908947812 -5.0306001184453795" fill="#ff3605" stroke="none" /><path d="M 92.40401165467489 119.57807347666478 l -3.6950837909927454 9.523793175250413 a31.215492189190087,31.215492189190087 0 0,0 -0.49926790130137855,-0.19866900164300172 l 3.8584727683359823 -9.458777329201345" fill="#ff790b" stroke="none" /><path d="M 91.07499286063937 119.00905698771935 l -5.407245465493338 11.516700837901324 a33.722920329618326,33.722920329618326 0 0,0 -0.5233272634980816,-0.2512288890245121 l 5.604685396991662 -11.421917672377248" fill="#ff9b0e" stroke="none" /><path d="M 90.7491055286396 118.85261126421891 l -1.3555029713626043 2.762410777218052 a24.077060546603413,24.077060546603413 0 0,0 -0.3704956204819272,-0.18577419547255286 l 1.4028524995272922 -2.7386687408361974" fill="#ff1402" stroke="none" /><path d="M 90.42595943632237 118.69057910512821 l -7.111365599825171 13.882909770957111 a36.59829171425234,36.59829171425234 0 0,0 -0.5582269422887715,-0.2920379527708582 l 7.349283444640438 -13.758442399241536" fill="#ffc111" stroke="none" /><path d="M 90.10565033884886 118.52300852407294 l -7.146303577507731 13.378447964248332 a36.16748247910642,36.16748247910642 0 0,0 -0.5466063757623335,-0.2980533783487736 l 7.375532765138706 -13.253453934139793" fill="#ffbb11" stroke="none" /><line stroke="#e1ed5e" stroke-width="0.3" x1="58.666819895761336" x2="56.23545636021788" y1="174.27360380694188" y2="178.64263932499728" /><path d="M 58.180547188652646 175.14741091055294 a86.0,86.0 0 0,1 -31.652253787137756,-30.449443065178592" fill="none" id="id8" stroke="none" /><text fill="#e1ed5e" style="font-size:6.75px; font-family:Arial;" text-anchor="middle"><textPath startOffset="22.20632615414155" xlink:href="#id8">August</textPath></text><path d="M 88.8546689885994 117.79835938074946 l -4.7234809299014495 7.543087866345731 a29.899968913122947,29.899968913122947 0 0,0 -0.4338602212409444,-0.27691012058186737 l 4.852622953189318 -7.460663316940059" fill="#ff6709" stroke="none" /><path d="M 87.95078237400918 117.19931262002967 l -9.201745661797501 13.134769841476983 a37.03727851017692,37.03727851017692 0 0,0 -0.5190028055426076,-0.3702947213754966 l 9.426475795188995 -12.974430858257268" fill="#ffc612" stroke="none" /><path d="M 87.65650970185807 116.9893568818739 l -5.019207849799137 6.908346939550527 a29.53918642943708,29.53918642943708 0 0,0 -0.40878721609535246,-0.30241100974525076 l 5.137380036313053 -6.82092598106551" fill="#ff6209" stroke="none" /><path d="M 84.19399662182784 113.82643327865904 l -23.53711394903635 20.589286728735328 a52.27162389528242,52.27162389528242 0 0,0 -0.5865809384677318,-0.6823261511291564 l 23.88803739707486 -20.181083478444638" fill="#83ff25" stroke="none" /><path d="M 83.95833913139862 113.55231037782056 l -3.7009271924120046 3.1266160286092903 a25.84485189390668,25.84485189390668 0 0,0 -0.28417522306962684,-0.34230736265963013 l 3.7541984153751677 -3.062447408835899" fill="#ff2e04" stroke="none" /><path d="M 83.50135304334701 112.99209946851258 l -8.992846359341184 7.081547639183737 a32.446379454165616,32.446379454165616 0 0,0 -0.34175799720081734,-0.44176828082369424 l 9.11341117376007 -6.925701364246789" fill="#ff8a0c" stroke="none" /><path d="M 83.28015986056508 112.70617746262583 l -12.236079049498741 9.298760667152143 a36.36842804097276,36.36842804097276 0 0,0 -0.37448870532718564,-0.5016888188553494 l 12.394329021521012 -9.086758968787487" fill="#ffbe11" stroke="none" /><path d="M 83.06392112726016 112.41649034213515 l -3.571116578411174 2.61812281577476 a25.428028985348163,25.428028985348163 0 0,0 -0.25575778865544335,-0.35522519923407353 l 3.6156541594422245 -2.556264011089548" fill="#ff2803" stroke="none" /><path d="M 82.85270091963577 112.12312394758628 l -10.41823020628316 7.365678729537583 a33.75902597292886,33.75902597292886 0 0,0 -0.33138357091188175,-0.4773827496531816 l 10.543474684357177 -7.185254717697389" fill="#ff9b0e" stroke="none" /><path d="M 82.6465618267979 111.8261652097733 l -14.264867034840385 9.721340092131301 a38.262412482285185,38.262412482285185 0 0,0 -0.36622028992538236,-0.5474496440170059 l 14.430090430176499 -9.474353533908475" fill="#ffd614" stroke="none" /><path d="M 82.44556493220864 111.52570212397912 l -7.6014086356902695 4.990851105106597 a30.09340464293162,30.09340464293162 0 0,0 -0.28057820350060214,-0.43546360265764383 l 7.686191702567918 -4.859265902527505" fill="#ff6a09" stroke="none" /><path d="M 82.24976979558568 111.22182372390057 l -5.428551600722403 3.43196952590819 a27.42242845880499,27.42242845880499 0 0,0 -0.2488067755989576,-0.4011557440675465 l 5.486823015989316 -3.338017450475379" fill="#ff4406" stroke="none" /><line stroke="#e1ed5e" stroke-width="0.3" x1="26.63291911575756" x2="22.317208475507996" y1="142.92168965132927" y2="145.44649492493687" /><path d="M 25.769776987707644 143.4266507060508 a86.0,86.0 0 0,1 -11.730757126820373,-40.83630448921669" fill="none" id="id9" stroke="none" /><text fill="#e1ed5e" style="font-size:6.75px; font-family:Arial;" text-anchor="middle"><textPath startOffset="21.46611528233685" xlink:href="#id9">September</textPath></text><path d="M 81.35079622478065 109.6543875284942 l -17.43407615980429 9.025335852230121 a40.63170137281552,40.63170137281552 0 0,0 -0.31619460415203265,-0.623881951381838 l 17.586849433742593 -8.723899689145599" fill="#fff417" stroke="none" /><path d="M 79.50377843672027 104.57218783832718 l -12.013179748887753 2.679836094566191 a33.30845275299973,33.30845275299973 0 0,0 -0.12001505219796534,-0.5606703688007161 l 12.057528839810159 -2.472651906349311" fill="#ff950d" stroke="none" /><line stroke="#e1ed5e" stroke-width="0.3" x1="15.007084014347285" x2="10.007500721073583" y1="101.09737516637583" y2="101.16192664675087" /><path d="M 14.007167355692545 101.11028546245083 a86.0,86.0 0 0,1 10.666146001902534,-42.60595125391555" fill="none" id="id10" stroke="none" /><text fill="#e1ed5e" style="font-size:6.75px; font-family:Arial;" text-anchor="middle"><textPath startOffset="22.20632615414155" xlink:href="#id10">October</textPath></text><path d="M 79.01574976396665 99.18683210126434 l -6.508685649107876 -0.25222031634599995 a27.513570753962874,27.513570753962874 0 0,0 0.02241228191488755,-0.47308784839990453 l 6.503379758959489 0.3642192713689136" fill="#ff4506" stroke="none" /><path d="M 79.03285615573316 98.82574320788736 l -7.212299522598987 -0.40392204890025546 a28.223601416555965,28.223601416555965 0 0,0 0.03134084308386153,-0.48482897072182957 l 7.204278088510712 0.5280100838750967" fill="#ff4f07" stroke="none" /><path d="M 79.05617556472873 98.46500227214037 l -13.297367043590787 -0.9745797985229843 a34.333033266127536,34.333033266127536 0 0,0 0.04827145377260922,-0.5890340031346726 l 13.278621105998681 1.2033277188654352" fill="#ffa30f" stroke="none" /><path d="M 79.08570108090925 98.10471618934814 l -9.376540384269955 -0.8497155586701711 a30.414962884074026,30.414962884074026 0 0,0 0.05173856649940267,-0.52100030391038 l 9.360524692088322 1.0109913932849814" fill="#ff6e0a" stroke="none" /><path d="M 79.62865764111835 94.90015583598534 l -3.0003062871888857 -0.7511087997745824 a24.092895446995254,24.092895446995254 0 0,0 0.10417729916439715,-0.40143763027529256 l 2.986932656154181 0.8026428555987388" fill="#ff1402" stroke="none" /><path d="M 79.91906864156998 93.8553929516997 l -10.32002268222106 -3.1578457682030696 a31.792351831612756,31.792351831612756 0 0,0 0.1646306628476089,-0.5219241906124464 l 10.264136535605248 3.3350201252419303" fill="#ff810b" stroke="none" /><path d="M 80.38941819471856 92.48833698450439 l -13.801605731244319 -5.28658518932465 a35.77945546103451,35.77945546103451 0 0,0 0.22525118065092922,-0.5732396854358464 l 13.708561000711699 5.523373879656259" fill="#ffb610" stroke="none" /><path d="M 81.43458229118936 90.18545643968196 l -9.21334987780449 -4.870605398188803 a31.421545610690668,31.421545610690668 0 0,0 0.25689642339966495,-0.47599005675460826 l 9.128145355186353 5.0284764382758835" fill="#ff7c0b" stroke="none" /><path d="M 81.6062741919709 89.86733742301443 l -7.687821449023323 -4.235036528654898 a29.777136949547067,29.777136949547067 0 0,0 0.25118058451433734,-0.4468222323682146 l 7.613783223216555 4.366742270957897" fill="#ff6509" stroke="none" /><line stroke="#e1ed5e" stroke-width="0.3" x1="26.266209847984243" x2="21.928928074336255" y1="57.711370442889674" y2="55.22380399835377" /><path d="M 25.398753493254645 57.213857153982495 a86.0,86.0 0 0,1 29.58750427330803,-30.492523968695096" fill="none" id="id11" stroke="none" /><text fill="#e1ed5e" style="font-size:6.75px; font-family:Arial;" text-anchor="middle"><textPath startOffset="21.46611528233685" xlink:href="#id11">November</textPath></text><path d="M 83.39014120810768 87.1503855733568 l -9.215010185568934 -7.128858186316981 a32.650623664025794,32.650623664025794 0 0,0 0.34772279754863306,-0.44157264108380645 l 9.09093330742633 7.286423221353835" fill="#ff8c0c" stroke="none" /><path d="M 83.84228863543731 86.58626213691792 l -8.057521106803076 -6.6891574873625474 a31.472271686569037,31.472271686569037 0 0,0 0.3496260454250591,-0.41384696005176236 l 7.941184447890894 6.826863397043426" fill="#ff7c0b" stroke="none" /><path d="M 84.31358615837235 86.03803664274999 l -1.783115393097304 -1.5870926287884917 a23.387124529105115,23.387124529105115 0 0,0 0.27023973784246863,-0.2984054681596911 l 1.7555320146387905 1.6175508842177388" fill="#ff0a01" stroke="none" /><path d="M 84.80347519578584 85.50635884689758 l -8.667289065822368 -8.26640163515554 a32.97728248578225,32.97728248578225 0 0,0 0.39531240417279295,-0.407404181441416 l 8.523712397946456 8.41437001214708" fill="#ff910d" stroke="none" /><path d="M 85.31137513191541 84.99185889309783 l -1.2991404926402697 -1.3274002165852914 a22.857352243008386,22.857352243008386 0 0,0 0.28355825075984514,-0.2727828125680605 l 1.2760989982679969 1.3495661159156653" fill="#ff0200" stroke="none" /><path d="M 86.10567301691215 84.25364557470407 l -21.459073454163963 -24.319434590751996 a53.43341999119225,53.43341999119225 0 0,0 0.6949046837669557,-0.6026144940582375 l 21.037274971750236 24.685214078229915" fill="#77ff27" stroke="none" /><path d="M 86.37877921826538 84.01681056812374 l -1.9534496722369523 -2.292184867810632 a24.01165686793544,24.01165686793544 0 0,0 0.31688808219392006,-0.26538465562403485 l 1.9137040530839218 2.325470680828479" fill="#ff1302" stroke="none" /><path d="M 86.65592168130627 83.78471172551755 l -4.718222215502894 -5.733429581289814 a28.42521620146337,28.42521620146337 0 0,0 0.38048722234765014,-0.30766087269244613 l 4.618831594590743 5.813796551246394" fill="#ff5207" stroke="none" /><path d="M 87.22198572758235 83.33499621200491 l -5.295872816635814 -6.906843165802609 a29.703490759860458,29.703490759860458 0 0,0 0.408428438271992,-0.3076198320969426 l 5.176198224605432 6.996979587405407" fill="#ff6409" stroke="none" /><path d="M 88.39885842347998 82.49532879139004 l -34.80342472956008 -52.51401362582988 a84.0,84.0 0 0,0 1.2121318968628514,-0.78840430336186 l 33.89432580691294 53.105316853351276" fill="#4dd2ff" stroke="none" /><path d="M 88.70189139769569 82.29822771554957 l -8.308275562376254 -13.01732947155887 a36.44274293613326,36.44274293613326 0 0,0 0.5316837366977614,-0.3329403071433799 l 8.08297267330625 13.15841412002518" fill="#ffbf11" stroke="none" /><line stroke="#e1ed5e" stroke-width="0.3" x1="56.762969772571076" x2="54.21961505331055" y1="26.818313649435495" y2="22.513508569990535" /><path d="M 56.25429882871897 25.957352633546506 a86.0,86.0 0 0,1 42.265352541879196,-11.944610805530505" fill="none" id="id12" stroke="none" /><text fill="#e1ed5e" style="font-size:6.75px; font-family:Arial;" text-anchor="middle"><textPath startOffset="22.20632615414155" xlink:href="#id12">December</textPath></text><path d="M 90.26544431104013 81.39251694778311 l -6.250667595692673 -11.94807396128012 a34.484335978314334,34.484335978314334 0 0,0 0.5283320687375289,-0.2706322061362431 l 6.044075039366381 12.053898692728866" fill="#ffa50f" stroke="none" /><path d="M 92.91201910852362 80.23233633223022 l -2.7601272975221764 -7.697716589961624 a29.177600100145366,29.177600100145366 0 0,0 0.4742304758297382,-0.16544970125751218 l 2.627214817629153 7.744087144391346" fill="#ff5d08" stroke="none" /><path d="M 95.33964822691252 79.52364482259891 l -0.3800801458021729 -1.6699718047609255 a22.712678237711177,22.712678237711177 0 0,0 0.38195940826703273,-0.08348153247823935 l 0.35127801338161924 1.6762668353350332" fill="#ff0000" stroke="none" /><path d="M 97.47563105711357 79.15227682838746 l -2.4682268470660347 -20.384068730277445 a41.532958914127605,41.532958914127605 0 0,0 0.7104772258913097,-0.07983039457683656 l 2.116982917665007 20.42353507832488" fill="#ffff18" stroke="none" /><path d="M 97.83486435360386 79.11191278185805 l -0.9440296722052509 -9.107500568086508 a30.156296119048356,30.156296119048356 0 0,0 0.5167853920605584,-0.04907499996702151 l 0.7871191530544562 9.122401112568708" fill="#ff6a09" stroke="none" /><path d="M 99.27714615592234 79.0124445844662 l -0.16422044071893002 -4.768025553422434 a25.77085275723735,25.77085275723735 0 0,0 0.44347141784667576,-0.011453558354854301 l 0.08212238767737526 4.770145903919648" fill="#ff2d04" stroke="none" /><path d="M 99.63851952072746 79.00311137660856 l -0.03992754424222136 -2.319223990038402 a23.31956765901727,23.31956765901727 0 0,0 0.4014080235147565,-0.0034550455874272495 l 5.681302218042439e-16 2.3195676590172702" fill="#ff0901" stroke="none" /></svg>