<?xml version="1.0" encoding="utf-8" ?>
<svg baseProfile="full" height="200mm" version="1.1" viewBox="0,0,200,200" width="200mm" xmlns="http://www.w3.org/2000/svg" xmlns:ev="http://www.w3.org/2001/xml-events" xmlns:xlink="http://www.w3.org/1999/xlink"><defs /><rect fill="#1a1a1a" height="200" width="200" x="0" y="0" /><text alignment-baseline="middle" fill="#e1ed5e" style="dominant-baseline: central; font-size:9.0px; font-family:Arial;" text-anchor="middle" x="100.0" y="100.0">2022</text><line stroke="#e1ed5e" stroke-width="0.3" x1="100.0" x2="100.0" y1="15.0" y2="10.0" /><path d="M 100.0 14.0 a86.0,86.0 0 0,1 42.46469731375804,11.215312516191453" fill="none" id="id13" stroke="none" /><text fill="#e1ed5e" style="font-size:6.75px; font-family:Arial;" text-anchor="middle"><textPath startOffset="22.20632615414155" xlink:href="#id13">January</textPath></text><path d="M 100.36148047927253 79.00311137660856 l 0.08938170026484558 -5.1918089994989876 a26.192578336011977,26.192578336011977 0 0,0 0.45072857934317423,0.011640989425596552 l -0.1787369148028876 5.189501217931031" fill="#ff3505" stroke="none" /><path d="M 100.72285384407766 79.0124445844662 l 0.3039649066976908 -8.825408311738824 a29.830641343266777,29.830641343266777 0 0,0 0.5130290284203154,0.022092109149006996 l -0.45583476750733765 8.818868476065623" fill="#ff6809" stroke="none" /><path d="M 109.41281617654863 81.2277094730956 l 6.467014231993448 -12.897380308676148 a35.427913636539174,35.427913636539174 0 0,0 0.5427885551984662,0.2780373799945165 l -6.68806327478067 12.78415040336913" fill="#ffb310" stroke="none" /><line stroke="#e1ed5e" stroke-width="0.3" x1="143.23703022742887" x2="145.7803849466894" y1="26.81831364943548" y2="22.513508569990506" /><path d="M 143.74570117128098 25.957352633546492 a86.0,86.0 0 0,1 28.547481713284135,27.462654790039103" fill="none" id="id14" stroke="none" /><text fill="#e1ed5e" style="font-size:6.75px; font-family:Arial;" text-anchor="middle"><textPath startOffset="19.985693538727396" xlink:href="#id14">February</textPath></text><path d="M 110.68208982089419 81.91981866633111 l 8.249531393605867 -13.96290669850431 a37.21781525623058,37.21781525623058 0 0,0 0.5487641626587106,0.3306242678377484 l -8.488657622482217 13.818835821207948" fill="#ffca12" stroke="none" /><path d="M 112.77801427241765 83.33499621200491 l 11.337938292907053 -14.786865984897764 a39.63331023702162,39.63331023702162 0 0,0 0.537819197562745,0.41977641444447766 l -11.590790045629227 14.589511181230062" fill="#ffe815" stroke="none" /><path d="M 113.34407831869373 83.78471172551755 l 3.4331510750993504 -4.171853090415232 a26.402858920281275,26.402858920281275 0 0,0 0.34844539773750915,0.29181299985197884 l -3.504454009795977 4.112138933169434" fill="#ff3805" stroke="none" /><path d="M 115.9244219780498 86.31012108654704 l 2.5165745246709643 -2.1634443351798867 a24.318680269270427,24.318680269270427 0 0,0 0.27015666670576405,0.31978028158048843 l -2.5534418048638456 2.119805103970292" fill="#ff1a02" stroke="none" /><path d="M 116.15771136456269 86.58626213691792 l 4.620325210087615 -3.8356812924775396 a27.00498593041094,27.00498593041094 0 0,0 0.2938419050740125,0.3602154313627911 l -4.685665607238036 3.7555816915066473" fill="#ff4006" stroke="none" /><path d="M 116.38621287248628 86.86637796730983 l 12.100573075315694 -9.698662795781807 a36.50767322254816,36.50767322254816 0 0,0 0.3887996258681859,0.4937360416324128 l -12.265726781777845 9.488934360196357" fill="#ffc111" stroke="none" /><path d="M 116.60985879189232 87.15038557335679 l 9.615620390110335 -7.438775731567182 a33.157118896813444,33.157118896813444 0 0,0 0.3453456978848952,0.45443445744883704 l -9.742242028219344 7.272156498237311" fill="#ff950d" stroke="none" /><path d="M 117.45458315368197 88.32363383020206 l 11.463093849397506 -7.668317257756417 a34.791505000024465,34.791505000024465 0 0,0 0.3287024596650682,0.5006363970494204 l -11.593392944420499 7.4698627967293225" fill="#ffaa0f" stroke="none" /><path d="M 117.65298651832404 88.62581576622439 l 3.539434750804011 -2.2805309966834195 a25.210513030740188,25.210513030740188 0 0,0 0.23190359057241614,0.3668157885178248 l -3.5781659376223827 2.2192675604513883" fill="#ff2603" stroke="none" /><line stroke="#e1ed5e" stroke-width="0.3" x1="172.23445277983987" x2="176.4835382374775" y1="55.19839476539836" y2="52.563006222186495" /><path d="M 173.08426987136738 54.67131705675599 a86.0,86.0 0 0,1 12.851231095245387,41.99856678651699" fill="none" id="id15" stroke="none" /><text fill="#e1ed5e" style="font-size:6.75px; font-family:Arial;" text-anchor="middle"><textPath startOffset="22.20632615414155" xlink:href="#id15">March</textPath></text><path d="M 118.03404312379186 89.2402003453031 l 6.3264325902266245 -3.7745915728669344 a28.366905107345936,28.366905107345936 0 0,0 0.24657638536020296,0.4214789714902556 l -6.390468650057154 3.665133189022783" fill="#ff5307" stroke="none" /><path d="M 118.21658344932153 89.55222093294921 l 6.719493416783306 -3.8538391601455286 a28.74620346043566,28.74620346043566 0 0,0 0.2424842992794856,0.43135251129298885 l -6.784835357355224 3.7376031389177458" fill="#ff5908" stroke="none" /><path d="M 118.73160827565052 90.50648371742162 l 19.80797707437518 -10.039039366681912 a43.206716713300096,43.206716713300096 0 0,0 0.3305107815785854,0.6662895676211621 l -19.977847868907173 9.696590210561801" fill="#eaff1a" stroke="none" /><path d="M 118.89224826269711 90.83032412892265 l 14.628651784140018 -7.100266385779065 a37.260726790972384,37.260726790972384 0 0,0 0.2750938276400582,0.5794177586827496 l -14.748703805621833 6.847406211455775" fill="#ffca12" stroke="none" /><path d="M 119.47837535516314 92.15188598940014 l 8.167236556454862 -3.290695577935168 a29.80525015861189,29.80525015861189 0 0,0 0.18764030087418873,0.47752409881881197 l -8.222670407210751 3.149622474220572" fill="#ff6709" stroke="none" /><path d="M 119.85752413597 93.16781622104841 l 1.4900184269132977 -0.5126560419612308 a22.575744627120947,22.575744627120947 0 0,0 0.12326647495538617,0.3685510704635293 l -1.498622195640454 0.4869318685753875" fill="#ff0000" stroke="none" /><path d="M 120.28053869075195 94.5502522615342 l 6.447016790251964 -1.7324300753681785 a27.6757276352343,27.6757276352343 0 0,0 0.11966940892560514,0.46113504881452105 l -6.475882531047872 1.621198601004807" fill="#ff4a06" stroke="none" /><path d="M 120.37134235888165 94.90015583598534 l 4.062217955607804 -1.0169520578907634 a25.18757760607618,25.18757760607618 0 0,0 0.10167049628001766,0.42148984521428523 l -4.07912125214864 0.946876981017072" fill="#ff2603" stroke="none" /><path d="M 120.67395015179393 96.31383870115 l 3.250326953827447 -0.5795326649159052 a24.3015880143473,24.3015880143473 0 0,0 0.06988226963280443,0.4124491111812798 l -3.2598210849804743 0.5234977654187875" fill="#ff1902" stroke="none" /><line stroke="#e1ed5e" stroke-width="0.3" x1="184.98032266829074" x2="189.97916517819016" y1="98.17113171792111" y2="98.06355123074" /><path d="M 185.9800911702706 98.14961562048488 a86.0,86.0 0 0,1 -9.607161424134198,41.387399972396054" fill="none" id="id16" stroke="none" /><text fill="#e1ed5e" style="font-size:6.75px; font-family:Arial;" text-anchor="middle"><textPath startOffset="21.466115282336823" xlink:href="#id16">April</textPath></text><line stroke="#e1ed5e" stroke-width="0.3" x1="174.80103733775053" x2="179.2010983576182" y1="140.37084112569926" y2="142.7455964860345" /><path d="M 175.68104954172406 140.8457921977663 a86.0,86.0 0 0,1 -30.038265399797805,32.042727171017184" fill="none" id="id17" stroke="none" /><text fill="#e1ed5e" style="font-size:6.75px; font-family:Arial;" text-anchor="middle"><textPath startOffset="22.206326154141568" xlink:href="#id17">May</textPath></text><path d="M 112.92097659922987 116.55440617244103 l 4.996551025958331 6.401600878216216 a29.1207152369101,29.1207152369101 0 0,0 -0.39780460034244247,0.3050196042842114 l -4.885617697122394 -6.486659824327798" fill="#ff5e08" stroke="none" /><path d="M 112.63410532772338 116.77436683061366 l 4.899197981437857 6.504690437882344 a29.143287944927575,29.143287944927575 0 0,0 -0.4033084518197822,0.2983579509129357 l -4.786504559199511 -6.588058337535049" fill="#ff5e08" stroke="none" /><path d="M 112.04921762599082 117.19931262002967 l 4.6110465230259114 6.58190706788749 a29.036370492194635,29.036370492194635 0 0,0 -0.41182300222092544,0.2832556161301746 l -4.497066636182103 -6.660303473382758" fill="#ff5d08" stroke="none" /><line stroke="#e1ed5e" stroke-width="0.3" x1="143.8653032363475" x2="146.44561519142675" y1="172.8068346515853" y2="177.08958963109032" /><path d="M 144.38136562736335 173.6633856474863 a86.0,86.0 0 0,1 -40.68145358897372,12.25698825130547" fill="none" id="id18" stroke="none" /><text fill="#e1ed5e" style="font-size:6.75px; font-family:Arial;" text-anchor="middle"><textPath startOffset="21.466115282336833" xlink:href="#id18">June</textPath></text><path d="M 110.8373102113329 117.98757091392108 l 7.745525571334363 12.855882849442784 a36.00889370389409,36.00889370389409 0 0,0 -0.5336726023512212,0.3153031802092695 l -7.523085097954759 -12.987304601945803" fill="#ffba11" stroke="none" /><path d="M 110.21172684928248 118.3499491758327 l 10.717284242938861 19.258409871656408 a43.03965817177432,43.03965817177432 0 0,0 -0.6504669375567748,0.35468643769950153 l -10.384194493513437 -19.44003696111568" fill="#ecff1a" stroke="none" /><path d="M 109.89434966115114 118.52300852407294 l 10.133106225092657 18.969979777416786 a42.50674253634458,42.50674253634458 0 0,0 -0.6483474446835786,0.3391847402658374 l -9.805067877882584 -19.14159393662734" fill="#f2ff19" stroke="none" /><path d="M 108.92500713936063 119.00905698771935 l 9.752017212440013 20.770476487234745 a43.945904497720235,43.945904497720235 0 0,0 -0.6875064801166478,0.31560050495810316 l -9.393042736555945 -20.935264062526922" fill="#e1ff1b" stroke="none" /><path d="M 107.59598834532513 119.57807347666477 l 8.182841480237256 21.09064212119038 a43.62242426829674,43.62242426829674 0 0,0 -0.7023828898924194,0.26558110844251 l -7.818588369584562 -21.228371479739522" fill="#e5ff1a" stroke="none" /><path d="M 107.2578585660854 119.70592522655815 l 5.165716681849274 14.025518098378996 a35.94656437998688,35.94656437998688 0 0,0 -0.5824720343368315,0.20885374815083715 l -4.923525086882708 -14.112359387569793" fill="#ffb911" stroke="none" /><path d="M 106.2309692047433 120.05430185196036 l 4.253775941249496 13.690728349529456 a35.33634027564087,35.33634027564087 0 0,0 -0.5824186514806842,0.17547796203808055 l -4.017482315328566 -13.761921680673263" fill="#ffb210" stroke="none" /><path d="M 105.53697534728816 120.25689768951611 l 6.314823316020361 23.102636695438065 a44.95013185337308,44.95013185337308 0 0,0 -0.7481190799827252,0.19758504857194567 l -5.916213793226137 -23.207913093313596" fill="#d5ff1c" stroke="none" /><path d="M 104.83641907484287 120.43548508189849 l 6.5377527061642455 27.62418761246443 a49.38728503565621,49.38728503565621 0 0,0 -0.8289534691076305,0.18866711072810896 l -6.061279087663753 -27.73263145677022" fill="#a2ff22" stroke="none" /><path d="M 104.13013068566511 120.58985236759428 l 2.958248775245713 14.747694488296084 a36.04146696756541,36.04146696756541 0 0,0 -0.6093279996109461,0.11677916133829958 l -2.7039531610630627 -14.796430847982851" fill="#ffbb11" stroke="none" /><path d="M 103.41894727170886 120.7198165907248 l 1.78129401596139 10.795160723969923 a31.941138123049296,31.941138123049296 0 0,0 -0.5432490006228557,0.08484432141731328 l -1.595209151730017 -10.824223352734341" fill="#ff840c" stroke="none" /><path d="M 103.06178313531738 120.77559828337769 l 3.024250272308553 20.520920649517265 a41.742571538103526,41.742571538103526 0 0,0 -0.7117533999111068,0.09864253571592897 l -2.6705682812106155 -20.5699377507258" fill="#fcff18" stroke="none" /><path d="M 102.34483914955558 120.86867818915974 l 2.964789942704033 26.38613707233356 a47.55217898787846,47.55217898787846 0 0,0 -0.8142006440198609,0.08439522581824026 l -2.5101567020785693 -26.43326166660756" fill="#b7ff1f" stroke="none" /><path d="M 101.62511606390274 120.93702456842531 l 1.5968484564935064 20.572841600843137 a41.63472162464005,41.63472162464005 0 0,0 -0.7150014791641883,0.049310688209924736 l -1.2424842165503878 -20.597280633569348" fill="#fdff18" stroke="none" /><path d="M 101.26447882468166 120.96189622390904 l 2.1584724156102406 35.782073922497574 a56.84711728108735,56.84711728108735 0 0,0 -0.9772613149890861,0.050513247308422 l -1.542223032207675 -35.8139269765682" fill="#52ff2b" stroke="none" /><line stroke="#e1ed5e" stroke-width="0.3" x1="102.19456741930631" x2="102.32365962044197" y1="184.97166512339345" y2="189.96999836594603" /><path d="M 102.22038585953345 185.97133177190398 a86.0,86.0 0 0,1 -42.740103519485714,-10.115201625700543" fill="none" id="id19" stroke="none" /><text fill="#e1ed5e" style="font-size:6.75px; font-family:Arial;" text-anchor="middle"><textPath startOffset="22.20632615414155" xlink:href="#id19">July</textPath></text><path d="M 100.54218724476979 120.99299961872073 l 0.5122293203821461 19.833055888368694 a40.83966947173806,40.83966947173806 0 0,0 -0.7029096570736165,0.012101227199976175 l -0.17075997341586163 -19.83893459284783" fill="#fff717" stroke="none" /><path d="M 100.18074693466247 120.99922214144158 l 0.30016444520778085 34.873177106166466 a55.874468887313824,55.874468887313824 0 0,0 -0.9618227597404487,0.0 l 0.30016444520775687 -34.873177106166466" fill="#5cff2a" stroke="none" /><path d="M 99.09653310690486 120.98055641714683 l -0.6885226747284596 15.989062722748967 a37.00388047398555,37.00388047398555 0 0,0 -0.6361353507671382,-0.03288093143775973 l 0.9636460939090868 -15.974841984549006" fill="#ffc712" stroke="none" /><path d="M 98.73552117531835 120.96189622390904 l -1.3271288192539077 22.00047643499545 a43.040468104595334,43.040468104595334 0 0,0 -0.7391426472392275,-0.050975604502633914 l 1.7056342272720653 -21.974372485976527" fill="#ecff1a" stroke="none" /><path d="M 98.37488393609728 120.93702456842531 l -1.4317680688847618 18.446044501300058 a39.501527438214936,39.501527438214936 0 0,0 -0.6774618840362624,-0.05845426196559155 l 1.749074270662566 -18.418665987055803" fill="#ffe715" stroke="none" /><path d="M 98.01472825383883 120.90594882070398 l -1.32841788557263 13.988934452923258 a35.05186753449137,35.05186753449137 0 0,0 -0.6001670949286555,-0.06220977332454811 l 1.5690175771068788 -13.96399531114295" fill="#ffae10" stroke="none" /><path d="M 97.2962882734958 120.8252237178851 l -2.0087781072634248 15.472527293965452 a36.602380919165086,36.602380919165086 0 0,0 -0.6241079096019856,-0.08649566938660737 l 2.2748146080522416 -15.43565705908624" fill="#ffc212" stroke="none" /><path d="M 96.58105272829116 120.7198165907248 l -2.5505757570207193 15.457232208148195 a36.66625239899178,36.66625239899178 0 0,0 -0.6218439763888732,-0.10811554613586373 l 2.8162687048816424 -15.411038083491325" fill="#ffc312" stroke="none" /><path d="M 95.86986931433489 120.58985236759428 l -4.766143209569443 23.760552030097234 a45.23385965687436,45.23385965687436 0 0,0 -0.7621012275765208,-0.15970572201010588 l 5.174435898575351 -23.674990327360586" fill="#d2ff1c" stroke="none" /><path d="M 95.16358092515715 120.4354850818985 l -7.9055077043992155 33.40340906320926 a55.326153135887594,55.326153135887594 0 0,0 -0.924860206007022,-0.227308136899508 l 8.479321195149447 -33.262379667995724" fill="#62ff29" stroke="none" /><path d="M 94.81253420990036 120.34920634021253 l -7.254248981822702 28.45670995192267 a50.36679195244401,50.36679195244401 0 0,0 -0.8382702453478358,-0.2213947907160633 l 7.743009669982027 -28.327623811903024" fill="#97ff23" stroke="none" /><path d="M 94.11515582081647 120.15858648285463 l -5.435724264176555 18.620122188444604 a40.397320654893676,40.397320654893676 0 0,0 -0.6658344592486027,-0.2006104606482493 l 5.755433697865404 -18.52379635869063" fill="#fff216" stroke="none" /><path d="M 93.76903079525671 120.05430185196036 l -12.1042937626437 38.95752857132898 a61.794643764571454,61.794643764571454 0 0,0 -1.0130750874214842,-0.3243546511355345 l 12.773090195156124 -38.74340107353373" fill="#31ff41" stroke="none" /><path d="M 93.08242187328487 119.8279376855182 l -9.381698833201611 26.89087661050435 a49.48044097057253,49.48044097057253 0 0,0 -0.8017726758905379,-0.2874871558688939 l 9.843191069721875 -26.725401913595498" fill="#a1ff22" stroke="none" /><path d="M 92.7421414339146 119.70592522655815 l -6.043221942058333 16.40804634498795 a38.48555164415031,38.48555164415031 0 0,0 -0.619671956255013,-0.2343069106341027 l 6.324764119073628 -16.301591184247215" fill="#ffda14" stroke="none" /><path d="M 90.7491055286396 118.85261126421891 l -12.569677632194576 25.616036033050122 a49.53380622741759,49.53380622741759 0 0,0 -0.7622217104756828,-0.3821937890956538 l 13.008753250353019 -25.395874403045166" fill="#a0ff22" stroke="none" /><line stroke="#e1ed5e" stroke-width="0.3" x1="58.666819895761336" x2="56.23545636021788" y1="174.27360380694188" y2="178.64263932499728" /><path d="M 58.180547188652646 175.14741091055294 a86.0,86.0 0 0,1 -31.652253787137756,-30.449443065178592" fill="none" id="id20" stroke="none" /><text fill="#e1ed5e" style="font-size:6.75px; font-family:Arial;" text-anchor="middle"><textPath startOffset="22.20632615414155" xlink:href="#id20">August</textPath></text><path d="M 89.4739219176387 118.17145234162733 l -7.299959951782264 12.602117647396582 a35.56374898494372,35.56374898494372 0 0,0 -0.5270753005141071,-0.31140537799705564 l 7.515803123324753 -12.474593697105776" fill="#ffb410" stroke="none" /><path d="M 88.8546689885994 117.79835938074946 l -14.124791639277122 22.556361719261947 a47.61389097563862,47.61389097563862 0 0,0 -0.6908961455062311,-0.44096260868181864 l 14.510969586830276 -22.309884681756323" fill="#b6ff1f" stroke="none" /><path d="M 88.24862548938628 117.40417183066458 l -12.075263310077899 17.883861786491543 a42.57879738090253,42.57879738090253 0 0,0 -0.6038953171875585,-0.4153647057730948 l 12.381315511888348 -17.673356291353347" fill="#f1ff19" stroke="none" /><path d="M 87.95078237400918 117.19931262002967 l -7.926021903294933 11.313774286383369 a34.8138811278634,34.8138811278634 0 0,0 -0.4878463727355985,-0.3480654338222935 l 8.119595603879418 -11.175664590716856" fill="#ffab0f" stroke="none" /><path d="M 87.07902340077011 116.55440617244103 l -13.484645439969889 17.276580914009344 a42.91611075715791,42.91611075715791 0 0,0 -0.5784325519774064,-0.4595418024802099 l 13.780035484664653 -17.041905197524002" fill="#edff19" stroke="none" /><path d="M 86.51685102203217 116.09983520530335 l -15.813959217328689 18.88298777669911 a45.63023616416016,45.63023616416016 0 0,0 -0.597831108604884,-0.5094846404220088 l 16.13665580251063 -18.60797874605415" fill="#cdff1d" stroke="none" /><path d="M 85.97065885151581 115.62618273729859 l -28.673232057765073 31.93686425196205 a63.919896725023676,63.919896725023676 0 0,0 -0.8123928206638544,-0.7421015800285622 l 29.218724427895783 -31.43856990534691" fill="#34ff5a" stroke="none" /><path d="M 85.44109423537348 115.13401014063109 l -15.284511384495636 15.888278557964982 a43.046625224697465,43.046625224697465 0 0,0 -0.529576079850568,-0.5183016551235938 l 15.555737416721998 -15.622826799918819" fill="#ecff1a" stroke="none" /><path d="M 85.18274418774928 114.88116024355367 l -16.820902321572195 16.89344815667707 a44.83970103701405,44.83970103701405 0 0,0 -0.5422601165741355,-0.5493066351827102 l 17.109203063201864 -16.601401027513695" fill="#d6ff1c" stroke="none" /><path d="M 84.9287848128048 114.62390073753433 l -21.120180204318363 20.493332158723494 a50.428535043910216,50.428535043910216 0 0,0 -0.5991232912862978,-0.6281783756503291 l 21.469810046983618 -20.126746666490664" fill="#96ff23" stroke="none" /><path d="M 84.43433777217949 114.09645910891817 l -14.424866275505615 13.063339974116161 a40.46092542366782,40.46092542366782 0 0,0 -0.4630678743151009,-0.5202616657418514 l 14.647592999469055 -12.813104138633445" fill="#fff316" stroke="none" /><path d="M 84.19399662182784 113.82643327865904 l -35.32803101112538 30.903489766190894 a67.93714365885617,67.93714365885617 0 0,0 -0.7623760372178823,-0.8868155664021666 l 35.85474955791404 -30.2907971006272" fill="#39ff89" stroke="none" /><path d="M 83.72743513129214 113.27417163493432 l -17.341805480430406 14.146393286134563 a43.37987176744047,43.37987176744047 0 0,0 -0.4670196182845396,-0.5826787813590107 l 17.582743010769807 -13.845786671197292" fill="#e8ff1a" stroke="none" /><path d="M 83.50135304334701 112.99209946851258 l -21.21672477054573 16.707418453113252 a48.005318760505645,48.005318760505645 0 0,0 -0.5056404403379721,-0.653608430154118 l 21.501172028101774 -16.339732028845884" fill="#b2ff20" stroke="none" /><path d="M 83.28015986056508 112.70617746262583 l -15.38992396737866 11.695512841933237 a40.32963477041202,40.32963477041202 0 0,0 -0.41527757797160714,-0.5563321793848547 l 15.588962812045352 -11.428867783039074" fill="#fff116" stroke="none" /><path d="M 83.06392112726016 112.41649034213515 l -24.824218480012018 18.199588660645986 a51.78094947463583,51.78094947463583 0 0,0 -0.5208182332867028,-0.7233709739852712 l 25.133816505674325 -17.769584081209576" fill="#88ff25" stroke="none" /><path d="M 82.85270091963577 112.12312394758628 l -12.603274780607812 8.91050314074019 a36.435012193602105,36.435012193602105 0 0,0 -0.3576514457678919,-0.5152235825339471 l 12.754787133537839 -8.69223829601923" fill="#ffc011" stroke="none" /><path d="M 82.6465618267979 111.8261652097733 l -37.190594787181105 25.34495549603127 a66.00563419973224,66.00563419973224 0 0,0 -0.6317584523591177,-0.9443931681644454 l 37.621356344950954 -24.701025413661004" fill="#36ff73" stroke="none" /><path d="M 82.05923443525364 110.91462005526583 l -17.805227919944667 10.832163044674095 a41.841350664186336,41.841350664186336 0 0,0 -0.36903896807732367,-0.61853053757938 l 17.989047763720222 -10.524070413208603" fill="#faff18" stroke="none" /><line stroke="#e1ed5e" stroke-width="0.3" x1="26.63291911575756" x2="22.317208475507996" y1="142.92168965132927" y2="145.44649492493687" /><path d="M 25.769776987707644 143.4266507060508 a86.0,86.0 0 0,1 -11.730757126820373,-40.83630448921669" fill="none" id="id21" stroke="none" /><text fill="#e1ed5e" style="font-size:6.75px; font-family:Arial;" text-anchor="middle"><textPath startOffset="21.46611528233685" xlink:href="#id21">September</textPath></text><path d="M 81.51974371655577 109.97397251340807 l -12.815650052567841 6.916729909221013 a35.563036733696535,35.563036733696535 0 0,0 -0.28610885028877475,-0.5412101218109499 l 12.932811411081502 -6.695104772323937" fill="#ffb410" stroke="none" /><path d="M 81.02952815118164 109.00673069616217 l -19.828239569988693 9.413978492949205 a42.94953474474062,42.94953474474062 0 0,0 -0.3113337801461579,-0.6705852648814872 l 19.987347966974678 -9.071273160788891" fill="#edff1a" stroke="none" /><path d="M 80.87730276802145 108.67885076344099 l -28.24141741089588 12.817388890481835 a52.0139180908556,52.0139180908556 0 0,0 -0.3630049244891359,-0.8184802742217092 l 28.457863420116297 -12.32936027976743" fill="#85ff25" stroke="none" /><path d="M 80.58989483394504 108.01547362559985 l -34.85883638107154 14.395083449636386 a58.71414723103669,58.71414723103669 0 0,0 -0.3777203712866614,-0.9374709849112953 l 35.10145936661559 -13.792913096882286" fill="#3fff2d" stroke="none" /><path d="M 80.32549172779594 107.34259656027581 l -28.03740303595993 10.463658671548767 a50.92631153008223,50.92631153008223 0 0,0 -0.2994363785930983,-0.8239203110808674 l 28.213363675558252 -9.979490563461784" fill="#91ff24" stroke="none" /><path d="M 80.20201598880116 107.00284435728193 l -8.123884944577831 2.8735401448533437 a29.617118982399056,29.617118982399056 0 0,0 -0.16586879777978517,-0.4820923678112449 l 8.172144573300844 -2.733275073952802" fill="#ff6509" stroke="none" /><path d="M 80.0844068197444 106.66101706037122 l -21.609623439094687 7.227606483682963 a43.78627044214227,43.78627044214227 0 0,0 -0.2329174146421643,-0.7168460925656145 l 21.7308331047531 -6.8545614911395445" fill="#e3ff1b" stroke="none" /><path d="M 79.86692584326677 105.97154293290107 l -30.179326963505485 8.951298010709456 a52.478842292033235,52.478842292033235 0 0,0 -0.24941785087799237,-0.8682562594542953 l 30.32893745126958 -8.430484275750565" fill="#80ff25" stroke="none" /><path d="M 79.76711848015287 105.62410040840567 l -24.26802256701318 6.745741850781528 a46.188131181777784,46.188131181777784 0 0,0 -0.2063332112543345,-0.7678426369160112 l 24.38054385460929 -6.327008280689977" fill="#c7ff1e" stroke="none" /><path d="M 79.67330655649465 105.27499134158121 l -8.526272908535173 2.212657749450732 a29.808699337985445,29.808699337985445 0 0,0 -0.12461269225978577,-0.4977657619811853 l 8.563096915090016 -2.0655641480721547" fill="#ff6709" stroke="none" /><path d="M 79.58551787078972 104.9243191809786 l -32.92521569906067 7.942120215371551 a54.86956011443144,54.86956011443144 0 0,0 -0.21357175197109565,-0.9200615177994219 l 33.05704801696232 -7.374190040223555" fill="#67ff28" stroke="none" /><path d="M 79.35854240842038 103.8639653848113 l -32.13434631295694 6.015369857768949 a53.6925203599662,53.6925203599662 0 0,0 -0.16223721126739998,-0.9099124391422444 l 32.23312996656353 -5.461338667893491" fill="#73ff27" stroke="none" /><path d="M 79.29508885075956 103.50808413554451 l -12.682185058198794 2.148773877174495 a33.86293306464852,33.86293306464852 0 0,0 -0.0924268531165092,-0.5755421025848331 l 12.717293665676593 -1.9301525448964485" fill="#ff9e0e" stroke="none" /><path d="M 79.23777060512086 103.15116336523772 l -25.287072680624732 3.8379162242057556 a46.57666212974671,46.57666212974671 0 0,0 -0.11348281515941547,-0.7936985449128028 l 25.349389546800744 -3.402072207312552" fill="#c2ff1e" stroke="none" /><path d="M 79.18660465613746 102.79330883721812 l -21.5800118004375 2.896194334155514 a42.77348963598202,42.77348963598202 0 0,0 -0.0916544037078464,-0.7305757771237278 l 21.626667713392195 -2.524300802744378" fill="#efff19" stroke="none" /><path d="M 79.1416061653843 102.43462659150553 l -62.5751815038471 7.303879774516597 a84.0,84.0 0 0,0 -0.15527079399579247,-1.4376147124608716 l 62.69163459934394 -6.225668740170943" fill="#4dd2ff" stroke="none" /><path d="M 79.07016306316243 101.71520430193888 l -24.91405985924368 2.0417121632766198 a45.99757922735017,45.99757922735017 0 0,0 -0.05787687315697497,-0.7896839508370626 l 24.945513291064987 -1.6125550759427965" fill="#c9ff1d" stroke="none" /><path d="M 79.04373962182676 101.35467743843564 l -30.991761267416305 2.0034032317178236 a52.056446850297974,52.056446850297974 0 0,0 -0.05010717860351345,-0.8946973340644554 l 31.02165479690735 -1.4696341813179306" fill="#85ff25" stroke="none" /><path d="M 79.0235259727143 100.99374915477108 l -6.490347634643906 0.30747672214634997 a27.497626824709897,27.497626824709897 0 0,0 -0.018328958438073552,-0.47298897439064186 l 6.494678725933181 -0.19571050074171129" fill="#ff4706" stroke="none" /><path d="M 79.0095281055655 100.63252640178507 l -35.04707473432434 1.0561077514733042 a56.06298348709131,56.06298348709131 0 0,0 -0.020764493869240872,-0.9648444375916493 l 35.06006129087859 -0.4526734980915259" fill="#5aff2a" stroke="none" /><line stroke="#e1ed5e" stroke-width="0.3" x1="15.007084014347285" x2="10.007500721073583" y1="101.09737516637583" y2="101.16192664675087" /><path d="M 14.007167355692545 101.11028546245083 a86.0,86.0 0 0,1 10.666146001902534,-42.60595125391555" fill="none" id="id22" stroke="none" /><text fill="#e1ed5e" style="font-size:6.75px; font-family:Arial;" text-anchor="middle"><textPath startOffset="22.20632615414155" xlink:href="#id22">October</textPath></text><path d="M 79.00175016825051 100.2711162175752 l -16.465225036845023 0.21258864759120996 a37.466597385223,37.466597385223 0 0,0 -0.002775566052632892,-0.6449438018436701 l 16.46644490018716 0.07086463245613553" fill="#ffcd13" stroke="none" /><path d="M 79.00019446554 99.90962569577889 l -56.88396162965263 -0.2448045742702138 a77.88448839502186,77.88448839502186 0 0,0 0.01730887395142537,-1.340591362586207 l 56.871319748583495 1.2239321949168926" fill="#45fff2" stroke="none" /><path d="M 79.00486145842228 99.54816195383935 l -8.023372412893735 -0.17267163574471586 a29.025230237804706,29.025230237804706 0 0,0 0.01504931311068893,-0.49941343632293184 l 8.0192114053274 0.3107552194926421" fill="#ff5c08" stroke="none" /><path d="M 79.01574976396665 99.18683210126434 l -50.37715235153496 -1.952182358731117 a71.41496300714209,71.41496300714209 0 0,0 0.05817392072335061,-1.227959522038461 l 50.336084822578115 2.819052987392587" fill="#3dffaf" stroke="none" /><path d="M 79.03285615573316 98.82574320788736 l -14.422543088210144 -0.8077289547235529 a35.445143654376615,35.445143654376615 0 0,0 0.03935999056113034,-0.6088816328364877 l 14.4065025066446 1.0558696518130524" fill="#ffb310" stroke="none" /><path d="M 79.05617556472873 98.46500227214037 l -6.7663470111479205 -0.495913595920446 a27.784495719645577,27.784495719645577 0 0,0 0.039064360854167125,-0.476684148818493 l 6.756808166474256 0.6123116619467174" fill="#ff4b07" stroke="none" /><path d="M 79.08570108090925 98.10471618934814 l -49.10322992042565 -4.449805230332072 a70.30444153629645,70.30444153629645 0 0,0 0.11959412995153429,-1.204296567655507 l 49.01935866479188 5.2943773286920095" fill="#3cffa3" stroke="none" /><line stroke="#e1ed5e" stroke-width="0.3" x1="26.266209847984243" x2="21.928928074336255" y1="57.711370442889674" y2="55.22380399835377" /><path d="M 25.398753493254645 57.213857153982495 a86.0,86.0 0 0,1 29.58750427330803,-30.492523968695096" fill="none" id="id23" stroke="none" /><text fill="#e1ed5e" style="font-size:6.75px; font-family:Arial;" text-anchor="middle"><textPath startOffset="21.46611528233685" xlink:href="#id23">November</textPath></text><line stroke="#e1ed5e" stroke-width="0.3" x1="56.762969772571076" x2="54.21961505331055" y1="26.818313649435495" y2="22.513508569990535" /><path d="M 56.25429882871897 25.957352633546506 a86.0,86.0 0 0,1 42.265352541879196,-11.944610805530505" fill="none" id="id24" stroke="none" /><text fill="#e1ed5e" style="font-size:6.75px; font-family:Arial;" text-anchor="middle"><textPath startOffset="22.20632615414155" xlink:href="#id24">December</textPath></text></svg>