<?xml version="1.0" encoding="utf-8" ?>
<svg baseProfile="full" height="200mm" version="1.1" viewBox="0,0,200,200" width="200mm" xmlns="http://www.w3.org/2000/svg" xmlns:ev="http://www.w3.org/2001/xml-events" xmlns:xlink="http://www.w3.org/1999/xlink"><defs /><rect fill="#1a1a1a" height="200" width="200" x="0" y="0" /><text alignment-baseline="middle" fill="#e1ed5e" style="dominant-baseline: central; font-size:9.0px; font-family:Arial;" text-anchor="middle" x="100.0" y="100.0">2022</text><line stroke="#e1ed5e" stroke-width="0.3" x1="100.0" x2="100.0" y1="15.0" y2="10.0" /><path d="M 100.0 14.0 a86.0,86.0 0 0,1 42.46469731375804,11.215312516191453" fill="none" id="id13" stroke="none" /><text fill="#e1ed5e" style="font-size:6.75px; font-family:Arial;" text-anchor="middle"><textPath startOffset="22.20632615414155" xlink:href="#id13">January</textPath></text><path d="M 100.36148047927253 79.00311137660856 l 0.07100483650926952 -4.124373871882696 a25.124985032927558,25.124985032927558 0 0,0 0.4323571610489341,0.011166509892019803 l -0.14198863275307147 4.122540569848317" fill="#ff1b02" stroke="none" /><path d="M 100.72285384407766 79.0124445844662 l 0.22418422651787914 -6.509032103628234 a27.51289163839553,27.51289163839553 0 0,0 0.47316824012787856,0.020375619755739163 l -0.33619329903508927 6.5042087573483" fill="#ff3e05" stroke="none" /><path d="M 109.41281617654863 81.2277094730956 l 4.784738647955427 -9.54236248855136 a31.6747555378168,31.6747555378168 0 0,0 0.485286685832502,0.24858268912054646 l -4.948285821376685 9.458587274118313" fill="#ff780b" stroke="none" /><line stroke="#e1ed5e" stroke-width="0.3" x1="143.23703022742887" x2="145.7803849466894" y1="26.81831364943548" y2="22.513508569990506" /><path d="M 143.74570117128098 25.957352633546492 a86.0,86.0 0 0,1 28.547481713284135,27.462654790039103" fill="none" id="id14" stroke="none" /><text fill="#e1ed5e" style="font-size:6.75px; font-family:Arial;" text-anchor="middle"><textPath startOffset="19.985693538727396" xlink:href="#id14">February</textPath></text><path d="M 110.68208982089419 81.91981866633111 l 6.152274062580661 -10.413152532036536 a33.09480143683896,33.09480143683896 0 0,0 0.4879717112304941,0.29399749606362957 l -6.330607840028792 10.305708426514292" fill="#ff8c0c" stroke="none" /><path d="M 112.77801427241765 83.33499621200491 l 8.385141554977242 -10.935847526654216 a34.78054280582718,34.78054280582718 0 0,0 0.4719677339783157,0.3683783025982232 l -8.572141844114988 10.78989083483277" fill="#ffa20f" stroke="none" /><path d="M 113.34407831869373 83.78471172551755 l 2.591589906157001 -3.149215435786533 a25.07846737178208,25.07846737178208 0 0,0 0.3309670579383855,0.2771753929203564 l -2.645414501054504 3.104138885472357" fill="#ff1a02" stroke="none" /><path d="M 115.9244219780498 86.31012108654704 l 1.9115026581115457 -1.6432772233969173 a23.520754340451006,23.520754340451006 0 0,0 0.26129249287638284,0.30928789567085196 l -1.9395057644750457 1.610130378096959" fill="#ff0300" stroke="none" /><path d="M 116.15771136456269 86.58626213691792 l 3.4851451463555354 -2.893282492379217 a25.529604869287567,25.529604869287567 0 0,0 0.27778824806312685,0.34053554607321707 l -3.534431886495071 2.832862776697899" fill="#ff2103" stroke="none" /><path d="M 116.38621287248628 86.86637796730983 l 9.063429835966197 -7.264379067432791 a32.615376172420675,32.615376172420675 0 0,0 0.3473474186121305,0.4410959479547767 l -9.18713133517229 7.107290725524976" fill="#ff850c" stroke="none" /><path d="M 116.60985879189232 87.15038557335679 l 7.102695154513445 -5.49474232556597 a29.98000399121932,29.98000399121932 0 0,0 0.3122546754788938,0.41089055084858556 l -7.1962257702164525 5.371666998836352" fill="#ff6108" stroke="none" /><path d="M 117.45458315368197 88.32363383020206 l 8.522824597970272 -5.701403461237596 a31.254001197365795,31.254001197365795 0 0,0 0.29528090457546746,0.4497330757268615 l -8.619702137903664 5.553852321533061" fill="#ff720a" stroke="none" /><path d="M 117.65298651832404 88.62581576622439 l 2.7212231961842765 -1.753340373454395 a24.237168229894234,24.237168229894234 0 0,0 0.22295009748380118,0.35265351263765204 l -2.7510008899140335 1.706239213102537" fill="#ff0e01" stroke="none" /><line stroke="#e1ed5e" stroke-width="0.3" x1="172.23445277983987" x2="176.4835382374775" y1="55.19839476539836" y2="52.563006222186495" /><path d="M 173.08426987136738 54.67131705675599 a86.0,86.0 0 0,1 12.851231095245387,41.99856678651699" fill="none" id="id15" stroke="none" /><text fill="#e1ed5e" style="font-size:6.75px; font-family:Arial;" text-anchor="middle"><textPath startOffset="22.20632615414155" xlink:href="#id15">March</textPath></text><path d="M 118.03404312379186 89.2402003453031 l 4.702131120213582 -2.8054712111044173 a26.47546397924566,26.47546397924566 0 0,0 0.2301352292057441,0.39337570614321465 l -4.749726023889653 2.724116092607307" fill="#ff2f04" stroke="none" /><path d="M 118.21658344932153 89.55222093294921 l 5.009651331538124 -2.8731913676610152 a26.775104769507085,26.775104769507085 0 0,0 0.22585739111965294,0.40177509695691577 l -5.05836636395021 2.7865327607693056" fill="#ff3304" stroke="none" /><path d="M 118.73160827565052 90.50648371742162 l 15.6149692016486 -7.9139474937937715 a38.505936938734784,38.505936938734784 0 0,0 0.2945520576692971,0.5937989744511124 l -15.748881272271305 7.643988930843709" fill="#ffd313" stroke="none" /><path d="M 118.89224826269711 90.83032412892265 l 10.79810182582135 -5.241043436909321 a33.002813809618836,33.002813809618836 0 0,0 0.24365789815940644,0.5132056740349592 l -10.886717917822512 5.054395347233822" fill="#ff8b0c" stroke="none" /><path d="M 119.47837535516314 92.15188598940014 l 6.102978093469142 -2.4589765320978434 a27.579734583915386,27.579734583915386 0 0,0 0.17362946688306433,0.44186805454611816 l -6.144401110233907 2.353559472655941" fill="#ff3f05" stroke="none" /><path d="M 119.85752413597 93.16781622104841 l 2.174182921013756 -0.7480498164681268 a23.299271602474555,23.299271602474555 0 0,0 0.12721702548029906,0.38036271369745694 l -2.186737240265825 0.710513999848356" fill="#ff0000" stroke="none" /><path d="M 120.28053869075195 94.5502522615342 l 4.950944518139467 -1.3304083832498925 a26.12658152065456,26.12658152065456 0 0,0 0.11297092560785711,0.43532306010792293 l -4.973111775617626 1.2449888975931191" fill="#ff2a04" stroke="none" /><path d="M 120.37134235888165 94.90015583598534 l 5.927446762396204 -1.4839009745243572 a27.110367192177208,27.110367192177208 0 0,0 0.10943190051341968,0.45366587649844714 l -5.952111463170443 1.381649866366504" fill="#ff3805" stroke="none" /><path d="M 120.67395015179393 96.31383870115 l 2.4750155051010148 -0.44129478411097806 a23.514049091997606,23.514049091997606 0 0,0 0.06761760251370598,0.39908291764890547 l -2.482244969134944 0.3986260781462347" fill="#ff0300" stroke="none" /><line stroke="#e1ed5e" stroke-width="0.3" x1="184.98032266829074" x2="189.97916517819016" y1="98.17113171792111" y2="98.06355123074" /><path d="M 185.9800911702706 98.14961562048488 a86.0,86.0 0 0,1 -9.607161424134198,41.387399972396054" fill="none" id="id16" stroke="none" /><text fill="#e1ed5e" style="font-size:6.75px; font-family:Arial;" text-anchor="middle"><textPath startOffset="21.466115282336823" xlink:href="#id16">April</textPath></text><line stroke="#e1ed5e" stroke-width="0.3" x1="174.80103733775053" x2="179.2010983576182" y1="140.37084112569926" y2="142.7455964860345" /><path d="M 175.68104954172406 140.8457921977663 a86.0,86.0 0 0,1 -30.038265399797805,32.042727171017184" fill="none" id="id17" stroke="none" /><text fill="#e1ed5e" style="font-size:6.75px; font-family:Arial;" text-anchor="middle"><textPath startOffset="22.206326154141568" xlink:href="#id17">May</textPath></text><path d="M 112.92097659922987 116.55440617244103 l 3.7859157636837493 4.850530206083924 a27.15311315106765,27.15311315106765 0 0,0 -0.37092609976222923,0.2844103161973665 l -3.7018609354280265 -4.914979864108663" fill="#ff3905" stroke="none" /><path d="M 112.63410532772338 116.77436683061366 l 4.0361819025914905 5.358859537175789 a27.708810616643383,27.708810616643383 0 0,0 -0.3834569912867722,0.2836723149920092 l -3.943339940886154 -5.427541800907567" fill="#ff4106" stroke="none" /><path d="M 112.04921762599082 117.19931262002967 l 3.4322596765793856 4.89928134780091 a26.98191977649172,26.98191977649172 0 0,0 -0.38268471643265384,0.26321403746792615 l -3.3474180755238483 -4.95763617463393" fill="#ff3605" stroke="none" /><line stroke="#e1ed5e" stroke-width="0.3" x1="143.8653032363475" x2="146.44561519142675" y1="172.8068346515853" y2="177.08958963109032" /><path d="M 144.38136562736335 173.6633856474863 a86.0,86.0 0 0,1 -40.68145358897372,12.25698825130547" fill="none" id="id18" stroke="none" /><text fill="#e1ed5e" style="font-size:6.75px; font-family:Arial;" text-anchor="middle"><textPath startOffset="21.466115282336833" xlink:href="#id18">June</textPath></text><path d="M 110.8373102113329 117.98757091392108 l 5.746521046204886 9.537971398000339 a32.13532229095989,32.13532229095989 0 0,0 -0.476264036752597,0.2813851877458191 l -5.5814891384239065 -9.635475158039908" fill="#ff7f0b" stroke="none" /><path d="M 110.21172684928248 118.3499491758327 l 7.263042322327932 13.051314380388453 a35.93615046896827,35.93615046896827 0 0,0 -0.5431102089574424,0.2961469894486889 l -7.037309301501841 -13.174402021596912" fill="#ffb210" stroke="none" /><path d="M 109.89434966115114 118.52300852407294 l 7.511491714418512 14.062109165292004 a36.94256635402115,36.94256635402115 0 0,0 -0.5634780993910269,0.2947851099817467 l -7.268322712500989 -14.189323694218466" fill="#ffbf11" stroke="none" /><path d="M 108.92500713936063 119.00905698771935 l 5.6606381341680185 12.05639291925157 a34.31913789662742,34.31913789662742 0 0,0 -0.5369016741292054,0.24646522522853684 l -5.452268464271394 -12.152045214814182" fill="#ff9c0e" stroke="none" /><path d="M 107.59598834532513 119.57807347666477 l 6.07163674283881 15.649174915871706 a37.78575134703652,37.78575134703652 0 0,0 -0.6084041791133623,0.2300464014644928 l -5.801362342965173 -15.75136956744283" fill="#ffca12" stroke="none" /><path d="M 107.2578585660854 119.70592522655815 l 3.794624557431082 10.302844442438575 a31.979425264418282,31.979425264418282 0 0,0 -0.5181891847516578,0.18580420536383324 l -3.6167158120496894 -10.366636188842367" fill="#ff7d0b" stroke="none" /><path d="M 106.2309692047433 120.05430185196036 l 3.1251835765877773 10.058366961590893 a31.53268808621034,31.53268808621034 0 0,0 -0.5197263080860623,0.1565892732464157 l -2.951582294061469 -10.110671603943036" fill="#ff760a" stroke="none" /><path d="M 105.53697534728816 120.25689768951611 l 4.686097704865637 17.14398129242733 a38.77288964278587,38.77288964278587 0 0,0 -0.6453093090461318,0.17043205364412417 l -4.390297953008008 -17.222104695375037" fill="#ffd714" stroke="none" /><path d="M 104.83641907484287 120.43548508189849 l 4.818467090250552 20.3596319542746 a41.92205148672919,41.92205148672919 0 0,0 -0.7036513545327167,0.16014875739951936 l -4.467295586324973 -20.439557445251804" fill="#ffff18" stroke="none" /><path d="M 104.13013068566511 120.58985236759428 l 2.173078439291625 10.83340156850542 a32.0492017561365,32.0492017561365 0 0,0 -0.5418335500263743,0.1038436894372725 l -1.9862772746935462 -10.869202456291163" fill="#ff7d0b" stroke="none" /><path d="M 103.41894727170886 120.7198165907248 l 1.313302864887008 7.95899799733718 a29.06662342845739,29.06662342845739 0 0,0 -0.49435978355435367,0.07720883116874405 l -1.1761072177241372 -7.9804251358530305" fill="#ff5407" stroke="none" /><path d="M 103.06178313531738 120.77559828337769 l 2.2159586702964544 15.036292615111929 a36.19870285372181,36.19870285372181 0 0,0 -0.6172247870495938,0.08554173132000534 l -1.95680529206003 -15.072208911924537" fill="#ffb510" stroke="none" /><path d="M 102.34483914955558 120.86867818915974 l 2.3427802207473576 20.850354065425496 a41.981560566753146,41.981560566753146 0 0,0 -0.718819082068193,0.07450853693027233 l -1.983528542073562 -20.887591970811528" fill="#ffff18" stroke="none" /><path d="M 101.62511606390274 120.93702456842531 l 1.1771794629323766 15.166076986324134 a36.21169427260028,36.21169427260028 0 0,0 -0.6218707357137137,0.042887846877605905 l -0.9159459664397328 -15.184093177718024" fill="#ffb510" stroke="none" /><path d="M 101.26447882468166 120.96189622390904 l 1.5963824363567358 26.464027954762663 a47.512133306725204,47.512133306725204 0 0,0 -0.8167831913741485,0.04221836136397694 l -1.1406111765691078 -26.487586122888843" fill="#bcff1f" stroke="none" /><line stroke="#e1ed5e" stroke-width="0.3" x1="102.19456741930631" x2="102.32365962044197" y1="184.97166512339345" y2="189.96999836594603" /><path d="M 102.22038585953345 185.97133177190398 a86.0,86.0 0 0,1 -42.740103519485714,-10.115201625700543" fill="none" id="id19" stroke="none" /><text fill="#e1ed5e" style="font-size:6.75px; font-family:Arial;" text-anchor="middle"><textPath startOffset="22.20632615414155" xlink:href="#id19">July</textPath></text><path d="M 100.54218724476979 120.99299961872073 l 0.3757819617736451 14.549937602434255 a35.554789463181,35.554789463181 0 0,0 -0.6119492442558592,0.010535261203301833 l -0.12527302762511794 -14.554250340916717" fill="#ffad10" stroke="none" /><path d="M 100.18074693466247 120.99922214144158 l 0.2200253969455775 25.5626032930925 a46.56355018958291,46.56355018958291 0 0,0 -0.8015446632160483,0.0 l 0.2200253969455599 -25.5626032930925" fill="#c7ff1e" stroke="none" /><path d="M 99.09653310690486 120.98055641714683 l -0.5112854550866476 11.873211312661146 a32.884214727599286,32.884214727599286 0 0,0 -0.5653139941674388,-0.029220276251916623 l 0.7155875176675752 -11.862651229647026" fill="#ff890c" stroke="none" /><path d="M 98.73552117531835 120.96189622390904 l -0.8404078031652354 13.931859365180168 a34.9571841947715,34.9571841947715 0 0,0 -0.6003267809021341,-0.041402049617767535 l 1.0800973448462996 -13.915328971046115" fill="#ffa50f" stroke="none" /><path d="M 98.37488393609728 120.93702456842531 l -1.066152026397324 13.735665818692837 a34.77698064258631,34.77698064258631 0 0,0 -0.5964346281057081,-0.05146288937899134 l 1.3024309722445737 -13.715278677035181" fill="#ffa20f" stroke="none" /><path d="M 98.01472825383883 120.90594882070398 l -0.978393103319165 10.302990602707949 a31.349341448812616,31.349341448812616 0 0,0 -0.5367714906130571,-0.05563855972824966 l 1.1555971905378153 -10.28462267452394" fill="#ff740a" stroke="none" /><path d="M 97.2962882734958 120.8252237178851 l -1.4783546088675246 11.386963026505537 a32.48252843743764,32.48252843743764 0 0,0 -0.5538602247336722,-0.07675998036222191 l 1.6741434247880278 -11.35982848065071" fill="#ff830c" stroke="none" /><path d="M 96.58105272829116 120.7198165907248 l -1.9055292132891741 11.548062216205501 a32.70422071442826,32.70422071442826 0 0,0 -0.5546496116499388,-0.0964329445238168 l 2.1040277964111627 -11.51355069316068" fill="#ff860c" stroke="none" /><path d="M 95.86986931433489 120.58985236759428 l -3.525570546384447 17.575951606941626 a38.92606266214328,38.92606266214328 0 0,0 -0.6558273020381442,-0.1374349876315151 l 3.827589309851978 -17.51266063858357" fill="#ffd914" stroke="none" /><path d="M 95.16358092515715 120.4354850818985 l -5.899929387868061 24.92917117484281 a46.61782079425264,46.61782079425264 0 0,0 -0.7792872791548593,-0.1915298532509603 l 6.328169951766132 -24.82392006327782" fill="#c7ff1e" stroke="none" /><path d="M 94.81253420990036 120.34920634021253 l -5.366972189621347 21.053367661184957 a42.72668130113749,42.72668130113749 0 0,0 -0.7111134981759613,-0.1878115380782805 l 5.728576130608797 -20.957864773803095" fill="#f6ff19" stroke="none" /><path d="M 94.11515582081647 120.15858648285463 l -3.989973677664352 13.667690595788988 a35.2381760127719,35.2381760127719 0 0,0 -0.5808006939571329,-0.1749904847085425 l 4.224649346061731 -13.59698474197472" fill="#ffa90f" stroke="none" /><path d="M 93.76903079525671 120.05430185196036 l -8.9012957597595 28.648716784525696 a50.99970065855119,50.99970065855119 0 0,0 -0.8361003973090803,-0.2676929440380565 l 9.393117502159521 -28.491250993827933" fill="#94ff23" stroke="none" /><path d="M 93.08242187328487 119.8279376855182 l -6.933591678155936 19.873837521309852 a42.04861305128717,42.04861305128717 0 0,0 -0.6813485963810766,-0.2443073654403272 l 7.274659835166738 -19.751542614829567" fill="#feff18" stroke="none" /><path d="M 92.7421414339146 119.70592522655815 l -4.71630452121644 12.80531211713829 a34.64622829774496,34.64622829774496 0 0,0 -0.5578534059907305,-0.2109324245272274 l 4.936028147967454 -12.72223144250443" fill="#ffa10e" stroke="none" /><path d="M 90.7491055286396 118.85261126421891 l -9.251171388975779 18.853175601015884 a42.00062861704251,42.00062861704251 0 0,0 -0.6463018577364242,-0.3240691684755215 l 9.574327154394963 -18.691138591631063" fill="#ffff18" stroke="none" /><line stroke="#e1ed5e" stroke-width="0.3" x1="58.666819895761336" x2="56.23545636021788" y1="174.27360380694188" y2="178.64263932499728" /><path d="M 58.180547188652646 175.14741091055294 a86.0,86.0 0 0,1 -31.652253787137756,-30.449443065178592" fill="none" id="id20" stroke="none" /><text fill="#e1ed5e" style="font-size:6.75px; font-family:Arial;" text-anchor="middle"><textPath startOffset="22.20632615414155" xlink:href="#id20">August</textPath></text><path d="M 89.4739219176387 118.17145234162733 l -5.4512522912663695 9.410643778039729 a31.875493913390542,31.875493913390542 0 0,0 -0.4724132301279232,-0.2791100633160072 l 5.612433392422675 -9.315415142429973" fill="#ff7b0b" stroke="none" /><path d="M 88.8546689885994 117.79835938074946 l -10.451722654604493 16.690712529245424 a40.69310516862902,40.69310516862902 0 0,0 -0.5904728417190314,-0.3768677048406581 l 10.737477298370449 -16.50833039558096" fill="#ffef16" stroke="none" /><path d="M 88.24862548938628 117.40417183066458 l -9.122734381109241 13.511069414980701 a37.302554380363205,37.302554380363205 0 0,0 -0.5290623337224489,-0.36389389738221883 l 9.35395359945458 -13.352034728233381" fill="#ffc412" stroke="none" /><path d="M 87.95078237400918 117.19931262002967 l -5.966659073465101 8.516937604338784 a31.399002195170624,31.399002195170624 0 0,0 -0.43999372756435834,-0.3139238420591442 l 6.112380128878346 -8.41296950043542" fill="#ff740a" stroke="none" /><path d="M 87.07902340077011 116.55440617244103 l -9.957222757051708 12.75723306236246 a37.18311714228697,37.18311714228697 0 0,0 -0.501162033549385,-0.39815342937499054 l 10.175342283318452 -12.583945718982338" fill="#ffc212" stroke="none" /><path d="M 86.51685102203217 116.09983520530335 l -11.64149235893569 13.900766714728633 a39.131620435042905,39.131620435042905 0 0,0 -0.512688559007764,-0.43692431252717606 l 11.87904639452051 -13.698318011978506" fill="#ffdb14" stroke="none" /><path d="M 85.97065885151581 115.62618273729859 l -21.052270863893327 23.448473315501865 a52.51236280183596,52.51236280183596 0 0,0 -0.6674082519223811,-0.6096616140341726 l 21.452778665282562 -23.082618934881115" fill="#84ff25" stroke="none" /><path d="M 85.44109423537348 115.13401014063109 l -11.371838975860395 11.821048172208567 a37.40292356815007,37.40292356815007 0 0,0 -0.4601450992912428,-0.45034882736198756 l 11.573634027527431 -11.62354924192401" fill="#ffc512" stroke="none" /><path d="M 85.18274418774928 114.88116024355367 l -12.35338065648183 12.40665879215851 a38.50803232887647,38.50803232887647 0 0,0 -0.46568932478965647,-0.47174082736682643 l 12.56511060632702 -12.192177470811018" fill="#ffd313" stroke="none" /><path d="M 84.9287848128048 114.62390073753433 l -15.641310744715218 15.177075829292383 a42.79436240271403,42.79436240271403 0 0,0 -0.5084244313043716,-0.5330809835685434 l 15.900241727398546 -14.90558772914134" fill="#f5ff19" stroke="none" /><path d="M 84.43433777217949 114.09645910891817 l -10.709119699365912 9.698313231081787 a35.4479245659549,35.4479245659549 0 0,0 -0.40569499846478707,-0.4558026315183423 l 10.874473547479038 -9.51253642982258" fill="#ffab0f" stroke="none" /><path d="M 84.19399662182784 113.82643327865904 l -26.073439338317495 22.80795851620903 a55.64140890041908,55.64140890041908 0 0,0 -0.6243959421628045,-0.726313543548682 l 26.462177790051076 -22.355767873498817" fill="#62ff29" stroke="none" /><path d="M 83.72743513129214 113.27417163493432 l -12.959112151927554 10.571257839742696 a37.72393733785671,37.72393733785671 0 0,0 -0.40612888185020174,-0.5067082252784393 l 13.139158945832618 -10.346621780885997" fill="#ffc912" stroke="none" /><path d="M 83.50135304334701 112.99209946851258 l -15.595024195277336 12.280528584630469 a40.8498403512273,40.8498403512273 0 0,0 -0.430271723972464,-0.5561842044464905 l 15.804102736467868 -12.010266386070727" fill="#fff116" stroke="none" /><path d="M 83.28015986056508 112.70617746262583 l -11.394415901848593 8.659142032726823 a35.311305128716825,35.311305128716825 0 0,0 -0.3636034234465273,-0.4871062049288658 l 11.541780591990205 -8.46172294828865" fill="#ffaa0f" stroke="none" /><path d="M 83.06392112726016 112.41649034213515 l -18.274978821938777 13.398089354116154 a43.66017760925963,43.66017760925963 0 0,0 -0.4391386561688415,-0.6099251852662592 l 18.502897270483224 -13.081530563398756" fill="#eaff1a" stroke="none" /><path d="M 82.85270091963577 112.12312394758628 l -9.30115219124686 6.575905647961341 a32.39095988824586,32.39095988824586 0 0,0 -0.3179544327386053,-0.45803707452212356 l 9.412967531147599 -6.414827311252204" fill="#ff820c" stroke="none" /><path d="M 82.6465618267979 111.8261652097733 l -28.26487561006603 19.26218224089557 a55.204310516862904,55.204310516862904 0 0,0 -0.5283759515157714,-0.7898503565255564 l 28.592254666992535 -18.772794970164192" fill="#67ff28" stroke="none" /><path d="M 82.05923443525364 110.91462005526583 l -13.906330985493836 8.460191875406263 a37.277619237677115,37.277619237677115 0 0,0 -0.32878704720272856,-0.5510660029073955 l 14.049898908394796 -8.219563778612756" fill="#ffc312" stroke="none" /><line stroke="#e1ed5e" stroke-width="0.3" x1="26.63291911575756" x2="22.317208475507996" y1="142.92168965132927" y2="145.44649492493687" /><path d="M 25.769776987707644 143.4266507060508 a86.0,86.0 0 0,1 -11.730757126820373,-40.83630448921669" fill="none" id="id21" stroke="none" /><text fill="#e1ed5e" style="font-size:6.75px; font-family:Arial;" text-anchor="middle"><textPath startOffset="21.46611528233685" xlink:href="#id21">September</textPath></text><path d="M 81.51974371655577 109.97397251340807 l -9.493858261917884 5.123926849185073 a31.78832568349631,31.78832568349631 0 0,0 -0.2557408519979588,-0.48376531352368934 l 9.580651622140728 -4.9597465205752576" fill="#ff7a0b" stroke="none" /><path d="M 81.02952815118164 109.00673069616217 l -14.726249939077748 6.991674662742211 a37.30171622430653,37.30171622430653 0 0,0 -0.27039371641795784,-0.5824040098099956 l 14.844418272335533 -6.737150585653389" fill="#ffc412" stroke="none" /><path d="M 80.87730276802145 108.67885076344099 l -20.76974495205876 9.42636463083296 a43.808740770305334,43.808740770305334 0 0,0 -0.3057410250754526,-0.689365298271793 l 20.92892706186549 -9.067450996068471" fill="#e8ff1a" stroke="none" /><path d="M 80.58989483394504 108.01547362559985 l -25.55773596011718 10.554160153476424 a48.65118738774696,48.65118738774696 0 0,0 -0.3129832490170743,-0.7767987564909377 l 25.735621823391643 -10.11266202914268" fill="#afff20" stroke="none" /><path d="M 80.32549172779594 107.34259656027581 l -20.94583251457877 7.8170592955017755 a43.356974655757334,43.356974655757334 0 0,0 -0.2549302136284473,-0.7014584597354048 l 21.07728698921244 -7.455353038760253" fill="#eeff19" stroke="none" /><path d="M 80.20201598880116 107.00284435728193 l -6.045279452311979 2.1383061566707395 a27.41231291159449,27.41231291159449 0 0,0 -0.15352092111699228,-0.4462036583162243 l 6.0811912043722 -2.033929795265218" fill="#ff3c05" stroke="none" /><path d="M 80.0844068197444 106.66101706037122 l -15.912801387899902 5.3222337172555045 a37.77925563759729,37.77925563759729 0 0,0 -0.20096360026465077,-0.6185023641059867 l 16.002057239180804 -5.047532453171714" fill="#ffca12" stroke="none" /><path d="M 79.86692584326677 105.97154293290107 l -22.141761130323086 6.567326786284412 a44.09518060267412,44.09518060267412 0 0,0 -0.20957255723732934,-0.7295495650797079 l 22.25152632444652 -6.185219745700108" fill="#e5ff1a" stroke="none" /><path d="M 79.76711848015287 105.62410040840567 l -15.49707095616149 4.307695026442189 a37.08463380562762,37.08463380562762 0 0,0 -0.1656657540698463,-0.61650390006712 l 15.568924786573112 -4.0403001931995295" fill="#ffc111" stroke="none" /><path d="M 79.67330655649465 105.27499134158121 l -6.300828761883229 1.6351315208297938 a27.50953901416883,27.50953901416883 0 0,0 -0.115001251162033,-0.4593728325371584 l 6.32804132734032 -1.5264308488952436" fill="#ff3e05" stroke="none" /><path d="M 79.58551787078972 104.9243191809786 l -24.839792688550673 5.991779111199718 a46.5522350828178,46.5522350828178 0 0,0 -0.18119777858748964,-0.7805952877684494 l 24.939251033068718 -5.5633151660826945" fill="#c8ff1d" stroke="none" /><path d="M 79.35854240842038 103.8639653848113 l -23.584234942093385 4.414836841787785 a44.99389343444422,44.99389343444422 0 0,0 -0.13595345768699546,-0.7624991907060316 l 23.65673484211957 -4.008218900348539" fill="#daff1c" stroke="none" /><path d="M 79.29508885075956 103.50808413554451 l -9.32568039589616 1.5800730181448728 a30.45859109958092,30.45859109958092 0 0,0 -0.08313490506927534,-0.5176811332248499 l 9.351497055326726 -1.4193126552268092" fill="#ff6709" stroke="none" /><path d="M 79.23777060512086 103.15116336523772 l -18.64664481514949 2.830072961268379 a39.86018758730792,39.86018758730792 0 0,0 -0.09711830116957097,-0.6792451721823224 l 18.69259716733566 -2.508682317105656" fill="#ffe515" stroke="none" /><path d="M 79.18660465613746 102.79330883721812 l -15.865281619427616 2.129236033829988 a37.007523448413494,37.007523448413494 0 0,0 -0.07929917627097552,-0.6320924580351589 l 15.89958230494544 -1.8558258215074204" fill="#ffc011" stroke="none" /><path d="M 79.1416061653843 102.43462659150553 l -45.875146368249766 5.3546237607229035 a67.18658950309319,67.18658950309319 0 0,0 -0.12419184640493637,-1.1498622565442373 l 45.96052051615575 -4.564165182293884" fill="#38ff7e" stroke="none" /><path d="M 79.07016306316243 101.71520430193888 l -18.56494496444934 1.5214009341963552 a39.627180203552186,39.627180203552186 0 0,0 -0.04986126054316062,-0.6803172851554442 l 18.588382783656836 -1.2016105125441505" fill="#ffe215" stroke="none" /><path d="M 79.04373962182676 101.35467743843564 l -22.958208460997326 1.4840895497465851 a44.00612652165236,44.00612652165236 0 0,0 -0.042358304776550906,-0.756335986485027 l 22.98035311666141 -1.0886818469261206" fill="#e6ff1a" stroke="none" /><path d="M 79.0235259727143 100.99374915477108 l -5.014511721669436 0.23755979095994317 a26.020135701456795,26.020135701456795 0 0,0 -0.01734411441631989,-0.4475745262452196 l 5.017857968936957 -0.15120801770072678" fill="#ff2803" stroke="none" /><path d="M 79.0095281055655 100.63252640178507 l -25.811243113694125 0.7777954118617778 a46.82295948912393,46.82295948912393 0 0,0 -0.017342192562325776,-0.8058235435340769 l 25.82080736894146 -0.33338205253757197" fill="#c4ff1e" stroke="none" /><line stroke="#e1ed5e" stroke-width="0.3" x1="15.007084014347285" x2="10.007500721073583" y1="101.09737516637583" y2="101.16192664675087" /><path d="M 14.007167355692545 101.11028546245083 a86.0,86.0 0 0,1 10.666146001902534,-42.60595125391555" fill="none" id="id22" stroke="none" /><text fill="#e1ed5e" style="font-size:6.75px; font-family:Arial;" text-anchor="middle"><textPath startOffset="22.20632615414155" xlink:href="#id22">October</textPath></text><path d="M 79.00175016825051 100.2711162175752 l -13.524825632501113 0.17462405668226913 a34.52595290361205,34.52595290361205 0 0,0 -0.002557719929268599,-0.5943240347924785 l 13.525827649719885 0.05820945631388477" fill="#ff9f0e" stroke="none" /><path d="M 79.00019446554 99.90962569577889 l -41.75570991503741 -0.17969896076599437 a62.75609658750748,62.75609658750748 0 0,0 0.013946774099707276,-1.0801930239066142 l 41.746430133819985 0.8984282427330805" fill="#32ff49" stroke="none" /><path d="M 79.00486145842228 99.54816195383935 l -6.253710594124704 -0.1345866030132476 a27.25515865096787,27.25515865096787 0 0,0 0.014131547383409852,-0.46895725986964804 l 6.250467352285649 0.24221401030789005" fill="#ff3a05" stroke="none" /><path d="M 79.01574976396665 99.18683210126434 l -37.28525635882226 -1.4448537939688093 a58.31324087008581,58.31324087008581 0 0,0 0.0475013877856208,-1.0026792197621526 l 37.25486136280314 2.086444120353971" fill="#46ff2c" stroke="none" /><path d="M 79.03285615573316 98.82574320788736 l -10.832745371306057 -0.6066837202035583 a31.849720614647772,31.849720614647772 0 0,0 0.03536746006705449,-0.5471189532289609 l 10.82069732023459 0.793061737685531" fill="#ff7b0b" stroke="none" /><path d="M 79.08570108090925 98.10471618934814 l -36.28866675251896 -3.2885311084183093 a57.43736779086011,57.43736779086011 0 0,0 0.09770608908269059,-0.9838869831572191 l 36.22668353775404 3.9126936222799586" fill="#4fff2b" stroke="none" /><path d="M 79.12142395522702 97.74499172005258 l -27.411516238227748 -2.960604015837179 a48.57093394532029,48.57093394532029 0 0,0 0.09693289028258924,-0.8304618080227036 l 27.356492994941572 3.4320095621847444" fill="#b0ff20" stroke="none" /><path d="M 79.16333360222342 97.38593545837743 l -7.238984739949959 -0.9081670246479183 a28.295729395330273,28.295729395330273 0 0,0 0.0647891370906828,-0.48275432572612775 l 7.222279603801443 1.0326396924387056" fill="#ff4906" stroke="none" /><path d="M 79.26566170972629 96.67025291283419 l -21.130529248424523 -3.393371769583717 a42.401267212133305,42.401267212133305 0 0,0 0.12193017124401587,-0.7196387727534487 l 21.068987215660286 3.7565963306529935" fill="#faff18" stroke="none" /><path d="M 79.32604984820605 96.31383870115002 l -25.379738925119856 -4.525202523649083 a46.78000399121932,46.78000399121932 0 0,0 0.1481684809985589,-0.791521950212789 l 25.298084720211435 4.961402551324445" fill="#c5ff1e" stroke="none" /><path d="M 79.46518482838121 95.60439243477599 l -22.31045584491004 -4.77569472507465 a43.81586509678707,43.81586509678707 0 0,0 0.16421688197517392,-0.7361520822000223 l 22.22494457593283 5.1590249768246315" fill="#e8ff1a" stroke="none" /><path d="M 79.54389044137918 95.25157060432595 l -10.59361945920954 -2.4590723814096873 a31.875284374376374,31.875284374376374 0 0,0 0.12866564749076628,-0.5334021749624915 l 10.549721011457958 2.6410597880315754" fill="#ff7b0b" stroke="none" /><path d="M 79.62865764111835 94.90015583598534 l -43.05910676447866 -10.779590783558248 a65.38790660546796,65.38790660546796 0 0,0 0.2827362748142024,-1.0894982022442998 l 42.86717415779415 11.519185411351412" fill="#35ff69" stroke="none" /><path d="M 79.81627453868168 94.20196356495316 l -17.307615071046044 -4.971836491633315 a39.00757333865496,39.00757333865496 0 0,0 0.19094040510458735,-0.643756124452714 l 17.21946876882975 5.269022002832568" fill="#ffda14" stroke="none" /><path d="M 80.02781315780177 93.51064311812611 l -21.13042222362765 -6.8656903701741445 a43.21784075034924,43.21784075034924 0 0,0 0.23597497989407706,-0.7055351544209262 l 21.0091099499618 7.228398627517392" fill="#f0ff19" stroke="none" /><path d="M 80.2630227832202 92.82701384747504 l -59.210931650339425 -21.518958457574875 a84.0,84.0 0 0,0 0.5055816459934896,-1.3547074518826343 l 58.83174541584431 22.534989046486853" fill="#4dd2ff" stroke="none" /><path d="M 80.65960295795068 91.81776055985345 l -12.499469734689452 -5.288084521829292 a34.572051486729194,34.572051486729194 0 0,0 0.23658690373524507,-0.5460751929306764 l 12.406592121111526 5.502458859346568" fill="#ffa00e" stroke="none" /><path d="M 80.803312248108 91.48605970444005 l -16.428472511517395 -7.286206658048145 a38.97174216723209,38.97174216723209 0 0,0 0.2772518087469582,-0.6108876094540102 l 16.300618385807088 7.567916276344226" fill="#ffd914" stroke="none" /><path d="M 81.26839172434947 90.50648371742162 l -24.79629821107567 -12.567210319069131 a48.79912193175015,48.79912193175015 0 0,0 0.3861882731012509,-0.745992822373129 l 24.576300504814306 12.992175863702595" fill="#adff20" stroke="none" /><path d="M 81.43458229118936 90.18545643968196 l -39.38010005362586 -20.818153054675022 a65.54422271003793,65.54422271003793 0 0,0 0.5358767705873437,-0.9928982703216512 l 39.01591518382005 21.492932308329145" fill="#36ff6b" stroke="none" /><line stroke="#e1ed5e" stroke-width="0.3" x1="26.266209847984243" x2="21.928928074336255" y1="57.711370442889674" y2="55.22380399835377" /><path d="M 25.398753493254645 57.213857153982495 a86.0,86.0 0 0,1 29.58750427330803,-30.492523968695096" fill="none" id="id23" stroke="none" /><text fill="#e1ed5e" style="font-size:6.75px; font-family:Arial;" text-anchor="middle"><textPath startOffset="21.46611528233685" xlink:href="#id23">November</textPath></text><path d="M 81.78341655067845 89.55222093294921 l -12.05889838134443 -6.916154526495213 a34.90144681700259,34.90144681700259 0 0,0 0.3033772125443949,-0.5185699974066924 l 11.93806149432971 7.122703936255797" fill="#ffa40f" stroke="none" /><path d="M 82.54541684631803 88.32363383020206 l -14.940893284822536 -9.994815651650923 a38.975723408501295,38.975723408501295 0 0,0 0.37783351042062074,-0.5544240543358588 l 14.766635308733175 10.250517729257197" fill="#ffd914" stroke="none" /><path d="M 83.17141714833178 87.43820079747576 l -11.58287412799914 -8.646107653064476 a35.4540011973658,35.4540011973658 0 0,0 0.369268717961293,-0.4859143476444852 l 11.43232946981374 8.844206776589989" fill="#ffab0f" stroke="none" /><path d="M 84.31358615837235 86.03803664274999 l -4.277059914551161 -3.8068709908223313 a26.72586310117741,26.72586310117741 0 0,0 0.3088190781678899,-0.3410057393226622 l 4.2108971957672265 3.8799295174145496" fill="#ff3204" stroke="none" /><path d="M 86.10567301691215 84.25364557470407 l -29.237007927384226 -33.13411939420661 a65.18905408102177,65.18905408102177 0 0,0 0.8477873776132334,-0.7351928596306471 l 28.66232675112422 33.63247724725693" fill="#35ff67" stroke="none" /><path d="M 87.51073957382395 83.11751280151077 l -4.096332862391067 -5.53726039414827 a27.887756934743564,27.887756934743564 0 0,0 0.3883764348549076,-0.28217199679719474 l 4.000411111182378 5.606951625762133" fill="#ff4306" stroke="none" /><line stroke="#e1ed5e" stroke-width="0.3" x1="56.762969772571076" x2="54.21961505331055" y1="26.818313649435495" y2="22.513508569990535" /><path d="M 56.25429882871897 25.957352633546506 a86.0,86.0 0 0,1 42.265352541879196,-11.944610805530505" fill="none" id="id24" stroke="none" /><text fill="#e1ed5e" style="font-size:6.75px; font-family:Arial;" text-anchor="middle"><textPath startOffset="22.20632615414155" xlink:href="#id24">December</textPath></text></svg>