<?xml version="1.0" encoding="utf-8" ?>
<svg baseProfile="full" height="200mm" version="1.1" viewBox="0,0,200,200" width="200mm" xmlns="http://www.w3.org/2000/svg" xmlns:ev="http://www.w3.org/2001/xml-events" xmlns:xlink="http://www.w3.org/1999/xlink"><defs /><rect fill="#1a1a1a" height="200" width="200" x="0" y="0" /><text alignment-baseline="middle" fill="#e1ed5e" style="dominant-baseline: central; font-size:9.0px; font-family:Arial;" text-anchor="middle" x="100.0" y="100.0">2024</text><line stroke="#e1ed5e" stroke-width="0.3" x1="100.0" x2="100.0" y1="15.0" y2="10.0" /><path d="M 100.0 14.0 a86.0,86.0 0 0,1 42.35913384403234,11.155469271406648" fill="none" id="id37" stroke="none" /><text fill="#e1ed5e" style="font-size:6.75px; font-family:Arial;" text-anchor="middle"><textPath startOffset="22.145653131862478" xlink:href="#id37">January</textPath></text><path d="M 100.0 79.0 l 0.0 -53.23163402552686 a74.23163402552686,74.23163402552686 0 0,0 1.2742847079129498,0.010938201633263972 l -0.913791783064095 53.22379022208803" fill="#41ffcd" stroke="none" /><path d="M 102.15924093988457 79.11130261209362 l 0.5790003113569875 -5.601302785638293 a26.63114857351063,26.63114857351063 0 0,0 0.45433259204876264,0.05090891458616439 l -0.6750688050065468 5.5905381105451575" fill="#ff4106" stroke="none" /><path d="M 106.72888874123014 80.10723608172694 l 0.8224712812717753 -2.4314901995107028 a23.566827535856945,23.566827535856945 0 0,0 0.38211279748427684,0.13291866632059998 l -0.8640898508010705 2.4170131006215123" fill="#ff1502" stroke="none" /><path d="M 107.40779381753099 80.34994680014964 l 1.0595133565246393 -2.810485055940758 a24.00356368374643,24.00356368374643 0 0,0 0.3843173290227919,0.14866219894256114 l -1.107602948040957 2.791882968860159" fill="#ff1b02" stroke="none" /><path d="M 108.4095320186766 80.7573450057729 l 1.7277402731383658 -3.9534078616737616 a25.314454794312734,25.314454794312734 0 0,0 0.39669751365834854,0.1774377520707111 l -1.795351189652346 3.923166358693198" fill="#ff2e04" stroke="none" /><path d="M 109.06512990194946 81.05736502329252 l 2.5925244283648206 -5.417378950537827 a27.005762033697195,27.005762033697195 0 0,0 0.41645424978478246,0.20370864235832453 l -2.6851389274116704 5.372076558082282" fill="#ff4606" stroke="none" /><line stroke="#e1ed5e" stroke-width="0.3" x1="143.13028292997686" x2="145.6673583964461" y1="26.7553504044142" y2="22.446841604673864" /><path d="M 143.63769802327073 25.89364864446614 a86.0,86.0 0 0,1 29.32050498858742,28.57503671076993" fill="none" id="id38" stroke="none" /><text fill="#e1ed5e" style="font-size:6.75px; font-family:Arial;" text-anchor="middle"><textPath startOffset="20.669276256404974" xlink:href="#id38">February</textPath></text><path d="M 112.45986205192187 83.09580414077388 l 4.558270010475116 -6.184168710312715 a28.68256260150268,28.68256260150268 0 0,0 0.3938348188820539,0.29554099029875897 l -4.663757818267936 6.105008692749942" fill="#ff5d08" stroke="none" /><path d="M 113.03279911837588 83.53348406188908 l 17.233182604641556 -21.773563257305 a48.76815873630772,48.76815873630772 0 0,0 0.6519820474481339,0.5251905860366616 l -17.60441542244495 21.474524377474932" fill="#a6ff21" stroke="none" /><path d="M 113.31354834802062 83.75963576809568 l 5.539249480972007 -6.7569836974188044 a29.737282958656664,29.737282958656664 0 0,0 0.39200205501173013,0.3270220563269966 l -5.654425870145629 6.660899457179938" fill="#ff6c09" stroke="none" /><path d="M 114.39649973595853 84.71141617570332 l 5.820758181754127 -6.181443476877445 a29.49066954181402,29.49066954181402 0 0,0 0.36558250914228574,0.35021977394738624 l -5.926013176761725 6.080611572624479" fill="#ff6809" stroke="none" /><line stroke="#e1ed5e" stroke-width="0.3" x1="172.87174338648825" x2="177.1583165268699" y1="56.24261187166439" y2="53.66864786411523" /><path d="M 173.72905801456457 55.72781907015455 a86.0,86.0 0 0,1 12.242430191666344,42.057860355516425" fill="none" id="id39" stroke="none" /><text fill="#e1ed5e" style="font-size:6.75px; font-family:Arial;" text-anchor="middle"><textPath startOffset="22.145653131862474" xlink:href="#id39">March</textPath></text><path d="M 119.83427380445688 93.10060997987247 l 3.7702209360610204 -1.3114785525492825 a24.991809351723802,24.991809351723802 0 0,0 0.13747230101943816,0.4064124307368889 l -3.7921786586528237 1.246564447338232" fill="#ff2904" stroke="none" /><path d="M 120.7213421655516 96.59031103205396 l 5.222148373481821 -0.8593025275959166 a26.29237512546036,26.29237512546036 0 0,0 0.06946008286197777,0.4459835592752755 l -5.2361299484820645 0.7695307863891999" fill="#ff3c05" stroke="none" /><line stroke="#e1ed5e" stroke-width="0.3" x1="184.99686870605535" x2="189.99668451229388" y1="99.2704041080226" y2="99.22748670261217" /><path d="M 185.99683186730306 99.26182062694052 a86.0,86.0 0 0,1 -10.086455211305974,41.156179273409016" fill="none" id="id40" stroke="none" /><text fill="#e1ed5e" style="font-size:6.75px; font-family:Arial;" text-anchor="middle"><textPath startOffset="21.40746469413373" xlink:href="#id40">April</textPath></text><path d="M 120.592083275326 104.11899336999214 l 4.1963411340299945 0.8393857521936997 a25.27946811579873,25.27946811579873 0 0,0 -0.08876980228578514,0.4247956389676385 l -4.181313620919845 -0.9112978424467473" fill="#ff2d04" stroke="none" /><path d="M 120.35273937422433 105.17358676015961 l 3.5771625010801777 0.9093007193894339 a24.690923916503337,24.690923916503337 0 0,0 -0.10794697829452733,0.40989225915908967 l -3.56102604198092 -0.9705734829213268" fill="#ff2503" stroke="none" /><path d="M 119.83427380445688 106.89939002012753 l 3.2286934457471173 1.1231071808957918 a24.418454490905223,24.418454490905223 0 0,0 -0.14111521356218898,0.39472436756502977 l -3.208938062140985 -1.178366504841743" fill="#ff2103" stroke="none" /><path d="M 119.0197475246899 108.90220220490707 l 4.83968809977264 2.2652184008715417 a26.34357514279793,26.34357514279793 0 0,0 -0.19521936722433486,0.4079333946355425 l -4.800089474588393 -2.3479642975721875" fill="#ff3c05" stroke="none" /><line stroke="#e1ed5e" stroke-width="0.3" x1="174.33088141563837" x2="178.70328620479359" y1="141.23008692659167" y2="143.65538615756765" /><path d="M 175.20536237346943 141.71514677278685 a86.0,86.0 0 0,1 -30.301960400862466,31.631185727798858" fill="none" id="id41" stroke="none" /><text fill="#e1ed5e" style="font-size:6.75px; font-family:Arial;" text-anchor="middle"><textPath startOffset="22.145653131862474" xlink:href="#id41">May</textPath></text><path d="M 118.36410011445183 110.18625677009912 l 4.048265218293624 2.2455044750354283 a25.6293349009388,25.6293349009388 0 0,0 -0.21671022643332616,0.3829062053348486 l -4.00912162683892 -2.3146674504693996" fill="#ff3204" stroke="none" /><path d="M 118.18653347947321 110.5 l 17.215944224670878 9.93963003246731 a40.87926006493463,40.87926006493463 0 0,0 -0.356090065538997,0.6047187800093381 l -17.042780449002116 -10.233699980770197" fill="#fffc17" stroke="none" /><path d="M 118.00360718960297 110.81064883170644 l 16.716058876692514 10.037513064071534 a40.49816126921863,40.49816126921863 0 0,0 -0.363002444358015,0.5929372121660347 l -16.541288467879095 -10.322987392362126" fill="#fff717" stroke="none" /><path d="M 114.91283532996324 114.78537596483092 l 13.275673729578681 13.162207114556374 a39.69457699710544,39.69457699710544 0 0,0 -0.48391106848963,0.4797751013039477 l -13.047770740959088 -13.388162226088983" fill="#ffed16" stroke="none" /><path d="M 114.13192950727249 115.5334660781643 l 1.7549080867945155 1.9289514020354073 a23.607787549727,23.607787549727 0 0,0 -0.3021065787588228,0.27014556560774866 l -1.7215364812123148 -1.9587924975265427" fill="#ff1502" stroke="none" /><path d="M 113.86319453409587 115.77377054828091 l 14.974832401545358 17.038610380889672 a43.68391168132459,43.68391168132459 0 0,0 -0.5675175005186879,0.49020810021891426 l -14.680135421263815 -17.293162613573305" fill="#e1ff1b" stroke="none" /><path d="M 113.59037401385872 116.0094264158162 l 2.2271998763841516 2.6236358541660993 a24.441494498707133,24.441494498707133 0 0,0 -0.322192047080142,0.2687840648314983 l -2.1818334951421146 -2.661482102909468" fill="#ff2103" stroke="none" /><path d="M 112.7482090630111 116.68781488649013 l 2.6320730283926896 3.4454680848453245 a25.335788134870057,25.335788134870057 0 0,0 -0.3478808943942786,0.26105630865028634 l -2.5725391450876445 -3.4901434207596256" fill="#ff2e04" stroke="none" /><path d="M 111.8722381534696 117.32195027204791 l 2.991051234618451 4.36403313995743 a26.290668458215773,26.290668458215773 0 0,0 -0.3744588821077796,0.25195264745105184 l -2.9156960644136682 -4.414735461465603" fill="#ff3c05" stroke="none" /><path d="M 111.5731344415666 117.5232005979908 l 2.447303599872376 3.7055295712043548 a25.44074817041208,25.44074817041208 0 0,0 -0.36648532608004036,0.23755136061498927 l -2.383332641535326 -3.7469947735232387" fill="#ff3004" stroke="none" /><line stroke="#e1ed5e" stroke-width="0.3" x1="143.1302829299769" x2="145.66735839644613" y1="173.24464959558577" y2="177.55315839532614" /><path d="M 143.63769802327073 174.10635135553383 a86.0,86.0 0 0,1 -40.68552437913181,11.842963189579606" fill="none" id="id42" stroke="none" /><text fill="#e1ed5e" style="font-size:6.75px; font-family:Arial;" text-anchor="middle"><textPath startOffset="21.407464694133747" xlink:href="#id42">June</textPath></text><path d="M 110.65571695917076 118.09573695890943 l 6.495781382216788 11.03125690045765 a33.801711001637585,33.801711001637585 0 0,0 -0.5025308939960612,0.2901363469247304 l -6.305458020360328 -11.141140144658554" fill="#ffa20f" stroke="none" /><path d="M 110.34350942703117 118.27599006163325 l 8.614923437269665 15.221744247635177 a38.490523256050196,38.490523256050196 0 0,0 -0.5778267217801348,0.3205107421542037 l -8.352352527333435 -15.367387905222524" fill="#ffde14" stroke="none" /><path d="M 109.71004243097381 118.62028667847754 l 2.447104144230973 4.692644859338832 a26.29237512546036,26.29237512546036 0 0,0 -0.40198885377525034,0.20525837302162572 l -2.36618806874214 -4.733961184033293" fill="#ff3c05" stroke="none" /><path d="M 109.06512990194946 118.94263497670748 l 1.4741805573054867 3.0804703836391565 a24.415041156416052,24.415041156416052 0 0,0 -0.3796088804219768,0.17767612361352472 l -1.4210829630120037 -3.1053227388232147" fill="#ff2103" stroke="none" /><path d="M 108.73861861582097 119.09545874513695 l 10.603686435925926 23.170968523217695 a46.4819926288229,46.4819926288229 0 0,0 -0.7284095610813885,0.3258083316761295 l -10.204363471988911 -23.349580605803673" fill="#c0ff1e" stroke="none" /><path d="M 108.07796709384702 119.3841803445677 l 1.1856305584042717 2.8450817265206023 a24.082241043721837,24.082241043721837 0 0,0 -0.3829598552898747,0.15574643923174541 l -1.136616241923956 -2.865015422331639" fill="#ff1c02" stroke="none" /><path d="M 107.74402155503746 119.51999308798841 l 1.9516317642337686 4.919386946096571 a26.29237512546036,26.29237512546036 0 0,0 -0.4209631334335687,0.16283758333018925 l -1.8668963683066706 -4.952164417564801" fill="#ff3c05" stroke="none" /><path d="M 106.38641147887787 120.00534299687104 l 8.36431230286488 26.20108915706148 a48.50379598012139,48.50379598012139 0 0,0 -0.7953684041446882,0.24640716473760554 l -7.913303265848567 -26.34081290960573" fill="#a9ff21" stroke="none" /><path d="M 106.0420521117495 120.11202640906438 l 1.2774321892653069 4.252156295761181 a25.439894836789787,25.439894836789787 0 0,0 -0.4193221373247449,0.1220585629089228 l -1.2042500395589553 -4.273458552972622" fill="#ff3004" stroke="none" /><path d="M 105.69591212413111 120.21278271476187 l 5.484140330064522 19.46127932684115 a41.219228180056106,41.219228180056106 0 0,0 -0.6827054381019168,0.18607440301091305 l -5.14925349102791 -19.552554223996207" fill="#feff18" stroke="none" /><path d="M 104.9986988182912 120.39639698878246 l 1.8721533049736414 7.639024358174285 a28.865090663311122,28.865090663311122 0 0,0 -0.4822777234828141,0.1138162295677858 l -1.7407434277509481 -7.670036731388296" fill="#ff6008" stroke="none" /><path d="M 103.94208987418118 120.62667999033965 l 0.9945663349381639 5.203991328126588 a26.298177794091952,26.298177794091952 0 0,0 -0.44414524926015686,0.0809380596718965 l -0.9050863521269499 -5.220297561729848" fill="#ff3c05" stroke="none" /><path d="M 103.58742460773223 120.69131181640829 l 2.8518791648097523 16.448881165226457 a37.694277653088726,37.694277653088726 0 0,0 -0.6385096460651191,0.10506651927859532 l -2.5690920156915613 -16.495413683000724" fill="#ffd413" stroke="none" /><path d="M 103.2317021107853 120.74984581791261 l 0.7881826595402048 5.0606980783378495 a26.121708401001786,26.121708401001786 0 0,0 -0.44366464691781654,0.0652034246657181 l -0.7011929070147028 -5.07348257630245" fill="#ff3905" stroke="none" /><path d="M 102.51750503828377 120.84855314841334 l 1.5602488114986095 12.921098379788402 a34.01495907384857,34.01495907384857 0 0,0 -0.5803018402227652,0.06502403159076961 l -1.3382110696750449 -12.945978171886143" fill="#ffa50f" stroke="none" /><path d="M 101.80034050326958 120.92268563240118 l 1.5614204157306344 18.146072056377776 a39.2131261674078,39.2131261674078 0 0,0 -0.6711625407788995,0.05195222538485613 l -1.2496888801764992 -18.170202048757684" fill="#ffe715" stroke="none" /><path d="M 101.44090949804482 120.95050786540614 l 1.222819705621576 17.779530147702328 a38.8215313681376,38.8215313681376 0 0,0 -0.6652451105567134,0.04001949390175561 l -0.9174302429323974 -17.797901619428774" fill="#ffe215" stroke="none" /><path d="M 101.08105385017728 120.97215588758144 l 0.31202450683991173 6.053192074677161 a27.061228719146232,27.061228719146232 0 0,0 -0.46413130814883247,0.01993179540601588 l -0.2080674380902497 -6.0576564385090075" fill="#ff4706" stroke="none" /><path d="M 100.72087961077811 120.9876233191556 l 0.29430279371377305 8.568304726461516 a29.573357569814203,29.573357569814203 0 0,0 -0.5075163964945819,0.013071822089104701 l -0.1471730831484472 -8.572094265900665" fill="#ff6909" stroke="none" /><line stroke="#e1ed5e" stroke-width="0.3" x1="101.45913802915013" x2="101.54496967792366" y1="184.9874750549273" y2="189.98673829345242" /><path d="M 101.47630435890484 185.9873277026323 a86.0,86.0 0 0,1 -42.54439059252881,-10.42667462771756" fill="none" id="id43" stroke="none" /><text fill="#e1ed5e" style="font-size:6.75px; font-family:Arial;" text-anchor="middle"><textPath startOffset="22.145653131862474" xlink:href="#id43">July</textPath></text><path d="M 100.36049292484886 120.99690560180557 l 0.04620170443123774 2.69101765864602 a23.6914142447117,23.6914142447117 0 0,0 -0.40669462928008965,0.0034909842601164483 l -3.2960318399657765e-16 -2.6914142447117015" fill="#ff1702" stroke="none" /><path d="M 100.0 121.0 l 1.8122845455137136e-15 14.79842634444067 a35.79842634444067,35.79842634444067 0 0,0 -0.6145275913282676,-0.005274980278278493 l 0.25403466647941364 -14.796245762356827" fill="#ffbc11" stroke="none" /><path d="M 99.63950707515114 120.99690560180557 l -0.1885173097136713 10.980188190999753 a31.981806385373588,31.981806385373588 0 0,0 -0.5488484387264718,-0.014136388882147403 l 0.37697906251088703 -10.975334084767558" fill="#ff8a0c" stroke="none" /><path d="M 99.27912038922189 120.98762331915562 l -0.1524109362781306 4.437278114819425 a25.439894836789787,25.439894836789787 0 0,0 -0.4363235606302577,-0.018737611078198217 l 0.228560257509227 -4.434007935315399" fill="#ff3004" stroke="none" /><path d="M 98.91894614982273 120.97215588758144 l -1.442244657013249 27.979161047299822 a49.01630815367048,49.01630815367048 0 0,0 -0.8399426346054639,-0.05052886313630483 l 1.9223316437511593 -27.950280206338824" fill="#a3ff21" stroke="none" /><path d="M 98.55909050195518 120.95050786540614 l -0.29643333392169047 4.310075617047365 a25.320257462944326,25.320257462944326 0 0,0 -0.4333755044026623,-0.0335460048990128 l 0.3703778330995889 -4.304351845153298" fill="#ff2e04" stroke="none" /><path d="M 98.19965949673042 120.92268563240118 l -0.6694571286036061 7.780106608003045 a28.808855977602022,28.808855977602022 0 0,0 -0.4923576661304561,-0.04662678288488988 l 0.8029143581190774 -7.767468069612971" fill="#ff5f08" stroke="none" /><path d="M 97.84075906011543 120.88869738790638 l -1.409289741023782 13.633599839812437 a34.70624464126803,34.70624464126803 0 0,0 -0.5920953069155229,-0.06634551413251062 l 1.643120949540104 -13.607398565172955" fill="#ffae10" stroke="none" /><path d="M 97.48249496171623 120.84855314841334 l -1.8440866515306116 15.271682868577402 a36.382618542262364,36.382618542262364 0 0,0 -0.6194091917402869,-0.08019492087481728 l 2.1059736651616925 -15.237776351502188" fill="#ffc312" stroke="none" /><path d="M 96.76829788921471 120.74984581791261 l -0.5239668129899037 3.364242807825393 a24.404801152948536,24.404801152948536 0 0,0 -0.41339699064858704,-0.06802431749521924 l 0.5816413066915542 -3.3547524918345055" fill="#ff2103" stroke="none" /><path d="M 95.70440661134978 120.55596938700252 l -0.7123083555070678 3.4086533396286725 a24.48228384585273,24.48228384585273 0 0,0 -0.41064669035750095,-0.08949853487631076 l 0.7707174624837052 -3.395923346618643" fill="#ff2203" stroke="none" /><path d="M 95.35216902796893 120.47920084513623 l -0.989554534572479 4.360159864391387 a25.471041514003474,25.471041514003474 0 0,0 -0.425569975143824,-0.10043335536697716 l 1.064256663456191 -4.342530365378183" fill="#ff3004" stroke="none" /><path d="M 95.00130118170881 120.39639698878247 l -1.5002576040247022 6.121562988583503 a27.302722134255113,27.302722134255113 0 0,0 -0.4542584092498585,-0.11547071126762386 l 1.6051213064999394 -6.094907045480616" fill="#ff4a06" stroke="none" /><path d="M 94.6519064749342 120.30758222061772 l -3.425866950978386 13.008574823499265 a34.452121888549215,34.452121888549215 0 0,0 -0.5706232747667769,-0.1555259109866749 l 3.6486716266798576 -12.947848418368446" fill="#ffab0f" stroke="none" /><path d="M 94.30408787586889 120.21278271476187 l -6.556369569591877 23.266242635028913 a45.17238151869003,45.17238151869003 0 0,0 -0.7445698847415572,-0.21673344197050057 l 6.954799466715041 -23.150265498755896" fill="#cfff1d" stroke="none" /><path d="M 93.95794788825049 120.11202640906438 l -10.080322241845574 33.554114295974536 a56.03557453056492,56.03557453056492 0 0,0 -0.9188749991437972,-0.28466982357788084 l 10.654837873861004 -33.376127884590005" fill="#58ff2a" stroke="none" /><path d="M 93.27111125876986 119.89276391827306 l -1.7753676959101174 5.248559130792218 a26.540695209547586,26.540695209547586 0 0,0 -0.4303311202268235,-0.14969150196848185 l 1.8652045881819628 -5.2173091962551466" fill="#ff3f05" stroke="none" /><path d="M 92.93061703081489 119.77432235084164 l -2.260163742392863 6.322080244142285 a27.713943606838047,27.713943606838047 0 0,0 -0.44660472223809394,-0.16399944012580897 l 2.368357616285076 -6.2823499550077555" fill="#ff5007" stroke="none" /><path d="M 92.59220618246901 119.65005319985036 l -1.2013517262031468 3.1867281829250445 a24.405654486570832,24.405654486570832 0 0,0 -0.39075514239925635,-0.15115248345655877 l 1.2558791310959314 -3.165635811330445" fill="#ff2103" stroke="none" /><path d="M 92.25597844496254 119.51999308798841 l -6.827029444466437 17.20857394576732 a39.51332893573043,39.51332893573043 0 0,0 -0.6283476153143734,-0.25554350497363915 l 7.121431520971251 -17.08884318421439" fill="#ffeb16" stroke="none" /><path d="M 91.92203290615298 119.3841803445677 l -2.607271186435526 6.256501703696881 a27.77802896187224,27.77802896187224 0 0,0 -0.4385819087931789,-0.1872045371714378 l 2.714288170399136 -6.210822516866039" fill="#ff5107" stroke="none" /><path d="M 91.26138138417905 119.09545874513695 l -1.8464846096107972 4.034902109415474 a25.437334835922908,25.437334835922908 0 0,0 -0.3955036625218449,-0.18511568421086 l 1.9154769860041319 -4.002610193634087" fill="#ff3004" stroke="none" /><path d="M 90.93487009805054 118.94263497670748 l -27.19538970584839 56.82790493012245 a84.0,84.0 0 0,0 -1.2953590029517223,-0.6336249996111154 l 28.166908958062184 -56.35268618041412" fill="#4dd2ff" stroke="none" /><path d="M 90.6110303473126 118.78422872680471 l -2.021980575091841 4.045315621273725 a25.522497531427735,25.522497531427735 0 0,0 -0.39021805672494,-0.19924812017748778 l 2.091125853530363 -4.010009549423401" fill="#ff3104" stroke="none" /><path d="M 90.28995756902619 118.62028667847754 l -5.184649010901229 9.942248099999706 a32.2128891302905,32.2128891302905 0 0,0 -0.48811912367075855,-0.25989593993570126 l 5.354556950358549 -9.851781692341431" fill="#ff8d0d" stroke="none" /><path d="M 89.97174638481275 118.45085714620012 l -4.941395308364308 9.091610806437597 a31.347694170647763,31.347694170647763 0 0,0 -0.47059727500960813,-0.26103237559592685 l 5.0967367715300185 -9.005445515408523" fill="#ff810b" stroke="none" /><line stroke="#e1ed5e" stroke-width="0.3" x1="58.13341422392154" x2="55.67067388415222" y1="173.97424548756322" y2="178.32567169271397" /><path d="M 57.64086615596768 174.84453072859336 a86.0,86.0 0 0,1 -31.369924170532247,-30.572349798747897" fill="none" id="id44" stroke="none" /><text fill="#e1ed5e" style="font-size:6.75px; font-family:Arial;" text-anchor="middle"><textPath startOffset="22.145653131862474" xlink:href="#id44">August</textPath></text><path d="M 89.34428304082925 118.09573695890944 l -10.533756881226182 17.88862208353978 a41.75964436305418,41.75964436305418 0 0,0 -0.614597055734825,-0.3690478731610475 l 10.839286693518435 -17.705160209842816" fill="#f8ff18" stroke="none" /><path d="M 89.03521579738668 117.91015095944536 l -2.7089639833026586 4.424889080177917 a26.18826842354063,26.18826842354063 0 0,0 -0.3813958042286862,-0.23801918975041622 l 2.7845239163210573 -4.3777340935859534" fill="#ff3a05" stroke="none" /><path d="M 87.83215693770417 117.11559508785305 l -2.5369690979169137 3.5685647495644877 a25.3784548159847,25.3784548159847 0 0,0 -0.3529043206492436,-0.2554755129448895 l 2.597854428940111 -3.5244884652465327" fill="#ff2f04" stroke="none" /><path d="M 87.2517909369889 116.68781488649013 l -15.337148073002396 20.076819156627423 a46.26473388858713,46.26473388858713 0 0,0 -0.6269753894661638,-0.4875398550756278 l 15.679533407103788 -19.810578249931" fill="#c3ff1e" stroke="none" /><path d="M 86.68645165197938 116.24036423190432 l -2.8153388318173955 3.434255607126424 a25.44074817041208,25.44074817041208 0 0,0 -0.3353643834139968,-0.27977289629157376 l 2.873877549393285 -3.3854205269229802" fill="#ff3004" stroke="none" /><path d="M 86.13680546590413 115.77377054828092 l -5.771203188064108 6.566569822859929 a29.74223229366596,29.74223229366596 0 0,0 -0.3806084760786378,-0.34034244625784543 l 5.883076690966117 -6.466531846718701" fill="#ff6c09" stroke="none" /><path d="M 85.86807049272751 115.53346607816431 l -3.1836421574570677 3.499380423064237 a25.730881601991655,25.730881601991655 0 0,0 -0.32417262998724594,-0.3000493466998411 l 3.2432445587582808 -3.4442133302320186" fill="#ff3404" stroke="none" /><path d="M 85.60350026404147 115.28858382429668 l -2.6824627705141078 2.8486825044094317 a24.91287599166171,24.91287599166171 0 0,0 -0.3088336703264278,-0.29585567007246255 l 2.73096892670585 -2.8022147040313867" fill="#ff2803" stroke="none" /><path d="M 85.34317274990678 115.03919595460226 l -22.416827352380047 23.001639678245333 a53.11836820939452,53.11836820939452 0 0,0 -0.6475586405293682,-0.6420239845513723 l 22.80837791303938 -22.6134356834653" fill="#77ff27" stroke="none" /><path d="M 85.08716467003676 114.78537596483092 l -6.465222867798758 6.409964884730113 a30.104216416242593,30.104216416242593 0 0,0 -0.3606961043494816,-0.3701059786550353 l 6.5743057732990495 -6.2980362140073405" fill="#ff710a" stroke="none" /><path d="M 84.83555147118756 114.52719865689866 l -1.9342717988926523 1.8529886283408972 a23.678614240377307,23.678614240377307 0 0,0 -0.2786681607009018,-0.2959359297174778 l 1.965795793329807 -1.8195112386789292" fill="#ff1602" stroke="none" /><path d="M 84.3458050057657 113.99807769240083 l -3.4381593435495317 3.0744232857445786 a25.612268228492944,25.612268228492944 0 0,0 -0.29025887930029426,-0.33026132255617197 l 3.4904292868084186 -3.0149496853771067" fill="#ff3204" stroke="none" /><path d="M 83.8745106332314 113.45245675266167 l -3.8586845029071712 3.219051851195174 a26.025111034958236,26.025111034958236 0 0,0 -0.28324390031940655,-0.3455115035756986 l 3.9133752224652074 -3.1523380659209796" fill="#ff3805" stroke="none" /><path d="M 83.64595745247003 113.17365903436017 l -15.729724252518196 12.670752409071959 a41.198321506309924,41.198321506309924 0 0,0 -0.4389260724849159,-0.5545687540011767 l 15.944916755644673 -12.398863711156102" fill="#feff18" stroke="none" /><path d="M 83.4222238831116 112.89097897827486 l -8.371958708703968 6.510085729227756 a31.605230257855748,31.605230257855748 0 0,0 -0.32936867367590156,-0.4311541667182156 l 8.482479359734164 -6.36541064926867" fill="#ff850c" stroke="none" /><path d="M 82.37810715431573 111.42229804090323 l -6.342182919547932 4.1109263443707675 a28.55797589264792,28.55797589264792 0 0,0 -0.2631172903905574,-0.4136640831142688 l 6.41181790156438 -4.001448586577827" fill="#ff5b08" stroke="none" /><path d="M 82.18462484594161 111.11811171558189 l -21.449872783285812 13.386307042502244 a46.284189895175416,46.284189895175416 0 0,0 -0.41486510845245045,-0.6776509763337747 l 21.676505856193668 -13.016118950043913" fill="#c2ff1e" stroke="none" /><line stroke="#e1ed5e" stroke-width="0.3" x1="26.387840678322732" x2="22.057713659400548" y1="142.50000000000003" y2="145.00000000000006" /><path d="M 25.521815274538298 143.00000000000003 a86.0,86.0 0 0,1 -11.493303480769221,-40.785679425670985" fill="none" id="id45" stroke="none" /><text fill="#e1ed5e" style="font-size:6.75px; font-family:Arial;" text-anchor="middle"><textPath startOffset="21.40746469413373" xlink:href="#id45">September</textPath></text><path d="M 81.81346652052679 110.50000000000001 l -3.8421056844120827 2.2182407511503097 a25.436481502300616,25.436481502300616 0 0,0 -0.21507954409807029,-0.38002494589741637 l 3.8796185935315313 -2.151959035153772" fill="#ff3004" stroke="none" /><path d="M 81.29705330413844 109.54985784667822 l -3.9519636622836045 2.0179008048179523 a25.437334835922908,25.437334835922908 0 0,0 -0.19523770650076955,-0.3906061975562462 l 3.986021281996111 -1.9497627510979532" fill="#ff3004" stroke="none" /><path d="M 81.1358732173502 109.22738970284198 l -5.41179043286395 2.647177888990682 a27.02453537338764,27.02453537338764 0 0,0 -0.2002656308616758,-0.4184781448059523 l 5.456435321685538 -2.5538872421196253" fill="#ff4606" stroke="none" /><path d="M 80.9802524753101 108.90220220490708 l -18.5703515957405 8.691862218828065 a41.503814943090774,41.503814943090774 0 0,0 -0.29648652424973726,-0.6478765627841806 l 18.716822584845293 -8.371796673829197" fill="#fbff18" stroke="none" /><path d="M 80.83023694016515 108.57439118712176 l -4.112140737450976 1.8393082475432447 a25.504748192084044,25.504748192084044 0 0,0 -0.17533435650599655,-0.40119932041243767 l 4.143108975973941 -1.7684468573549577" fill="#ff3104" stroke="none" /><path d="M 80.5471966667186 107.91128576633889 l -2.0896690105202214 0.8498501946505531 a23.25587276389342,23.25587276389342 0 0,0 -0.14722221619291473,-0.37109615747578273 l 2.1039499016792607 -0.8138530199612051" fill="#ff1001" stroke="none" /><path d="M 80.16572619554312 106.89939002012753 l -3.6985706995840064 1.286554880961256 a24.915947992701966,24.915947992701966 0 0,0 -0.13705501088103755,-0.40517878659031403 l 3.720111132037411 -1.2228744198967803" fill="#ff2803" stroke="none" /><path d="M 80.05021161711548 106.5578916946017 l -4.213802062394957 1.385160434653184 a25.43562816867832,25.43562816867832 0 0,0 -0.13279249160271955,-0.4159705886016978 l 4.236959269774931 -1.3126208123600946" fill="#ff3004" stroke="none" /><path d="M 79.83685265289637 105.86919833188381 l -5.360044885812527 1.5602309481288499 a26.582508557039933,26.582508557039933 0 0,0 -0.1237751319594227,-0.4392342777177938 l 5.386038509846525 -1.4679887465080605" fill="#ff4006" stroke="none" /><path d="M 79.34024301695615 103.76489593502545 l -4.856217222606926 0.8849645470660189 a25.93619367151532,25.93619367151532 0 0,0 -0.07606120099128705,-0.4387007948401464 l 4.870693241090447 -0.8014707193052798" fill="#ff3705" stroke="none" /><path d="M 79.00696218219943 100.54070618675478 l -2.558469702856262 0.06589710402874663 a23.559318199980765,23.559318199980765 0 0,0 -0.006942783436636824,-0.40438232870711904 l 2.559223917891565 -0.021967859352575173" fill="#ff1502" stroke="none" /><line stroke="#e1ed5e" stroke-width="0.3" x1="15.003131293944662" x2="10.003315487706104" y1="100.72959589197737" y2="100.7725132973878" /><path d="M 14.003168132696942 100.73817937305945 a86.0,86.0 0 0,1 10.791469493833604,-42.45332614584628" fill="none" id="id46" stroke="none" /><text fill="#e1ed5e" style="font-size:6.75px; font-family:Arial;" text-anchor="middle"><textPath startOffset="22.145653131862435" xlink:href="#id46">October</textPath></text><path d="M 79.00077361379809 99.81974689727619 l -2.573132743532279 -0.022087249892533866 a23.57322753802414,23.57322753802414 0 0,0 0.006946882431393905,-0.40462107460209823 l 2.572374429502219 0.06625524046368449" fill="#ff1502" stroke="none" /><path d="M 79.94057633289273 93.78553927170692 l -17.596667317410784 -5.4514925158194885 a39.42176623805841,39.42176623805841 0 0,0 0.2058103117177172,-0.6446978701299272 l 17.500492289915808 5.752759419640808" fill="#ffea16" stroke="none" /><path d="M 80.68587082218212 91.75594674310238 l -1.7555825854055904 -0.7493538123162157 a22.908821979706914,22.908821979706914 0 0,0 0.1574884617511634,-0.3603644207928338 l 1.7424602416374497 0.7793803028849164" fill="#ff0b01" stroke="none" /><path d="M 80.9802524753101 91.09779779509293 l -7.87473363918611 -3.68577296175026 a29.694616277542018,29.694616277542018 0 0,0 0.22005229617652253,-0.4598246652110106 l 7.810302085049683 3.820410129026358" fill="#ff6b09" stroke="none" /><path d="M 81.46374523516351 90.13048839642627 l -1.0023845056710552 -0.5337132897380233 a22.135616384547347,22.135616384547347 0 0,0 0.1814642523681174,-0.33387378561263753 l 0.9930749036875871 0.5508419088252805" fill="#ff0000" stroke="none" /><line stroke="#e1ed5e" stroke-width="0.3" x1="26.387840678322718" x2="22.05771365940052" y1="57.49999999999999" y2="54.99999999999999" /><path d="M 25.521815274538284 56.99999999999999 a86.0,86.0 0 0,1 29.574782752854787,-30.34633250058573" fill="none" id="id47" stroke="none" /><text fill="#e1ed5e" style="font-size:6.75px; font-family:Arial;" text-anchor="middle"><textPath startOffset="21.40746469413373" xlink:href="#id47">November</textPath></text><path d="M 81.99639281039701 89.18935116829357 l -3.8019973383183396 -2.282990161403787 a25.43477483505603,25.43477483505603 0 0,0 0.227982830515302,-0.3723928200718679 l 3.762246543347645 2.3479200976001984" fill="#ff3004" stroke="none" /><path d="M 82.576782715395 88.27688183743585 l -3.5427884217051533 -2.3837461597469396 a25.270081445953505,25.270081445953505 0 0,0 0.2452524738189643,-0.3578306887608459 l 3.5013462110708757 2.4442115835778204" fill="#ff2d04" stroke="none" /><path d="M 83.8745106332314 86.54754324733833 l -3.295621129495246 -2.749324359052117 a25.29184145332197,25.29184145332197 0 0,0 0.28098686237981607,-0.3310018173520075 l 3.2479397036083157 2.805492958853681" fill="#ff2e04" stroke="none" /><path d="M 84.10781606972428 86.27271002978789 l -9.450571388504928 -8.163178478387179 a33.488025562082726,33.488025562082726 0 0,0 0.37951331303083446,-0.4318164839311112 l 9.309047011515501 8.32420724012959" fill="#ff9e0e" stroke="none" /><path d="M 86.68645165197937 83.75963576809568 l -15.747124925997559 -19.208931963019552 a45.83857907761408,45.83857907761408 0 0,0 0.6128164649547767,-0.49364156516612523 l 15.415057690687537 19.476421821979077" fill="#c7ff1e" stroke="none" /><path d="M 87.25179093698888 83.31218511350988 l -2.6997785873005693 -3.5340968348333703 a25.447318839303733,25.447318839303733 0 0,0 0.34941230131182544,-0.2622055049510313 l 2.6387132970779916 3.5799213670484025" fill="#ff3004" stroke="none" /><path d="M 89.03521579738668 82.08984904055464 l -6.803554132998891 -11.113094369310653 a34.030319079049846,34.030319079049846 0 0,0 0.5008408052968042,-0.3007405132555667 l 6.611780571144653 11.228248883102143" fill="#ffa50f" stroke="none" /><line stroke="#e1ed5e" stroke-width="0.3" x1="56.869717070023135" x2="54.33264160355391" y1="26.7553504044142" y2="22.446841604673864" /><path d="M 56.362301976729285 25.89364864446614 a86.0,86.0 0 0,1 42.16139366436587,-11.88097634709845" fill="none" id="id48" stroke="none" /><text fill="#e1ed5e" style="font-size:6.75px; font-family:Arial;" text-anchor="middle"><textPath startOffset="22.145653131862474" xlink:href="#id48">December</textPath></text><path d="M 89.34428304082924 81.90426304109057 l -2.3827679606945047 -4.046460920091886 a25.695894923477645,25.695894923477645 0 0,0 0.3820215209608304,-0.2205602279629645 l 2.3129539718732746 4.0867680453310244" fill="#ff3304" stroke="none" /><path d="M 90.93487009805054 81.0573650232925 l -2.7619704694344156 -5.771456006128536 a27.398295499951914,27.398295499951914 0 0,0 0.4259929857817798,-0.1993862269926899 l 2.6624887697811133 5.818018464691768" fill="#ff4b07" stroke="none" /></svg>