<?xml version="1.0" encoding="utf-8" ?>
<svg baseProfile="full" height="200mm" version="1.1" viewBox="0,0,200,200" width="200mm" xmlns="http://www.w3.org/2000/svg" xmlns:ev="http://www.w3.org/2001/xml-events" xmlns:xlink="http://www.w3.org/1999/xlink"><defs /><rect fill="#1a1a1a" height="200" width="200" x="0" y="0" /><text alignment-baseline="middle" fill="#e1ed5e" style="dominant-baseline: central; font-size:9.0px; font-family:Arial;" text-anchor="middle" x="100.0" y="100.0">2021</text><line stroke="#e1ed5e" stroke-width="0.3" x1="100.0" x2="100.0" y1="15.0" y2="10.0" /><path d="M 100.0 14.0 a86.0,86.0 0 0,1 42.46469731375804,11.215312516191453" fill="none" id="id1" stroke="none" /><text fill="#e1ed5e" style="font-size:6.75px; font-family:Arial;" text-anchor="middle"><textPath startOffset="22.20632615414155" xlink:href="#id1">January</textPath></text><line stroke="#e1ed5e" stroke-width="0.3" x1="143.23703022742887" x2="145.7803849466894" y1="26.81831364943548" y2="22.513508569990506" /><path d="M 143.74570117128098 25.957352633546492 a86.0,86.0 0 0,1 28.547481713284135,27.462654790039103" fill="none" id="id2" stroke="none" /><text fill="#e1ed5e" style="font-size:6.75px; font-family:Arial;" text-anchor="middle"><textPath startOffset="19.985693538727396" xlink:href="#id2">February</textPath></text><line stroke="#e1ed5e" stroke-width="0.3" x1="172.23445277983987" x2="176.4835382374775" y1="55.19839476539836" y2="52.563006222186495" /><path d="M 173.08426987136738 54.67131705675599 a86.0,86.0 0 0,1 12.851231095245387,41.99856678651699" fill="none" id="id3" stroke="none" /><text fill="#e1ed5e" style="font-size:6.75px; font-family:Arial;" text-anchor="middle"><textPath startOffset="22.20632615414155" xlink:href="#id3">March</textPath></text><line stroke="#e1ed5e" stroke-width="0.3" x1="184.98032266829074" x2="189.97916517819016" y1="98.17113171792111" y2="98.06355123074" /><path d="M 185.9800911702706 98.14961562048488 a86.0,86.0 0 0,1 -9.607161424134198,41.387399972396054" fill="none" id="id4" stroke="none" /><text fill="#e1ed5e" style="font-size:6.75px; font-family:Arial;" text-anchor="middle"><textPath startOffset="21.466115282336823" xlink:href="#id4">April</textPath></text><line stroke="#e1ed5e" stroke-width="0.3" x1="174.80103733775053" x2="179.2010983576182" y1="140.37084112569926" y2="142.7455964860345" /><path d="M 175.68104954172406 140.8457921977663 a86.0,86.0 0 0,1 -30.038265399797805,32.042727171017184" fill="none" id="id5" stroke="none" /><text fill="#e1ed5e" style="font-size:6.75px; font-family:Arial;" text-anchor="middle"><textPath startOffset="22.206326154141568" xlink:href="#id5">May</textPath></text><path d="M 112.92097659922987 116.55440617244103 l 4.939663752855086 6.3287166795829775 a29.02825839156303,29.02825839156303 0 0,0 -0.39654159020986174,0.30405118197206343 l -4.8299934341517305 -6.412807203382412" fill="#ff5808" stroke="none" /><path d="M 112.34349029814194 116.9893568818739 l 2.7948043200953037 3.8467181374339052 a25.754805108149686,25.754805108149686 0 0,0 -0.36090168190030497,0.2574937675018971 l -2.728175310346114 -3.8942561667800217" fill="#ff2a04" stroke="none" /><path d="M 111.7513745106137 117.40417183066458 l 4.514008468275006 6.685394883464602 a29.06664596964024,29.06664596964024 0 0,0 -0.4170721834962216,0.27641270097024806 l -4.39826158603882 -6.76210560552617" fill="#ff5908" stroke="none" /><path d="M 111.45004920935366 117.60387380957326 l 3.597890349278561 5.531575151453562 a27.598722499212275,27.598722499212275 0 0,0 -0.4004682374174667,0.2555977766186903 l -3.5021403098141644 -5.592687356896061" fill="#ff4406" stroke="none" /><line stroke="#e1ed5e" stroke-width="0.3" x1="143.8653032363475" x2="146.44561519142675" y1="172.8068346515853" y2="177.08958963109032" /><path d="M 144.38136562736335 173.6633856474863 a86.0,86.0 0 0,1 -40.68145358897372,12.25698825130547" fill="none" id="id6" stroke="none" /><text fill="#e1ed5e" style="font-size:6.75px; font-family:Arial;" text-anchor="middle"><textPath startOffset="21.466115282336833" xlink:href="#id6">June</textPath></text><path d="M 110.8373102113329 117.98757091392108 l 5.132923565703504 8.51953342973216 a30.94632365206754,30.94632365206754 0 0,0 -0.45864239019417685,0.2709740083524708 l -4.985513304480945 -8.60662601037838" fill="#ff730a" stroke="none" /><path d="M 110.5260780823613 118.17145234162733 l 2.6152289061689333 4.514740158590417 a26.217499490297108,26.217499490297108 0 0,0 -0.3924525377627491,0.22284479332376075 l -2.5371276014849853 -4.559088117708806" fill="#ff3004" stroke="none" /><path d="M 110.21172684928248 118.3499491758327 l 4.793968824122991 8.614515994360378 a30.85860146794432,30.85860146794432 0 0,0 -0.4663721982648647,0.2543033075070207 l -4.644973813989477 -8.695759953627169" fill="#ff720a" stroke="none" /><path d="M 109.89434966115114 118.52300852407294 l 2.8545307888467386 5.34390838658568 a27.058523159045837,27.058523159045837 0 0,0 -0.4127186253352328,0.2159148784885309 l -2.76212126098501 -5.392252684018928" fill="#ff3d05" stroke="none" /><path d="M 109.57404056367764 118.69057910512821 l 7.2917925107501045 14.235141770488239 a36.9940457435175,36.9940457435175 0 0,0 -0.5692610152868042,0.2854392907296278 l -7.04567758778054 -14.35854890212717" fill="#ffc412" stroke="none" /><path d="M 109.2508944713604 118.85261126421891 l 4.073296420685696 8.301064747939881 a30.246589624302633,30.246589624302633 0 0,0 -0.4693800187978966,0.22533093319975836 l -3.929803733887567 -8.3699499576392" fill="#ff6909" stroke="none" /><path d="M 108.2653958097858 119.30500536409082 l 4.851705227168833 11.331846361742361 a33.32679137397364,33.32679137397364 0 0,0 -0.5293064803140015,0.22125015169927925 l -4.655927287357371 -11.413681556461613" fill="#ff930d" stroke="none" /><path d="M 107.2578585660854 119.70592522655815 l 5.402331123101715 14.667953665893684 a36.63118825644543,36.63118825644543 0 0,0 -0.593565563550388,0.21283149303795437 l -5.149045998921592 -14.7587726999716" fill="#ffbf11" stroke="none" /><path d="M 106.91757812671514 119.82793768551818 l 3.6750395074101863 10.533810100869612 a32.15648110392378,32.15648110392378 0 0,0 -0.5241969887669163,0.17783607939412643 l -3.493172785706043 -10.595509167161863" fill="#ff840c" stroke="none" /><path d="M 106.2309692047433 120.05430185196036 l 3.177574288185234 10.22698585699718 a31.709258521305582,31.709258521305582 0 0,0 -0.5226365674365594,0.15746611051549897 l -3.0010627463084285 -10.280167336618403" fill="#ff7d0b" stroke="none" /><path d="M 105.53697534728816 120.25689768951611 l 3.9649261078835503 14.505591496488291 a36.03771338016422,36.03771338016422 0 0,0 -0.5997869164565415,0.1584091760146256 l -3.7146487486155113 -14.5716920218065" fill="#ffb711" stroke="none" /><path d="M 105.18746579009965 120.34920634021253 l 3.5100340722387404 13.769036845212703 a35.20938826385928,35.20938826385928 0 0,0 -0.5885780998204159,0.14465817690183527 l -3.2725026876751135 -13.827416280428569" fill="#ffac10" stroke="none" /><path d="M 103.41894727170886 120.7198165907248 l 1.0197575964555425 6.180028145036699 a27.26359748299446,27.26359748299446 0 0,0 -0.46369424999708203,0.07241950549564846 l -0.9132274828499433 -6.196665957879453" fill="#ff3f05" stroke="none" /><path d="M 102.34483914955558 120.86867818915974 l 0.7103391910555039 6.321900581579293 a27.361682853594793,27.361682853594793 0 0,0 -0.4684937741032421,0.048561295241272597 l -0.6014128203466591 -6.333191245276324" fill="#ff4106" stroke="none" /><path d="M 101.98527174616119 120.90594882070398 l 0.7203293211094793 7.5854441339258925 a28.619569347394954,28.619569347394954 0 0,0 -0.4908333582978233,0.042351167472997296 l -0.5896516450701142 -7.596719553677553" fill="#ff5307" stroke="none" /><path d="M 101.62511606390274 120.93702456842531 l 0.7811870538675767 10.064347342726272 a31.094619390951383,31.094619390951383 0 0,0 -0.5339941757991736,0.03682736480423723 l -0.6078301172894728 -10.076303052046795" fill="#ff750a" stroke="none" /><path d="M 101.26447882468166 120.96189622390904 l 0.6372988041499643 10.564820173699669 a31.58402452134265,31.58402452134265 0 0,0 -0.542962366653616,0.02806495241883846 l -0.4553483690828688 -10.57422493288071" fill="#ff7c0b" stroke="none" /><path d="M 100.90346689309514 120.98055641714683 l 0.662491593758949 15.38456180848834 a36.39881934276129,36.39881934276129 0 0,0 -0.6261977453147936,0.021567516482579777 l -0.39757349676950315 -15.393686123397014" fill="#ffbc11" stroke="none" /><line stroke="#e1ed5e" stroke-width="0.3" x1="102.19456741930631" x2="102.32365962044197" y1="184.97166512339345" y2="189.96999836594603" /><path d="M 102.22038585953345 185.97133177190398 a86.0,86.0 0 0,1 -42.740103519485714,-10.115201625700543" fill="none" id="id7" stroke="none" /><text fill="#e1ed5e" style="font-size:6.75px; font-family:Arial;" text-anchor="middle"><textPath startOffset="22.20632615414155" xlink:href="#id7">July</textPath></text><path d="M 100.54218724476979 120.99299961872073 l 0.12096786015451227 4.683766109583355 a25.68532797064111,25.68532797064111 0 0,0 -0.44208156699605017,0.007610835089978582 l -0.040326603265794174 -4.685154421952493" fill="#ff2904" stroke="none" /><path d="M 99.81925306533755 120.99922214144158 l -0.11599614515078747 13.476459914085352 a34.476959112560934,34.476959112560934 0 0,0 -0.5933982282477063,-0.01021588863920923 l 0.3479540632911617 -13.472466548166983" fill="#ffa30f" stroke="none" /><path d="M 99.45781275523022 120.99299961872073 l -0.23246178883149685 9.000710163107756 a30.003711563768466,30.003711563768466 0 0,0 -0.5161776362958913,-0.017778201473967234 l 0.38735977680203115 -8.995375163207695" fill="#ff6609" stroke="none" /><path d="M 99.09653310690486 120.98055641714683 l -0.27215531444087854 6.320065486065259 a27.32592256223009,27.32592256223009 0 0,0 -0.4697611469797195,-0.02428128549582479 l 0.3809045298340869 -6.314444393807232" fill="#ff4006" stroke="none" /><path d="M 98.73552117531835 120.96189622390904 l -0.8624402748643043 14.297102638770273 a35.32309139436176,35.32309139436176 0 0,0 -0.6066105791055314,-0.04183541713239705 l 1.1084136147487658 -14.28013887712159" fill="#ffae10" stroke="none" /><path d="M 98.01472825383883 120.90594882070398 l -1.147327594038859 12.081959060737315 a33.136313087316736,33.136313087316736 0 0,0 -0.5673684788033607,-0.058810062657711215 l 1.3551286694478129 -12.060419629623842" fill="#ff910d" stroke="none" /><path d="M 97.65516085044442 120.86867818915974 l -1.378467105184683 12.26812782356262 a33.345328341334124,33.345328341334124 0 0,0 -0.5698439957643866,-0.0690001720263011 l 1.589438524000459 -12.24258212281097" fill="#ff940d" stroke="none" /><path d="M 96.93821686468263 120.77559828337769 l -2.8845415699293406 19.572933235306976 a40.78434470743054,40.78434470743054 0 0,0 -0.6936526312248559,-0.10833427531045638 l 3.2210300647627137 -19.520380652649415" fill="#fff417" stroke="none" /><path d="M 96.22490169976321 120.6578951692458 l -2.187292430954068 11.969187064691718 a33.167402646748094,33.167402646748094 0 0,0 -0.560738194292193,-0.10746680950424636 l 2.3929982398179557 -11.929763056839004" fill="#ff910d" stroke="none" /><path d="M 95.86986931433489 120.58985236759428 l -3.0090099146809437 15.000752913447112 a36.29956628917762,36.29956628917762 0 0,0 -0.6115760237867158,-0.12816170202680863 l 3.2667773998970464 -14.946735230693761" fill="#ffbb11" stroke="none" /><path d="M 94.81253420990036 120.34920634021253 l -3.634425373295975 14.256994617767527 a35.71295155042352,35.71295155042352 0 0,0 -0.5943818039182506,-0.15698163666695986 l 3.8792976200257145 -14.192321631796986" fill="#ffb310" stroke="none" /><path d="M 94.46302465271185 120.25689768951611 l -4.3647822826443825 15.968456168013082 a37.5542416547736,37.5542416547736 0 0,0 -0.6220928655791973,-0.17580965773035984 l 4.639006316328193 -15.8909577169442" fill="#ffcb12" stroke="none" /><path d="M 93.42475214034765 119.94407469862007 l -1.7477974751951546 5.301428044599181 a26.582108501844196,26.582108501844196 0 0,0 -0.4333266810727602,-0.1470079373025807 l 1.8387938892051405 -5.270557120398477" fill="#ff3605" stroke="none" /><path d="M 93.08242187328487 119.8279376855182 l -1.8013871941470505 5.16333785882359 a26.46855133171464,26.46855133171464 0 0,0 -0.42889191793573767,-0.1537853825282192 l 1.8899986727125149 -5.131564935255413" fill="#ff3404" stroke="none" /><path d="M 92.7421414339146 119.70592522655815 l -1.8791024010714032 5.101980297823738 a26.437023891164532,26.437023891164532 0 0,0 -0.42567357390831373,-0.16095332221229192 l 1.9666461957399999 -5.068878725504813" fill="#ff3404" stroke="none" /><path d="M 92.40401165467489 119.57807347666478 l -3.4614028962444516 8.92149871145091 a30.569453969195408,30.569453969195408 0 0,0 -0.48893501453149063,-0.1945573327507838 l 3.6144589868178003 -8.86059453429406" fill="#ff6e0a" stroke="none" /><path d="M 91.07499286063937 119.00905698771935 l -5.447011937887918 11.601398040732166 a33.81648842511074,33.81648842511074 0 0,0 -0.5247792947838112,-0.2519259522814583 l 5.645903900671971 -11.505917811951145" fill="#ff9a0e" stroke="none" /><path d="M 90.7491055286396 118.85261126421891 l -1.4820111949547687 3.0202248046608746 a24.36424063536782,24.36424063536782 0 0,0 -0.37491472159980993,-0.1879900245120936 l 1.5337798242373393 -2.994266939239479" fill="#ff1602" stroke="none" /><path d="M 90.42595943632237 118.69057910512821 l -7.258387266628138 14.169927574492833 a36.920773636313086,36.920773636313086 0 0,0 -0.5631456991176667,-0.2946112138689317 l 7.5012238682723 -14.042886941679184" fill="#ffc312" stroke="none" /><path d="M 90.10565033884886 118.52300852407294 l -7.246566271878846 13.566147692485611 a36.38028237540081,36.38028237540081 0 0,0 -0.5498224630347411,-0.29980704555631155 l 7.479011546782228 -13.439399995169534" fill="#ffbc11" stroke="none" /><line stroke="#e1ed5e" stroke-width="0.3" x1="58.666819895761336" x2="56.23545636021788" y1="174.27360380694188" y2="178.64263932499728" /><path d="M 58.180547188652646 175.14741091055294 a86.0,86.0 0 0,1 -31.652253787137756,-30.449443065178592" fill="none" id="id8" stroke="none" /><text fill="#e1ed5e" style="font-size:6.75px; font-family:Arial;" text-anchor="middle"><textPath startOffset="22.20632615414155" xlink:href="#id8">August</textPath></text><path d="M 88.8546689885994 117.79835938074946 l -4.222724909382643 6.74341349093679 a28.95644588808778,28.95644588808778 0 0,0 -0.42016933381637533,-0.2681719484655885 l 4.338176045245942 -6.669727113647398" fill="#ff5708" stroke="none" /><path d="M 87.95078237400918 117.19931262002967 l -9.290753450511628 13.261821475137383 a37.19240589031194,37.19240589031194 0 0,0 -0.5211766030986139,-0.3718456682138024 l 9.517657381459129 -13.099931545079361" fill="#ffc612" stroke="none" /><path d="M 87.65650970185807 116.9893568818739 l -5.45731528736684 7.511350095842668 a30.284539321261096,30.284539321261096 0 0,0 -0.41910201384325935,-0.3100416505271654 l 5.585802271628664 -7.4162984965757355" fill="#ff6a09" stroke="none" /><path d="M 84.19399662182784 113.82643327865904 l -12.567820467301523 10.993805770615035 a37.69772070135117,37.69772070135117 0 0,0 -0.42303572644676757,-0.4920861216025149 l 12.755198703319069 -10.775842549850989" fill="#ffcd13" stroke="none" /><path d="M 83.95833913139862 113.55231037782056 l -3.8795543569610484 3.2775237678831557 a26.07869117565288,26.07869117565288 0 0,0 -0.2867463861904469,-0.3454044942721211 l 3.9353967430450316 -3.2102580164972734" fill="#ff2e04" stroke="none" /><path d="M 83.50135304334701 112.99209946851258 l -9.153602413356845 7.208137331624839 a32.65099484736715,32.65099484736715 0 0,0 -0.34391321291836136,-0.44455418766462224 l 9.276322443493275 -7.049505149846965" fill="#ff8a0c" stroke="none" /><path d="M 83.28015986056508 112.70617746262583 l -12.191014239156864 9.264513839865025 a36.31182696050266,36.31182696050266 0 0,0 -0.3739058793298264,-0.5009080281878234 l 12.348681385181775 -9.053292932167894" fill="#ffbb11" stroke="none" /><path d="M 83.06392112726016 112.41649034213515 l -3.5948713187492034 2.635538328905241 a25.457483828517415,25.457483828517415 0 0,0 -0.2560540485644792,-0.3556366783361004 l 3.63970515968929 -2.573268045118003" fill="#ff2503" stroke="none" /><path d="M 82.85270091963577 112.12312394758628 l -10.568600633308476 7.47199047673087 a33.94318202880285,33.94318202880285 0 0,0 -0.33319127387847525,-0.47998688060141775 l 10.695652814349085 -7.28896233394244" fill="#ff9c0e" stroke="none" /><path d="M 82.6465618267979 111.8261652097733 l -14.557744057926344 9.920932358896616 a38.61683316961059,38.61683316961059 0 0,0 -0.3696125498077919,-0.5525206122733433 l 14.726359713144866 -9.668874832417453" fill="#ffd914" stroke="none" /><path d="M 82.44556493220864 111.52570212397912 l -7.962868810556883 5.228174738086269 a30.525811817693178,30.525811817693178 0 0,0 -0.28460978549389665,-0.44172070744093095 l 8.051683459427826 -5.0903324307238895" fill="#ff6d0a" stroke="none" /><path d="M 82.24976979558568 111.22182372390057 l -5.72980609083564 3.6224247901584286 a27.778837599392062,27.778837599392062 0 0,0 -0.25204051579073816,-0.4063695629019895 l 5.791311246294335 -3.523258895891175" fill="#ff4706" stroke="none" /><line stroke="#e1ed5e" stroke-width="0.3" x1="26.63291911575756" x2="22.317208475507996" y1="142.92168965132927" y2="145.44649492493687" /><path d="M 25.769776987707644 143.4266507060508 a86.0,86.0 0 0,1 -11.730757126820373,-40.83630448921669" fill="none" id="id9" stroke="none" /><text fill="#e1ed5e" style="font-size:6.75px; font-family:Arial;" text-anchor="middle"><textPath startOffset="21.46611528233685" xlink:href="#id9">September</textPath></text><path d="M 81.35079622478065 109.6543875284942 l -17.9669211013771 9.301180956425794 a41.23171325042166,41.23171325042166 0 0,0 -0.3208638774464343,-0.6330948705657649 l 18.1243636486098 -8.990531874157345" fill="#fff917" stroke="none" /><path d="M 79.50377843672027 104.57218783832718 l -12.129944888017674 2.7058834393132285 a33.428087872778164,33.428087872778164 0 0,0 -0.12044611440464877,-0.5626841479223432 l 12.174725041146763 -2.4966854719747213" fill="#ff950d" stroke="none" /><line stroke="#e1ed5e" stroke-width="0.3" x1="15.007084014347285" x2="10.007500721073583" y1="101.09737516637583" y2="101.16192664675087" /><path d="M 14.007167355692545 101.11028546245083 a86.0,86.0 0 0,1 10.666146001902534,-42.60595125391555" fill="none" id="id10" stroke="none" /><text fill="#e1ed5e" style="font-size:6.75px; font-family:Arial;" text-anchor="middle"><textPath startOffset="22.20632615414155" xlink:href="#id10">October</textPath></text><path d="M 79.01574976396665 99.18683210126434 l -6.8837251292101405 -0.26675360023974554 a27.888891720571607,27.888891720571607 0 0,0 0.022718014652649023,-0.4795413832805679 l 6.878113506323993 0.3852060901433225" fill="#ff4806" stroke="none" /><path d="M 79.03285615573316 98.82574320788736 l -7.873900306093297 -0.4409747452262584 a28.88623894871462,28.88623894871462 0 0,0 0.03207666763758696,-0.4962118508843052 l 7.865143047451297 0.5764456603635754" fill="#ff5608" stroke="none" /><path d="M 79.05617556472873 98.46500227214037 l -13.7394718006782 -1.0069821804137644 a34.77632383741404,34.77632383741404 0 0,0 0.04889471010285608,-0.5966393090140792 l 13.720102606755846 1.243335406635622" fill="#ffa70f" stroke="none" /><path d="M 79.08570108090925 98.10471618934814 l -9.78638824159417 -0.8868565602319248 a30.826490185902543,30.826490185902543 0 0,0 0.05243861116995275,-0.528049658208042 l 9.769672504741987 1.055181749144397" fill="#ff710a" stroke="none" /><path d="M 79.62865764111835 94.90015583598534 l -3.128450754032376 -0.7831890034189741 a24.224994439604842,24.224994439604842 0 0,0 0.10474849312083466,-0.40363867359412536 l 3.114505929041234 0.8369241025619633" fill="#ff1402" stroke="none" /><path d="M 79.91906864156998 93.8553929516997 l -10.423266226026964 -3.189437480541399 a31.900320649454155,31.900320649454155 0 0,0 0.1651897588887652,-0.5236966778496825 l 10.366820983369996 3.368384324817496" fill="#ff800b" stroke="none" /><path d="M 80.38941819471856 92.48833698450439 l -14.008837086455411 -5.365963359847411 a36.00136924730784,36.00136924730784 0 0,0 0.2266482489326202,-0.5767950718272279 l 13.914395287641101 5.606307436570403" fill="#ffb711" stroke="none" /><path d="M 81.43458229118936 90.18545643968196 l -9.95392580097453 -5.262108286606213 a32.25923720645747,32.25923720645747 0 0,0 0.263745226368518,-0.48867984850298857 l 9.86187247538754 5.432669118441675" fill="#ff850c" stroke="none" /><path d="M 81.6062741919709 89.86733742301443 l -7.850479539839088 -4.324640971324875 a29.962842659351658,29.962842659351658 0 0,0 0.25274707725053963,-0.4496088481519619 l 7.774874821296118 4.459133329411621" fill="#ff6509" stroke="none" /><line stroke="#e1ed5e" stroke-width="0.3" x1="26.266209847984243" x2="21.928928074336255" y1="57.711370442889674" y2="55.22380399835377" /><path d="M 25.398753493254645 57.213857153982495 a86.0,86.0 0 0,1 29.58750427330803,-30.492523968695096" fill="none" id="id11" stroke="none" /><text fill="#e1ed5e" style="font-size:6.75px; font-family:Arial;" text-anchor="middle"><textPath startOffset="21.46611528233685" xlink:href="#id11">November</textPath></text><path d="M 83.39014120810768 87.1503855733568 l -9.2693328377928 -7.17088293465801 a32.719304301892386,32.719304301892386 0 0,0 0.3484542329963029,-0.4425014898239145 l 9.144524524202525 7.329376818434972" fill="#ff8b0c" stroke="none" /><path d="M 83.84228863543731 86.58626213691792 l -8.182025692569777 -6.792518157605053 a31.634088929253238,31.634088929253238 0 0,0 0.35142367615234493,-0.41597478783094977 l 8.063891402930308 6.932351895065119" fill="#ff7c0b" stroke="none" /><path d="M 84.31358615837235 86.03803664274999 l -1.9158457177433212 -1.7052315449112927 a23.564815672900487,23.564815672900487 0 0,0 0.2722929705114284,-0.30067269895525556 l 1.886209106615848 1.7379570311361043" fill="#ff0a01" stroke="none" /><path d="M 84.80347519578584 85.50635884689758 l -8.643159032367368 -8.243387686215573 a32.94393731581191,32.94393731581191 0 0,0 0.3949126817482964,-0.40699223234637916 l 8.499982086915953 8.390944114112076" fill="#ff8e0d" stroke="none" /><path d="M 85.31137513191541 84.99185889309783 l -1.329763907290618 -1.3586897710790016 a22.901133857246123,22.901133857246123 0 0,0 0.28410138619463693,-0.2733053084260045 l 1.3061792774835534 1.3813781662673197" fill="#ff0000" stroke="none" /><path d="M 86.10567301691215 84.25364557470407 l -15.795484141388087 -17.900924018283245 a44.87342455470502,44.87342455470502 0 0,0 0.5835814534212422,-0.5060760856997634 l 15.485008889320072 18.170165097402688" fill="#d8ff1c" stroke="none" /><path d="M 86.37877921826538 84.01681056812374 l -1.940632010156961 -2.2771445770480745 a23.99189572405612,23.99189572405612 0 0,0 0.3166272892373858,-0.26516624902294134 l 1.9011471839604648 2.310211983464828" fill="#ff1001" stroke="none" /><path d="M 86.65592168130627 83.78471172551755 l -4.835877362264546 -5.876400274068504 a28.610373843901172,28.610373843901172 0 0,0 0.38296565968189183,-0.3096649299863061 l 4.734008304018154 5.9587713013189445" fill="#ff5307" stroke="none" /><path d="M 87.22198572758235 83.33499621200491 l -5.286268980700132 -6.894317904925972 a29.687707356402797,29.687707356402797 0 0,0 0.40821141358364993,-0.307456373601077 l 5.166811413358093 6.984290868032904" fill="#ff6209" stroke="none" /><path d="M 88.39885842347998 82.49532879139004 l -34.80342472956008 -52.51401362582988 a84.0,84.0 0 0,0 1.2121318968628514,-0.78840430336186 l 33.89432580691294 53.105316853351276" fill="#4dd2ff" stroke="none" /><path d="M 88.70189139769569 82.29822771554957 l -8.554935874874218 -13.403794572678523 a36.901214946342186,36.901214946342186 0 0,0 0.5383726435121143,-0.3371288999768863 l 8.322944078989861 13.54906781397834" fill="#ffc312" stroke="none" /><line stroke="#e1ed5e" stroke-width="0.3" x1="56.762969772571076" x2="54.21961505331055" y1="26.818313649435495" y2="22.513508569990535" /><path d="M 56.25429882871897 25.957352633546506 a86.0,86.0 0 0,1 42.265352541879196,-11.944610805530505" fill="none" id="id12" stroke="none" /><text fill="#e1ed5e" style="font-size:6.75px; font-family:Arial;" text-anchor="middle"><textPath startOffset="22.20632615414155" xlink:href="#id12">December</textPath></text><path d="M 90.26544431104013 81.39251694778311 l -6.362405317206702 -12.161659236848847 a34.72538366726595,34.72538366726595 0 0,0 0.5320251433047264,-0.2725239423693561 l 6.1521196863132115 12.269375704530708" fill="#ffa60f" stroke="none" /><path d="M 92.91201910852362 80.23233633223022 l -4.127369778605914 -11.510817941695208 a33.22841408262747,33.22841408262747 0 0,0 0.5400693191827484,-0.18841958092380034 l 3.9286184553598797 11.580158375791218" fill="#ff920d" stroke="none" /><path d="M 95.33964822691252 79.52364482259891 l -0.639963741457074 -2.811831704723879 a23.8837390877245,23.8837390877245 0 0,0 0.4016531539642312,-0.08778582250344924 l 0.5914678633393219 2.8224310253231963" fill="#ff0f01" stroke="none" /><path d="M 97.47563105711357 79.15227682838746 l -2.559641469656365 -21.13902443949383 a42.293429003021146,42.293429003021146 0 0,0 0.7234860914587137,-0.08129209219837547 l 2.195388674687933 21.179952485162804" fill="#f8ff18" stroke="none" /><path d="M 97.83486435360386 79.11191278185805 l -1.447630729343527 -13.965978059860312 a35.040804033139956,35.040804033139956 0 0,0 0.6004907094324846,-0.05702382845632493 l 1.2070148928208062 13.988827432831817" fill="#ffaa0f" stroke="none" /><path d="M 99.27714615592234 79.0124445844662 l -0.17350542127901586 -5.037608465145898 a26.040595518321503,26.040595518321503 0 0,0 0.4481132201897617,-0.011573442414725358 l 0.08676556589437517 5.039848699702983" fill="#ff2e04" stroke="none" /><path d="M 99.63851952072746 79.00311137660856 l -0.04421440981667961 -2.5682300752120537 a23.568610642596333,23.568610642596333 0 0,0 0.4056948890892147,-0.0034919439928383735 l 6.29128160342285e-16 2.568610642596333" fill="#ff0a01" stroke="none" /></svg>