<?xml version="1.0" encoding="utf-8" ?>
<svg baseProfile="full" height="200mm" version="1.1" viewBox="0,0,200,200" width="200mm" xmlns="http://www.w3.org/2000/svg" xmlns:ev="http://www.w3.org/2001/xml-events" xmlns:xlink="http://www.w3.org/1999/xlink"><defs /><rect fill="#1a1a1a" height="200" width="200" x="0" y="0" /><text alignment-baseline="middle" fill="#e1ed5e" style="dominant-baseline: central; font-size:9.0px; font-family:Arial;" text-anchor="middle" x="100.0" y="100.0">2022</text><line stroke="#e1ed5e" stroke-width="0.3" x1="100.0" x2="100.0" y1="15.0" y2="10.0" /><path d="M 100.0 14.0 a86.0,86.0 0 0,1 42.46469731375804,11.215312516191453" fill="none" id="id13" stroke="none" /><text fill="#e1ed5e" style="font-size:6.75px; font-family:Arial;" text-anchor="middle"><textPath startOffset="22.20632615414155" xlink:href="#id13">January</textPath></text><path d="M 100.36148047927253 79.00311137660856 l 0.08183769795205999 -4.753609468904847 a25.754313871808204,25.754313871808204 0 0,0 0.4431868124810868,0.0114462078379284 l -0.16365114562801458 4.751496468924559" fill="#ff1802" stroke="none" /><path d="M 100.72285384407766 79.0124445844662 l 0.3021174559059278 -8.771768871086655 a29.776970097073814,29.776970097073814 0 0,0 0.5121059873441403,0.022052361058598414 l -0.45306427563939955 8.765268783503862" fill="#ff5307" stroke="none" /><path d="M 109.41281617654863 81.2277094730956 l 6.406910290179171 -12.777513030234992 a35.293821696951056,35.293821696951056 0 0,0 0.5407341420907825,0.27698502980692286 l -6.625904919858709 12.665335475115569" fill="#ffa00e" stroke="none" /><line stroke="#e1ed5e" stroke-width="0.3" x1="143.23703022742887" x2="145.7803849466894" y1="26.81831364943548" y2="22.513508569990506" /><path d="M 143.74570117128098 25.957352633546492 a86.0,86.0 0 0,1 28.547481713284135,27.462654790039103" fill="none" id="id14" stroke="none" /><text fill="#e1ed5e" style="font-size:6.75px; font-family:Arial;" text-anchor="middle"><textPath startOffset="19.985693538727396" xlink:href="#id14">February</textPath></text><path d="M 110.68208982089419 81.91981866633111 l 8.105774748115499 -13.719588559266995 a36.935202995342,36.935202995342 0 0,0 0.5445971399671344,0.3281136832912088 l -8.340733954300271 13.578028266517173" fill="#ffb610" stroke="none" /><path d="M 112.77801427241765 83.33499621200491 l 11.237301336724759 -14.655615915815401 a39.46791864840913,39.46791864840913 0 0,0 0.5355748538291725,0.4180246685612339 l -11.48790874571336 14.460012858030945" fill="#ffd714" stroke="none" /><path d="M 113.34407831869373 83.78471172551755 l 3.330297095315444 -4.046868292474006 a26.24099434455886,26.24099434455886 0 0,0 0.3463092288234721,0.29002401981940207 l -3.3994638610980332 3.988943115260784" fill="#ff1f03" stroke="none" /><path d="M 115.9244219780498 86.31012108654704 l 2.424912994426436 -2.0846449130219544 a24.19780353429139,24.19780353429139 0 0,0 0.26881384483210025,0.3181908040298924 l -2.460437452745653 2.042595159362955" fill="#ff0000" stroke="none" /><path d="M 116.15771136456269 86.58626213691792 l 4.485498565465503 -3.723751500744384 a26.829753221199773,26.829753221199773 0 0,0 0.2919351937267607,0.3578780287031479 l -4.548932251268672 3.6459893024331356" fill="#ff2803" stroke="none" /><path d="M 116.38621287248628 86.86637796730983 l 11.83577939487062 -9.48642949070557 a36.16832285937283,36.16832285937283 0 0,0 0.38518561044089444,0.4891466090487655 l -11.99731908590548 9.281290487703766" fill="#ffac0f" stroke="none" /><path d="M 116.60985879189232 87.15038557335679 l 9.542226789930698 -7.381997436489087 a33.06432668087211,33.06432668087211 0 0,0 0.3443792269236433,0.45316269495228223 l -9.667881957078455 7.216649965655771" fill="#ff810b" stroke="none" /><path d="M 117.45458315368197 88.32363383020206 l 11.299197777514927 -7.558677827685649 a34.59431796443444,34.59431796443444 0 0,0 0.3268394800781702,0.49779895132689195 l -11.427633892951022 7.363060812381083" fill="#ff960d" stroke="none" /><path d="M 117.65298651832404 88.62581576622439 l 3.3653529868954526 -2.1683665166176094 a25.003425293020282,25.003425293020282 0 0,0 0.22999865552082846,0.36380263873735524 l -3.402179238662237 2.1101162301660477" fill="#ff0d01" stroke="none" /><line stroke="#e1ed5e" stroke-width="0.3" x1="172.23445277983987" x2="176.4835382374775" y1="55.19839476539836" y2="52.563006222186495" /><path d="M 173.08426987136738 54.67131705675599 a86.0,86.0 0 0,1 12.851231095245387,41.99856678651699" fill="none" id="id15" stroke="none" /><text fill="#e1ed5e" style="font-size:6.75px; font-family:Arial;" text-anchor="middle"><textPath startOffset="22.20632615414155" xlink:href="#id15">March</textPath></text><path d="M 118.03404312379186 89.2402003453031 l 6.2381544153595225 -3.721921438447704 a28.264108321318325,28.264108321318325 0 0,0 0.24568283494187515,0.41995160417670957 l -6.301296924771725 3.613990421917099" fill="#ff3d05" stroke="none" /><path d="M 118.21658344932153 89.55222093294921 l 6.60455121517152 -3.787916220684284 a28.613698578795113,28.613698578795113 0 0,0 0.2413665741711964,0.4293642030444615 l -6.66877543063515 3.6736685077050284" fill="#ff4206" stroke="none" /><path d="M 118.73160827565052 90.50648371742162 l 18.302097558782787 -9.275832519170514 a41.51847567376544,41.51847567376544 0 0,0 0.3175965425918057,0.640255249861359 l -18.459054114328 8.959417680810205" fill="#fff216" stroke="none" /><path d="M 118.89224826269711 90.83032412892265 l 14.527366307102705 -7.051105746877582 a37.14814119564208,37.14814119564208 0 0,0 0.2742626145901815,0.5776670120139528 l -14.646587115534642 6.799996319223088" fill="#ffb911" stroke="none" /><path d="M 119.47837535516314 92.15188598940014 l 8.008279660718392 -3.2266495875605057 a29.63387576266767,29.63387576266767 0 0,0 0.18656140561090523,0.47477842805448733 l -8.062634616210998 3.0883221546102337" fill="#ff5107" stroke="none" /><path d="M 120.28053869075195 94.5502522615342 l 6.137800892449836 -1.6493381681244494 a27.355542163198205,27.355542163198205 0 0,0 0.11828493200452342,0.45580009447391356 l -6.165282156324662 1.5434416481016855" fill="#ff3004" stroke="none" /><path d="M 120.67395015179393 96.31383870115 l 3.1234280282709905 -0.5569066111227327 a24.172687759818324,24.172687759818324 0 0,0 0.06951160075563423,0.4102614024858592 l -3.1325514905468475 0.5030594203210356" fill="#ff0000" stroke="none" /><line stroke="#e1ed5e" stroke-width="0.3" x1="184.98032266829074" x2="189.97916517819016" y1="98.17113171792111" y2="98.06355123074" /><path d="M 185.9800911702706 98.14961562048488 a86.0,86.0 0 0,1 -9.607161424134198,41.387399972396054" fill="none" id="id16" stroke="none" /><text fill="#e1ed5e" style="font-size:6.75px; font-family:Arial;" text-anchor="middle"><textPath startOffset="21.466115282336823" xlink:href="#id16">April</textPath></text><line stroke="#e1ed5e" stroke-width="0.3" x1="174.80103733775053" x2="179.2010983576182" y1="140.37084112569926" y2="142.7455964860345" /><path d="M 175.68104954172406 140.8457921977663 a86.0,86.0 0 0,1 -30.038265399797805,32.042727171017184" fill="none" id="id17" stroke="none" /><text fill="#e1ed5e" style="font-size:6.75px; font-family:Arial;" text-anchor="middle"><textPath startOffset="22.206326154141568" xlink:href="#id17">May</textPath></text><path d="M 112.92097659922987 116.55440617244103 l 4.827357664562295 6.184829676386355 a28.84573133286615,28.84573133286615 0 0,0 -0.39404817261878,0.3021393356880025 l -4.7201807634500215 -6.267008353901728" fill="#ff4506" stroke="none" /><path d="M 112.63410532772338 116.77436683061366 l 4.287004803893091 5.691878397381066 a28.12572030598842,28.12572030598842 0 0,0 -0.38922652565352434,0.28794047858644617 l -4.188393307821003 -5.764828824707282" fill="#ff3b05" stroke="none" /><path d="M 112.04921762599082 117.19931262002967 l 4.539691283476697 6.480053062907383 a28.912008888226154,28.912008888226154 0 0,0 -0.41005918090857935,0.2820424437481615 l -4.427475217945234 -6.557236296020639" fill="#ff4606" stroke="none" /><line stroke="#e1ed5e" stroke-width="0.3" x1="143.8653032363475" x2="146.44561519142675" y1="172.8068346515853" y2="177.08958963109032" /><path d="M 144.38136562736335 173.6633856474863 a86.0,86.0 0 0,1 -40.68145358897372,12.25698825130547" fill="none" id="id18" stroke="none" /><text fill="#e1ed5e" style="font-size:6.75px; font-family:Arial;" text-anchor="middle"><textPath startOffset="21.466115282336833" xlink:href="#id18">June</textPath></text><path d="M 110.8373102113329 117.98757091392108 l 7.651705292285949 12.700161652057252 a35.827093439659116,35.827093439659116 0 0,0 -0.5309782174328662,0.3137112901071314 l -7.4319592038247 -12.829991514458133" fill="#ffa70f" stroke="none" /><path d="M 110.21172684928248 118.3499491758327 l 11.535440697973002 20.728595041054156 a44.722163570645634,44.722163570645634 0 0,0 -0.6758949772000888,0.36855183235375566 l -11.176922908904263 -20.924087525167682" fill="#e4ff1a" stroke="none" /><path d="M 109.89434966115114 118.52300852407294 l 10.019195692467038 18.75673021185003 a42.26497614774298,42.26497614774298 0 0,0 -0.6446598268867973,0.33725555292214177 l -9.694844963053745 -18.92641518371689" fill="#fffb17" stroke="none" /><path d="M 108.92500713936063 119.00905698771935 l 11.802531987408912 25.13779537033613 a48.77064128526209,48.77064128526209 0 0,0 -0.762986501388352,0.3502496806626819 l -11.36807749025314 -25.337232121332885" fill="#b4ff20" stroke="none" /><path d="M 107.59598834532513 119.57807347666477 l 8.082808838527447 20.832815710666086 a43.34587230686583,43.34587230686583 0 0,0 -0.6979300111463743,0.263897410718444 l -7.723008606620798 -20.968861371491162" fill="#f5ff19" stroke="none" /><path d="M 107.2578585660854 119.70592522655815 l 5.155342768254283 13.997351723442328 a35.916548338270005,35.916548338270005 0 0,0 -0.581985659486185,0.2086793514337837 l -4.913637548138364 -14.08401861591607" fill="#ffa80f" stroke="none" /><path d="M 106.2309692047433 120.05430185196036 l 4.244612088254223 13.661234595338806 a35.30545568825529,35.30545568825529 0 0,0 -0.5819096072617206,0.1753245911906602 l -4.008827506552256 -13.732274555635192" fill="#ffa00e" stroke="none" /><path d="M 105.53697534728816 120.25689768951611 l 6.2369059622923935 22.817577838624068 a44.65461592172121,44.65461592172121 0 0,0 -0.7432007160582589,0.19628606395718004 l -5.843214803422637 -22.92155525188483" fill="#e5ff1a" stroke="none" /><path d="M 104.83641907484287 120.43548508189849 l 6.502621582346071 27.47574688688071 a49.234743746581586,49.234743746581586 0 0,0 -0.8263931009750379,0.18808437927697386 l -6.028708331978172 -27.583607999735367" fill="#aeff20" stroke="none" /><path d="M 104.13013068566511 120.58985236759428 l 2.9522908609505083 14.71799262530593 a36.0111734466767,36.0111734466767 0 0,0 -0.6088158481355108,0.11668100628910162 l -2.6985073982432928 -14.7666308299435" fill="#ffaa0f" stroke="none" /><path d="M 103.41894727170886 120.7198165907248 l 1.7711021335844523 10.733394947319368 a31.878537119609803,31.878537119609803 0 0,0 -0.5421842942737746,0.08467803618237878 l -1.5860819757021607 -10.762291290848854" fill="#ff710a" stroke="none" /><path d="M 103.06178313531738 120.77559828337769 l 3.0258770394730905 20.53195900841381 a41.753729124694566,41.753729124694566 0 0,0 -0.7119436481372786,0.0986689023865306 l -2.672004800148981 -20.581002476292944" fill="#fff517" stroke="none" /><path d="M 102.34483914955558 120.86867818915974 l 2.731702310334537 24.311695936056008 a45.46468386878378,45.46468386878378 0 0,0 -0.7784580154688442,0.08069035622613642 l -2.31281169826009 -24.3551156607379" fill="#dbff1b" stroke="none" /><path d="M 101.62511606390274 120.93702456842531 l 1.5878997304643434 20.45755156040212 a41.51908480903863,41.51908480903863 0 0,0 -0.7130156247865307,0.04917373206521653 l -1.2355213448988824 -20.481853636983622" fill="#fff216" stroke="none" /><path d="M 101.26447882468166 120.96189622390904 l 2.139242016877716 35.46328201020354 a56.52774588039609,56.52774588039609 0 0,0 -0.971770987072084,0.05022946006787318 l -1.5284829613921525 -35.49485127703362" fill="#5dff2a" stroke="none" /><line stroke="#e1ed5e" stroke-width="0.3" x1="102.19456741930631" x2="102.32365962044197" y1="184.97166512339345" y2="189.96999836594603" /><path d="M 102.22038585953345 185.97133177190398 a86.0,86.0 0 0,1 -42.740103519485714,-10.115201625700543" fill="none" id="id19" stroke="none" /><text fill="#e1ed5e" style="font-size:6.75px; font-family:Arial;" text-anchor="middle"><textPath startOffset="22.20632615414155" xlink:href="#id19">July</textPath></text><path d="M 100.54218724476979 120.99299961872073 l 0.5118765011238453 19.819395045871133 a40.826004073859764,40.826004073859764 0 0,0 -0.7026744558523369,0.012097177997652983 l -0.17064235537884043 -19.825269701147946" fill="#ffe915" stroke="none" /><path d="M 100.18074693466247 120.99922214144158 l 0.3002075578357483 34.87818594160526 a55.87947790829118,55.87947790829118 0 0,0 -0.9619089849963836,0.0 l 0.30020755783572434 -34.87818594160526" fill="#64ff29" stroke="none" /><path d="M 99.09653310690486 120.98055641714683 l -0.6795488611878102 15.780670359170985 a36.79529498425273,36.79529498425273 0 0,0 -0.6325495483600257,-0.032695586411806636 l 0.9510864779613248 -15.766634965996976" fill="#ffb410" stroke="none" /><path d="M 98.73552117531835 120.96189622390904 l -1.5096761287995983 25.026654243559346 a46.07214678962562,46.07214678962562 0 0,0 -0.791206277295165,-0.054566217254605094 l 1.9402451668736933 -24.996959681788454" fill="#d4ff1c" stroke="none" /><path d="M 98.37488393609728 120.93702456842531 l -1.4090510787781998 18.153372371261824 a39.20797499427924,39.20797499427924 0 0,0 -0.6724273801922482,-0.05801986378984262 l 1.7213227767119899 -18.126428255193318" fill="#ffd413" stroke="none" /><path d="M 98.01472825383883 120.90594882070398 l -1.3222161169657713 13.923626588977912 a34.98626586509983,34.98626586509983 0 0,0 -0.5990438462657292,-0.0620933440079491 l 1.5616925598370939 -13.898803876514203" fill="#ff9c0e" stroke="none" /><path d="M 97.2962882734958 120.8252237178851 l -2.0009572905715736 15.412287788522702 a36.541635851960294,36.541635851960294 0 0,0 -0.6230721442785345,-0.08635212175069219 l 2.265958026036939 -15.375561101279406" fill="#ffb110" stroke="none" /><path d="M 96.58105272829116 120.7198165907248 l -2.501474204334502 15.159662492932982 a36.36465880176289,36.36465880176289 0 0,0 -0.6167290778245631,-0.10722625545732202 l 2.7620522536311154 -15.114357658954654" fill="#ffae10" stroke="none" /><path d="M 95.86986931433489 120.58985236759428 l -4.722876718470033 23.544856515354162 a45.0138675108047,45.0138675108047 0 0,0 -0.7583947942575723,-0.15892900287114406 l 5.127462974156993 -23.460071531756476" fill="#e1ff1b" stroke="none" /><path d="M 95.16358092515715 120.4354850818985 l -7.761935436788672 32.79676830534133 a54.70275438297465,54.70275438297465 0 0,0 -0.914439154363914,-0.22474689594855887 l 8.325327875895796 -32.65830015107874" fill="#71ff27" stroke="none" /><path d="M 94.81253420990036 120.34920634021253 l -7.187126693169203 28.193405024795407 a50.09506619679399,50.09506619679399 0 0,0 -0.8337478287509809,-0.2202003793892291 l 7.671364964731674 -28.065513296102594" fill="#a4ff21" stroke="none" /><path d="M 94.11515582081647 120.15858648285463 l -5.428929971960871 18.596848279561147 a40.37307529984518,40.37307529984518 0 0,0 -0.6654348438135615,-0.20049005979576678 l 5.7482397902146785 -18.500642850659656" fill="#ffe315" stroke="none" /><path d="M 93.76903079525671 120.05430185196036 l -12.066568468697573 38.836110151916216 a61.66749963228052,61.66749963228052 0 0,0 -1.0109906583336412,-0.32368728276570824 l 12.733280472122155 -38.622650022490795" fill="#30ff38" stroke="none" /><path d="M 93.08242187328487 119.8279376855182 l -9.305014519462544 26.67107543639069 a49.247646984148105,49.247646984148105 0 0,0 -0.7980005216056207,-0.28613459554914367 l 9.762734601697892 -26.506953299801587" fill="#aeff20" stroke="none" /><path d="M 92.7421414339146 119.70592522655815 l -5.649451642684209 15.338914450882838 a37.34621058210525,37.34621058210525 0 0,0 -0.6013269495032015,-0.22737039880039658 l 5.912648812947693 -15.239395801975808" fill="#ffbb11" stroke="none" /><path d="M 90.7491055286396 118.85261126421891 l -12.519978985403649 25.514754014191542 a49.420987776635286,49.420987776635286 0 0,0 -0.7604856704037024,-0.38132330256396213 l 12.95731856349011 -25.295462870718275" fill="#acff20" stroke="none" /><line stroke="#e1ed5e" stroke-width="0.3" x1="58.666819895761336" x2="56.23545636021788" y1="174.27360380694188" y2="178.64263932499728" /><path d="M 58.180547188652646 175.14741091055294 a86.0,86.0 0 0,1 -31.652253787137756,-30.449443065178592" fill="none" id="id20" stroke="none" /><text fill="#e1ed5e" style="font-size:6.75px; font-family:Arial;" text-anchor="middle"><textPath startOffset="22.20632615414155" xlink:href="#id20">August</textPath></text><path d="M 89.4739219176387 118.17145234162733 l -7.162912964116094 12.36552973825761 a35.290334070246075,35.290334070246075 0 0,0 -0.5230231335620147,-0.309011286336542 l 7.37470396870649 -12.24039987962732" fill="#ffa00e" stroke="none" /><path d="M 88.8546689885994 117.79835938074946 l -13.991812499874909 22.344002794183602 a47.36333207123372,47.36333207123372 0 0,0 -0.6872604379904521,-0.4386421281277011 l 14.374354739912285 -22.0998462372321" fill="#c4ff1e" stroke="none" /><path d="M 88.24862548938628 117.40417183066458 l -11.703231525757209 17.33287048798957 a41.9139672826295,41.9139672826295 0 0,0 -0.5944660282510772,-0.40887915486173604 l 11.999854438631177 -17.12885054376273" fill="#fff717" stroke="none" /><path d="M 87.95078237400918 117.19931262002967 l -7.711255245409278 11.00721173568576 a34.43957468278183,34.43957468278183 0 0,0 -0.48260122236428726,-0.34432315829974275 l 7.899583795622452 -10.872844315541796" fill="#ff940d" stroke="none" /><path d="M 87.07902340077011 116.55440617244103 l -13.386368871511621 17.150668586949728 a42.756385374035816,42.756385374035816 0 0,0 -0.5762797389814275,-0.45783147763560533 l 13.679606103210407 -16.91770319530899" fill="#fdff18" stroke="none" /><path d="M 86.51685102203217 116.09983520530335 l -15.747909324255048 18.804119524516242 a45.52736347790467,45.52736347790467 0 0,0 -0.5964833072950677,-0.5083360149058583 l 16.069258108127173 -18.530259119387434" fill="#daff1b" stroke="none" /><path d="M 85.97065885151581 115.62618273729859 l -28.630070043219334 31.888789469300246 a63.8552891076119,63.8552891076119 0 0,0 -0.8115716872259937,-0.7413514941019623 l 29.174741279912183 -31.391245208611707" fill="#33ff53" stroke="none" /><path d="M 85.44109423537348 115.13401014063109 l -15.055254367280444 15.64996545398326 a42.71594121318223,42.71594121318223 0 0,0 -0.5255078784161143,-0.5143200637770805 l 15.322412198072353 -15.38849528728361" fill="#fdff18" stroke="none" /><path d="M 85.18274418774928 114.88116024355367 l -16.791106813714585 16.863524145606103 a44.79747286244933,44.79747286244933 0 0,0 -0.5417494384399687,-0.5487893209289665 l 17.078896877210088 -16.57199433069647" fill="#e3ff1b" stroke="none" /><path d="M 84.9287848128048 114.62390073753433 l -20.903011271685546 20.2826088112925 a50.12593518526286,50.12593518526286 0 0,0 -0.5955282111774327,-0.6244089485291249 l 21.249046034241935 -19.919792746180875" fill="#a4ff21" stroke="none" /><path d="M 84.43433777217949 114.09645910891817 l -14.240366631562198 12.896254780541168 a40.212012626633914,40.212012626633914 0 0,0 -0.4602191129828924,-0.5170610521856036 l 14.460244594193428 -12.6492195586147" fill="#ffe115" stroke="none" /><path d="M 84.19399662182784 113.82643327865904 l -35.08873898119494 30.69416706729048 a67.61921808916543,67.61921808916543 0 0,0 -0.7588083447466155,-0.8826655340491024 l 35.611889835512336 -30.085624434079847" fill="#38ff80" stroke="none" /><path d="M 83.72743513129214 113.27417163493432 l -17.003700109991804 13.87058742798582 a42.94354148782583,42.94354148782583 0 0,0 -0.4623221677774461,-0.5768179895853772 l 17.23994018982411 -13.575841604822184" fill="#faff18" stroke="none" /><path d="M 83.50135304334701 112.99209946851258 l -21.1607929550836 16.663374131669944 a47.93412697564045,47.93412697564045 0 0,0 -0.5048905766483407,-0.6526391302526268 l 21.44449034895001 -16.296657007304063" fill="#bdff1f" stroke="none" /><path d="M 83.28015986056508 112.70617746262583 l -15.23601107093416 11.578547335104135 a40.13632126990126,40.13632126990126 0 0,0 -0.41328701290107445,-0.5536654921793814 l 15.43305935053032 -11.314568963415445" fill="#ffe015" stroke="none" /><path d="M 83.06392112726016 112.41649034213515 l -24.719767405087453 18.12301156315065 a51.65143469202896,51.65143469202896 0 0,0 -0.5195155599880051,-0.7215616747084065 l 25.028062757451067 -17.694816282991106" fill="#92ff23" stroke="none" /><path d="M 82.85270091963577 112.12312394758628 l -12.518660863891533 8.850681183052588 a36.33138699626262,36.33138699626262 0 0,0 -0.35663424556909634,-0.5137582297812063 l 12.669156016622763 -8.633881691084369" fill="#ffae10" stroke="none" /><path d="M 82.6465618267979 111.8261652097733 l -35.8136969105782 24.406615692519736 a64.33940211822389,64.33940211822389 0 0,0 -0.6158104774044417,-0.9205531094568616 l 36.22851049339337 -23.786525668857053" fill="#34ff59" stroke="none" /><path d="M 82.05923443525364 110.91462005526583 l -16.630432472868968 10.117452967157472 a40.46623072855395,40.46623072855395 0 0,0 -0.3569104675874316,-0.598202473128276 l 16.80212381615463 -9.829688400143086" fill="#ffe415" stroke="none" /><line stroke="#e1ed5e" stroke-width="0.3" x1="26.63291911575756" x2="22.317208475507996" y1="142.92168965132927" y2="145.44649492493687" /><path d="M 25.769776987707644 143.4266507060508 a86.0,86.0 0 0,1 -11.730757126820373,-40.83630448921669" fill="none" id="id21" stroke="none" /><text fill="#e1ed5e" style="font-size:6.75px; font-family:Arial;" text-anchor="middle"><textPath startOffset="21.46611528233685" xlink:href="#id21">September</textPath></text><path d="M 81.51974371655577 109.97397251340807 l -12.680062119856911 6.84355179452029 a35.40896167417042,35.40896167417042 0 0,0 -0.2848692981529634,-0.5388653563074138 l 12.795983926234761 -6.624271423126751" fill="#ffa10e" stroke="none" /><path d="M 81.02952815118164 109.00673069616217 l -19.5668759490273 9.289889236417629 a42.660209519520606,42.660209519520606 0 0,0 -0.30923651141915703,-0.6660679346253121 l 19.72388707728628 -8.95170123451349" fill="#feff18" stroke="none" /><path d="M 80.87730276802145 108.67885076344099 l -28.151362627312796 12.776517458080312 a51.91502249928171,51.91502249928171 0 0,0 -0.3623147325545679,-0.8169240736146078 l 28.367118444598642 -12.290045047973008" fill="#90ff24" stroke="none" /><path d="M 80.58989483394504 108.01547362559985 l -34.85606863405579 14.393940498425287 a58.71115277599208,58.71115277599208 0 0,0 -0.37770110733198287,-0.9374231733556084 l 35.09867235564516 -13.791817957226874" fill="#46ff2c" stroke="none" /><path d="M 80.32549172779594 107.34259656027581 l -27.49881567995627 10.262655952045604 a50.35143899351897,50.35143899351897 0 0,0 -0.2960562447226245,-0.8146196343790555 l 27.67139618568412 -9.787788520660431" fill="#a1ff22" stroke="none" /><path d="M 80.20201598880116 107.00284435728193 l -8.000623769472984 2.8299408155445285 a29.4863741209153,29.4863741209153 0 0,0 -0.16513656946942576,-0.4799641695928661 l 8.048151169885639 -2.6918039428623652" fill="#ff4f07" stroke="none" /><path d="M 80.0844068197444 106.66101706037122 l -21.512736654055264 7.195201497186657 a43.68410815817651,43.68410815817651 0 0,0 -0.23237397089107603,-0.7151735446795093 l 21.63340287596259 -6.823829052529344" fill="#f1ff19" stroke="none" /><path d="M 79.86692584326677 105.97154293290107 l -30.156354803788837 8.944484384685854 a52.4548809560597,52.4548809560597 0 0,0 -0.24930396907988736,-0.8678598219752035 l 30.305851409754826 -8.424067087206055" fill="#89ff24" stroke="none" /><path d="M 79.76711848015287 105.62410040840567 l -27.428039101072194 7.624126388462756 a49.4679579899437,49.4679579899437 0 0,0 -0.22098496659432784,-0.8223672691228995 l 27.555212144008294 -7.150868186164318" fill="#acff21" stroke="none" /><path d="M 79.67330655649465 105.27499134158121 l -8.457346604922739 2.1947706466726378 a29.73748990198524,29.73748990198524 0 0,0 -0.12431500736472632,-0.496576658801305 l 8.493872926582524 -2.048866148473941" fill="#ff5207" stroke="none" /><path d="M 79.58551787078972 104.9243191809786 l -31.958824538621617 7.709010284021933 a53.87545141058232,53.87545141058232 0 0,0 -0.20970232897794633,-0.903392144817143 l 32.08678743353012 -7.157749481856216" fill="#7aff26" stroke="none" /><path d="M 79.35854240842038 103.8639653848113 l -32.09869020783729 6.008695234364653 a53.65624490779958,53.65624490779958 0 0,0 -0.16212760143427013,-0.9092976889882075 l 32.19736425161075 -5.455278794643233" fill="#7cff26" stroke="none" /><path d="M 79.29508885075956 103.50808413554451 l -12.64346712708292 2.142213802662237 a33.82366332098371,33.82366332098371 0 0,0 -0.0923196686968164,-0.5748746651010905 l 12.678468550141027 -1.9242599078679328" fill="#ff8c0c" stroke="none" /><path d="M 79.23777060512086 103.15116336523772 l -25.13808150104239 3.815303260158685 a46.42596469202353,46.42596469202353 0 0,0 -0.11311564480653578,-0.7911305563199365 l 25.200031196865524 -3.382027231858348" fill="#cfff1d" stroke="none" /><path d="M 79.18660465613746 102.79330883721812 l -21.51867499143563 2.8879624888558375 a42.71160290545301,42.71160290545301 0 0,0 -0.09152179373301535,-0.7295187451482061 l 21.565198294415495 -2.5171259894202227" fill="#fdff18" stroke="none" /><path d="M 79.1416061653843 102.43462659150553 l -62.5751815038471 7.303879774516597 a84.0,84.0 0 0,0 -0.15527079399579247,-1.4376147124608716 l 62.69163459934394 -6.225668740170943" fill="#4dd2ff" stroke="none" /><path d="M 79.07016306316243 101.71520430193888 l -24.500947895378246 2.007857555629998 a45.58308238882464,45.58308238882464 0 0,0 -0.05735532873332746,-0.7825678915453664 l 24.53187978277591 -1.5858165275878708" fill="#daff1c" stroke="none" /><path d="M 79.04373962182676 101.35467743843564 l -30.66462721912874 1.9822562757933375 a51.72863001227118,51.72863001227118 0 0,0 -0.049791636958892854,-0.8890631260308671 l 30.694205206975163 -1.454121433427033" fill="#92ff23" stroke="none" /><path d="M 79.0235259727143 100.99374915477108 l -6.1373321242469885 0.29075280254853314 a27.144215392993956,27.144215392993956 0 0,0 -0.018093386710929426,-0.46690991485249156 l 6.141427643809118 -0.1850656406820448" fill="#ff2c04" stroke="none" /><path d="M 79.0095281055655 100.63252640178507 l -34.88521792417991 1.0512303620444265 a55.90105320605107,55.90105320605107 0 0,0 -0.02070451846089182,-0.9620576160345108 l 34.89814450532581 -0.4505829302197869" fill="#64ff29" stroke="none" /><line stroke="#e1ed5e" stroke-width="0.3" x1="15.007084014347285" x2="10.007500721073583" y1="101.09737516637583" y2="101.16192664675087" /><path d="M 14.007167355692545 101.11028546245083 a86.0,86.0 0 0,1 10.666146001902534,-42.60595125391555" fill="none" id="id22" stroke="none" /><text fill="#e1ed5e" style="font-size:6.75px; font-family:Arial;" text-anchor="middle"><textPath startOffset="22.20632615414155" xlink:href="#id22">October</textPath></text><path d="M 79.00175016825051 100.2711162175752 l -14.462824587243036 0.1867349102408649 a35.464030038964395,35.464030038964395 0 0,0 -0.0026272136979411174,-0.6104719392278938 l 14.46389609823048 0.062246507190704285" fill="#ffa20f" stroke="none" /><path d="M 79.00019446554 99.90962569577889 l -56.81108274288088 -0.2444909342856149 a77.81160883336614,77.81160883336614 0 0,0 0.01729267736116293,-1.3393369188211122 l 56.798457058402 1.222364111167199" fill="#45ffef" stroke="none" /><path d="M 79.00486145842228 99.54816195383935 l -7.511541561902766 -0.16165648329794746 a28.513280871549053,28.513280871549053 0 0,0 0.014783872104830339,-0.49060474160697837 l 7.5076459953422905 0.2909313723299203" fill="#ff4006" stroke="none" /><path d="M 79.01574976396665 99.18683210126434 l -49.89132157947148 -1.9333557633743004 a70.92876759398342,70.92876759398342 0 0,0 0.057777870760847366,-1.2195995332907261 l 49.85065010047713 2.7918664032880356" fill="#3cffa6" stroke="none" /><path d="M 79.03285615573316 98.82574320788736 l -14.065424794288997 -0.7877286826149962 a35.087465745165595,35.087465745165595 0 0,0 0.038962807825245666,-0.602737391709592 l 14.04978139545934 1.0297251385776" fill="#ff9d0e" stroke="none" /><path d="M 79.05617556472873 98.46500227214037 l -13.598636813409609 -0.9966602171959884 a34.6351111022815,34.6351111022815 0 0,0 0.04869616825066327,-0.5942165955292565 l 13.579466161339449 1.2305907299330232" fill="#ff970d" stroke="none" /><path d="M 79.08570108090925 98.10471618934814 l -48.70368997996728 -4.413598347003636 a69.90326439035985,69.90326439035985 0 0,0 0.11891169181994117,-1.1974245088023854 l 48.620501162465104 5.251298386510452" fill="#3bff9a" stroke="none" /><path d="M 79.12142395522702 97.74499172005258 l -36.387416291999955 -3.930053699466546 a57.59903532182227,57.59903532182227 0 0,0 0.11495024941292309,-0.9848235380356071 l 36.31437568958344 4.5558209758270145" fill="#52ff2b" stroke="none" /><path d="M 79.16333360222342 97.38593545837743 l -9.322679958574454 -1.1695770641701708 a30.395758198199797,30.395758198199797 0 0,0 0.06959760313524253,-0.5185829829263212 l 9.301166356381378 1.3298783891611514" fill="#ff5c08" stroke="none" /><line stroke="#e1ed5e" stroke-width="0.3" x1="26.266209847984243" x2="21.928928074336255" y1="57.711370442889674" y2="55.22380399835377" /><path d="M 25.398753493254645 57.213857153982495 a86.0,86.0 0 0,1 29.58750427330803,-30.492523968695096" fill="none" id="id23" stroke="none" /><text fill="#e1ed5e" style="font-size:6.75px; font-family:Arial;" text-anchor="middle"><textPath startOffset="21.46611528233685" xlink:href="#id23">November</textPath></text><line stroke="#e1ed5e" stroke-width="0.3" x1="56.762969772571076" x2="54.21961505331055" y1="26.818313649435495" y2="22.513508569990535" /><path d="M 56.25429882871897 25.957352633546506 a86.0,86.0 0 0,1 42.265352541879196,-11.944610805530505" fill="none" id="id24" stroke="none" /><text fill="#e1ed5e" style="font-size:6.75px; font-family:Arial;" text-anchor="middle"><textPath startOffset="22.20632615414155" xlink:href="#id24">December</textPath></text></svg>