<?xml version="1.0" encoding="utf-8" ?>
<svg baseProfile="full" height="200mm" version="1.1" viewBox="0,0,200,200" width="200mm" xmlns="http://www.w3.org/2000/svg" xmlns:ev="http://www.w3.org/2001/xml-events" xmlns:xlink="http://www.w3.org/1999/xlink"><defs /><rect fill="#1a1a1a" height="200" width="200" x="0" y="0" /><text alignment-baseline="middle" fill="#e1ed5e" style="dominant-baseline: central; font-size:9.0px; font-family:Arial;" text-anchor="middle" x="100.0" y="100.0">2025</text><line stroke="#e1ed5e" stroke-width="0.3" x1="100.0" x2="100.0" y1="15.0" y2="10.0" /><path d="M 100.0 14.0 a86.0,86.0 0 0,1 42.46469731375804,11.215312516191453" fill="none" id="id49" stroke="none" /><text fill="#e1ed5e" style="font-size:6.75px; font-family:Arial;" text-anchor="middle"><textPath startOffset="22.20632615414155" xlink:href="#id49">January</textPath></text><path d="M 108.43124777332544 80.76684994638697 l 25.2937433199763 -57.69945016083909 a84.0,84.0 0 0,0 1.3192715261328791,0.591918677933875 l -26.283196964575957 57.255511152388685" fill="#4dd2ff" stroke="none" /><line stroke="#e1ed5e" stroke-width="0.3" x1="143.23703022742887" x2="145.7803849466894" y1="26.81831364943548" y2="22.513508569990506" /><path d="M 143.74570117128098 25.957352633546492 a86.0,86.0 0 0,1 28.547481713284135,27.462654790039103" fill="none" id="id50" stroke="none" /><text fill="#e1ed5e" style="font-size:6.75px; font-family:Arial;" text-anchor="middle"><textPath startOffset="19.985693538727396" xlink:href="#id50">February</textPath></text><path d="M 113.06298171725822 83.55741782278167 l 1.9334785291915324 -2.4337000764624555 a24.108252770451273,24.108252770451273 0 0,0 0.3227022819200973,0.2609361362066061 l -1.9750842096761208 2.4000578429917194" fill="#ff1001" stroke="none" /><line stroke="#e1ed5e" stroke-width="0.3" x1="172.23445277983987" x2="176.4835382374775" y1="55.19839476539836" y2="52.563006222186495" /><path d="M 173.08426987136738 54.67131705675599 a86.0,86.0 0 0,1 12.851231095245387,41.99856678651699" fill="none" id="id51" stroke="none" /><text fill="#e1ed5e" style="font-size:6.75px; font-family:Arial;" text-anchor="middle"><textPath startOffset="22.20632615414155" xlink:href="#id51">March</textPath></text><path d="M 120.08093135843002 93.85539295169968 l 5.188842762583675 -1.5877450722976056 a26.42632690034634,26.42632690034634 0 0,0 0.12935574125495197,0.43612325332808116 l -5.215404400950328 1.4981924322229947" fill="#ff3204" stroke="none" /><path d="M 120.6074358757038 95.95851677861258 l 4.07636676026485 -0.7994477316440602 a25.154020057705907,25.154020057705907 0 0,0 0.07967149689977085,0.4256083222118724 l -4.08952398107448 0.7291613319696251" fill="#ff2003" stroke="none" /><path d="M 120.67395015179393 96.31383870115 l 12.471532871414745 -2.2236718900067305 a33.66822200773197,33.66822200773197 0 0,0 0.09681720252241871,0.5714206097949118 l -12.507961935457386 2.0086654918959805" fill="#ff970d" stroke="none" /><path d="M 120.73433829027371 96.67025291283417 l 1.9722883661767725 -0.31673166273209624 a22.997558596270277,22.997558596270277 0 0,0 0.0594039056729538,0.3913975169105761 l -1.9774481652890261 0.28273503342943795" fill="#ff0000" stroke="none" /><line stroke="#e1ed5e" stroke-width="0.3" x1="184.98032266829074" x2="189.97916517819016" y1="98.17113171792111" y2="98.06355123074" /><path d="M 185.9800911702706 98.14961562048488 a86.0,86.0 0 0,1 -9.607161424134198,41.387399972396054" fill="none" id="id52" stroke="none" /><text fill="#e1ed5e" style="font-size:6.75px; font-family:Arial;" text-anchor="middle"><textPath startOffset="21.466115282336823" xlink:href="#id52">April</textPath></text><path d="M 120.99824983174949 100.27111621757518 l 7.050212155947747 0.09102791271361363 a28.05079977908651,28.05079977908651 0 0,0 -0.010389398205578172,0.4827545102568696 l -7.047600695057162 -0.21237223876059808" fill="#ff4906" stroke="none" /><path d="M 120.9904718944345 100.63252640178507 l 2.6031561115488087 0.07844344695077389 a23.604337749882575,23.604337749882575 0 0,0 -0.015733827807532647,0.4060201840201811 l -2.601420150890073 -0.12324087798496114" fill="#ff0901" stroke="none" /><path d="M 120.92983693683757 101.71520430193887 l 5.339273879902859 0.4375545569550416 a26.3571727202812,26.3571727202812 0 0,0 -0.04094825719019193,0.4518606059305301 l -5.330951026435592 -0.5293965514341423" fill="#ff3104" stroke="none" /><path d="M 120.89721153311464 102.0752229133903 l 6.701656061316289 0.6655160758681234 a27.734619930732265,27.734619930732265 0 0,0 -0.05126638640257535,0.474663067344407 l -6.689207373412661 -0.7807754650973219" fill="#ff4506" stroke="none" /><path d="M 120.8583938346157 102.4346265915055 l 12.159151347869901 1.4192364683677727 a33.24169896924244,33.24169896924244 0 0,0 -0.07122982303269115,0.5677717732185842 l -12.132920015590363 -1.6283259958737517" fill="#ff910d" stroke="none" /><path d="M 120.76222939487914 103.15116336523771 l 10.720988087820857 1.6271655735497932 a31.84376564588807,31.84376564588807 0 0,0 -0.08691565625488464,0.5412238744666393 l -10.691390677204682 -1.8114686777096376" fill="#ff7e0b" stroke="none" /><path d="M 120.70491114924044 103.5080841355445 l 2.4917581118900487 0.42218471931266754 a23.527270944198698,23.527270944198698 0 0,0 -0.0710899544504401,0.39871021787902317 l -2.48412171510042 -0.46501368792490905" fill="#ff0801" stroke="none" /><path d="M 120.49622156327973 104.57218783832717 l 22.326420814056487 4.980458930161419 a43.87518387950924,43.87518387950924 0 0,0 -0.1707777476192389,0.7357060670747708 l -22.237382500506694 -5.3640336545847545" fill="#e5ff1a" stroke="none" /><path d="M 120.41448212921028 104.9243191809786 l 3.169001657036968 0.7644169244916225 a24.259893362788464,24.259893362788464 0 0,0 -0.10141638826957979,0.4051080581675145 l -3.1553739544723274 -0.8188528220565329" fill="#ff1302" stroke="none" /><path d="M 120.23288151984713 105.62410040840565 l 22.293337243656662 6.196841857339253 a44.138576759694644,44.138576759694644 0 0,0 -0.20977880752312464,0.7302675493820521 l -22.18336579924744 -6.5796668822258875" fill="#e2ff1b" stroke="none" /><path d="M 120.02730092923936 106.31721596034902 l 21.5442779301663 6.795716351170381 a43.590654533629944,43.590654533629944 0 0,0 -0.23187685212762996,0.7136435704452325 l -21.424108827022422 -7.165558821593409" fill="#e9ff1a" stroke="none" /><line stroke="#e1ed5e" stroke-width="0.3" x1="174.80103733775053" x2="179.2010983576182" y1="140.37084112569926" y2="142.7455964860345" /><path d="M 175.68104954172406 140.8457921977663 a86.0,86.0 0 0,1 -30.038265399797805,32.042727171017184" fill="none" id="id53" stroke="none" /><text fill="#e1ed5e" style="font-size:6.75px; font-family:Arial;" text-anchor="middle"><textPath startOffset="22.206326154141568" xlink:href="#id53">May</textPath></text><line stroke="#e1ed5e" stroke-width="0.3" x1="143.8653032363475" x2="146.44561519142675" y1="172.8068346515853" y2="177.08958963109032" /><path d="M 144.38136562736335 173.6633856474863 a86.0,86.0 0 0,1 -40.68145358897372,12.25698825130547" fill="none" id="id54" stroke="none" /><text fill="#e1ed5e" style="font-size:6.75px; font-family:Arial;" text-anchor="middle"><textPath startOffset="21.466115282336833" xlink:href="#id54">June</textPath></text><line stroke="#e1ed5e" stroke-width="0.3" x1="102.19456741930631" x2="102.32365962044197" y1="184.97166512339345" y2="189.96999836594603" /><path d="M 102.22038585953345 185.97133177190398 a86.0,86.0 0 0,1 -42.740103519485714,-10.115201625700543" fill="none" id="id55" stroke="none" /><text fill="#e1ed5e" style="font-size:6.75px; font-family:Arial;" text-anchor="middle"><textPath startOffset="22.20632615414155" xlink:href="#id55">July</textPath></text><line stroke="#e1ed5e" stroke-width="0.3" x1="58.666819895761336" x2="56.23545636021788" y1="174.27360380694188" y2="178.64263932499728" /><path d="M 58.180547188652646 175.14741091055294 a86.0,86.0 0 0,1 -31.652253787137756,-30.449443065178592" fill="none" id="id56" stroke="none" /><text fill="#e1ed5e" style="font-size:6.75px; font-family:Arial;" text-anchor="middle"><textPath startOffset="22.20632615414155" xlink:href="#id56">August</textPath></text><line stroke="#e1ed5e" stroke-width="0.3" x1="26.63291911575756" x2="22.317208475507996" y1="142.92168965132927" y2="145.44649492493687" /><path d="M 25.769776987707644 143.4266507060508 a86.0,86.0 0 0,1 -11.730757126820373,-40.83630448921669" fill="none" id="id57" stroke="none" /><text fill="#e1ed5e" style="font-size:6.75px; font-family:Arial;" text-anchor="middle"><textPath startOffset="21.46611528233685" xlink:href="#id57">September</textPath></text><line stroke="#e1ed5e" stroke-width="0.3" x1="15.007084014347285" x2="10.007500721073583" y1="101.09737516637583" y2="101.16192664675087" /><path d="M 14.007167355692545 101.11028546245083 a86.0,86.0 0 0,1 10.666146001902534,-42.60595125391555" fill="none" id="id58" stroke="none" /><text fill="#e1ed5e" style="font-size:6.75px; font-family:Arial;" text-anchor="middle"><textPath startOffset="22.20632615414155" xlink:href="#id58">October</textPath></text><line stroke="#e1ed5e" stroke-width="0.3" x1="26.266209847984243" x2="21.928928074336255" y1="57.711370442889674" y2="55.22380399835377" /><path d="M 25.398753493254645 57.213857153982495 a86.0,86.0 0 0,1 29.58750427330803,-30.492523968695096" fill="none" id="id59" stroke="none" /><text fill="#e1ed5e" style="font-size:6.75px; font-family:Arial;" text-anchor="middle"><textPath startOffset="21.46611528233685" xlink:href="#id59">November</textPath></text><line stroke="#e1ed5e" stroke-width="0.3" x1="56.762969772571076" x2="54.21961505331055" y1="26.818313649435495" y2="22.513508569990535" /><path d="M 56.25429882871897 25.957352633546506 a86.0,86.0 0 0,1 42.265352541879196,-11.944610805530505" fill="none" id="id60" stroke="none" /><text fill="#e1ed5e" style="font-size:6.75px; font-family:Arial;" text-anchor="middle"><textPath startOffset="22.20632615414155" xlink:href="#id60">December</textPath></text></svg>