<?xml version="1.0" encoding="utf-8" ?>
<svg baseProfile="full" height="200mm" version="1.1" viewBox="0,0,200,200" width="200mm" xmlns="http://www.w3.org/2000/svg" xmlns:ev="http://www.w3.org/2001/xml-events" xmlns:xlink="http://www.w3.org/1999/xlink"><defs /><rect fill="#1a1a1a" height="200" width="200" x="0" y="0" /><text alignment-baseline="middle" fill="#e1ed5e" style="dominant-baseline: central; font-size:9.0px; font-family:Arial;" text-anchor="middle" x="100.0" y="100.0">2023</text><line stroke="#e1ed5e" stroke-width="0.3" x1="100.0" x2="100.0" y1="15.0" y2="10.0" /><path d="M 100.0 14.0 a86.0,86.0 0 0,1 42.46469731375804,11.215312516191453" fill="none" id="id25" stroke="none" /><text fill="#e1ed5e" style="font-size:6.75px; font-family:Arial;" text-anchor="middle"><textPath startOffset="22.20632615414155" xlink:href="#id25">January</textPath></text><path d="M 100.0 79.0 l 0.0 -7.537612936108168 a28.537612936108168,28.537612936108168 0 0,0 0.49122809530658507,0.004228155302548283 l -0.12974761603405668 7.536496157414178" fill="#ff5e08" stroke="none" /><path d="M 107.4271985657038 80.35727306442388 l 4.113693370017443 -10.87949310215937 a32.63124427146377,32.63124427146377 0 0,0 0.5236799364995937,0.20317967950588983 l -4.300356471516703 10.807070718762935" fill="#ff950d" stroke="none" /><line stroke="#e1ed5e" stroke-width="0.3" x1="143.23703022742887" x2="145.7803849466894" y1="26.81831364943548" y2="22.513508569990506" /><path d="M 143.74570117128098 25.957352633546492 a86.0,86.0 0 0,1 28.547481713284135,27.462654790039103" fill="none" id="id26" stroke="none" /><text fill="#e1ed5e" style="font-size:6.75px; font-family:Arial;" text-anchor="middle"><textPath startOffset="19.985693538727396" xlink:href="#id26">February</textPath></text><path d="M 115.4437574822437 85.77008943001954 l 1.5844166645064026 -1.4598848413305514 a23.154446545336487,23.154446545336487 0 0,0 0.2675511286781887,0.29543663876853005 l -1.609311433800627 1.4323954152924725" fill="#ff1202" stroke="none" /><path d="M 116.38621287248628 86.86637796730983 l 3.304071171420321 -2.648227645535164 a25.23438259589135,25.23438259589135 0 0,0 0.26874127125246633,0.3412741233872484 l -3.3491665232667516 2.5909611281948774" fill="#ff3004" stroke="none" /><path d="M 117.04232023915458 87.72973835380427 l 5.429014204453436 -3.9088236715860147 a27.68977561116278,27.68977561116278 0 0,0 0.2751669871672332,0.3892041891511561 l -5.495493811424552 3.8147929821030653" fill="#ff5207" stroke="none" /><path d="M 117.65298651832404 88.62581576622439 l 3.630894053267134 -2.3394601164121602 a25.319313054449033,25.319313054449033 0 0,0 0.23290440781567018,0.36839884104987186 l -3.6706260573287595 2.276613627648082" fill="#ff3104" stroke="none" /><line stroke="#e1ed5e" stroke-width="0.3" x1="172.23445277983987" x2="176.4835382374775" y1="55.19839476539836" y2="52.563006222186495" /><path d="M 173.08426987136738 54.67131705675599 a86.0,86.0 0 0,1 12.851231095245387,41.99856678651699" fill="none" id="id27" stroke="none" /><text fill="#e1ed5e" style="font-size:6.75px; font-family:Arial;" text-anchor="middle"><textPath startOffset="22.20632615414155" xlink:href="#id27">March</textPath></text><path d="M 118.03404312379186 89.2402003453031 l 1.5292041615941088 -0.9123816715384303 a22.780703704268625,22.780703704268625 0 0,0 0.198018908093915,0.3384785027046519 l -1.544682744158351 0.8859237564798831" fill="#ff0d01" stroke="none" /><path d="M 118.3937258080291 89.86733742301442 l 6.542835796196008 -3.6042913823657075 a28.46991409756361,28.46991409756361 0 0,0 0.23276446030941528,0.43127719415839555 l -6.603908355723888 3.491133204874853" fill="#ff5d08" stroke="none" /><path d="M 118.73160827565052 90.50648371742162 l 3.358469855947935 -1.7021329825392773 a24.765179472954642,24.765179472954642 0 0,0 0.189441814749617,0.3819031386389996 l -3.3872716836509604 1.6440702554013278" fill="#ff2904" stroke="none" /><path d="M 120.28053869075195 94.5502522615342 l 5.508165680091972 -1.48014379282068 a26.703570356081237,26.703570356081237 0 0,0 0.11546581621388684,0.44493689134288483 l -5.532827828176162 1.3851104759289448" fill="#ff4406" stroke="none" /><path d="M 120.78858239683441 97.02765380044208 l 8.49047748350417 -1.2139663012504673 a29.576824708390806,29.576824708390806 0 0,0 0.06772247938783225,0.5046111329992885 l -8.510115961949838 1.0676368261865143" fill="#ff6c09" stroke="none" /><line stroke="#e1ed5e" stroke-width="0.3" x1="184.98032266829074" x2="189.97916517819016" y1="98.17113171792111" y2="98.06355123074" /><path d="M 185.9800911702706 98.14961562048488 a86.0,86.0 0 0,1 -9.607161424134198,41.387399972396054" fill="none" id="id28" stroke="none" /><text fill="#e1ed5e" style="font-size:6.75px; font-family:Arial;" text-anchor="middle"><textPath startOffset="21.466115282336823" xlink:href="#id28">April</textPath></text><path d="M 120.99513854157772 99.54816195383933 l 3.1212591253090256 -0.067172865849296 a24.121981857927953,24.121981857927953 0 0,0 0.00536081512559735,0.41520103930306046 l -3.1219529475523387 0.01343556848577284" fill="#ff2003" stroke="none" /><path d="M 120.89721153311464 102.0752229133903 l 8.56175710816134 0.85023566429346 a29.603870376986613,29.603870376986613 0 0,0 -0.054721624509324183,0.5066542809492788 l -8.545853182150964 -0.9974862671275302" fill="#ff6c0a" stroke="none" /><path d="M 118.64920377521936 109.65438752849418 l 6.675621992596032 3.4558602333413857 a28.517107085869018,28.517107085869018 0 0,0 -0.22942351023046187,0.4339828208487877 l -6.615145974140677 -3.5702580692763077" fill="#ff5d08" stroke="none" /><line stroke="#e1ed5e" stroke-width="0.3" x1="174.80103733775053" x2="179.2010983576182" y1="140.37084112569926" y2="142.7455964860345" /><path d="M 175.68104954172406 140.8457921977663 a86.0,86.0 0 0,1 -30.038265399797805,32.042727171017184" fill="none" id="id29" stroke="none" /><text fill="#e1ed5e" style="font-size:6.75px; font-family:Arial;" text-anchor="middle"><textPath startOffset="22.206326154141568" xlink:href="#id29">May</textPath></text><path d="M 118.48025628344425 109.97397251340804 l 7.490431845077441 4.042658293829398 a29.51173632735518,29.51173632735518 0 0,0 -0.2451210958827434,0.444965989262435 l -7.419734339743188 -4.170994801489638" fill="#ff6b09" stroke="none" /><path d="M 118.30583269289576 110.29060199501025 l 5.809314626431628 3.2656992821528306 a27.66430253142262,27.66430253142262 0 0,0 -0.2369223613387158,0.41309410723931944 l -5.7522402689405325 -3.365213235250465" fill="#ff5207" stroke="none" /><path d="M 117.35343817320211 111.8261652097733 l 0.7603556798829779 0.5181735053732207 a21.920132893445874,21.920132893445874 0 0,0 -0.21517125283525482,0.30997023793954676 l -0.751323519885587 -0.531185005499787" fill="#ff0000" stroke="none" /><path d="M 116.93607887273984 112.41649034213515 l 2.434672273846353 1.7849518180465915 a24.018887555670798,24.018887555670798 0 0,0 -0.2473244676395843,0.3313315415900867 l -2.403586539511677 -1.8265962391459931" fill="#ff1e03" stroke="none" /><path d="M 116.498646956653 112.99209946851258 l 2.3272177829918266 1.8326014855011379 a23.962156446600073,23.962156446600073 0 0,0 -0.25797211243407553,0.32185987528711324 l -2.295327758502897 -1.8723891943665014" fill="#ff1e03" stroke="none" /><path d="M 116.27256486870786 113.27417163493432 l 5.488228689170106 4.476964152830536 a28.08264513937833,28.08264513937833 0 0,0 -0.3087807188691713,0.37194626742794157 l -5.410351970407392 -4.570771677372249" fill="#ff5808" stroke="none" /><path d="M 116.0416608686014 113.55231037782055 l 2.183371479801727 1.844555137197222 a23.858232788450277,23.858232788450277 0 0,0 -0.2677319650001121,0.31143276099283507 l -2.151297005230836 -1.881864997351585" fill="#ff1c02" stroke="none" /><path d="M 115.56566222782051 114.09645910891815 l 4.492028669203333 4.06803755116425 a27.060301236954075,27.060301236954075 0 0,0 -0.31564371374808137,0.3425689108829585 l -4.42133854745953 -4.144757716848543" fill="#ff4906" stroke="none" /><path d="M 115.32070863581623 114.36230785411682 l 4.888232461495103 4.582444659926108 a27.700269819857986,27.700269819857986 0 0,0 -0.32909694500426473,0.34505683112472413 l -4.808628965111874 -4.665908607633339" fill="#ff5207" stroke="none" /><path d="M 114.81725581225074 114.88116024355365 l 3.7924593283896564 3.8088155929835223 a26.37492548588761,26.37492548588761 0 0,0 -0.3244744407316163,0.31756653307292926 l -3.726334935282246 -3.8735322289790237" fill="#ff4006" stroke="none" /><path d="M 114.55890576462653 115.13401014063108 l 2.09161658910635 2.174239409307675 a24.01698143262624,24.01698143262624 0 0,0 -0.3004000184977255,0.2840469675133655 l -2.053880736217817 -2.209921013566962" fill="#ff1e03" stroke="none" /><path d="M 114.0293411484842 115.62618273729858 l 7.650167589279775 8.52092164955021 a32.45125189234086,32.45125189234086 0 0,0 -0.41886476110350274,0.36959945110315023 l -7.502360475269684 -8.651344242425651" fill="#ff930d" stroke="none" /><path d="M 113.48314897796784 116.09983520530334 l 3.4973259717704392 4.176055007382842 a26.447084025192503,26.447084025192503 0 0,0 -0.3515319602057017,0.28928687107528855 l -3.4249238830200466 -4.235636997315309" fill="#ff4106" stroke="none" /><path d="M 113.20401910651253 116.32954008644616 l 1.1074656283173643 1.3696136173454971 a22.761340846833058,22.761340846833058 0 0,0 -0.30678223725726667,0.24372636324869526 l -1.0837258983427465 -1.3884738945993185" fill="#ff0c01" stroke="none" /><path d="M 112.63410532772338 116.77436683061366 l 2.1995172907947955 2.9203104556290653 a24.655966284002318,24.655966284002318 0 0,0 -0.3412092557611531,0.25241845025086596 l -2.1489230646150785 -2.9577388546197003" fill="#ff2703" stroke="none" /><path d="M 111.7513745106137 117.40417183066458 l 1.2880371626222766 1.9076253660635858 a23.30175460671751,23.30175460671751 0 0,0 -0.33435277270269437,0.2215907860479035 l -1.2550096911796182 -1.9295141732028076" fill="#ff1402" stroke="none" /><line stroke="#e1ed5e" stroke-width="0.3" x1="143.8653032363475" x2="146.44561519142675" y1="172.8068346515853" y2="177.08958963109032" /><path d="M 144.38136562736335 173.6633856474863 a86.0,86.0 0 0,1 -40.68145358897372,12.25698825130547" fill="none" id="id30" stroke="none" /><text fill="#e1ed5e" style="font-size:6.75px; font-family:Arial;" text-anchor="middle"><textPath startOffset="21.466115282336833" xlink:href="#id30">June</textPath></text><path d="M 110.8373102113329 117.98757091392108 l 2.8092176308549197 4.662688468103313 a26.443562018392896,26.443562018392896 0 0,0 -0.39190886212273496,0.2315466636943269 l -2.7285408977038026 -4.710353704091389" fill="#ff4106" stroke="none" /><path d="M 110.5260780823613 118.17145234162733 l 2.9891346443009916 5.160223713582583 a26.963458283243074,26.963458283243074 0 0,0 -0.40361887425744136,0.22918533060892815 l -2.899867003122351 -5.210912209986139" fill="#ff4806" stroke="none" /><path d="M 110.21172684928248 118.3499491758327 l 7.110584848021195 12.777356121780995 a35.622627887754064,35.622627887754064 0 0,0 -0.5383718796602306,0.29356327451709247 l -6.889590156492315 -12.897860048057858" fill="#ffbc11" stroke="none" /><path d="M 109.89434966115114 118.52300852407294 l 2.731658406646565 5.113881526730176 a26.797735930519345,26.797735930519345 0 0,0 -0.4087408862018072,0.21383391337348415 l -2.643226617918262 -5.160144859048377" fill="#ff4606" stroke="none" /><path d="M 109.2508944713604 118.85261126421891 l 0.8001685418891539 1.6306819316548433 a22.816423204447297,22.816423204447297 0 0,0 -0.3540753944702338,0.16997770647199922 l -0.7719804794186873 -1.6442139146264028" fill="#ff0d01" stroke="none" /><path d="M 108.92500713936063 119.00905698771935 l 2.408913915719128 5.130660534765182 a26.668028208852018,26.668028208852018 0 0,0 -0.41720479792310233,0.1915182601233581 l -2.3202411220286066 -5.171365865222615" fill="#ff4406" stroke="none" /><path d="M 107.2578585660854 119.70592522655815 l 1.0287573244513286 2.7931950901664004 a23.976622321414315,23.976622321414315 0 0,0 -0.38851312276884625,0.13930698319009238 l -0.9805246410527476 -2.8104896143964533" fill="#ff1e03" stroke="none" /><path d="M 106.91757812671514 119.82793768551818 l 1.9199566599341595 5.50319494984112 a26.828497939605224,26.828497939605224 0 0,0 -0.4373431840265768,0.14837055317693384 l -1.8249437429703559 -5.535428489916177" fill="#ff4606" stroke="none" /><path d="M 106.57524785965236 119.94407469862006 l 1.8282563149312192 5.545476199758024 a26.83907761852577,26.83907761852577 0 0,0 -0.4400057876907571,0.1408759582937751 l -1.7325291821495217 -5.576125004711506" fill="#ff4606" stroke="none" /><path d="M 106.2309692047433 120.05430185196036 l 1.7624291273112649 5.672357630155105 a26.93984827358191,26.93984827358191 0 0,0 -0.44402646058425893,0.13378153016944025 l -1.6645276922867602 -5.70185452943027" fill="#ff4806" stroke="none" /><path d="M 105.88484417918355 120.15858648285463 l 12.17644021158181 41.710505084696244 a64.45148939503338,64.45148939503338 0 0,0 -1.0676506823699357,0.3017287473121607 l -11.456658361107268 -41.91392262534693" fill="#35ff63" stroke="none" /><path d="M 105.18746579009965 120.34920634021253 l 0.7301612675224721 2.864250656419359 a23.955853057814064,23.955853057814064 0 0,0 -0.4004582631961871,0.09842289799248549 l -0.6807497195830738 -2.8763948127258745" fill="#ff1d03" stroke="none" /><path d="M 104.48393922423573 120.51570834832081 l 0.7552741607685279 3.4556633420897787 a24.537237367181866,24.537237367181866 0 0,0 -0.4134040044496701,0.08663282858427458 l -0.6956786948894799 -3.468152151400594" fill="#ff2603" stroke="none" /><path d="M 104.13013068566511 120.58985236759428 l 3.982432305678705 19.853534785826735 a41.24901505163512,41.24901505163512 0 0,0 -0.6973683909690327,0.13365231187997434 l -3.640096300137968 -19.919144296055176" fill="#fcff18" stroke="none" /><path d="M 103.7750983002368 120.6578951692458 l 0.8889720140843522 4.864586088843268 a25.945146009734458,25.945146009734458 0 0,0 -0.4400185922226079,0.07650287244775249 l -0.8051044503896944 -4.879167539812026" fill="#ff3a05" stroke="none" /><path d="M 101.62511606390274 120.93702456842531 l 0.14468081710562644 1.8639812193141028 a22.86958779542284,22.86958779542284 0 0,0 -0.3927440478411982,0.02708592898582507 l -0.1125740084854979 -1.866195492816213" fill="#ff0e01" stroke="none" /><path d="M 101.26447882468166 120.96189622390904 l 0.43954197367455844 7.2865065498726835 a28.299751697692137,28.299751697692137 0 0,0 -0.48650228684774993,0.025146611202887633 l -0.3140516184133289 -7.292992967837773" fill="#ff5b08" stroke="none" /><line stroke="#e1ed5e" stroke-width="0.3" x1="102.19456741930631" x2="102.32365962044197" y1="184.97166512339345" y2="189.96999836594603" /><path d="M 102.22038585953345 185.97133177190398 a86.0,86.0 0 0,1 -42.740103519485714,-10.115201625700543" fill="none" id="id31" stroke="none" /><text fill="#e1ed5e" style="font-size:6.75px; font-family:Arial;" text-anchor="middle"><textPath startOffset="22.20632615414155" xlink:href="#id31">July</textPath></text><path d="M 100.18074693466247 120.99922214144158 l 0.5422408039873879 62.99766642432473 a84.0,84.0 0 0,0 -1.4459754772996436,0.0 l 0.5422408039873445 -62.99766642432473" fill="#4dd2ff" stroke="none" /><path d="M 99.81925306533755 120.99922214144158 l -0.05065865336151193 5.885534475654306 a26.885752489127945,26.885752489127945 0 0,0 -0.4627426055780657,-0.007966533606213732 l 0.15196094883224553 -5.883790464768932" fill="#ff4706" stroke="none" /><path d="M 99.45781275523022 120.99299961872073 l -0.21980046617447474 8.510475204105305 a29.51331312971758,29.51331312971758 0 0,0 -0.5077409232581194,-0.017487624018423274 l 0.3662617411072372 -8.505430781660788" fill="#ff6b09" stroke="none" /><path d="M 99.09653310690486 120.98055641714683 l -0.5308890735342637 12.32845192630599 a33.33987723227569,33.33987723227569 0 0,0 -0.5731473084990948,-0.029625169127558564 l 0.7430244504468474 -12.31748695041623" fill="#ff9e0e" stroke="none" /><path d="M 98.37488393609728 120.93702456842531 l -0.31506746621506715 4.059141022220094 a25.071350309975447,25.071350309975447 0 0,0 -0.4299804417157151,-0.037100521774573854 l 0.38489222567232395 -4.053116248166856" fill="#ff2d04" stroke="none" /><path d="M 97.65516085044442 120.86867818915974 l -2.378153142777464 21.16516718452432 a42.298354732686924,42.298354732686924 0 0,0 -0.7228437887431342,-0.08752631622364568 l 2.7421243545719873 -21.121095339575326" fill="#efff19" stroke="none" /><path d="M 96.93821686468263 120.77559828337769 l -1.317757848952454 8.94158942506761 a30.038169460402738,30.038169460402738 0 0,0 -0.5108836597193218,-0.07978952079503521 l 1.471477372280293 -8.91758159692547" fill="#ff720a" stroke="none" /><path d="M 96.58105272829116 120.7198165907248 l -2.38228083642756 14.437315955945225 a35.632544344556095,35.632544344556095 0 0,0 -0.6043127293991163,-0.10506751412991408 l 2.6304425372987263 -14.394169863294305" fill="#ffbc11" stroke="none" /><path d="M 96.22490169976321 120.6578951692458 l -0.8712880806085638 4.767816994406768 a25.846774371844077,25.846774371844077 0 0,0 -0.436973426707761,-0.08374699723406114 l 0.9532291218880198 -4.752112798824239" fill="#ff3805" stroke="none" /><path d="M 95.16358092515715 120.4354850818985 l -9.001743964735406 38.03537320809973 a60.086071809355325,60.086071809355325 0 0,0 -1.0044294353027505,-0.2468643175506674 l 9.655126684781367 -37.874787632235034" fill="#2fff2f" stroke="none" /><path d="M 94.81253420990036 120.34920634021253 l -1.4428504218122267 5.659962328340622 a26.840975166695944,26.840975166695944 0 0,0 -0.4467227307152244,-0.11798353338160836 l 1.5400635953389403 -5.634287445655432" fill="#ff4606" stroke="none" /><path d="M 94.46302465271185 120.25689768951611 l -1.5355908302763082 5.617923936956164 a26.824011380436488,26.824011380436488 0 0,0 -0.4443446431267135,-0.12557623458628317 l 1.6320666415076355 -5.59065890903136" fill="#ff4606" stroke="none" /><path d="M 94.11515582081647 120.15858648285463 l -2.879708286367331 9.86446654636537 a31.276206501376574,31.276206501376574 0 0,0 -0.5154989416524342,-0.15531560241757913 l 3.0490822024600113 -9.813435574842064" fill="#ff830c" stroke="none" /><path d="M 93.42475214034765 119.94407469862007 l -1.8435035781457967 5.591724274810395 a26.88777426606525,26.88777426606525 0 0,0 -0.4383094735821764,-0.14869837105801573 l 1.9394827846651987 -5.559162916854256" fill="#ff4706" stroke="none" /><path d="M 93.08242187328487 119.8279376855182 l -4.009736240421053 11.493155386766293 a33.17253488235302,33.17253488235302 0 0,0 -0.5375221307044192,-0.1927363119492222 l 4.206977931755199 -11.422431533777115" fill="#ff9c0e" stroke="none" /><path d="M 92.06813273071674 119.44442032107085 l -15.522946390577353 38.05342222615258 a62.09774699136902,62.09774699136902 0 0,0 -0.9862557582155792,-0.4122549869218239 l 16.175673608290396 -37.78058219621078" fill="#32ff47" stroke="none" /><path d="M 91.7346041902142 119.30500536409082 l -3.1060807572399747 7.254692583363528 a28.89166029106716,28.89166029106716 0 0,0 -0.45549673319924683,-0.19967638201947474 l 3.230498165096965 -7.200151648049601" fill="#ff6309" stroke="none" /><path d="M 90.42595943632237 118.69057910512821 l -4.736553980904121 9.246768517115227 a31.38930563719886,31.38930563719886 0 0,0 -0.4787752456652929,-0.2504725802165376 l 4.89502012909591 -9.163866517953972" fill="#ff840c" stroke="none" /><path d="M 90.10565033884886 118.52300852407294 l -1.9135057881875874 3.5822348349611426 a25.061269606199087,25.061269606199087 0 0,0 -0.3787559656484461,-0.20652795162483828 l 1.974884565704674 -3.5487662315765385" fill="#ff2d04" stroke="none" /><line stroke="#e1ed5e" stroke-width="0.3" x1="58.666819895761336" x2="56.23545636021788" y1="174.27360380694188" y2="178.64263932499728" /><path d="M 58.180547188652646 175.14741091055294 a86.0,86.0 0 0,1 -31.652253787137756,-30.449443065178592" fill="none" id="id32" stroke="none" /><text fill="#e1ed5e" style="font-size:6.75px; font-family:Arial;" text-anchor="middle"><textPath startOffset="22.20632615414155" xlink:href="#id32">August</textPath></text><path d="M 89.4739219176387 118.17145234162733 l -2.8855627211044963 4.981424710613989 a26.756827630296364,26.756827630296364 0 0,0 -0.39655163942398797,-0.23428969835947364 l 2.970882231556866 -4.931016439960765" fill="#ff4506" stroke="none" /><path d="M 89.1626897886671 117.98757091392108 l -11.960020279020496 19.851024719754314 a44.1755316551504,44.1755316551504 0 0,0 -0.6479515525635737,-0.3980247653877391 l 12.299951031516379 -19.642211487538194" fill="#d9ff1c" stroke="none" /><path d="M 88.8546689885994 117.79835938074946 l -6.076195019705961 9.703283152166902 a32.44874883332784,32.44874883332784 0 0,0 -0.47084401287255495,-0.30051492622869913 l 6.242320834625439 -9.5972537971144" fill="#ff930d" stroke="none" /><path d="M 88.54995079064634 117.60387380957326 l -11.49714341726882 17.676278781651703 a42.0863732852266,42.0863732852266 0 0,0 -0.6038899575768252,-0.40022533476901057 l 11.799708073585608 -17.475755425791377" fill="#f2ff19" stroke="none" /><path d="M 88.24862548938628 117.40417183066458 l -6.768572036433308 10.02447761867513 a33.09560742334611,33.09560742334611 0 0,0 -0.4693951819174859,-0.32285428629662777 l 6.940124102973684 -9.9064825430134" fill="#ff9b0e" stroke="none" /><path d="M 87.65650970185807 116.9893568818739 l -4.879608188327568 6.716204489397164 a29.30168529968416,29.30168529968416 0 0,0 -0.40550048286445867,-0.2999795630757296 l 4.994493641610591 -6.631214977581668" fill="#ff6809" stroke="none" /><path d="M 87.36589467227662 116.77436683061367 l -14.851703753739825 19.71868370276805 a45.686020160379435,45.686020160379435 0 0,0 -0.6240955568323927,-0.47852986017929766 l 15.188928039065704 -19.460114500761385" fill="#c8ff1d" stroke="none" /><path d="M 87.07902340077011 116.55440617244103 l -1.5273865419199557 1.9568936607137046 a23.48240658389791,23.48240658389791 0 0,0 -0.3165009160255658,-0.25144746944101304 l 1.5608449506628796 -1.930312277267561" fill="#ff1702" stroke="none" /><path d="M 86.51685102203217 116.09983520530335 l -8.028402247520383 9.586481122338414 a33.504233801274715,33.504233801274715 0 0,0 -0.43896054283640906,-0.3740916976507947 l 8.19222826693385 -9.446865034464668" fill="#ffa00e" stroke="none" /><line stroke="#e1ed5e" stroke-width="0.3" x1="26.63291911575756" x2="22.317208475507996" y1="142.92168965132927" y2="145.44649492493687" /><path d="M 25.769776987707644 143.4266507060508 a86.0,86.0 0 0,1 -11.730757126820373,-40.83630448921669" fill="none" id="id33" stroke="none" /><text fill="#e1ed5e" style="font-size:6.75px; font-family:Arial;" text-anchor="middle"><textPath startOffset="21.46611528233685" xlink:href="#id33">September</textPath></text><line stroke="#e1ed5e" stroke-width="0.3" x1="15.007084014347285" x2="10.007500721073583" y1="101.09737516637583" y2="101.16192664675087" /><path d="M 14.007167355692545 101.11028546245083 a86.0,86.0 0 0,1 10.666146001902534,-42.60595125391555" fill="none" id="id34" stroke="none" /><text fill="#e1ed5e" style="font-size:6.75px; font-family:Arial;" text-anchor="middle"><textPath startOffset="22.20632615414155" xlink:href="#id34">October</textPath></text><line stroke="#e1ed5e" stroke-width="0.3" x1="26.266209847984243" x2="21.928928074336255" y1="57.711370442889674" y2="55.22380399835377" /><path d="M 25.398753493254645 57.213857153982495 a86.0,86.0 0 0,1 29.58750427330803,-30.492523968695096" fill="none" id="id35" stroke="none" /><text fill="#e1ed5e" style="font-size:6.75px; font-family:Arial;" text-anchor="middle"><textPath startOffset="21.46611528233685" xlink:href="#id35">November</textPath></text><line stroke="#e1ed5e" stroke-width="0.3" x1="56.762969772571076" x2="54.21961505331055" y1="26.818313649435495" y2="22.513508569990535" /><path d="M 56.25429882871897 25.957352633546506 a86.0,86.0 0 0,1 42.265352541879196,-11.944610805530505" fill="none" id="id36" stroke="none" /><text fill="#e1ed5e" style="font-size:6.75px; font-family:Arial;" text-anchor="middle"><textPath startOffset="22.20632615414155" xlink:href="#id36">December</textPath></text></svg>