<?xml version="1.0" encoding="utf-8" ?>
<svg baseProfile="full" height="200mm" version="1.1" viewBox="0,0,200,200" width="200mm" xmlns="http://www.w3.org/2000/svg" xmlns:ev="http://www.w3.org/2001/xml-events" xmlns:xlink="http://www.w3.org/1999/xlink"><defs /><rect fill="#1a1a1a" height="200" width="200" x="0" y="0" /><text alignment-baseline="middle" fill="#e1ed5e" style="dominant-baseline: central; font-size:9.0px; font-family:Arial;" text-anchor="middle" x="100.0" y="100.0">2021</text><line stroke="#e1ed5e" stroke-width="0.3" x1="100.0" x2="100.0" y1="15.0" y2="10.0" /><path d="M 100.0 14.0 a86.0,86.0 0 0,1 42.46469731375804,11.215312516191453" fill="none" id="id1" stroke="none" /><text fill="#e1ed5e" style="font-size:6.75px; font-family:Arial;" text-anchor="middle"><textPath startOffset="22.20632615414155" xlink:href="#id1">January</textPath></text><line stroke="#e1ed5e" stroke-width="0.3" x1="143.23703022742887" x2="145.7803849466894" y1="26.81831364943548" y2="22.513508569990506" /><path d="M 143.74570117128098 25.957352633546492 a86.0,86.0 0 0,1 28.547481713284135,27.462654790039103" fill="none" id="id2" stroke="none" /><text fill="#e1ed5e" style="font-size:6.75px; font-family:Arial;" text-anchor="middle"><textPath startOffset="19.985693538727396" xlink:href="#id2">February</textPath></text><line stroke="#e1ed5e" stroke-width="0.3" x1="172.23445277983987" x2="176.4835382374775" y1="55.19839476539836" y2="52.563006222186495" /><path d="M 173.08426987136738 54.67131705675599 a86.0,86.0 0 0,1 12.851231095245387,41.99856678651699" fill="none" id="id3" stroke="none" /><text fill="#e1ed5e" style="font-size:6.75px; font-family:Arial;" text-anchor="middle"><textPath startOffset="22.20632615414155" xlink:href="#id3">March</textPath></text><line stroke="#e1ed5e" stroke-width="0.3" x1="184.98032266829074" x2="189.97916517819016" y1="98.17113171792111" y2="98.06355123074" /><path d="M 185.9800911702706 98.14961562048488 a86.0,86.0 0 0,1 -9.607161424134198,41.387399972396054" fill="none" id="id4" stroke="none" /><text fill="#e1ed5e" style="font-size:6.75px; font-family:Arial;" text-anchor="middle"><textPath startOffset="21.466115282336823" xlink:href="#id4">April</textPath></text><line stroke="#e1ed5e" stroke-width="0.3" x1="174.80103733775053" x2="179.2010983576182" y1="140.37084112569926" y2="142.7455964860345" /><path d="M 175.68104954172406 140.8457921977663 a86.0,86.0 0 0,1 -30.038265399797805,32.042727171017184" fill="none" id="id5" stroke="none" /><text fill="#e1ed5e" style="font-size:6.75px; font-family:Arial;" text-anchor="middle"><textPath startOffset="22.206326154141568" xlink:href="#id5">May</textPath></text><path d="M 112.92097659922987 116.55440617244103 l 4.7266260277691154 6.055771906094557 a28.68201581520297,28.68201581520297 0 0,0 -0.3918117307750951,0.30042452744903747 l -4.621685568500527 -6.136235775370966" fill="#ff5507" stroke="none" /><path d="M 112.34349029814194 116.9893568818739 l 2.633442101107823 3.624622096572427 a25.480279304111328,25.480279304111328 0 0,0 -0.3570547560941716,0.25474908808143604 l -2.570660017164767 -3.6694154464980824" fill="#ff2803" stroke="none" /><path d="M 111.7513745106137 117.40417183066458 l 4.368678360212929 6.470156217502851 a28.806937433711347,28.806937433711347 0 0,0 -0.41334567145676554,0.27394297199098727 l -4.256657990016199 -6.544397210585156" fill="#ff5708" stroke="none" /><path d="M 111.45004920935366 117.60387380957326 l 3.5533441082716077 5.46308755013071 a27.517022320982313,27.517022320982313 0 0,0 -0.3992827359373391,0.2548411334840117 l -3.458779570287338 -5.52344311243853" fill="#ff4506" stroke="none" /><line stroke="#e1ed5e" stroke-width="0.3" x1="143.8653032363475" x2="146.44561519142675" y1="172.8068346515853" y2="177.08958963109032" /><path d="M 144.38136562736335 173.6633856474863 a86.0,86.0 0 0,1 -40.68145358897372,12.25698825130547" fill="none" id="id6" stroke="none" /><text fill="#e1ed5e" style="font-size:6.75px; font-family:Arial;" text-anchor="middle"><textPath startOffset="21.466115282336833" xlink:href="#id6">June</textPath></text><path d="M 110.8373102113329 117.98757091392108 l 4.861999236973337 8.069858143124213 a30.42133998062258,30.42133998062258 0 0,0 -0.45086182896850296,0.2663771156368628 l -4.722369536976452 -8.152353831054825" fill="#ff6d0a" stroke="none" /><path d="M 110.5260780823613 118.17145234162733 l 2.343973004398911 4.046463783208128 a25.67633174552083,25.67633174552083 0 0,0 -0.3843517402449921,0.21824494907535 l -2.27397249723272 -4.086211898078107" fill="#ff2b04" stroke="none" /><path d="M 110.21172684928248 118.3499491758327 l 4.623381124729807 8.307978651549735 a30.50779481789095,30.50779481789095 0 0,0 -0.46107038739954476,0.25141233749670755 l -4.479687925461613 -8.386331640806214" fill="#ff6f0a" stroke="none" /><path d="M 109.89434966115114 118.52300852407294 l 2.7739339737991116 5.193024746602551 a26.887462586702647,26.887462586702647 0 0,0 -0.4101094702142543,0.21454989184552148 l -2.6841336010583614 -5.240004057392789" fill="#ff3c05" stroke="none" /><path d="M 109.57404056367764 118.69057910512821 l 7.3574868937246904 14.363391285787706 a37.13814185772243,37.13814185772243 0 0,0 -0.5714783532022052,0.2865511099915899 l -7.109154632839725 -14.487910236688597" fill="#ffc712" stroke="none" /><path d="M 109.2508944713604 118.85261126421891 l 3.763851641750688 7.670440093960235 a29.544134269552536,29.544134269552536 0 0,0 -0.4584790044451128,0.22009778385687087 l -3.6312599693053427 -7.7340921543166665" fill="#ff6109" stroke="none" /><path d="M 108.2653958097858 119.30500536409082 l 4.80248934673506 11.21689568573873 a33.201747938318015,33.201747938318015 0 0,0 -0.5273205015238279,0.22042001240391904 l -4.6086973857137705 -11.297900741162623" fill="#ff930d" stroke="none" /><path d="M 107.2578585660854 119.70592522655815 l 5.309537886277087 14.416009298316586 a36.362698872755466,36.362698872755466 0 0,0 -0.5892150071004704,0.2112715382803983 l -5.060603318546882 -14.505268377636945" fill="#ffbd11" stroke="none" /><path d="M 106.91757812671514 119.82793768551818 l 3.6062590201766116 10.3366637600744 a31.947681115626295,31.947681115626295 0 0,0 -0.5207932480166029,0.17668134572857516 l -3.4277960392227818 -10.397208092701097" fill="#ff820c" stroke="none" /><path d="M 106.2309692047433 120.05430185196036 l 2.7760194759484227 8.934586368234816 a30.355913515113976,30.355913515113976 0 0,0 -0.50033054006231,0.15074548744677035 l -2.621813961445867 -8.98104722478731" fill="#ff6d0a" stroke="none" /><path d="M 105.53697534728816 120.25689768951611 l 3.967081640450723 14.513477463092968 a36.045888634896535,36.045888634896535 0 0,0 -0.5999229797737508,0.1584451115733608 l -3.716668217865475 -14.579613923969914" fill="#ffb911" stroke="none" /><path d="M 105.18746579009965 120.34920634021253 l 3.430846240393066 13.458401634290045 a34.888818541369176,34.888818541369176 0 0,0 -0.5832192927684667,0.143341112507594 l -3.1986736628813883 -13.515464005111669" fill="#ffaa0f" stroke="none" /><path d="M 103.41894727170886 120.7198165907248 l 1.008965181789707 6.114622967747905 a27.197307865176146,27.197307865176146 0 0,0 -0.462566808373282,0.07224342230101899 l -0.9035625098079078 -6.131084697396029" fill="#ff4006" stroke="none" /><path d="M 102.34483914955558 120.86867818915974 l 0.7110246614819283 6.328001154294461 a27.36782181581642,27.36782181581642 0 0,0 -0.4685988869939834,0.04857219062217861 l -0.6019931778823423 -6.3393027133723985" fill="#ff4306" stroke="none" /><path d="M 101.98527174616119 120.90594882070398 l 0.6480254177166362 6.824046251348475 a27.854746106352152,27.854746106352152 0 0,0 -0.47771643276520925,0.04121938394489915 l -0.5304646672098853 -6.8341898875720375" fill="#ff4a06" stroke="none" /><path d="M 101.62511606390274 120.93702456842531 l 0.7741583780862786 9.973794082694415 a31.003793760286708,31.003793760286708 0 0,0 -0.5324344089090107,0.03671979414733328 l -0.6023612083983376 -9.985642221358033" fill="#ff750a" stroke="none" /><path d="M 101.26447882468166 120.96189622390904 l 0.6313870601060297 10.466818243787978 a31.48584444707064,31.48584444707064 0 0,0 -0.5412745486414138,0.027977711506551935 l -0.4511244430511363 -10.476135762056732" fill="#ff7c0b" stroke="none" /><path d="M 100.90346689309514 120.98055641714683 l 0.698406101781629 16.218578381229054 a37.23360883448521,37.23360883448521 0 0,0 -0.6405592907431608,0.02206215714530832 l -0.41912645936381593 -16.228197336800456" fill="#ffc812" stroke="none" /><line stroke="#e1ed5e" stroke-width="0.3" x1="102.19456741930631" x2="102.32365962044197" y1="184.97166512339345" y2="189.96999836594603" /><path d="M 102.22038585953345 185.97133177190398 a86.0,86.0 0 0,1 -42.740103519485714,-10.115201625700543" fill="none" id="id7" stroke="none" /><text fill="#e1ed5e" style="font-size:6.75px; font-family:Arial;" text-anchor="middle"><textPath startOffset="22.20632615414155" xlink:href="#id7">July</textPath></text><path d="M 100.54218724476979 120.99299961872073 l 0.1119481249564401 4.334530122568413 a25.33597552646855,25.33597552646855 0 0,0 -0.43606870719802704,0.007507318255624063 l -0.03731972786574513 -4.335814918103197" fill="#ff2603" stroke="none" /><path d="M 99.81925306533755 120.99922214144158 l -0.11236077169299483 13.05410135541958 a34.054584908781386,34.054584908781386 0 0,0 -0.5861285585717341,-0.01009073468303232 l 0.3370490201573968 -13.050233143457387" fill="#ff9f0e" stroke="none" /><path d="M 99.45781275523022 120.99299961872073 l -0.23021808203415048 8.91383586572141 a29.916808297048718,29.916808297048718 0 0,0 -0.5146825705035658,-0.017726708385147005 l 0.38362100421235934 -8.90855235891017" fill="#ff6609" stroke="none" /><path d="M 99.09653310690486 120.98055641714683 l -0.26296526228373895 6.106651569924022 a27.112310866245554,27.112310866245554 0 0,0 -0.4660889388379648,-0.024091474280352163 l 0.36804226953519265 -6.101220288881468" fill="#ff3f05" stroke="none" /><path d="M 98.73552117531835 120.96189622390904 l -0.8418759328677025 13.95619728359023 a34.981566353768564,34.981566353768564 0 0,0 -0.6007455006405602,-0.04143092698245916 l 1.0819841942871928 -13.939638012091486" fill="#ffab0f" stroke="none" /><path d="M 98.01472825383883 120.90594882070398 l -1.1322079793878495 11.92274161824161 a32.97637936122349,32.97637936122349 0 0,0 -0.5646300523935255,-0.05852621356358176 l 1.3372706283869684 -11.901486036222266" fill="#ff900d" stroke="none" /><path d="M 97.65516085044442 120.86867818915974 l -1.3508088116859187 12.021973614479052 a33.0976251402066,33.0976251402066 0 0,0 -0.5656109535688126,-0.06848760956734705 l 1.5575471883061207 -11.996940476186357" fill="#ff920d" stroke="none" /><path d="M 96.93821686468263 120.77559828337769 l -2.5494530122212584 17.299204183762654 a38.4860566181468,38.4860566181468 0 0,0 -0.6545637702444816,-0.10222939912835004 l 2.846852646074257 -17.2527564772872" fill="#ffd814" stroke="none" /><path d="M 96.22490169976321 120.6578951692458 l -2.093533348233458 11.456123523568694 a32.64584252286753,32.64584252286753 0 0,0 -0.5519205402481168,-0.10577688512050573 l 2.29042150305327 -11.418389440099721" fill="#ff8c0c" stroke="none" /><path d="M 95.86986931433489 120.58985236759428 l -3.0289737614631056 15.10027825276886 a36.40107416249516,36.40107416249516 0 0,0 -0.613286231039663,-0.12852009258469738 l 3.288451453932155 -15.04590217945762" fill="#ffbd11" stroke="none" /><path d="M 94.81253420990036 120.34920634021253 l -3.598941460101463 14.117799584861212 a35.56930488223596,35.56930488223596 0 0,0 -0.5919910475663536,-0.1563502161851775 l 3.841422950479306 -14.053758019372452" fill="#ffb310" stroke="none" /><path d="M 94.46302465271185 120.25689768951611 l -4.27975079464711 15.657370413659546 a37.23174405708838,37.23174405708838 0 0,0 -0.6167506340270151,-0.17429988973160448 l 4.548632596778739 -15.58138173058942" fill="#ffc812" stroke="none" /><path d="M 93.42475214034765 119.94407469862007 l -1.5583432711172143 4.726774605101642 a25.97703043170022,25.97703043170022 0 0,0 -0.42346303643722616,-0.14366165350448692 l 1.6394760404916662 -4.699249964699033" fill="#ff2f04" stroke="none" /><path d="M 93.08242187328487 119.8279376855182 l -1.7853395150909706 5.11734020263633 a26.41983467770589,26.41983467770589 0 0,0 -0.42810252153427353,-0.15350233306403285 l 1.873161597254971 -5.08585032853234" fill="#ff3505" stroke="none" /><path d="M 92.7421414339146 119.70592522655815 l -1.8649119999333514 5.06345171791065 a26.39596516548316,26.39596516548316 0 0,0 -0.4250124702011468,-0.16070334935863692 l 1.9517946908947812 -5.0306001184453795" fill="#ff3505" stroke="none" /><path d="M 92.40401165467489 119.57807347666478 l -0.9919026770525273 2.5565525656692807 a23.74223119772461,23.74223119772461 0 0,0 -0.37973881271700805,-0.1511059104960299 l 1.0357625658113934 -2.539099810767184" fill="#ff0e01" stroke="none" /><path d="M 91.07499286063937 119.00905698771935 l -5.373009970605958 11.443783868407046 a33.642366288438424,33.642366288438424 0 0,0 -0.5220771900903713,-0.2506287778219753 l 5.569199828696571 -11.349600814085507" fill="#ff990e" stroke="none" /><path d="M 90.7491055286396 118.85261126421891 l -1.0498546619353013 2.1395230360338995 a23.38322337033418,23.38322337033418 0 0,0 -0.3598189170430781,-0.18042067472358633 l 1.08652748666114 -2.1211345204010112" fill="#ff0901" stroke="none" /><path d="M 90.42595943632237 118.69057910512821 l -7.111365599825171 13.882909770957111 a36.59829171425234,36.59829171425234 0 0,0 -0.5582269422887715,-0.2920379527708582 l 7.349283444640438 -13.758442399241536" fill="#ffc011" stroke="none" /><path d="M 90.10565033884886 118.52300852407294 l -7.13823311844856 13.36333942381205 a36.15035354733761,36.15035354733761 0 0,0 -0.546347502800406,-0.2979122201693469 l 7.367203433117607 -13.238486551882938" fill="#ffba11" stroke="none" /><line stroke="#e1ed5e" stroke-width="0.3" x1="58.666819895761336" x2="56.23545636021788" y1="174.27360380694188" y2="178.64263932499728" /><path d="M 58.180547188652646 175.14741091055294 a86.0,86.0 0 0,1 -31.652253787137756,-30.449443065178592" fill="none" id="id8" stroke="none" /><text fill="#e1ed5e" style="font-size:6.75px; font-family:Arial;" text-anchor="middle"><textPath startOffset="22.20632615414155" xlink:href="#id8">August</textPath></text><path d="M 88.8546689885994 117.79835938074946 l -4.497380556898851 7.182020465951308 a29.473951253513043,29.473951253513043 0 0,0 -0.4276785386917769,-0.27296467830280174 l 4.6203408976375515 -7.103541358824702" fill="#ff6008" stroke="none" /><path d="M 87.95078237400918 117.19931262002967 l -9.16857935202689 13.087427536947017 a36.9794745492226,36.9794745492226 0 0,0 -0.5181927995401816,-0.36971680359975895 l 9.392499479415958 -12.92766647150304" fill="#ffc512" stroke="none" /><path d="M 87.65650970185807 116.9893568818739 l -4.861130339990498 6.690771913016813 a29.27024890643509,29.27024890643509 0 0,0 -0.40506544056188665,-0.2996577291806794 l 4.975580750970949 -6.606104235096367" fill="#ff5d08" stroke="none" /><path d="M 84.19399662182784 113.82643327865904 l -23.355268312450125 20.43021574152126 a52.0300221268313,52.0300221268313 0 0,0 -0.5838697353040913,-0.6791724093379409 l 23.703480557324994 -20.025166233021785" fill="#86ff25" stroke="none" /><path d="M 83.95833913139862 113.55231037782056 l -3.6404005122850562 3.0754818996722415 a25.765616938556526,25.765616938556526 0 0,0 -0.2833040007773122,-0.3412579192846902 l 3.6928005129559045 -3.01236272327379" fill="#ff2c04" stroke="none" /><path d="M 83.50135304334701 112.99209946851258 l -8.909993266263914 7.016303766194518 a32.340921415140116,32.340921415140116 0 0,0 -0.34064720675786536,-0.4403324344401202 l 9.02944729023985 -6.8618933376411455" fill="#ff880c" stroke="none" /><path d="M 83.28015986056508 112.70617746262583 l -12.236079049498736 9.29876066715214 a36.36842804097275,36.36842804097275 0 0,0 -0.3744887053271856,-0.5016888188553493 l 12.394329021521006 -9.086758968787482" fill="#ffbd11" stroke="none" /><path d="M 83.06392112726016 112.41649034213515 l -3.5539416714796412 2.6055312314036163 a25.40673284895955,25.40673284895955 0 0,0 -0.25554358987689096,-0.3549276958650188 l 3.5982650537321397 -2.543969930087459" fill="#ff2703" stroke="none" /><path d="M 82.85270091963577 112.12312394758628 l -10.41823020628316 7.365678729537583 a33.75902597292886,33.75902597292886 0 0,0 -0.33138357091188175,-0.4773827496531816 l 10.543474684357177 -7.185254717697389" fill="#ff9b0e" stroke="none" /><path d="M 82.6465618267979 111.8261652097733 l -14.264867034840385 9.721340092131301 a38.262412482285185,38.262412482285185 0 0,0 -0.36622028992538236,-0.5474496440170059 l 14.430090430176499 -9.474353533908475" fill="#ffd513" stroke="none" /><path d="M 82.44556493220864 111.52570212397912 l -7.6014086356902695 4.990851105106597 a30.09340464293162,30.09340464293162 0 0,0 -0.28057820350060214,-0.43546360265764383 l 7.686191702567918 -4.859265902527505" fill="#ff6909" stroke="none" /><path d="M 82.24976979558568 111.22182372390057 l -5.276155428413458 3.335623565199305 a27.242131100312594,27.242131100312594 0 0,0 -0.24717091740051644,-0.39851821978306956 l 5.33279098548193 -3.2443090140509714" fill="#ff4106" stroke="none" /><line stroke="#e1ed5e" stroke-width="0.3" x1="26.63291911575756" x2="22.317208475507996" y1="142.92168965132927" y2="145.44649492493687" /><path d="M 25.769776987707644 143.4266507060508 a86.0,86.0 0 0,1 -11.730757126820373,-40.83630448921669" fill="none" id="id9" stroke="none" /><text fill="#e1ed5e" style="font-size:6.75px; font-family:Arial;" text-anchor="middle"><textPath startOffset="21.46611528233685" xlink:href="#id9">September</textPath></text><path d="M 81.35079622478065 109.6543875284942 l -16.94369911697873 8.771475684065418 a40.07951061853675,40.07951061853675 0 0,0 -0.3118974733141297,-0.6154033045697471 l 17.092175260079127 -8.478518167792988" fill="#ffec16" stroke="none" /><path d="M 79.50377843672027 104.57218783832718 l -12.013179748887753 2.679836094566191 a33.30845275299973,33.30845275299973 0 0,0 -0.12001505219796534,-0.5606703688007161 l 12.057528839810159 -2.472651906349311" fill="#ff950d" stroke="none" /><line stroke="#e1ed5e" stroke-width="0.3" x1="15.007084014347285" x2="10.007500721073583" y1="101.09737516637583" y2="101.16192664675087" /><path d="M 14.007167355692545 101.11028546245083 a86.0,86.0 0 0,1 10.666146001902534,-42.60595125391555" fill="none" id="id10" stroke="none" /><text fill="#e1ed5e" style="font-size:6.75px; font-family:Arial;" text-anchor="middle"><textPath startOffset="22.20632615414155" xlink:href="#id10">October</textPath></text><path d="M 79.01574976396665 99.18683210126434 l -6.06622808829108 -0.2350744912170528 a27.070781105886837,27.070781105886837 0 0,0 0.022051589858214222,-0.46547420916073484 l 6.061282890199367 0.33945980700079675" fill="#ff3e05" stroke="none" /><path d="M 79.03285615573316 98.82574320788736 l -6.563343725929008 -0.3675775301770263 a27.573628686302772,27.573628686302772 0 0,0 0.030619082134682844,-0.4736636482969933 l 6.556044052789912 0.4805002427270314" fill="#ff4606" stroke="none" /><path d="M 79.05617556472873 98.46500227214037 l -12.958986163230598 -0.9497794625523821 a33.99374477994271,33.99374477994271 0 0,0 0.04779442197790881,-0.5832130069620995 l 12.940717257433192 1.17270638672226" fill="#ff9e0e" stroke="none" /><path d="M 79.08570108090925 98.10471618934814 l -9.102346356758957 -0.8248677020277161 a30.13964528437792,30.13964528437792 0 0,0 0.05127022668933531,-0.5162841859371222 l 9.086799004387395 0.9814274186692686" fill="#ff6a09" stroke="none" /><path d="M 79.62865764111835 94.90015583598534 l -2.9636852934129974 -0.7419409522121485 a24.05514433291816,24.05514433291816 0 0,0 0.10401406394372179,-0.40080861838219317 l 2.9504748975989683 0.7928459961432055" fill="#ff1302" stroke="none" /><path d="M 79.91906864156998 93.8553929516997 l -9.74898898215115 -2.983113947470383 a31.19518293105606,31.19518293105606 0 0,0 0.161538336980956,-0.5121206725609111 l 9.69619516140199 3.1504847864577084" fill="#ff780b" stroke="none" /><path d="M 80.38941819471856 92.48833698450439 l -13.534454528673013 -5.18425524175728 a35.493376480323874,35.493376480323874 0 0,0 0.22345015748458555,-0.5686562779244893 l 13.443210821306737 5.416460524577533" fill="#ffb210" stroke="none" /><path d="M 81.43458229118936 90.18545643968196 l -8.762454959800268 -4.632241366563577 a30.911522436065567,30.911522436065567 0 0,0 0.25272657348090244,-0.4682639581455898 l 8.681420287100893 4.782386308041639" fill="#ff740a" stroke="none" /><path d="M 81.6062741919709 89.86733742301443 l -7.6606132912282385 -4.220048206813185 a29.74607356849746,29.74607356849746 0 0,0 0.2509185540101202,-0.44635610933936176 l 7.586837095925688 4.351287826087331" fill="#ff6409" stroke="none" /><line stroke="#e1ed5e" stroke-width="0.3" x1="26.266209847984243" x2="21.928928074336255" y1="57.711370442889674" y2="55.22380399835377" /><path d="M 25.398753493254645 57.213857153982495 a86.0,86.0 0 0,1 29.58750427330803,-30.492523968695096" fill="none" id="id11" stroke="none" /><text fill="#e1ed5e" style="font-size:6.75px; font-family:Arial;" text-anchor="middle"><textPath startOffset="21.46611528233685" xlink:href="#id11">November</textPath></text><path d="M 83.39014120810768 87.1503855733568 l -9.08611842778906 -7.029145755826476 a32.48766460776346,32.48766460776346 0 0,0 0.3459873152646651,-0.43936875482415244 l 8.963777031930425 7.184506904603675" fill="#ff8a0c" stroke="none" /><path d="M 83.84228863543731 86.58626213691792 l -8.013813451862307 -6.652872458328585 a31.415465327484714,31.415465327484714 0 0,0 0.348994982536449,-0.4130999806391295 l 7.898107855838733 6.789831388596831" fill="#ff7b0b" stroke="none" /><path d="M 84.31358615837235 86.03803664274999 l -1.783115393097304 -1.5870926287884917 a23.387124529105115,23.387124529105115 0 0,0 0.27023973784246863,-0.2984054681596911 l 1.7555320146387905 1.6175508842177388" fill="#ff0901" stroke="none" /><path d="M 84.80347519578584 85.50635884689758 l -8.619581908578333 -8.22090107325484 a32.91135620888459,32.91135620888459 0 0,0 0.39452211846535756,-0.4065897225518289 l 8.476795526409857 8.368054991356793" fill="#ff8f0d" stroke="none" /><path d="M 85.31137513191541 84.99185889309783 l -1.2353293421945257 -1.2622010057208115 a22.766122861674518,22.766122861674518 0 0,0 0.28242649921163826,-0.27169406847537103 l 1.21341959937046 1.283278160958496" fill="#ff0000" stroke="none" /><path d="M 86.10567301691215 84.25364557470407 l -14.095819002385904 -15.974704078618313 a42.30453669403416,42.30453669403416 0 0,0 0.5501729198340882,-0.4771045345861402 l 13.818752283905042 16.214973606624135" fill="#f6ff19" stroke="none" /><path d="M 86.37877921826538 84.01681056812374 l -1.9244057020631458 -2.258104568799239 a23.966879429596887,23.966879429596887 0 0,0 0.31629714269154824,-0.26488976078530874 l 1.8852510224124872 2.29089548697836" fill="#ff1202" stroke="none" /><path d="M 86.65592168130627 83.78471172551755 l -4.557110788819498 -5.537652236044126 a28.171670030679017,28.171670030679017 0 0,0 0.3770933667802946,-0.304916610850479 l 4.461114023474703 5.615274944158739" fill="#ff4e07" stroke="none" /><path d="M 87.22198572758235 83.33499621200491 l -5.295872816635814 -6.906843165802609 a29.703490759860458,29.703490759860458 0 0,0 0.408428438271992,-0.3076198320969426 l 5.176198224605432 6.996979587405407" fill="#ff6309" stroke="none" /><path d="M 88.39885842347998 82.49532879139004 l -34.80342472956008 -52.51401362582988 a84.0,84.0 0 0,0 1.2121318968628514,-0.78840430336186 l 33.89432580691294 53.105316853351276" fill="#4dd2ff" stroke="none" /><path d="M 88.70189139769569 82.29822771554957 l -8.226300415139681 -12.88889156744188 a36.290374238631365,36.290374238631365 0 0,0 0.5294607438076391,-0.33154826919952307 l 8.003220518959798 13.028584177964333" fill="#ffbc11" stroke="none" /><line stroke="#e1ed5e" stroke-width="0.3" x1="56.762969772571076" x2="54.21961505331055" y1="26.818313649435495" y2="22.513508569990535" /><path d="M 56.25429882871897 25.957352633546506 a86.0,86.0 0 0,1 42.265352541879196,-11.944610805530505" fill="none" id="id12" stroke="none" /><text fill="#e1ed5e" style="font-size:6.75px; font-family:Arial;" text-anchor="middle"><textPath startOffset="22.20632615414155" xlink:href="#id12">December</textPath></text><path d="M 90.26544431104013 81.39251694778311 l -6.221313774333927 -11.891964494047823 a34.42101205596698,34.42101205596698 0 0,0 0.5273618874089573,-0.2701352415777015 l 6.015691399336206 11.997292260938028" fill="#ffa30f" stroke="none" /><path d="M 92.91201910852362 80.23233633223022 l -1.9669624250891504 -5.485659775559047 a26.827641405826128,26.827641405826128 0 0,0 0.4360360381116858,-0.1521244119051273 l 1.8722443829141795 5.518705040636385" fill="#ff3b05" stroke="none" /><path d="M 97.47563105711357 79.15227682838746 l -2.4462673853463968 -20.20271458225613 a41.350280111406676,41.350280111406676 0 0,0 0.7073522588198651,-0.0794792681152669 l 2.0981484230168137 20.241829803842" fill="#fffc17" stroke="none" /><path d="M 97.83486435360386 79.11191278185805 l -0.7363105995576598 -7.1035364683976745 a28.14159531595544,28.14159531595544 0 0,0 0.48225966846702206,-0.04579636649509156 l 0.6139258040004013 7.115158379407946" fill="#ff4e07" stroke="none" /><path d="M 99.27714615592234 79.0124445844662 l -0.15466118106337493 -4.490479140138251 a25.493141772629112,25.493141772629112 0 0,0 0.43869249627756995,-0.01133013290991627 l 0.07734204959092598 4.492476065190527" fill="#ff2803" stroke="none" /><path d="M 99.63851952072746 79.00311137660856 l -0.03403449148944479 -1.9769212118888564 a22.97721415750218,22.97721415750218 0 0,0 0.39551497076198006,-0.0034043222218809502 l 4.842777978427747e-16 1.9772141575021784" fill="#ff0300" stroke="none" /></svg>