<?xml version="1.0" encoding="utf-8" ?>
<svg baseProfile="full" height="200mm" version="1.1" viewBox="0,0,200,200" width="200mm" xmlns="http://www.w3.org/2000/svg" xmlns:ev="http://www.w3.org/2001/xml-events" xmlns:xlink="http://www.w3.org/1999/xlink"><defs /><rect fill="#1a1a1a" height="200" width="200" x="0" y="0" /><text alignment-baseline="middle" fill="#e1ed5e" style="dominant-baseline: central; font-size:9.0px; font-family:Arial;" text-anchor="middle" x="100.0" y="100.0">2022</text><line stroke="#e1ed5e" stroke-width="0.3" x1="100.0" x2="100.0" y1="15.0" y2="10.0" /><path d="M 100.0 14.0 a86.0,86.0 0 0,1 42.46469731375804,11.215312516191453" fill="none" id="id13" stroke="none" /><text fill="#e1ed5e" style="font-size:6.75px; font-family:Arial;" text-anchor="middle"><textPath startOffset="22.20632615414155" xlink:href="#id13">January</textPath></text><path d="M 100.36148047927253 79.00311137660856 l 0.04998902764219777 -2.9036534639634985 a23.904083735306514,23.904083735306514 0 0,0 0.411347579619588,0.010623894388002658 l -0.09996324245665358 2.902362777433136" fill="#ff1302" stroke="none" /><path d="M 100.72285384407766 79.0124445844662 l 0.1578308189595502 -4.58250735792831 a25.58522455861003,25.58522455861003 0 0,0 0.4400161145104586,0.018948019489304354 l -0.23668776585934034 4.5791116119148105" fill="#ff2b04" stroke="none" /><path d="M 109.41281617654863 81.2277094730956 l 3.3685653582500796 -6.718041272439124 a28.51527185875521,28.51527185875521 0 0,0 0.43688046019571336,0.22378714024137927 l -3.4837063060345486 6.659061606885245" fill="#ff5507" stroke="none" /><line stroke="#e1ed5e" stroke-width="0.3" x1="143.23703022742887" x2="145.7803849466894" y1="26.81831364943548" y2="22.513508569990506" /><path d="M 143.74570117128098 25.957352633546492 a86.0,86.0 0 0,1 28.547481713284135,27.462654790039103" fill="none" id="id14" stroke="none" /><text fill="#e1ed5e" style="font-size:6.75px; font-family:Arial;" text-anchor="middle"><textPath startOffset="19.985693538727396" xlink:href="#id14">February</textPath></text><path d="M 110.68208982089419 81.91981866633111 l 4.331341543706976 -7.331097364028719 a29.515016625298554,29.515016625298554 0 0,0 0.43518898873378675,0.2621964963492764 l -4.456892598658401 7.255454258220828" fill="#ff6309" stroke="none" /><path d="M 112.77801427241765 83.33499621200491 l 5.903331288154959 -7.699086585875183 a30.70181707488409,30.70181707488409 0 0,0 0.41661992208534726,0.32517845750331625 l -6.034983765399737 7.5963297391486435" fill="#ff730a" stroke="none" /><path d="M 113.34407831869373 83.78471172551755 l 1.824538521952802 -2.217119638747667 a23.871334238748652,23.871334238748652 0 0,0 0.31503620795233117,0.263833764203755 l -1.8624322668642506 2.1853847171500926" fill="#ff1202" stroke="none" /><path d="M 115.9244219780498 86.31012108654704 l 1.3457415566613993 -1.156904720616581 a22.774668664824613,22.774668664824613 0 0,0 0.25300421337386236,0.29947718699779724 l -1.365456383522379 1.1335685839896772" fill="#ff0200" stroke="none" /><path d="M 116.15771136456269 86.58626213691792 l 2.4536218323028494 -2.036936997514951 a24.188945347257995,24.188945347257995 0 0,0 0.26320049937760887,0.3226526910595923 l -2.488320823756867 1.994400136847258" fill="#ff1702" stroke="none" /><path d="M 116.38621287248628 86.86637796730983 l 6.380861739525117 -5.114288883094512 a29.177490282395915,29.177490282395915 0 0,0 0.31073460191271973,0.3946013888362738 l -6.467950422031801 5.0036951003052" fill="#ff5e08" stroke="none" /><path d="M 116.60985879189232 87.15038557335679 l 5.000459713286218 -3.8684241736633362 a27.32212803821477,27.32212803821477 0 0,0 0.28457175077309105,0.3744630668917086 l -5.066307404283422 3.781776330890594" fill="#ff4406" stroke="none" /><path d="M 117.45458315368197 88.32363383020206 l 6.000263297020893 -4.013918336195607 a28.219051187186814,28.219051187186814 0 0,0 0.26660736678784797,0.4060613104979633 l -6.068467299166666 3.91003896171997" fill="#ff5107" stroke="none" /><path d="M 117.65298651832404 88.62581576622439 l 1.9158033207623402 -1.2343916936327417 a23.279040415866625,23.279040415866625 0 0,0 0.21413658067716684,0.33871264562019576 l -1.9367674976854625 1.2012314002983397" fill="#ff0a01" stroke="none" /><line stroke="#e1ed5e" stroke-width="0.3" x1="172.23445277983987" x2="176.4835382374775" y1="55.19839476539836" y2="52.563006222186495" /><path d="M 173.08426987136738 54.67131705675599 a86.0,86.0 0 0,1 12.851231095245387,41.99856678651699" fill="none" id="id15" stroke="none" /><text fill="#e1ed5e" style="font-size:6.75px; font-family:Arial;" text-anchor="middle"><textPath startOffset="22.20632615414155" xlink:href="#id15">March</textPath></text><path d="M 118.03404312379186 89.2402003453031 l 3.3104077708130375 -1.9751158486644833 a24.854851777267832,24.854851777267832 0 0,0 0.21604822544829685,0.369296450352378 l -3.3439156707316613 1.9178399859582098" fill="#ff2103" stroke="none" /><path d="M 118.21658344932153 89.55222093294921 l 3.5269090276313686 -2.022792386552149 a25.06580574158198,25.06580574158198 0 0,0 0.21143885485569083,0.37612612980683824 l -3.5612055237794924 1.961782746810517" fill="#ff2403" stroke="none" /><path d="M 118.73160827565052 90.50648371742162 l 10.993295181397622 -5.571599900444985 a33.32457968435349,33.32457968435349 0 0,0 0.25491714518226966,0.513897409432408 l -11.087572339533299 5.381542902513627" fill="#ff960d" stroke="none" /><path d="M 118.89224826269711 90.83032412892265 l 7.602110464458034 -3.689814358032026 a29.45025523345666,29.45025523345666 0 0,0 0.21742956015316156,0.45796210513367336 l -7.664498218452953 3.5584098372578126" fill="#ff6209" stroke="none" /><path d="M 119.47837535516314 92.15188598940014 l 4.296636054845766 -1.7311756758781853 a25.63228351988011,25.63228351988011 0 0,0 0.16136920059948295,0.4106670141455738 l -4.325798805326949 1.6569596568368272" fill="#ff2c04" stroke="none" /><path d="M 119.85752413597 93.16781622104841 l 1.5306744650212993 -0.5266441666728494 a22.618739755537863,22.618739755537863 0 0,0 0.12350123389723922,0.36925296981898775 l -1.5395129926903086 0.5002180939315477" fill="#ff0000" stroke="none" /><path d="M 120.28053869075195 94.5502522615342 l 3.4855780893172197 -0.9366379068700244 a24.609230553083876,24.609230553083876 0 0,0 0.10640992400330646,0.4100408445245947 l -3.5011843451908287 0.8765006367965792" fill="#ff1d02" stroke="none" /><path d="M 120.37134235888165 94.90015583598534 l 4.173057986189397 -1.04470019903642 a25.3018381492062,25.3018381492062 0 0,0 0.10213171276962765,0.4234018853235475 l -4.190422499219844 0.9727130820534663" fill="#ff2703" stroke="none" /><path d="M 120.67395015179393 96.31383870115 l 1.742467479426009 -0.3106816133349101 a22.76994801667213,22.76994801667213 0 0,0 0.06547784638133904,0.3864539558310261 l -1.747557187327571 0.2806418691880461" fill="#ff0200" stroke="none" /><line stroke="#e1ed5e" stroke-width="0.3" x1="184.98032266829074" x2="189.97916517819016" y1="98.17113171792111" y2="98.06355123074" /><path d="M 185.9800911702706 98.14961562048488 a86.0,86.0 0 0,1 -9.607161424134198,41.387399972396054" fill="none" id="id16" stroke="none" /><text fill="#e1ed5e" style="font-size:6.75px; font-family:Arial;" text-anchor="middle"><textPath startOffset="21.466115282336823" xlink:href="#id16">April</textPath></text><line stroke="#e1ed5e" stroke-width="0.3" x1="174.80103733775053" x2="179.2010983576182" y1="140.37084112569926" y2="142.7455964860345" /><path d="M 175.68104954172406 140.8457921977663 a86.0,86.0 0 0,1 -30.038265399797805,32.042727171017184" fill="none" id="id17" stroke="none" /><text fill="#e1ed5e" style="font-size:6.75px; font-family:Arial;" text-anchor="middle"><textPath startOffset="22.206326154141568" xlink:href="#id17">May</textPath></text><path d="M 112.92097659922987 116.55440617244103 l 2.665371220693009 3.414884118768307 a25.33193228117829,25.33193228117829 0 0,0 -0.34604779158182514,0.2653346903501158 l -2.6061947006176904 -3.4602581509457946" fill="#ff2803" stroke="none" /><path d="M 112.63410532772338 116.77436683061366 l 2.841564302049262 3.7727595851807076 a25.723155996815436,25.723155996815436 0 0,0 -0.3559778924258287,0.2633439345871556 l -2.776201439204869 -3.8211134685076322" fill="#ff2d04" stroke="none" /><path d="M 112.04921762599082 117.19931262002967 l 2.416389252939536 3.4492060366923196 a25.211408233035172,25.211408233035172 0 0,0 -0.35757354148435644,0.24594234236256915 l -2.3566588268322968 -3.4902891684199826" fill="#ff2603" stroke="none" /><line stroke="#e1ed5e" stroke-width="0.3" x1="143.8653032363475" x2="146.44561519142675" y1="172.8068346515853" y2="177.08958963109032" /><path d="M 144.38136562736335 173.6633856474863 a86.0,86.0 0 0,1 -40.68145358897372,12.25698825130547" fill="none" id="id18" stroke="none" /><text fill="#e1ed5e" style="font-size:6.75px; font-family:Arial;" text-anchor="middle"><textPath startOffset="21.466115282336833" xlink:href="#id18">June</textPath></text><path d="M 110.8373102113329 117.98757091392108 l 4.045682147126773 6.714949844337518 a28.839521378728982,28.839521378728982 0 0,0 -0.4274183636773481,0.25252630311836277 l -3.9294959124210433 -6.7835947197496305" fill="#ff5908" stroke="none" /><path d="M 110.21172684928248 118.3499491758327 l 5.11334778399081 9.18842359763872 a31.51539127991383,31.51539127991383 0 0,0 -0.4762983936799219,0.2597158606875095 l -4.95442657844224 -9.275080110085998" fill="#ff7e0b" stroke="none" /><path d="M 109.89434966115114 118.52300852407294 l 5.288261834067975 9.900046226845625 a32.223931063550786,32.223931063550786 0 0,0 -0.4915056321911607,0.25713251677164745 l -5.117065299350318 -9.98960816256199" fill="#ff880c" stroke="none" /><path d="M 108.92500713936063 119.00905698771935 l 3.9852186142906305 8.487976151131404 a30.376977473891255,30.376977473891255 0 0,0 -0.4752290139059736,0.21815433177301757 l -3.8385216046172372 -8.555317553238496" fill="#ff6f0a" stroke="none" /><path d="M 107.59598834532513 119.57807347666477 l 4.2745710277289275 11.017376785945732 a32.8175525687257,32.8175525687257 0 0,0 -0.5284091335833951,0.19979912014901008 l -4.084291673385257 -11.089324156201373" fill="#ff900d" stroke="none" /><path d="M 107.2578585660854 119.70592522655815 l 2.671502410521307 7.253437947978228 a28.729766309183724,28.729766309183724 0 0,0 -0.4655322620330514,0.16692330632051502 l -2.5462505878585207 -7.298348795338703" fill="#ff5808" stroke="none" /><path d="M 106.2309692047433 120.05430185196036 l 2.2002006606492786 7.081320214189851 a28.415253126024446,28.415253126024446 0 0,0 -0.4683442959300998,0.141108294476897 l -2.077981390278933 -7.118143877772473" fill="#ff5307" stroke="none" /><path d="M 105.53697534728816 120.25689768951611 l 3.299119879981508 12.069754637243483 a33.512520488924274,33.512520488924274 0 0,0 -0.5577593426835497,0.14730931179850457 l -3.0908700944864607 -12.12475529834557" fill="#ff990e" stroke="none" /><path d="M 104.83641907484287 120.43548508189849 l 3.392310952453358 14.333646193444018 a35.729602397789535,35.729602397789535 0 0,0 -0.599712615020252,0.1364926386819655 l -3.145078188040244 -14.389915565703667" fill="#ffb610" stroke="none" /><path d="M 104.13013068566511 120.58985236759428 l 1.5298968846471694 7.626962290045523 a28.778890554020514,28.778890554020514 0 0,0 -0.4865446744463689,0.09324744484373151 l -1.3983845956290961 -7.652166933237723" fill="#ff5808" stroke="none" /><path d="M 103.41894727170886 120.7198165907248 l 0.9245952310142084 5.603316484520668 a26.67908724769353,26.67908724769353 0 0,0 -0.45375300745407066,0.07086688786240906 l -0.8280063599516206 -5.618401679730184" fill="#ff3b05" stroke="none" /><path d="M 103.06178313531738 120.77559828337769 l 1.560085547256432 10.585893639440714 a31.700234159134546,31.700234159134546 0 0,0 -0.5405213097651747,0.07491132829206162 l -1.3776356463044268 -10.611179533225378" fill="#ff810b" stroke="none" /><path d="M 102.34483914955558 120.86867818915974 l 1.649370817144899 14.679125774623776 a35.77149815014284,35.77149815014284 0 0,0 -0.6124887954940166,0.06348696796854732 l -1.3964494250452797 -14.705342111048083" fill="#ffb710" stroke="none" /><path d="M 101.62511606390274 120.93702456842531 l 0.8287612450832398 10.677264802857241 a31.70938041492999,31.70938041492999 0 0,0 -0.5445515909643337,0.037555465965818734 l -0.6448468933399757 -10.689948613339347" fill="#ff810b" stroke="none" /><path d="M 101.26447882468166 120.96189622390904 l 1.1238897188100414 18.631280487235852 a39.6651477544139,39.6651477544139 0 0,0 -0.6818853146421759,0.03524568199538938 l -0.8030163357543858 -18.647865975993444" fill="#ffe815" stroke="none" /><line stroke="#e1ed5e" stroke-width="0.3" x1="102.19456741930631" x2="102.32365962044197" y1="184.97166512339345" y2="189.96999836594603" /><path d="M 102.22038585953345 185.97133177190398 a86.0,86.0 0 0,1 -42.740103519485714,-10.115201625700543" fill="none" id="id19" stroke="none" /><text fill="#e1ed5e" style="font-size:6.75px; font-family:Arial;" text-anchor="middle"><textPath startOffset="22.20632615414155" xlink:href="#id19">July</textPath></text><path d="M 100.54218724476979 120.99299961872073 l 0.26455908918387144 10.243488595391476 a31.24690441624128,31.24690441624128 0 0,0 -0.5378043248619243,0.009258789175523224 l -0.08819507442927917 -10.246524861846158" fill="#ff7a0b" stroke="none" /><path d="M 100.18074693466247 120.99922214144158 l 0.15490290789504363 17.996656924322558 a38.99732356109212,38.99732356109212 0 0,0 -0.6712996851149858,0.0 l 0.15490290789503125 -17.996656924322558" fill="#ffe015" stroke="none" /><path d="M 99.09653310690486 120.98055641714683 l -0.3599566452637836 8.359012113671849 a29.36675876925959,29.36675876925959 0 0,0 -0.5048452527488342,-0.026094733019151717 l 0.5037899664261067 -8.351577573890495" fill="#ff6108" stroke="none" /><path d="M 98.73552117531835 120.96189622390904 l -0.5916663000507182 9.808347390846883 a30.826176649651103,30.826176649651103 0 0,0 -0.5293841544129135,-0.036509430738583676 l 0.7604132152425619 -9.796709615592015" fill="#ff750a" stroke="none" /><path d="M 98.37488393609728 120.93702456842531 l -0.75059539234913 9.670222650325922 a30.699309230553084,30.699309230553084 0 0,0 -0.526501460037773,-0.04542876137466511 l 0.9169411701284447 -9.655869636672593" fill="#ff730a" stroke="none" /><path d="M 98.01472825383883 120.90594882070398 l -0.6888111048656864 7.253540848148202 a28.28617290310495,28.28617290310495 0 0,0 -0.484323130606413,-0.05020207276515568 l 0.8135668320776928 -7.240609406927286" fill="#ff5207" stroke="none" /><path d="M 97.2962882734958 120.8252237178851 l -1.040795430857748 8.016682207533261 a29.083962440874817,29.083962440874817 0 0,0 -0.49591120976539704,-0.06872877492024629 l 1.1786352318099762 -7.99757886712041" fill="#ff5d08" stroke="none" /><path d="M 96.58105272829116 120.7198165907248 l -1.3415361149897507 8.130099718831886 a29.240038870416335,29.240038870416335 0 0,0 -0.4958985675188579,-0.08621832242653392 l 1.4812836539806586 -8.105802817884346" fill="#ff5f08" stroke="none" /><path d="M 95.86986931433489 120.58985236759428 l -2.482082237802529 12.373871610881539 a33.62035779515759,33.62035779515759 0 0,0 -0.5664366503678967,-0.11870230744498789 l 2.6947103495998124 -12.32931332271001" fill="#ff9a0e" stroke="none" /><path d="M 95.16358092515715 120.4354850818985 l -4.153685125641388 17.550706236660513 a39.03553130707628,39.03553130707628 0 0,0 -0.652537859221557,-0.16037792962942055 l 4.455176269606156 -17.476607048717064" fill="#ffe115" stroke="none" /><path d="M 94.81253420990036 120.34920634021253 l -3.7784710779083848 14.822051985697259 a36.29608017608767,36.29608017608767 0 0,0 -0.6040869957153849,-0.15954486602969867 l 4.033048516435259 -14.75481577036398" fill="#ffbe11" stroke="none" /><path d="M 94.11515582081647 120.15858648285463 l -2.8090326556609466 9.62236653990052 a31.02400131129115,31.02400131129115 0 0,0 -0.5113420593731665,-0.15406316788626112 l 2.974249689474359 -9.572588002908534" fill="#ff770b" stroke="none" /><path d="M 93.76903079525671 120.05430185196036 l -6.266715644474527 20.169351352117957 a42.12047487472486,42.12047487472486 0 0,0 -0.6905324016191008,-0.2210866687039178 l 6.612969391184568 -20.05849183675433" fill="#f7ff18" stroke="none" /><path d="M 93.08242187328487 119.8279376855182 l -4.881407001251262 13.991635810324127 a35.818704631667686,35.818704631667686 0 0,0 -0.580400216654187,-0.20811086804158224 l 5.121526778535175 -13.905537401242587" fill="#ffb711" stroke="none" /><path d="M 92.7421414339146 119.70592522655815 l -3.3203861690369854 9.015232382191726 a30.607256591579638,30.607256591579638 0 0,0 -0.49282023402115227,-0.18634244355565438 l 3.4750766238184205 -8.956741688529439" fill="#ff720a" stroke="none" /><path d="M 90.7491055286396 118.85261126421891 l -6.51303608347646 13.273066492299524 a35.78492249332646,35.78492249332646 0 0,0 -0.5506551365520825,-0.27610991688033176 l 6.740545127711303 -13.15898873450989" fill="#ffb711" stroke="none" /><line stroke="#e1ed5e" stroke-width="0.3" x1="58.666819895761336" x2="56.23545636021788" y1="174.27360380694188" y2="178.64263932499728" /><path d="M 58.180547188652646 175.14741091055294 a86.0,86.0 0 0,1 -31.652253787137756,-30.449443065178592" fill="none" id="id20" stroke="none" /><text fill="#e1ed5e" style="font-size:6.75px; font-family:Arial;" text-anchor="middle"><textPath startOffset="22.20632615414155" xlink:href="#id20">August</textPath></text><path d="M 89.4739219176387 118.17145234162733 l -3.837806195598151 6.625308289948543 a28.656596262820212,28.656596262820212 0 0,0 -0.4247073078075068,-0.25092456352423725 l 3.95128137443404 -6.558265154130556" fill="#ff5708" stroke="none" /><path d="M 88.8546689885994 117.79835938074946 l -7.358251611795501 11.750643068990136 a34.864396103592,34.864396103592 0 0,0 -0.5058959977813723,-0.32288676142477263 l 7.559429411623796 -11.62224187874156" fill="#ffab0f" stroke="none" /><path d="M 88.24862548938628 117.40417183066458 l -6.422613494647834 9.512101649201744 a32.4773708612373,32.4773708612373 0 0,0 -0.46062672936041343,-0.3168232646728542 l 6.585397108631137 -9.400137595163788" fill="#ff8b0c" stroke="none" /><path d="M 87.95078237400918 117.19931262002967 l -4.200664349337371 5.996118718963375 a28.32113520348429,28.32113520348429 0 0,0 -0.3968636254610609,-0.2831516593836767 l 4.303255302647319 -5.922922797735479" fill="#ff5207" stroke="none" /><path d="M 87.07902340077011 116.55440617244103 l -7.010112382651539 8.981383628834115 a32.393284316021166,32.393284316021166 0 0,0 -0.4366036386631481,-0.34686433603155564 l 7.1636735140320456 -8.859385378797429" fill="#ff8a0c" stroke="none" /><path d="M 86.51685102203217 116.09983520530335 l -8.195876674560028 9.7864574543397 a33.765075165082195,33.765075165082195 0 0,0 -0.4423779935183215,-0.3770041232619297 l 8.363120144655406 -9.643928940854819" fill="#ff9c0e" stroke="none" /><path d="M 85.97065885151581 115.62618273729859 l -14.821279815337814 16.50826110391699 a43.1854235938744,43.1854235938744 0 0,0 -0.5488670958890383,-0.5013770785813964 l 15.103246460693708 -16.25069125874902" fill="#eaff1a" stroke="none" /><path d="M 85.44109423537348 115.13401014063109 l -8.006034530235063 8.322288070660393 a32.5480330632698,32.5480330632698 0 0,0 -0.40041837580809414,-0.39189365762478895 l 8.148102858418952 -8.183244310113034" fill="#ff8c0c" stroke="none" /><path d="M 85.18274418774928 114.88116024355367 l -8.697062305478923 8.73457133061017 a33.32605488690114,33.32605488690114 0 0,0 -0.4030220984972574,-0.4082592579894021 l 8.846125029031713 -8.583571578640102" fill="#ff970d" stroke="none" /><path d="M 84.9287848128048 114.62390073753433 l -11.01184022972434 10.685008239673694 a36.34372921837681,36.34372921837681 0 0,0 -0.431786778021056,-0.45272671049428703 l 11.194133559124355 -10.493874412596908" fill="#ffbe11" stroke="none" /><path d="M 84.43433777217949 114.09645910891817 l -7.539465013841977 6.827834159268135 a31.171669086311056,31.171669086311056 0 0,0 -0.35675403840882525,-0.4008169440759134 l 7.6558779018991405 -6.697043045451357" fill="#ff790b" stroke="none" /><path d="M 84.19399662182784 113.82643327865904 l -18.35629717477296 16.05732404693347 a45.388343558282216,45.388343558282216 0 0,0 -0.5093382446516237,-0.5924754476404471 l 18.62997792899536 -15.738971500131495" fill="#d0ff1d" stroke="none" /><path d="M 83.72743513129214 113.27417163493432 l -9.123511121618838 7.442407113981738 a32.774034093569995,32.774034093569995 0 0,0 -0.3528391456314037,-0.4402210856739652 l 9.250268179305102 -7.284258194729513" fill="#ff8f0d" stroke="none" /><path d="M 83.50135304334701 112.99209946851258 l -10.979253441090442 8.6457727819393 a34.97474125415633,34.97474125415633 0 0,0 -0.36838925404673156,-0.47619277022658807 l 11.126449512355244 -8.45550201759946" fill="#ffac10" stroke="none" /><path d="M 83.28015986056508 112.70617746262583 l -8.021929202102273 6.096233886478822 a31.075485880204184,31.075485880204184 0 0,0 -0.3199868430271487,-0.42867466773740515 l 8.125677311824505 -5.957246339232108" fill="#ff780b" stroke="none" /><path d="M 83.06392112726016 112.41649034213515 l -12.866002745759642 9.432561104314528 a36.95328291106636,36.95328291106636 0 0,0 -0.3716800042323025,-0.5162310178268384 l 13.026462542367552 -9.209696481036552" fill="#ffc612" stroke="none" /><path d="M 82.85270091963577 112.12312394758628 l -6.548223710533133 4.629587861462221 a29.01949608954245,29.01949608954245 0 0,0 -0.2848596475481088,-0.41036156812949764 l 6.626944265243376 -4.51618503114571" fill="#ff5c08" stroke="none" /><path d="M 82.6465618267979 111.8261652097733 l -19.899118393018433 13.561016514184567 a45.08061630684213,45.08061630684213 0 0,0 -0.4314792325640789,-0.6450029088122465 l 20.129600730993243 -13.2164766911665" fill="#d4ff1c" stroke="none" /><path d="M 82.05923443525364 110.91462005526583 l -9.79037482812386 5.956168428931874 a32.459815950920245,32.459815950920245 0 0,0 -0.2862942231155244,-0.47984558555456625 l 9.891449926937616 -5.786760749491196" fill="#ff8b0c" stroke="none" /><line stroke="#e1ed5e" stroke-width="0.3" x1="26.63291911575756" x2="22.317208475507996" y1="142.92168965132927" y2="145.44649492493687" /><path d="M 25.769776987707644 143.4266507060508 a86.0,86.0 0 0,1 -11.730757126820373,-40.83630448921669" fill="none" id="id21" stroke="none" /><text fill="#e1ed5e" style="font-size:6.75px; font-family:Arial;" text-anchor="middle"><textPath startOffset="21.46611528233685" xlink:href="#id21">September</textPath></text><path d="M 81.51974371655577 109.97397251340807 l -6.683893188376879 3.6073616036996756 a28.595227836837914,28.595227836837914 0 0,0 -0.23005200094150868,-0.4351716884211728 l 6.7449976975432735 -3.4917749001923766" fill="#ff5607" stroke="none" /><path d="M 81.02952815118164 109.00673069616217 l -10.367616509818557 4.92229874982455 a32.476780780218235,32.476780780218235 0 0,0 -0.2354185903846511,-0.5070706998675351 l 10.450809717043036 -4.743107982678188" fill="#ff8b0c" stroke="none" /><path d="M 80.87730276802145 108.67885076344099 l -14.622375116578427 6.636376129598268 a37.05787477169484,37.05787477169484 0 0,0 -0.25862675850969835,-0.583135064969139 l 14.734442959819406 -6.383692728136434" fill="#ffc712" stroke="none" /><path d="M 80.58989483394504 108.01547362559985 l -17.99323021067024 7.430369952100928 a40.4670678593172,40.4670678593172 0 0,0 -0.26033309887917333,-0.6461254016560547 l 18.118465923806802 -7.119545182602067" fill="#fff216" stroke="none" /><path d="M 80.32549172779594 107.34259656027581 l -14.746344784885617 5.503388394571169 a36.7398211024212,36.7398211024212 0 0,0 -0.2160226933884433,-0.5944016741499405 l 14.838891739279283 -5.248738923415111" fill="#ffc312" stroke="none" /><path d="M 80.20201598880116 107.00284435728193 l -4.256014892830327 1.5054164029986994 a25.514414836322764,25.514414836322764 0 0,0 -0.1428918632318897,-0.4153106407504072 l 4.281297587005446 -1.4319330591589954" fill="#ff2a04" stroke="none" /><path d="M 80.0844068197444 106.66101706037122 l -11.20297584715493 3.7469741709128455 a32.81297944082799,32.81297944082799 0 0,0 -0.17454590813261833,-0.5371970679410659 l 11.265814006303797 -3.553578202993976" fill="#ff900d" stroke="none" /><path d="M 79.86692584326677 105.97154293290107 l -15.588305862040315 4.623548146780946 a37.259534959958785,37.259534959958785 0 0,0 -0.1770845683430241,-0.6164546137148973 l 15.665583067269443 -4.354536057561453" fill="#ffca12" stroke="none" /><path d="M 79.76711848015287 105.62410040840567 l -10.910292122136267 3.032715746382496 a32.32394979628155,32.32394979628155 0 0,0 -0.14439866241052696,-0.5373611404505039 l 10.960878860888569 -2.844463672756453" fill="#ff890c" stroke="none" /><path d="M 79.67330655649465 105.27499134158121 l -4.435927447074908 1.1511699598479967 a25.582864234533787,25.582864234533787 0 0,0 -0.10694695370084165,-0.4271999178822453 l 4.455085715070808 -1.0746422025683595" fill="#ff2b04" stroke="none" /><path d="M 79.58551787078972 104.9243191809786 l -17.48778173966104 4.218349429994162 a38.9893574673348,38.9893574673348 0 0,0 -0.15176038162434427,-0.653779752099476 l 17.55780268721594 -3.916701020546112" fill="#ffe015" stroke="none" /><path d="M 79.35854240842038 103.8639653848113 l -16.603840391724344 3.108146032997507 a37.892249332646465,37.892249332646465 0 0,0 -0.11449514418699622,-0.6421495728586083 l 16.65488197825053 -2.821877709405685" fill="#ffd213" stroke="none" /><path d="M 79.29508885075956 103.50808413554451 l -6.565492127172154 1.1124075156545625 a27.659064300098347,27.659064300098347 0 0,0 -0.07549376388999479,-0.47009973980743025 l 6.583667645423439 -0.9992285461539185" fill="#ff4906" stroke="none" /><path d="M 79.23777060512086 103.15116336523772 l -13.127664099009147 1.9924360430266261 a34.278003090900576,34.278003090900576 0 0,0 -0.08351745511437525,-0.5841208865499331 l 13.16001560514012 -1.7661696844962924" fill="#ffa30f" stroke="none" /><path d="M 79.18660465613746 102.79330883721812 l -11.169520844136901 1.4990308292308432 a32.26966234252798,32.26966234252798 0 0,0 -0.06914695726321803,-0.5511692836859513 l 11.193669310646968 -1.306543791257483" fill="#ff880c" stroke="none" /><path d="M 79.1416061653843 102.43462659150553 l -32.297151470701955 3.769777501753731 a53.51641455533181,53.51641455533181 0 0,0 -0.0989230497596947,-0.9159045824154779 l 32.35725682196271 -3.213276597453471" fill="#75ff27" stroke="none" /><path d="M 79.07016306316243 101.71520430193888 l -13.070145536953447 1.071101027667017 a34.113960567601744,34.113960567601744 0 0,0 -0.04292420170405724,-0.5856666288147926 l 13.086646297321838 -0.8459612623554637" fill="#ffa10e" stroke="none" /><path d="M 79.04373962182676 101.35467743843564 l -16.16310344186638 1.044832960302553 a37.1968388516836,37.1968388516836 0 0,0 -0.03580399279242682,-0.6393043430707369 l 16.178693785546336 -0.7664569008963785" fill="#ffc912" stroke="none" /><path d="M 79.0235259727143 100.99374915477108 l -3.530330853362838 0.16724752201099743 a24.534290263663188,24.534290263663188 0 0,0 -0.016353701700039688,-0.4220163748380053 l 3.5326866879140786 -0.10645390015899533" fill="#ff1c02" stroke="none" /><path d="M 79.0095281055655 100.63252640178507 l -18.171705040423536 0.54758574563378 a39.17995363649136,39.17995363649136 0 0,0 -0.014511391589949714,-0.6742873457665979 l 18.178438494698494 -0.2347085840770533" fill="#ffe215" stroke="none" /><line stroke="#e1ed5e" stroke-width="0.3" x1="15.007084014347285" x2="10.007500721073583" y1="101.09737516637583" y2="101.16192664675087" /><path d="M 14.007167355692545 101.11028546245083 a86.0,86.0 0 0,1 10.666146001902534,-42.60595125391555" fill="none" id="id22" stroke="none" /><text fill="#e1ed5e" style="font-size:6.75px; font-family:Arial;" text-anchor="middle"><textPath startOffset="22.20632615414155" xlink:href="#id22">October</textPath></text><path d="M 79.00175016825051 100.2711162175752 l -9.521786340719771 0.12293932675055273 a30.52257996534445,30.52257996534445 0 0,0 -0.0022611457325451135,-0.5254106361067813 l 9.522491783741819 0.04098078755990399" fill="#ff710a" stroke="none" /><path d="M 79.00019446554 99.90962569577889 l -29.396974062321796 -0.12651217520700572 a50.39724628857771,50.39724628857771 0 0,0 0.011200170938834691,-0.8674655822341567 l 29.390440884265246 0.6325140155016343" fill="#97ff23" stroke="none" /><path d="M 79.00486145842228 99.54816195383935 l -4.402755180137527 -0.09475204435433661 a25.40377464524891,25.40377464524891 0 0,0 0.013171621919876527,-0.4371020070198311 l 4.4004718637620055 0.1705241987991621" fill="#ff2903" stroke="none" /><path d="M 79.01574976396665 99.18683210126434 l -26.249672591306847 -1.0172100915437228 a47.26937432679249,47.26937432679249 0 0,0 0.03850516360911933,-0.8127831460135354 l 26.228273819464228 1.4689043441802672" fill="#baff1f" stroke="none" /><path d="M 79.03285615573316 98.82574320788736 l -7.626500312220484 -0.4271192041315082 a28.6384512714841,28.6384512714841 0 0,0 0.03180151229523434,-0.4919553195247476 l 7.618018208920837 0.5583335879092676" fill="#ff5608" stroke="none" /><path d="M 79.08570108090925 98.10471618934814 l -25.54805073247869 -2.3152010561912815 a46.65273966187421,46.65273966187421 0 0,0 0.07936047407242085,-0.7991491436215273 l 25.50441313272404 2.7546257305172395" fill="#c1ff1e" stroke="none" /><path d="M 79.12142395522702 97.74499172005258 l -19.29833389262763 -2.084332888590845 a40.410567601742144,40.410567601742144 0 0,0 0.08064726776731523,-0.6909365397739043 l 19.259596271856726 2.4162131666896114" fill="#fff216" stroke="none" /><path d="M 79.16333360222342 97.38593545837743 l -5.096410696186378 -0.6393703405391353 a26.13636023041259,26.13636023041259 0 0,0 0.05984479856875964,-0.445913260749882 l 5.084649898559785 0.7270019433536767" fill="#ff3304" stroke="none" /><path d="M 79.26566170972629 96.67025291283419 l -14.876375506559546 -2.3890112776730215 a36.06698122043741,36.06698122043741 0 0,0 0.10371513602320429,-0.6121326037861923 l 14.833048509016118 2.6447296697750415" fill="#ffbb11" stroke="none" /><path d="M 79.32604984820605 96.31383870115002 l -17.867916230100075 -3.185845995317599 a39.14971198426451,39.14971198426451 0 0,0 0.12400070246527473,-0.6624167109064488 l 17.81042980372494 3.492940783686621" fill="#ffe215" stroke="none" /><path d="M 79.46518482838121 95.60439243477599 l -15.707070796446988 -3.362198229852816 a37.062890460356854,37.062890460356854 0 0,0 0.1389075006266057,-0.6226950882853552 l 15.646868908818345 3.6320714876881306" fill="#ffc712" stroke="none" /><path d="M 79.54389044137918 95.25157060432595 l -7.4581502051373105 -1.7312431559842563 a28.65644874256545,28.65644874256545 0 0,0 0.11567271020841756,-0.4795380617301432 l 7.427244694668079 1.8593664493737962" fill="#ff5708" stroke="none" /><path d="M 79.62865764111835 94.90015583598534 l -30.3145952320708 -7.589078267654715 a52.25010068842785,52.25010068842785 0 0,0 0.22592860965023942,-0.8705950950625083 l 30.179470290550253 8.109769788266087" fill="#83ff25" stroke="none" /><path d="M 79.81627453868168 94.20196356495316 l -12.184956557066226 -3.50028651612062 a33.677743174261224,33.677743174261224 0 0,0 0.16485111413811987,-0.5557960049950602 l 12.122899545816399 3.7095119078622196" fill="#ff9b0e" stroke="none" /><path d="M 80.02781315780177 93.51064311812611 l -14.876300158656603 -4.833602928620237 a36.64186765325716,36.64186765325716 0 0,0 0.20006931935138197,-0.598181799557004 l 14.790893545533448 5.088957831099562" fill="#ffc212" stroke="none" /><path d="M 80.2630227832202 92.82701384747504 l -41.68584908441683 -15.149838546935937 a65.3534397976865,65.3534397976865 0 0,0 0.3933511864791759,-1.0539856178582028 l 41.41889330943602 15.865147301823482" fill="#36ff6b" stroke="none" /><path d="M 80.65960295795068 91.81776055985345 l -8.799912355246876 -3.722932356889419 a30.55503442139278,30.55503442139278 0 0,0 0.2090972527348006,-0.4826252883219947 l 8.734524392669396 3.8738567897980127" fill="#ff710a" stroke="none" /><path d="M 80.803312248108 91.48605970444005 l -11.566020103294198 -5.129656005733985 a33.65251721069639,33.65251721069639 0 0,0 0.23940990950614155,-0.5275080006106986 l 11.476007876824706 5.327986015186754" fill="#ff9b0e" stroke="none" /><path d="M 81.26839172434947 90.50648371742162 l -17.457160633498827 -8.847603274788844 a40.57121715918137,40.57121715918137 0 0,0 0.3210739798604029,-0.6202127332950839 l 17.30227722047831 9.146788730344262" fill="#fff417" stroke="none" /><path d="M 81.43458229118936 90.18545643968196 l -27.724490427862946 -14.656455527135744 a52.36015079848265,52.36015079848265 0 0,0 0.42808637218090173,-0.7931790325988926 l 27.46809595646357 15.13151554306711" fill="#82ff25" stroke="none" /><line stroke="#e1ed5e" stroke-width="0.3" x1="26.266209847984243" x2="21.928928074336255" y1="57.711370442889674" y2="55.22380399835377" /><path d="M 25.398753493254645 57.213857153982495 a86.0,86.0 0 0,1 29.58750427330803,-30.492523968695096" fill="none" id="id23" stroke="none" /><text fill="#e1ed5e" style="font-size:6.75px; font-family:Arial;" text-anchor="middle"><textPath startOffset="21.46611528233685" xlink:href="#id23">November</textPath></text><path d="M 81.78341655067845 89.55222093294921 l -8.489740053704436 -4.869130847974642 a30.786936261883575,30.786936261883575 0 0,0 0.26761225558598023,-0.4574360925836281 l 8.40466812364813 5.014546352912162" fill="#ff740a" stroke="none" /><path d="M 82.54541684631803 88.32363383020206 l -10.518730330667225 -7.036578639594828 a33.65532009553693,33.65532009553693 0 0,0 0.3262571319780243,-0.47874208316217576 l 10.39604873302046 7.21659874602742" fill="#ff9b0e" stroke="none" /><path d="M 83.17141714833178 87.43820079747576 l -8.154608100323657 -6.087057385309711 a31.175947173699246,31.175947173699246 0 0,0 0.32471093967572473,-0.42728153442473926 l 8.048621220423824 6.226523695615477" fill="#ff7a0b" stroke="none" /><path d="M 84.31358615837235 86.03803664274999 l -3.0111479274784605 -2.6801241795078945 a25.03113848171217,25.03113848171217 0 0,0 0.2892364254860902,-0.31938208512593014 l 2.964567861376325 2.7315590519033806" fill="#ff2303" stroke="none" /><path d="M 86.10567301691215 84.25364557470407 l -20.58352176145586 -23.32717729841745 a52.11010396665574,52.11010396665574 0 0,0 0.6776948831645262,-0.5876903245640019 l 20.178933079644562 23.678032616401133" fill="#84ff25" stroke="none" /><path d="M 87.51073957382395 83.11751280151077 l -2.883911952434081 -3.8983578656503055 a25.849138294384865,25.849138294384865 0 0,0 0.3599857886862701,-0.2615449849581271 l 2.816380847394029 3.9474220854251003" fill="#ff2f04" stroke="none" /><path d="M 88.09926311788651 82.69761687909137 l -35.70221064634046 -51.907149362725875 a84.0,84.0 0 0,0 1.198381222373842,-0.8091523508053382 l 34.80342472956008 52.51401362582988" fill="#4dd2ff" stroke="none" /><line stroke="#e1ed5e" stroke-width="0.3" x1="56.762969772571076" x2="54.21961505331055" y1="26.818313649435495" y2="22.513508569990535" /><path d="M 56.25429882871897 25.957352633546506 a86.0,86.0 0 0,1 42.265352541879196,-11.944610805530505" fill="none" id="id24" stroke="none" /><text fill="#e1ed5e" style="font-size:6.75px; font-family:Arial;" text-anchor="middle"><textPath startOffset="22.20632615414155" xlink:href="#id24">December</textPath></text><path d="M 89.94658935756843 81.56283822128135 l -4.564854847292064 -8.371583565946498 a30.53526670725425,30.53526670725425 0 0,0 0.4636343354851115,-0.24765740534229885 l 4.4200754652786465 8.448919697790547" fill="#ff710a" stroke="none" /></svg>