<?xml version="1.0" encoding="utf-8" ?>
<svg baseProfile="full" height="200mm" version="1.1" viewBox="0,0,200,200" width="200mm" xmlns="http://www.w3.org/2000/svg" xmlns:ev="http://www.w3.org/2001/xml-events" xmlns:xlink="http://www.w3.org/1999/xlink"><defs /><rect fill="#1a1a1a" height="200" width="200" x="0" y="0" /><text alignment-baseline="middle" fill="#e1ed5e" style="dominant-baseline: central; font-size:9.0px; font-family:Arial;" text-anchor="middle" x="100.0" y="100.0">2024</text><line stroke="#e1ed5e" stroke-width="0.3" x1="100.0" x2="100.0" y1="15.0" y2="10.0" /><path d="M 100.0 14.0 a86.0,86.0 0 0,1 42.35913384403234,11.155469271406648" fill="none" id="id37" stroke="none" /><text fill="#e1ed5e" style="font-size:6.75px; font-family:Arial;" text-anchor="middle"><textPath startOffset="22.145653131862478" xlink:href="#id37">January</textPath></text><path d="M 102.15924093988457 79.11130261209362 l 1.3019408569694881 -12.595096765644413 a33.66220804326768,33.66220804326768 0 0,0 0.5742838387975099,0.06434970197871952 l -1.5179605973677948 12.570891303158723" fill="#ff950d" stroke="none" /><path d="M 104.64783097203109 79.52079915486377 l 1.7977033147703552 -7.921012503400276 a29.12244890947058,29.12244890947058 0 0,0 0.4865776631755323,0.1148310036271372 l -1.9334131316857723 7.888985356126911" fill="#ff5608" stroke="none" /><path d="M 106.72888874123014 80.10723608172694 l 1.8451079517619882 -5.454733805186906 a26.75834561650342,26.75834561650342 0 0,0 0.43386010628780475,0.15091906650905007 l -1.9384738300948112 5.422256306109265" fill="#ff3405" stroke="none" /><path d="M 107.40779381753099 80.34994680014964 l 2.26266382197566 -6.001984608423865 a27.414317330085446,27.414317330085446 0 0,0 0.43892637577043586,0.16978615136048714 l -2.3653624602396217 5.96225856892534" fill="#ff3e05" stroke="none" /><path d="M 108.4095320186766 80.7573450057729 l 3.8848123360802336 -8.889210878142704 a30.70102246789748,30.70102246789748 0 0,0 0.48110928632443717,0.21519406430984997 l -4.036835025260302 8.821213062923" fill="#ff6c0a" stroke="none" /><path d="M 109.06512990194946 81.05736502329252 l 5.716481987676002 -11.945248751502502 a34.24262564791047,34.24262564791047 0 0,0 0.5280534930681751,0.2582974245576291 l -5.920695730006244 11.845357576847652" fill="#ff9c0e" stroke="none" /><path d="M 109.3889696526874 81.21577127319529 l 6.833234535559375 -13.6710464734657 a36.28367121792471,36.28367121792471 0 0,0 0.5547475773509591,0.2832580657283818 l -7.0669093346239125 13.551730456064483" fill="#ffb711" stroke="none" /><line stroke="#e1ed5e" stroke-width="0.3" x1="143.13028292997686" x2="145.6673583964461" y1="26.7553504044142" y2="22.446841604673864" /><path d="M 143.63769802327073 25.89364864446614 a86.0,86.0 0 0,1 29.32050498858742,28.57503671076993" fill="none" id="id38" stroke="none" /><text fill="#e1ed5e" style="font-size:6.75px; font-family:Arial;" text-anchor="middle"><textPath startOffset="20.669276256404974" xlink:href="#id38">February</textPath></text><path d="M 112.45986205192187 83.09580414077388 l 10.414878817999417 -14.12978335200845 a38.55336088526377,38.55336088526377 0 0,0 0.5293688751766847,0.39724827288546927 l -10.65590068208687 13.948916051858967" fill="#ffd513" stroke="none" /><path d="M 113.03279911837588 83.53348406188908 l 39.09839735512764 -49.399547814332756 a84.0,84.0 0 0,0 1.122996918578962,0.904606824826367 l -39.94064504406186 48.72109269571298" fill="#4dd2ff" stroke="none" /><path d="M 113.31354834802062 83.75963576809568 l 12.536236025694114 -15.292169587881668 a40.773913734929764,40.773913734929764 0 0,0 0.53748884849988,0.4483923138719276 l -12.796899208355887 15.07471509009787" fill="#fff116" stroke="none" /><path d="M 114.13192950727249 84.46653392183569 l 1.4788800597529856 -1.625548247323539 a23.197610824398083,23.197610824398083 0 0,0 0.29225700956098305,0.270508724905839 l -1.5065668406279336 1.599921776285325" fill="#ff0000" stroke="none" /><path d="M 114.39649973595853 84.71141617570332 l 23.819351058844823 -25.29532539037363 a55.7449992296643,55.7449992296643 0 0,0 0.6910455749951714,0.6620060287620503 l -24.25006911970531 24.882707231306" fill="#61ff29" stroke="none" /><line stroke="#e1ed5e" stroke-width="0.3" x1="172.87174338648825" x2="177.1583165268699" y1="56.24261187166439" y2="53.66864786411523" /><path d="M 173.72905801456457 55.72781907015455 a86.0,86.0 0 0,1 12.242430191666344,42.057860355516425" fill="none" id="id39" stroke="none" /><text fill="#e1ed5e" style="font-size:6.75px; font-family:Arial;" text-anchor="middle"><textPath startOffset="22.145653131862474" xlink:href="#id39">March</textPath></text><path d="M 120.7213421655516 96.59031103205396 l 11.72858560521371 -1.9299342980876542 a32.88631005374508,32.88631005374508 0 0,0 0.08688016242191166,0.5578329663719456 l -11.759987259773887 1.7283131497842674" fill="#ff8a0c" stroke="none" /><line stroke="#e1ed5e" stroke-width="0.3" x1="184.99686870605535" x2="189.99668451229388" y1="99.2704041080226" y2="99.22748670261217" /><path d="M 185.99683186730306 99.26182062694052 a86.0,86.0 0 0,1 -10.086455211305974,41.156179273409016" fill="none" id="id40" stroke="none" /><text fill="#e1ed5e" style="font-size:6.75px; font-family:Arial;" text-anchor="middle"><textPath startOffset="21.40746469413373" xlink:href="#id40">April</textPath></text><path d="M 120.592083275326 104.11899336999214 l 9.443593743393214 1.8889832319464546 a30.630665628129258,30.630665628129258 0 0,0 -0.10756073344722415,0.514717046968776 l -9.409775299121625 -2.0508167302006397" fill="#ff6b09" stroke="none" /><path d="M 119.83427380445688 106.89939002012753 l 7.134108947611824 2.48161342133914 a28.553404242417166,28.553404242417166 0 0,0 -0.16501125159649033,0.46156583888692027 l -7.090457525971391 -2.6037142166069818" fill="#ff4e07" stroke="none" /><path d="M 119.0197475246899 108.90220220490707 l 10.305288754779513 4.823395481770359 a32.378230103708916,32.378230103708916 0 0,0 -0.2399392473658999,0.5013807445231165 l -10.220970249453702 -4.99958872835858" fill="#ff830c" stroke="none" /><line stroke="#e1ed5e" stroke-width="0.3" x1="174.33088141563837" x2="178.70328620479359" y1="141.23008692659167" y2="143.65538615756765" /><path d="M 175.20536237346943 141.71514677278685 a86.0,86.0 0 0,1 -30.301960400862466,31.631185727798858" fill="none" id="id41" stroke="none" /><text fill="#e1ed5e" style="font-size:6.75px; font-family:Arial;" text-anchor="middle"><textPath startOffset="22.145653131862474" xlink:href="#id41">May</textPath></text><path d="M 118.36410011445183 110.18625677009912 l 7.532303711331999 4.178041896734048 a29.613456523986805,29.613456523986805 0 0,0 -0.2503981821452404,0.44242959516022984 l -7.459472164165381 -4.306728261993401" fill="#ff5d08" stroke="none" /><path d="M 118.00360718960297 110.81064883170644 l 11.682016697675595 7.01471537535178 a34.62628878022068,34.62628878022068 0 0,0 -0.31037032478361537,0.5069666002985974 l -11.559878408436575 -7.214219091774934" fill="#ffa20e" stroke="none" /><path d="M 114.13192950727249 115.5334660781643 l 3.4896813920640186 3.835771152080258 a26.185654881425197,26.185654881425197 0 0,0 -0.3350952981986707,0.29964428194939924 l -3.42332106704197 -3.895110963913044" fill="#ff2c04" stroke="none" /><path d="M 113.59037401385872 116.0094264158162 l 4.885215526250975 5.754771606223932 a28.54869041474909,28.54869041474909 0 0,0 -0.37633382061280196,0.31395105793134664 l -4.785707371476278 -5.837784848067149" fill="#ff4e07" stroke="none" /><path d="M 112.7482090630111 116.68781488649013 l 5.914741430430762 7.742586398184519 a30.743295660206872,30.743295660206872 0 0,0 -0.42213035307872665,0.3167744866697882 l -5.7809580884412695 -7.842979912118322" fill="#ff6d0a" stroke="none" /><path d="M 111.8722381534696 117.32195027204791 l 7.6555626402763925 11.169694681424595 a34.54140755665527,34.54140755665527 0 0,0 -0.4919744387880862,0.3310223585382234 l -7.4626919133913034 -11.299466714019939" fill="#ffa00e" stroke="none" /><path d="M 111.5731344415666 117.5232005979908 l 6.625438384331097 10.031758158902548 a33.0221714154838,33.0221714154838 0 0,0 -0.47569910986932046,0.30834241578369903 l -6.4522536422047665 -10.14401441639014" fill="#ff8c0c" stroke="none" /><line stroke="#e1ed5e" stroke-width="0.3" x1="143.1302829299769" x2="145.66735839644613" y1="173.24464959558577" y2="177.55315839532614" /><path d="M 143.63769802327073 174.10635135553383 a86.0,86.0 0 0,1 -40.68552437913181,11.842963189579606" fill="none" id="id42" stroke="none" /><text fill="#e1ed5e" style="font-size:6.75px; font-family:Arial;" text-anchor="middle"><textPath startOffset="21.407464694133747" xlink:href="#id42">June</textPath></text><path d="M 110.65571695917076 118.09573695890943 l 14.808376446746983 25.147860626892705 a50.183949477378675,50.183949477378675 0 0,0 -0.7460860485405161,0.43075298096349285 l -14.374497930346068 -25.398360505132366" fill="#9dff22" stroke="none" /><path d="M 109.71004243097381 118.62028667847754 l 5.858189695023227 11.23385117147174 a33.66956189635827,33.66956189635827 0 0,0 -0.514779989607155,0.26285033064605706 l -5.66448248370249 -11.332759453790633" fill="#ff950d" stroke="none" /><path d="M 109.06512990194946 118.94263497670748 l 5.207851567192999 10.882406795847036 a33.064348122306995,33.064348122306995 0 0,0 -0.5140896585911765,0.24061991812927178 l -5.020273194730316 -10.970202945546841" fill="#ff8d0c" stroke="none" /><path d="M 108.07796709384702 119.3841803445677 l 2.67109017704017 6.409644048660249 a27.943936892311612,27.943936892311612 0 0,0 -0.4443691934268247,0.1807210824438092 l -2.560666522422905 -6.45455238768335" fill="#ff4506" stroke="none" /><path d="M 107.74402155503746 119.51999308798841 l 5.899224404323651 14.869899157496995 a36.99733570088149,36.99733570088149 0 0,0 -0.5923585941178455,0.22913702951671963 l -5.643093547712276 -14.968976075151755" fill="#ffc111" stroke="none" /><path d="M 106.38641147887787 120.00534299687104 l 1.8008739504443378 5.641212000185624 a26.921690621471818,26.921690621471818 0 0,0 -0.44146363544933154,0.13676656273868928 l -1.703769682123382 -5.671295150730957" fill="#ff3705" stroke="none" /><path d="M 106.0420521117495 120.11202640906438 l 4.182799311909791 13.923178527599196 a35.537905983844865,35.537905983844865 0 0,0 -0.5857662065348421,0.17050800567412563 l -3.9431730929933417 -13.99293022757584" fill="#ffae10" stroke="none" /><path d="M 105.69591212413111 120.21278271476187 l 1.6242353143759964 5.763838130163059 a26.98831949274483,26.98831949274483 0 0,0 -0.44700187986158885,0.12183235008534421 l -1.5250520335797124 -5.790870974392545" fill="#ff3805" stroke="none" /><path d="M 104.9986988182912 120.39639698878246 l 2.8875340191438412 11.78212417150702 a33.130799755355085,33.130799755355085 0 0,0 -0.553549159763656,0.13063609446800484 l -2.684852705640306 -11.82995640962125" fill="#ff8d0d" stroke="none" /><path d="M 103.94208987418118 120.62667999033965 l 2.2703731852351354 11.87955187354031 a33.09455857468018,33.09455857468018 0 0,0 -0.5589281159475757,0.10185532160081086 l -2.0661103357365023 -11.916775369072484" fill="#ff8d0d" stroke="none" /><path d="M 103.2317021107853 120.74984581791261 l 1.7855025139704885 11.4642069727708 a32.60241615965923,32.60241615965923 0 0,0 -0.5537363495562259,0.08138017442630993 l -1.5884410588065772 -11.493168220495992" fill="#ff860c" stroke="none" /><path d="M 101.08105385017728 120.97215588758144 l 0.8094575303848713 15.703259841148817 a36.724108595787996,36.724108595787996 0 0,0 -0.6298608514809751,0.027048935087033585 l -0.5397709183030667 -15.714841344661682" fill="#ffbd11" stroke="none" /><line stroke="#e1ed5e" stroke-width="0.3" x1="101.45913802915013" x2="101.54496967792366" y1="184.9874750549273" y2="189.98673829345242" /><path d="M 101.47630435890484 185.9873277026323 a86.0,86.0 0 0,1 -42.54439059252881,-10.42667462771756" fill="none" id="id43" stroke="none" /><text fill="#e1ed5e" style="font-size:6.75px; font-family:Arial;" text-anchor="middle"><textPath startOffset="22.145653131862474" xlink:href="#id43">July</textPath></text><path d="M 100.36049292484886 120.99690560180557 l 0.08936583483591966 5.205111858611594 a26.205878956823234,26.205878956823234 0 0,0 -0.44985875968477124,0.0038614964060749352 l -6.375363001222136e-16 -5.205878956823234" fill="#ff2c04" stroke="none" /><path d="M 100.0 121.0 l 2.450402995040061e-15 20.00905891189302 a41.00905891189302,41.00905891189302 0 0,0 -0.7039750282117715,-0.006042778945354126 l 0.3434821033629169 -20.006110531142102" fill="#fff417" stroke="none" /><path d="M 99.27912038922189 120.98762331915562 l -0.3913855351716729 11.394762817445857 a32.4014824607587,32.4014824607587 0 0,0 -0.5557228238432871,-0.0238651291839762 l 0.5869341196157987 -11.386365119836054" fill="#ff830c" stroke="none" /><path d="M 98.19965949673042 120.92268563240118 l -1.484940521490419 17.25725975588165 a38.32102949118027,38.32102949118027 0 0,0 -0.6549254388533479,-0.06202211998282385 l 1.7809655237287823 -17.229225880393642" fill="#ffd213" stroke="none" /><path d="M 97.48249496171623 120.84855314841334 l -1.9470620754734862 16.12446709995157 a37.2415975194304,37.2415975194304 0 0,0 -0.6340331934006266,-0.08208829067246128 l 2.2235730907649067 -16.08866721307871" fill="#ffc412" stroke="none" /><path d="M 96.76829788921471 120.74984581791261 l -1.860690912904685 11.946970430446465 a33.090999674937066,33.090999674937066 0 0,0 -0.5605339538494704,-0.09223564879774304 l 2.065502369807219 -11.913268783153052" fill="#ff8d0d" stroke="none" /><path d="M 95.70440661134978 120.55596938700252 l -1.5894241674822687 7.605970019428193 a28.77026699159155,28.77026699159155 0 0,0 -0.48256996754002074,-0.10517387838324214 l 1.719756551641426 -7.577564682911233" fill="#ff5107" stroke="none" /><path d="M 95.00130118170881 120.39639698878247 l -4.095908605997637 16.712704844709414 a38.20729410846049,38.20729410846049 0 0,0 -0.6356869676989175,-0.16158914135451619 l 4.382200866921933 -16.639930471519634" fill="#ffd113" stroke="none" /><path d="M 94.6519064749342 120.30758222061772 l -3.9804875714888417 15.114559657062458 a36.62991346532914,36.62991346532914 0 0,0 -0.6066935802568633,-0.16535703314552164 l 4.2393625526804 -15.04400212977279" fill="#ffbc11" stroke="none" /><path d="M 93.27111125876986 119.89276391827306 l -5.443798699699026 16.093623556022315 a37.98939856044943,37.98939856044943 0 0,0 -0.615960520634009,-0.21426304339410304 l 5.719264992378057 -15.997802080059623" fill="#ffce13" stroke="none" /><path d="M 92.59220618246901 119.65005319985036 l -4.256256994630262 11.290227352007427 a33.06585915980937,33.06585915980937 0 0,0 -0.5294123340004929,-0.20478806386364773 l 4.449441591124284 -11.21549940000574" fill="#ff8d0c" stroke="none" /><path d="M 91.92203290615298 119.3841803445677 l -6.26373962369701 15.0306948625281 a37.283618213526765,37.283618213526765 0 0,0 -0.588663812873445,-0.2512655776016383 l 6.5208385117408865 -14.920954635267057" fill="#ffc512" stroke="none" /><path d="M 91.26138138417905 119.09545874513695 l -4.206224346163169 9.191359299001034 a31.108086318071713,31.108086318071713 0 0,0 -0.4836733939385859,-0.226383570464622 l 4.363386453973245 -9.117799496965885" fill="#ff720a" stroke="none" /><path d="M 90.28995756902619 118.62028667847754 l -7.991586556007979 15.324920951330178 a38.283479332781525,38.283479332781525 0 0,0 -0.5801062521092901,-0.3088739046336053 l 8.25348162390383 -15.185476578973999" fill="#ffd113" stroke="none" /><path d="M 89.97174638481275 118.45085714620012 l -8.251633621072882 15.182076461909949 a38.27960946062441,38.27960946062441 0 0,0 -0.5746604455988801,-0.31875446213033626 l 8.511038254827865 -15.038189084346465" fill="#ffd113" stroke="none" /><line stroke="#e1ed5e" stroke-width="0.3" x1="58.13341422392154" x2="55.67067388415222" y1="173.97424548756322" y2="178.32567169271397" /><path d="M 57.64086615596768 174.84453072859336 a86.0,86.0 0 0,1 -31.369924170532247,-30.572349798747897" fill="none" id="id44" stroke="none" /><text fill="#e1ed5e" style="font-size:6.75px; font-family:Arial;" text-anchor="middle"><textPath startOffset="22.145653131862474" xlink:href="#id44">August</textPath></text><path d="M 89.03521579738668 117.91015095944536 l -6.116152631651884 9.990275677088695 a32.71379234568772,32.71379234568772 0 0,0 -0.4764310086969446,-0.2973281861119411 l 6.286747769138541 -9.883811694135206" fill="#ff880c" stroke="none" /><path d="M 87.83215693770417 117.11559508785305 l -7.601674021344978 10.692706494740376 a34.11942910760427,34.11942910760427 0 0,0 -0.47445339117238605,-0.34346766640661536 l 7.784108422891318 -10.560638056960695" fill="#ff9b0e" stroke="none" /><path d="M 86.68645165197938 116.24036423190432 l -8.786184170957625 10.717716075005555 a34.85880478794686,34.85880478794686 0 0,0 -0.459514849797333,-0.3833436309128995 l 8.96887335491685 -10.565310260180784" fill="#ffa50f" stroke="none" /><path d="M 86.13680546590413 115.77377054828092 l -7.870973044409885 8.955722469945336 a32.92296865820383,32.92296865820383 0 0,0 -0.42131205234559077,-0.3767398351464611 l 8.023550123578847 -8.819287104915492" fill="#ff8b0c" stroke="none" /><path d="M 85.86807049272751 115.53346607816431 l -9.89631742318386 10.877786427724837 a35.705894604124126,35.705894604124126 0 0,0 -0.4498436524215477,-0.41636856890560503 l 10.081590846919374 -10.706300112686856" fill="#ffb010" stroke="none" /><path d="M 85.08716467003676 114.78537596483092 l -14.772642315880955 14.646381174438195 a41.80258259207001,41.80258259207001 0 0,0 -0.5008610250546772,-0.5139275351541287 l 15.021890142086443 -14.39063094721633" fill="#fffe18" stroke="none" /><path d="M 84.83555147118756 114.52719865689866 l -5.296193945695327 5.0736339952221945 a28.334264259480577,28.334264259480577 0 0,0 -0.33345943414790535,-0.3541223633852516 l 5.382509213579485 -4.981970171892453" fill="#ff4b07" stroke="none" /><path d="M 84.3458050057657 113.99807769240083 l -9.141579020209091 8.174456329644528 a33.26336834919316,33.26336834919316 0 0,0 -0.3769673163132337,-0.4289196070286528 l 9.280557400480918 -8.016324444804575" fill="#ff8f0d" stroke="none" /><path d="M 83.8745106332314 113.45245675266167 l -8.983428341362234 7.4942954290650325 a32.69899349271104,32.69899349271104 0 0,0 -0.3558789985930691,-0.43411451316779004 l 9.110754159193933 -7.338978634198747" fill="#ff880c" stroke="none" /><path d="M 83.4222238831116 112.89097897827486 l -18.75446914739959 14.583588644410444 a44.75733930283735,44.75733930283735 0 0,0 -0.46643120025280227,-0.610573413773588 l 19.002052325006687 -14.259494317395985" fill="#dcff1b" stroke="none" /><path d="M 82.37810715431573 111.42229804090323 l -14.975703201425508 9.707069883850972 a38.846537258167274,38.846537258167274 0 0,0 -0.35791036671671794,-0.5626945438104743 l 15.140131259768115 -9.448561665361826" fill="#ffd914" stroke="none" /><line stroke="#e1ed5e" stroke-width="0.3" x1="26.387840678322732" x2="22.057713659400548" y1="142.50000000000003" y2="145.00000000000006" /><path d="M 25.521815274538298 143.00000000000003 a86.0,86.0 0 0,1 -11.493303480769221,-40.785679425670985" fill="none" id="id45" stroke="none" /><text fill="#e1ed5e" style="font-size:6.75px; font-family:Arial;" text-anchor="middle"><textPath startOffset="21.40746469413373" xlink:href="#id45">September</textPath></text><path d="M 81.81346652052679 110.50000000000001 l -8.73494870658854 5.043124987106473 a31.086249974212937,31.086249974212937 0 0,0 -0.26285146676310744,-0.46443335582931744 l 8.820233538373026 -4.8924348611780335" fill="#ff710a" stroke="none" /><path d="M 81.29705330413844 109.54985784667822 l -9.031653007035878 4.611626378468026 a31.14090005345099,31.14090005345099 0 0,0 -0.23901395110856452,-0.47818801131554445 l 9.109486871356179 -4.455906510988728" fill="#ff720a" stroke="none" /><path d="M 81.1358732173502 109.22738970284198 l -12.326779774688006 6.02964569061168 a34.72246795470732,34.72246795470732 0 0,0 -0.25731124897974905,-0.5376815464912312 l 12.428470281627668 -5.817151642055344" fill="#ffa30f" stroke="none" /><path d="M 80.83023694016515 108.57439118712176 l -9.284723519447594 4.152938733333491 a31.171184343792266,31.171184343792266 0 0,0 -0.2142887084117502,-0.49033450089351366 l 9.354646109876313 -3.9929421626641273" fill="#ff730a" stroke="none" /><path d="M 80.16572619554312 106.89939002012753 l -8.4662117219632 2.9449879152961036 a29.96379912438622,29.96379912438622 0 0,0 -0.1648216963782735,-0.4872660584462131 l 8.51551883991384 -2.799220182375729" fill="#ff6209" stroke="none" /><path d="M 80.05021161711548 106.5578916946017 l -9.662229575026691 3.1761667775766473 a31.170875859998592,31.170875859998592 0 0,0 -0.1627346587801358,-0.5097640008230947 l 9.715328949584082 -3.009833743062161" fill="#ff730a" stroke="none" /><path d="M 79.83685265289637 105.86919833188381 l -12.192646199101889 3.549101611028882 a33.69869062470149,33.69869062470149 0 0,0 -0.15690994211408058,-0.5568180296007537 l 12.251774633290545 -3.339275657525133" fill="#ff950d" stroke="none" /><path d="M 79.34024301695615 103.76489593502545 l -10.992532068131835 2.003205523323104 a32.17356673750951,32.17356673750951 0 0,0 -0.09435309425977631,-0.5442035743313169 l 11.025299979883846 -1.8142089160711943" fill="#ff800b" stroke="none" /><path d="M 79.00696218219943 100.54070618675478 l -5.856934746503856 0.1508538630920926 a26.85887715461026,26.85887715461026 0 0,0 -0.007915142783539615,-0.4610173859041729 l 5.858661320886061 -0.0502895612188673" fill="#ff3605" stroke="none" /><line stroke="#e1ed5e" stroke-width="0.3" x1="15.003131293944662" x2="10.003315487706104" y1="100.72959589197737" y2="100.7725132973878" /><path d="M 14.003168132696942 100.73817937305945 a86.0,86.0 0 0,1 10.791469493833604,-42.45332614584628" fill="none" id="id46" stroke="none" /><text fill="#e1ed5e" style="font-size:6.75px; font-family:Arial;" text-anchor="middle"><textPath startOffset="22.145653131862435" xlink:href="#id46">October</textPath></text><path d="M 79.00077361379809 99.81974689727619 l -5.652622014495056 -0.04852096157728766 a26.652830257708658,26.652830257708658 0 0,0 0.007854422054236846,-0.45748070783544964 l 5.650956160842153 0.14554858538178966" fill="#ff3304" stroke="none" /><path d="M 79.94057633289273 93.78553927170692 l -39.797824147703764 -12.329467652800455 a62.66392419699572,62.66392419699572 0 0,0 0.3271512923738113,-1.0247967637935058 l 39.5803081395527 13.010833450285352" fill="#32ff49" stroke="none" /><path d="M 80.9802524753101 91.09779779509293 l -17.917762558284345 -8.38641759814637 a40.78328120473334,40.78328120473334 0 0,0 0.30222497542430776,-0.6315339605972948 l 17.77115832490013 8.692764060808752" fill="#fff116" stroke="none" /><path d="M 81.46374523516351 90.13048839642627 l -4.5140600080340345 -2.4034826988370326 a26.114046034182834,26.114046034182834 0 0,0 0.21407878405444694,-0.3938808504642234 l 4.472135874364237 2.4806183827758757" fill="#ff2b04" stroke="none" /><line stroke="#e1ed5e" stroke-width="0.3" x1="26.387840678322718" x2="22.05771365940052" y1="57.49999999999999" y2="54.99999999999999" /><path d="M 25.521815274538284 56.99999999999999 a86.0,86.0 0 0,1 29.574782752854787,-30.34633250058573" fill="none" id="id47" stroke="none" /><text fill="#e1ed5e" style="font-size:6.75px; font-family:Arial;" text-anchor="middle"><textPath startOffset="21.40746469413373" xlink:href="#id47">November</textPath></text><line stroke="#e1ed5e" stroke-width="0.3" x1="56.869717070023135" x2="54.33264160355391" y1="26.7553504044142" y2="22.446841604673864" /><path d="M 56.362301976729285 25.89364864446614 a86.0,86.0 0 0,1 42.16139366436587,-11.88097634709845" fill="none" id="id48" stroke="none" /><text fill="#e1ed5e" style="font-size:6.75px; font-family:Arial;" text-anchor="middle"><textPath startOffset="22.145653131862474" xlink:href="#id48">December</textPath></text></svg>