<?xml version="1.0" encoding="utf-8" ?>
<svg baseProfile="full" height="200mm" version="1.1" viewBox="0,0,200,200" width="200mm" xmlns="http://www.w3.org/2000/svg" xmlns:ev="http://www.w3.org/2001/xml-events" xmlns:xlink="http://www.w3.org/1999/xlink"><defs /><rect fill="#1a1a1a" height="200" width="200" x="0" y="0" /><text alignment-baseline="middle" fill="#e1ed5e" style="dominant-baseline: central; font-size:9.0px; font-family:Arial;" text-anchor="middle" x="100.0" y="100.0">2023</text><line stroke="#e1ed5e" stroke-width="0.3" x1="100.0" x2="100.0" y1="15.0" y2="10.0" /><path d="M 100.0 14.0 a86.0,86.0 0 0,1 42.46469731375804,11.215312516191453" fill="none" id="id25" stroke="none" /><text fill="#e1ed5e" style="font-size:6.75px; font-family:Arial;" text-anchor="middle"><textPath startOffset="22.20632615414155" xlink:href="#id25">January</textPath></text><path d="M 100.0 79.0 l 0.0 -7.6755626830805745 a28.675562683080575,28.675562683080575 0 0,0 0.4936026734328284,0.004248594046161929 l -0.1321221941603 7.674425465642972" fill="#ff5607" stroke="none" /><line stroke="#e1ed5e" stroke-width="0.3" x1="143.23703022742887" x2="145.7803849466894" y1="26.81831364943548" y2="22.513508569990506" /><path d="M 143.74570117128098 25.957352633546492 a86.0,86.0 0 0,1 28.547481713284135,27.462654790039103" fill="none" id="id26" stroke="none" /><text fill="#e1ed5e" style="font-size:6.75px; font-family:Arial;" text-anchor="middle"><textPath startOffset="19.985693538727396" xlink:href="#id26">February</textPath></text><path d="M 115.4437574822437 85.77008943001954 l 1.6127213470788242 -1.485964835281527 a23.192934480329267,23.192934480329267 0 0,0 0.2679958592584532,0.295927721383057 l -1.638060846953313 1.4579843266289207" fill="#ff0701" stroke="none" /><path d="M 116.38621287248628 86.86637796730983 l 3.4258753500518555 -2.745854232996073 a25.390482591123142,25.390482591123142 0 0,0 0.2704037058692707,0.34338524652771135 l -3.4726331365150904 2.6864765925153233" fill="#ff2703" stroke="none" /><path d="M 117.04232023915458 87.72973835380427 l 3.110812711457755 -2.239747016031415 a24.833226111461308,24.833226111461308 0 0,0 0.2467800428104128,0.3490528694939014 l -3.1489053740720507 2.18586764620572" fill="#ff1f03" stroke="none" /><path d="M 117.65298651832404 88.62581576622439 l 3.6505137681298216 -2.3521015043852787 a25.342652675293856,25.342652675293856 0 0,0 0.2331191016566846,0.3687384351475192 l -3.6904604660324623 2.288915421523553" fill="#ff2603" stroke="none" /><line stroke="#e1ed5e" stroke-width="0.3" x1="172.23445277983987" x2="176.4835382374775" y1="55.19839476539836" y2="52.563006222186495" /><path d="M 173.08426987136738 54.67131705675599 a86.0,86.0 0 0,1 12.851231095245387,41.99856678651699" fill="none" id="id27" stroke="none" /><text fill="#e1ed5e" style="font-size:6.75px; font-family:Arial;" text-anchor="middle"><textPath startOffset="22.20632615414155" xlink:href="#id27">March</textPath></text><path d="M 118.03404312379186 89.2402003453031 l 1.6650512580459693 -0.993433243360721 a22.938892802847715,22.938892802847715 0 0,0 0.19939395045343275,0.3408288958235974 l -1.6819048829697294 0.9646249351832283" fill="#ff0300" stroke="none" /><path d="M 118.3937258080291 89.86733742301442 l 7.106604786540515 -3.9148582033648096 a29.113565575290146,29.113565575290146 0 0,0 0.23802682914997303,0.4410275644046325 l -7.172939714908953 3.7919496556277186" fill="#ff5c08" stroke="none" /><path d="M 118.73160827565052 90.50648371742162 l 3.5344459050286106 -1.7913208121536135 a24.962466164855947,24.962466164855947 0 0,0 0.19095096387492608,0.3849454911860948 l -3.564756881856945 1.7302157324685687" fill="#ff2103" stroke="none" /><path d="M 120.28053869075195 94.5502522615342 l 5.811977211099751 -1.5617834489105096 a27.018159738959547,27.018159738959547 0 0,0 0.11682609573388725,0.450178603226385 l -5.83799963870394 1.4615084201352744" fill="#ff3e05" stroke="none" /><path d="M 120.45610955862082 95.25157060432595 l 5.824803052996251 -1.35209805958451 a26.97967388483073,26.97967388483073 0 0,0 0.10111675102812956,0.453286567856715 l -5.847214191026419 1.2516333221778313" fill="#ff3e05" stroke="none" /><path d="M 120.6074358757038 95.95851677861258 l 3.044294192832312 -0.5970400187344407 a24.10228688494197,24.10228688494197 0 0,0 0.0763402935366099,0.40781290064316383 l -3.0541202102787817 0.544549040628714" fill="#ff1402" stroke="none" /><path d="M 120.67395015179393 96.31383870115 l 3.0568224118541103 -0.5450308426450454 a24.105031703066484,24.105031703066484 0 0,0 0.0693170472640092,0.4091131367652465 l -3.065751320638342 0.492331917563961" fill="#ff1402" stroke="none" /><path d="M 120.73433829027371 96.67025291283417 l 2.996384430051374 -0.48119222269431294 a24.034776039156068,24.034776039156068 0 0,0 0.062083092982406836,0.4090500138024712 l -3.0042234164730806 0.42954309649975964" fill="#ff1302" stroke="none" /><path d="M 120.78858239683441 97.02765380044208 l 8.621569096480913 -1.2327097465796049 a29.70924950869517,29.70924950869517 0 0,0 0.06802569435081325,0.5068704366661839 l -8.641510789889562 1.0841209678487567" fill="#ff6409" stroke="none" /><path d="M 120.87857604477298 97.74499172005257 l 5.6895648706680975 -0.6145062702140848 a26.722653787682155,26.722653787682155 0 0,0 0.0454576191759374,0.45775202152109923 l -5.699299615526264 0.5164787179885505" fill="#ff3a05" stroke="none" /><path d="M 120.91429891909075 98.10471618934814 l 6.022099012058264 -0.5457312629914737 a27.04677592791724,27.04677592791724 0 0,0 0.03802714382334382,0.4640274738680246 l -6.030600639701102 0.4419898719156803" fill="#ff3f05" stroke="none" /><path d="M 120.94382443527127 98.46500227214037 l 5.8790493275077225 -0.43088249653684496 a26.89481812451333,26.89481812451333 0 0,0 0.029865298271780232,0.4620029455705412 l -5.885595216783918 0.3296204867132685" fill="#ff3c05" stroke="none" /><line stroke="#e1ed5e" stroke-width="0.3" x1="184.98032266829074" x2="189.97916517819016" y1="98.17113171792111" y2="98.06355123074" /><path d="M 185.9800911702706 98.14961562048488 a86.0,86.0 0 0,1 -9.607161424134198,41.387399972396054" fill="none" id="id28" stroke="none" /><text fill="#e1ed5e" style="font-size:6.75px; font-family:Arial;" text-anchor="middle"><textPath startOffset="21.466115282336823" xlink:href="#id28">April</textPath></text><path d="M 120.99513854157772 99.54816195383933 l 3.436650935955904 -0.07396043808729526 a24.437446698060736,24.437446698060736 0 0,0 0.005430923323859764,0.4206309965204297 l -3.4374148663974795 0.014793183506402855" fill="#ff1902" stroke="none" /><path d="M 120.99824983174949 100.27111621757518 l 3.02996826639842 0.039121047817838005 a24.03022080907709,24.03022080907709 0 0,0 -0.008900264338972907,0.41356031091489365 l -3.0288459393744396 -0.09127117452284648" fill="#ff1302" stroke="none" /><path d="M 120.95626037817324 101.35467743843564 l 2.964290188388715 0.19162087923706042 a23.970477214579702,23.970477214579702 0 0,0 -0.03016107135558463,0.4115238555641931 l -2.9605525583687924 -0.24261787129802376" fill="#ff1202" stroke="none" /><path d="M 120.92983693683757 101.71520430193887 l 5.929952316896284 0.4859607724096151 a26.949831287774852,26.949831287774852 0 0,0 -0.04186900600135053,0.46202099233690436 l -5.9207087146178585 -0.58796315329509" fill="#ff3d05" stroke="none" /><path d="M 120.89721153311464 102.0752229133903 l 7.379383515726106 0.7328186219612342 a28.415680967036227,28.415680967036227 0 0,0 -0.05252530173431956,0.4863190597952927 l -7.365675912490735 -0.8597340036413182" fill="#ff5207" stroke="none" /><path d="M 120.81339534386255 102.79330883721812 l 11.79872709521758 1.5834748784856274 a32.90450980755682,32.90450980755682 0 0,0 -0.08017097476843776,0.5607156108047257 l -11.769722069432541 -1.7863359612707623" fill="#ff900d" stroke="none" /><path d="M 120.76222939487914 103.15116336523771 l 3.108791450588868 0.47183322864528265 a24.144393562979715,24.144393562979715 0 0,0 -0.06590068004955228,0.41036359757567353 l -3.1002090161780274 -0.5252760559141612" fill="#ff1502" stroke="none" /><path d="M 120.70491114924044 103.5080841355445 l 6.066142050302511 1.0278014011862253 a27.152597426675072,27.152597426675072 0 0,0 -0.08204423364068204,0.4601476330020536 l -6.047551374322641 -1.1320677849214973" fill="#ff4006" stroke="none" /><path d="M 120.64145759157962 103.86396538481128 l 2.848523443769574 0.5332276529269442 a23.898002336015423,23.898002336015423 0 0,0 -0.07917074401258707,0.4036899180571265 l -2.838922766781323 -0.5821812980520156" fill="#ff1101" stroke="none" /><path d="M 120.5718875245553 104.21870165774334 l 5.7760747899672085 1.1845065875748275 a26.896278134154027,26.896278134154027 0 0,0 -0.09691108284550032,0.4527363156934531 l -5.7548296683972655 -1.2837567226844497" fill="#ff3c05" stroke="none" /><path d="M 120.32669344350535 105.2749913415812 l 2.892252039481305 0.7505699098743067 a23.988055730653713,23.988055730653713 0 0,0 -0.10716026918634664,0.3987832262410219 l -2.8789036939531814 -0.8002440692908768" fill="#ff1302" stroke="none" /><path d="M 120.02730092923936 106.31721596034902 l 3.0601246493829777 0.965255794779422 a24.20875078794171,24.20875078794171 0 0,0 -0.1287764312490298,0.3963331024313227 l -3.043055967117701 -1.0177877971885398" fill="#ff1602" stroke="none" /><path d="M 119.54520255179757 107.68017299344265 l 2.431935145646465 0.9556146874354193 a23.612950053765434,23.612950053765434 0 0,0 -0.15190703913973688,0.37702081333922 l -2.4151254922493357 -0.9973348686174529" fill="#ff0d01" stroke="none" /><path d="M 119.41010516605496 108.01547362559984 l 2.3760987225274572 0.9812186219138987 a23.57072657495643,23.57072657495643 0 0,0 -0.1580911290793801,0.37368072977907313 l -2.3588566122557686 -1.0219738773591354" fill="#ff0c01" stroke="none" /><path d="M 118.64920377521936 109.65438752849418 l 6.825674966229614 3.533540201597536 a28.686074752493603,28.686074752493603 0 0,0 -0.23078287515747692,0.43655422700065194 l -6.763839582847244 -3.650509443684322" fill="#ff5607" stroke="none" /><line stroke="#e1ed5e" stroke-width="0.3" x1="174.80103733775053" x2="179.2010983576182" y1="140.37084112569926" y2="142.7455964860345" /><path d="M 175.68104954172406 140.8457921977663 a86.0,86.0 0 0,1 -30.038265399797805,32.042727171017184" fill="none" id="id29" stroke="none" /><text fill="#e1ed5e" style="font-size:6.75px; font-family:Arial;" text-anchor="middle"><textPath startOffset="22.206326154141568" xlink:href="#id29">May</textPath></text><path d="M 118.48025628344425 109.97397251340804 l 7.663731924581576 4.136190017796568 a29.70866550483889,29.70866550483889 0 0,0 -0.24675676703609908,0.4479352075185785 l -7.591398748093968 -4.267495743712951" fill="#ff6409" stroke="none" /><path d="M 117.55443506779139 111.5257021239791 l 5.056557982925108 3.3199804413390304 a27.049053542956727,27.049053542956727 0 0,0 -0.25889408398635405,0.3870115283490062 l -4.998660793528033 -3.4065288838938437" fill="#ff3f05" stroke="none" /><path d="M 117.14729908036423 112.12312394758627 l 5.57403256378743 3.940835658255848 a27.82642107605028,27.82642107605028 0 0,0 -0.27988106843463056,0.3887303249656917 l -5.505371702977197 -4.0361995886726705" fill="#ff4a06" stroke="none" /><path d="M 116.93607887273984 112.41649034213515 l 7.5465839900447715 5.532690768187471 a30.357435388779713,30.357435388779713 0 0,0 -0.3125930178502529,0.41876943063131494 l -7.450229705499427 -5.661773078328101" fill="#ff6d0a" stroke="none" /><path d="M 116.498646956653 112.99209946851258 l 4.393776455920699 3.459943164291504 a26.592537728503096,26.592537728503096 0 0,0 -0.28629030730571675,0.3571911775109992 l -4.333568236560129 -3.535062175380754" fill="#ff3805" stroke="none" /><path d="M 116.27256486870786 113.27417163493432 l 5.500023144201717 4.486585354017522 a28.09786606844896,28.09786606844896 0 0,0 -0.30894807950763536,0.3721478640982875 l -5.421979064800539 -4.58059447522958" fill="#ff4e07" stroke="none" /><path d="M 116.0416608686014 113.55231037782055 l 2.295255993055569 1.939077372925027 a24.004699840557677,24.004699840557677 0 0,0 -0.26937558680631185,0.31334466447859416 l -2.2615378966784783 -1.9782991365651492" fill="#ff1302" stroke="none" /><path d="M 115.56566222782051 114.09645910891815 l 4.294394731839784 3.8890577765935 a26.793668656605732,26.793668656605732 0 0,0 -0.3125335895432387,0.33919348531559235 l -4.226814734300824 -3.962402516710427" fill="#ff3b05" stroke="none" /><path d="M 115.32070863581623 114.36230785411682 l 4.766851392943073 4.468656693870122 a27.533893544439913,27.533893544439913 0 0,0 -0.32712028830318,0.3429843144762062 l -4.689224553260928 -4.550048124928836" fill="#ff4606" stroke="none" /><path d="M 114.81725581225074 114.88116024355365 l 3.7112915624963154 3.727297763624634 a26.259889131966332,26.259889131966332 0 0,0 -0.3230592194214222,0.3161814411563027 l -3.646582390699099 -3.7906293077035085" fill="#ff3304" stroke="none" /><path d="M 114.55890576462653 115.13401014063108 l 2.1098239999481487 2.1931660473922427 a24.04324409507212,24.04324409507212 0 0,0 -0.30072850708429805,0.2843575739751936 l -2.071759658473043 -2.2291582581133578" fill="#ff1302" stroke="none" /><path d="M 114.0293411484842 115.62618273729858 l 7.894723148974135 8.793312906185902 a32.81731803181431,32.81731803181431 0 0,0 -0.42358976236284757,0.37376871534804573 l -7.7421910337047 -8.927904763306236" fill="#ff8e0d" stroke="none" /><path d="M 113.48314897796784 116.09983520530334 l 3.3546388625724073 4.005676489147729 a26.224848900589564,26.224848900589564 0 0,0 -0.34857803345506966,0.2868559904618277 l -3.2851907005726466 -4.062827598466734" fill="#ff3304" stroke="none" /><path d="M 112.63410532772338 116.77436683061366 l 2.1426072836272025 2.844750745479484 a24.561372316363233,24.561372316363233 0 0,0 -0.3399001877276456,0.2514500330150738 l -2.093322125480993 -2.881210727234327" fill="#ff1b02" stroke="none" /><path d="M 111.7513745106137 117.40417183066458 l 1.2712935773593312 1.8828275660518092 a23.27183340131262,23.27183340131262 0 0,0 -0.33392343859637574,0.22130624681310876 l -1.2386954400229915 -1.9044318339562365" fill="#ff0801" stroke="none" /><line stroke="#e1ed5e" stroke-width="0.3" x1="143.8653032363475" x2="146.44561519142675" y1="172.8068346515853" y2="177.08958963109032" /><path d="M 144.38136562736335 173.6633856474863 a86.0,86.0 0 0,1 -40.68145358897372,12.25698825130547" fill="none" id="id30" stroke="none" /><text fill="#e1ed5e" style="font-size:6.75px; font-family:Arial;" text-anchor="middle"><textPath startOffset="21.466115282336833" xlink:href="#id30">June</textPath></text><path d="M 110.8373102113329 117.98757091392108 l 2.796165875969755 4.64102540208694 a26.418270977789312,26.418270977789312 0 0,0 -0.3915340342936416,0.23132520880602386 l -2.7158639706477317 -4.688469183186713" fill="#ff3605" stroke="none" /><path d="M 110.5260780823613 118.17145234162733 l 2.966526230888915 5.121194200061703 a26.91835347992139,26.91835347992139 0 0,0 -0.4029436956602057,0.22880194658033878 l -2.87793376830751 -5.17149931243667" fill="#ff3d05" stroke="none" /><path d="M 110.21172684928248 118.3499491758327 l 7.1606284111189185 12.867281836890124 a35.72554043531462,35.72554043531462 0 0,0 -0.5399272175158594,0.2944113687269292 l -6.93807838173441 -12.988633857376822" fill="#ffb510" stroke="none" /><path d="M 109.89434966115114 118.52300852407294 l 2.740858494235785 5.131104821506836 a26.817262412399423,26.817262412399423 0 0,0 -0.4090387200012282,0.21398972594084653 l -2.652128871708061 -5.177523966392399" fill="#ff3b05" stroke="none" /><path d="M 109.2508944713604 118.85261126421891 l 1.5947836820413177 3.250046457791157 a24.620239905076197,24.620239905076197 0 0,0 -0.3820678236123564,0.18341577355733565 l -1.5386031904287285 -3.2770165078480527" fill="#ff1c02" stroke="none" /><path d="M 108.59647513512805 119.15986991738527 l 2.1929474511808813 4.887653048467921 a26.35706737365123,26.35706737365123 0 0,0 -0.4155371468604085,0.18215927367252518 l -2.1084896296627194 -4.9246768754349" fill="#ff3505" stroke="none" /><path d="M 108.2653958097858 119.30500536409082 l 2.333015157870998 5.449088122783075 a26.92752234046498,26.92752234046498 0 0,0 -0.4276712964554664,0.1787666366035541 l -2.2388724019180706 -5.488439802406602" fill="#ff3d05" stroke="none" /><path d="M 107.93186726928326 119.44442032107085 l 1.1465899569617266 2.8107854433495754 a24.035652044940488,24.035652044940488 0 0,0 -0.38443185454698703,0.1529733686935247 l -1.0980370263728731 -2.830105656449169" fill="#ff1302" stroke="none" /><path d="M 107.2578585660854 119.70592522655815 l 2.024767343752336 5.497477460308337 a26.85849308465275,26.85849308465275 0 0,0 -0.43521046798423174,0.15605098977236706 l -1.9298373151383696 -5.531515991120664" fill="#ff3c05" stroke="none" /><path d="M 106.91757812671514 119.82793768551818 l 1.9114846615373287 5.478911558572225 a26.80277911676369,26.80277911676369 0 0,0 -0.43692393014601094,0.1482283194976333 l -1.8168909984540906 -5.511002864967981" fill="#ff3b05" stroke="none" /><path d="M 106.57524785965236 119.94407469862006 l 1.8237115167852769 5.531690895287751 a26.824562460602912,26.824562460602912 0 0,0 -0.43976782297430594,0.14079976950624554 l -1.7282223487200306 -5.562263511453703" fill="#ff3b05" stroke="none" /><path d="M 106.2309692047433 120.05430185196036 l 1.7535387657399333 5.643744104928751 a26.90988542400534,26.90988542400534 0 0,0 -0.44353260858066207,0.1336327366118863 l -1.6561311827190253 -5.673092210646363" fill="#ff3d05" stroke="none" /><path d="M 105.88484417918355 120.15858648285463 l 12.159952877424903 41.65402757376241 a64.39265452927435,64.39265452927435 0 0,0 -1.0666760720829684,0.30145331270994474 l -11.441145637237328 -41.85716967981088" fill="#34ff5f" stroke="none" /><path d="M 105.18746579009965 120.34920634021253 l 0.7498733873226113 2.9415766590277186 a24.035652044940488,24.035652044940488 0 0,0 -0.4017922237824514,0.09875075304948944 l -0.6991278787969489 -2.9540486703912383" fill="#ff1302" stroke="none" /><path d="M 104.48393922423573 120.51570834832081 l 0.7729969386435518 3.536751716356947 a24.620239905076197,24.620239905076197 0 0,0 -0.41480243333681516,0.0869258829542452 l -0.7120030438773586 -3.5495335800377332" fill="#ff1c02" stroke="none" /><path d="M 104.13013068566511 120.58985236759428 l 4.339382319601316 21.633030072691664 a43.063957692165076,43.063957692165076 0 0,0 -0.7280523631158365,0.1395329681703785 l -3.966362341913775 -21.70452023921051" fill="#edff1a" stroke="none" /><path d="M 101.26447882468166 120.96189622390904 l 0.43626137031681694 7.2321223515812685 a28.24526864177389,28.24526864177389 0 0,0 -0.4855656662165222,0.02509819861471524 l -0.3117076356868152 -7.238560356958185" fill="#ff5007" stroke="none" /><line stroke="#e1ed5e" stroke-width="0.3" x1="102.19456741930631" x2="102.32365962044197" y1="184.97166512339345" y2="189.96999836594603" /><path d="M 102.22038585953345 185.97133177190398 a86.0,86.0 0 0,1 -42.740103519485714,-10.115201625700543" fill="none" id="id31" stroke="none" /><text fill="#e1ed5e" style="font-size:6.75px; font-family:Arial;" text-anchor="middle"><textPath startOffset="22.20632615414155" xlink:href="#id31">July</textPath></text><path d="M 100.18074693466247 120.99922214144158 l 0.5422408039873879 62.99766642432473 a84.0,84.0 0 0,0 -1.4459754772996436,0.0 l 0.5422408039873445 -62.99766642432473" fill="#4dd2ff" stroke="none" /><path d="M 99.81925306533755 120.99922214144158 l -0.049595158707237325 5.761977412110988 a26.762190848752272,26.762190848752272 0 0,0 -0.46061593140593454,-0.00792992098170602 l 0.1487707800058398 -5.760270013850122" fill="#ff3b05" stroke="none" /><path d="M 99.45781275523022 120.99299961872073 l -0.2147328069542164 8.31426002363963 a29.317032518817904,29.317032518817904 0 0,0 -0.5043641523019803,-0.017371321199067362 l 0.35781731093083974 -8.309331904014467" fill="#ff5f08" stroke="none" /><path d="M 99.09653310690486 120.98055641714683 l -0.5338616992984939 12.397483058525829 a33.408972338610994,33.408972338610994 0 0,0 -0.5743351255372511,-0.029686565700701564 l 0.747184893249234 -12.386456686062925" fill="#ff960d" stroke="none" /><path d="M 98.37488393609728 120.93702456842531 l -0.31861771618842455 4.104880322056763 a25.117227186769995,25.117227186769995 0 0,0 -0.43076724256627835,-0.037168410262645765 l 0.38922927649624456 -4.098787659515454" fill="#ff2303" stroke="none" /><path d="M 97.65516085044442 120.86867818915974 l -2.299155694100978 20.46210303852237 a41.59086636508584,41.59086636508584 0 0,0 -0.7107533995220786,-0.08606233846426133 l 2.651036516674446 -20.41949517133276" fill="#ffff18" stroke="none" /><path d="M 96.93821686468263 120.77559828337769 l -1.3190337490960455 8.950246990826336 a30.046920538395938,30.046920538395938 0 0,0 -0.511032496443795,-0.07981276603041607 l 1.4729021091483576 -8.926215917448815" fill="#ff6909" stroke="none" /><path d="M 96.58105272829116 120.7198165907248 l -2.396242261128936 14.521926257353334 a35.71829878749676,35.71829878749676 0 0,0 -0.605767088115981,-0.10532037303491527 l 2.6458583207169664 -14.478527305797412" fill="#ffb510" stroke="none" /><path d="M 96.22490169976321 120.6578951692458 l -0.8847033643098228 4.841227407149907 a25.921400496866774,25.921400496866774 0 0,0 -0.4382350786688124,-0.0839887958351536 l 0.9679060575503302 -4.825281412966285" fill="#ff2f04" stroke="none" /><path d="M 95.16358092515715 120.4354850818985 l -7.494979039238141 31.668788410456283 a53.543614891171345,53.543614891171345 0 0,0 -0.8950623871676294,-0.2199845580061158 l 8.03899471114898 -31.53508259413614" fill="#75ff27" stroke="none" /><path d="M 94.81253420990036 120.34920634021253 l -1.431885974068736 5.616951382617454 a26.79658867588713,26.79658867588713 0 0,0 -0.4459839924891415,-0.11778842590181261 l 1.5283604093693668 -5.59147160741206" fill="#ff3b05" stroke="none" /><path d="M 94.46302465271185 120.25689768951611 l -1.5294382810210134 5.595414976201037 a26.800676702881084,26.800676702881084 0 0,0 -0.44395809993510144,-0.125466993619258 l 1.6255275490607286 -5.568259189243258" fill="#ff3b05" stroke="none" /><path d="M 94.11515582081647 120.15858648285463 l -2.867233162192082 9.821732896685964 a31.231689161630023,31.231689161630023 0 0,0 -0.514765200444928,-0.15509453221072847 l 3.035873337077256 -9.77092299536951" fill="#ff790b" stroke="none" /><path d="M 93.42475214034765 119.94407469862007 l -0.951782304709383 2.8869508476525088 a24.039798472320072,24.039798472320072 0 0,0 -0.39188336338879054,-0.13294811381649133 l 1.0013354010353992 -2.8701397469378946" fill="#ff1302" stroke="none" /><path d="M 93.08242187328487 119.8279376855182 l -3.948533023340891 11.317727866875751 a32.98673755052097,32.98673755052097 0 0,0 -0.5345115022420558,-0.19165680769564872 l 4.142764086212673 -11.248083518140144" fill="#ff910d" stroke="none" /><path d="M 92.06813273071674 119.44442032107085 l -14.792730991490432 36.263350019605475 a60.16446660981127,60.16446660981127 0 0,0 -0.9555507970706675,-0.39942031067300465 l 15.414753248058561 -36.0033446659125" fill="#32ff2f" stroke="none" /><path d="M 91.7346041902142 119.30500536409082 l -1.9666670959766939 4.5934302132585865 a25.99673699432682,25.99673699432682 0 0,0 -0.40985629262770523,-0.17966895412182204 l 2.0454440632621425 -4.558896705842312" fill="#ff3004" stroke="none" /><path d="M 90.42595943632237 118.69057910512821 l -5.594551499948927 10.921763561793695 a33.27126422930031,33.27126422930031 0 0,0 -0.5074804103376034,-0.2654897656832244 l 5.781722812813025 -10.823844377165752" fill="#ff950d" stroke="none" /><line stroke="#e1ed5e" stroke-width="0.3" x1="58.666819895761336" x2="56.23545636021788" y1="174.27360380694188" y2="178.64263932499728" /><path d="M 58.180547188652646 175.14741091055294 a86.0,86.0 0 0,1 -31.652253787137756,-30.449443065178592" fill="none" id="id32" stroke="none" /><text fill="#e1ed5e" style="font-size:6.75px; font-family:Arial;" text-anchor="middle"><textPath startOffset="22.20632615414155" xlink:href="#id32">August</textPath></text><path d="M 89.4739219176387 118.17145234162733 l -1.347013262554981 2.325385306144991 a23.687352145055435,23.687352145055435 0 0,0 -0.3510602398955249,-0.20741257766730992 l 1.386841373478888 -2.301854156183931" fill="#ff0e01" stroke="none" /><path d="M 89.1626897886671 117.98757091392108 l -8.051521936913362 13.36377006665085 a36.60183822166191,36.60183822166191 0 0,0 -0.536863213951643,-0.3297852346104914 l 8.280364350797313 -13.223196365211981" fill="#ffc011" stroke="none" /><path d="M 88.8546689885994 117.79835938074946 l -6.14330116369807 9.810447243229444 a32.57519003300085,32.57519003300085 0 0,0 -0.47267872403976374,-0.30168592570196623 l 6.311261689784757 -9.703246888703672" fill="#ff8b0c" stroke="none" /><path d="M 88.54995079064634 117.60387380957326 l -11.60595948859669 17.84357800919952 a42.28594775482962,42.28594775482962 0 0,0 -0.6067536164900129,-0.40212321174612364 l 11.911387803826665 -17.641156776362077" fill="#f6ff19" stroke="none" /><path d="M 88.24862548938628 117.40417183066458 l -6.797193451287745 10.066866874647992 a33.14675460714153,33.14675460714153 0 0,0 -0.4701206027062666,-0.323353237329891 l 6.969470938616902 -9.948372847953" fill="#ff930d" stroke="none" /><path d="M 87.65650970185807 116.9893568818739 l -5.29931591432725 7.293882615345197 a30.015734732470612,30.015734732470612 0 0,0 -0.41538207796121307,-0.30728973089273437 l 5.424082962707028 -7.201582935712696" fill="#ff6809" stroke="none" /><path d="M 87.36589467227662 116.77436683061367 l -14.803216171323726 19.65430648941741 a45.605425673921914,45.605425673921914 0 0,0 -0.6229945928892269,-0.477685687975189 l 15.139339492706439 -19.396581459614858" fill="#ceff1d" stroke="none" /><path d="M 87.07902340077011 116.55440617244103 l -1.5103658164803004 1.9350866401596665 a23.454743409099336,23.454743409099336 0 0,0 -0.3161280658182141,-0.25115125468657745 l 1.5434513750158727 -1.9088014714679584" fill="#ff0b01" stroke="none" /><path d="M 86.51685102203217 116.09983520530335 l -8.062442137016511 9.627127162235322 a33.557250917720346,33.557250917720346 0 0,0 -0.4396551542205294,-0.3746836605416142 l 8.226962767814097 -9.486919111470755" fill="#ff980e" stroke="none" /><path d="M 85.97065885151581 115.62618273729859 l -1.1872321493614162 1.3223647725981564 a22.77712373465831,22.77712373465831 0 0,0 -0.28948688507759535,-0.26443940585058473 l 1.2098185839058662 -1.3017326001609957" fill="#ff0100" stroke="none" /><path d="M 85.70375840098266 115.38237550388516 l -1.8172723513556759 1.9553366881616476 a23.669423226667654,23.669423226667654 0 0,0 -0.2960528239182513,-0.2799364237002674 l 1.8506610096647442 -1.9237656277154493" fill="#ff0e01" stroke="none" /><path d="M 85.44109423537348 115.13401014063109 l -17.211604903050418 17.8914959235594 a45.82629593236679,45.82629593236679 0 0,0 -0.5637726541222813,-0.5517702004732765 l 17.517027509548495 -17.592575620163554" fill="#ccff1d" stroke="none" /><path d="M 84.9287848128048 114.62390073753433 l -4.197338179729492 4.072760964515855 a26.84850661871037,26.84850661871037 0 0,0 -0.3189774526965207,-0.33444658389725124 l 4.266822183804971 -3.9999072640361044" fill="#ff3c05" stroke="none" /><path d="M 84.67929136418377 114.36230785411682 l -9.485387080095194 8.892020114612112 a34.00156105157774,34.00156105157774 0 0,0 -0.39660973873030886,-0.43044154001702056 l 9.63704322682123 -8.727427319793748" fill="#ff9e0e" stroke="none" /><path d="M 84.43433777217949 114.09645910891817 l -25.67087583233823 23.247867399685962 a55.633180688939156,55.633180688939156 0 0,0 -0.6367115545000709,-0.7153521812136818 l 26.067246236486636 -22.802541048731417" fill="#5fff29" stroke="none" /><path d="M 84.19399662182784 113.82643327865904 l -7.259646538420352 6.350436355640242 a30.64523248915421,30.64523248915421 0 0,0 -0.34389421819114846,-0.4000266679426795 l 7.36788326618228 -6.224532588536032" fill="#ff710a" stroke="none" /><line stroke="#e1ed5e" stroke-width="0.3" x1="26.63291911575756" x2="22.317208475507996" y1="142.92168965132927" y2="145.44649492493687" /><path d="M 25.769776987707644 143.4266507060508 a86.0,86.0 0 0,1 -11.730757126820373,-40.83630448921669" fill="none" id="id33" stroke="none" /><text fill="#e1ed5e" style="font-size:6.75px; font-family:Arial;" text-anchor="middle"><textPath startOffset="21.46611528233685" xlink:href="#id33">September</textPath></text><path d="M 81.87401531095188 110.60418214915194 l -3.822980472400068 2.2365450472037307 a25.42914364640884,25.42914364640884 0 0,0 -0.2177800344933852,-0.37971784687295895 l 3.8609125030458307 -2.1704073544724647" fill="#ff2703" stroke="none" /><path d="M 81.69416730710424 110.29060199501025 l -3.596343704133249 2.02168032000307 a25.12563684230042,25.12563684230042 0 0,0 -0.2086906568024428,-0.3788341603953406 l 3.6306107703872086 -1.9594756412099072" fill="#ff2303" stroke="none" /><path d="M 79.23777060512086 103.15116336523772 l -18.528725003896042 2.8121758182308754 a39.740917349549484,39.740917349549484 0 0,0 -0.09682770236479067,-0.6772127248185209 l 18.57438675727743 -2.492817621431954" fill="#ffe815" stroke="none" /><path d="M 79.1416061653843 102.43462659150553 l -2.8296771331164186 0.33028464455529355 a23.848887611702324,23.848887611702324 0 0,0 -0.044083758516493314,-0.40816085364772714 l 2.834943193133964 -0.28152746902278436" fill="#ff1001" stroke="none" /><path d="M 79.0235259727143 100.99374915477108 l -22.47278521130593 1.0646360908910582 a43.49798935815195,43.49798935815195 0 0,0 -0.028994241727394742,-0.7482125459670247 l 22.487781585884523 -0.6776462979100368" fill="#e8ff1a" stroke="none" /><line stroke="#e1ed5e" stroke-width="0.3" x1="15.007084014347285" x2="10.007500721073583" y1="101.09737516637583" y2="101.16192664675087" /><path d="M 14.007167355692545 101.11028546245083 a86.0,86.0 0 0,1 10.666146001902534,-42.60595125391555" fill="none" id="id34" stroke="none" /><text fill="#e1ed5e" style="font-size:6.75px; font-family:Arial;" text-anchor="middle"><textPath startOffset="22.20632615414155" xlink:href="#id34">October</textPath></text><path d="M 79.00486145842228 99.54816195383935 l -18.76133489549505 -0.40376418025337074 a39.765679113055725,39.765679113055725 0 0,0 0.02061813639817733,-0.6842155700697812 l 18.751605064641225 0.7266498977481463" fill="#ffe915" stroke="none" /><path d="M 79.05617556472873 98.46500227214037 l -15.165032727052113 -1.1114632311250303 a36.20570840594757,36.20570840594757 0 0,0 0.05090439187458931,-0.6211625169664886 l 15.143653851358026 1.3723396652992974" fill="#ffbb11" stroke="none" /><path d="M 79.46518482838121 95.60439243477599 l -2.8970239172463437 -0.6201263630014481 a23.96265156290556,23.96265156290556 0 0,0 0.08980929430071734,-0.4025974565171843 l 2.885920235943589 0.6699019890685916" fill="#ff1202" stroke="none" /><path d="M 79.81627453868168 94.20196356495316 l -2.3397936404438093 -0.6721360139278281 a23.434420074900814,23.434420074900814 0 0,0 0.1147104851574683,-0.38674673031417084 l 2.327877258174634 0.7123121309885381" fill="#ff0a01" stroke="none" /><path d="M 79.91906864156998 93.8553929516997 l -2.5143978301382477 -0.7693859589242873 a23.629477362898143,23.629477362898143 0 0,0 0.12236076593516843,-0.3879170661090448 l 2.5007815804348756 0.8125531914597466" fill="#ff0d01" stroke="none" /><path d="M 80.14247586403 93.16781622104843 l -5.522871599350252 -1.9002003218499381 a26.840622566650598,26.840622566650598 0 0,0 0.15407401712173485,-0.43558799423342814 l 5.4893445014187074 1.9949859425099772" fill="#ff3c05" stroke="none" /><path d="M 81.26839172434947 90.50648371742162 l -1.6507972104695172 -0.8366537440994539 a22.85070822054952,22.85070822054952 0 0,0 0.18083676913647462,-0.3493190787841136 l 1.6361510081729285 0.8649455451439031" fill="#ff0200" stroke="none" /><path d="M 81.6062741919709 89.86733742301443 l -2.18906752925935 -1.2059048212264936 a23.49924450294783,23.49924450294783 0 0,0 0.19822436186181244,-0.352619021283487 l 2.167985526105107 1.243407352444765" fill="#ff0b01" stroke="none" /><line stroke="#e1ed5e" stroke-width="0.3" x1="26.266209847984243" x2="21.928928074336255" y1="57.711370442889674" y2="55.22380399835377" /><path d="M 25.398753493254645 57.213857153982495 a86.0,86.0 0 0,1 29.58750427330803,-30.492523968695096" fill="none" id="id35" stroke="none" /><text fill="#e1ed5e" style="font-size:6.75px; font-family:Arial;" text-anchor="middle"><textPath startOffset="21.46611528233685" xlink:href="#id35">November</textPath></text><path d="M 83.84228863543731 86.58626213691792 l -15.10527932311603 -12.540034452731803 a40.63216563461752,40.63216563461752 0 0,0 0.45138347588521316,-0.5342956617708107 l 14.887185233743692 12.798189064131728" fill="#fff316" stroke="none" /><line stroke="#e1ed5e" stroke-width="0.3" x1="56.762969772571076" x2="54.21961505331055" y1="26.818313649435495" y2="22.513508569990535" /><path d="M 56.25429882871897 25.957352633546506 a86.0,86.0 0 0,1 42.265352541879196,-11.944610805530505" fill="none" id="id36" stroke="none" /><text fill="#e1ed5e" style="font-size:6.75px; font-family:Arial;" text-anchor="middle"><textPath startOffset="22.20632615414155" xlink:href="#id36">December</textPath></text><path d="M 89.94658935756843 81.56283822128135 l -0.8279273870582698 -1.51835349406688 a22.729410619600284,22.729410619600284 0 0,0 0.34511357931198533,-0.18434772202833238 l 0.8016687612179793 1.5323799425969618" fill="#ff0000" stroke="none" /><path d="M 96.40284397218896 79.31037775812273 l -4.00778654715249 -23.051429808876396 a44.39723849605102,44.39723849605102 0 0,0 0.7540570618870354,-0.12442587622158365 l 3.610400279126569 23.117001948037604" fill="#ddff1b" stroke="none" /><path d="M 99.27714615592234 79.0124445844662 l -0.10159729674724229 -2.94980640003637 a23.95155548963625,23.95155548963625 0 0,0 0.4121644856955437,-0.010644992661837242 l 0.05080617585681954 2.951118184840567" fill="#ff1202" stroke="none" /></svg>